<?xml version="1.0" encoding="utf-8" standalone="no"?>
<!DOCTYPE svg PUBLIC "-//W3C//DTD SVG 1.1//EN"
  "http://www.w3.org/Graphics/SVG/1.1/DTD/svg11.dtd">
<svg xmlns:xlink="http://www.w3.org/1999/xlink" width="460.8pt" height="345.6pt" viewBox="0 0 460.8 345.6" xmlns="http://www.w3.org/2000/svg" version="1.1">
 <metadata>
  <rdf:RDF xmlns:dc="http://purl.org/dc/elements/1.1/" xmlns:cc="http://creativecommons.org/ns#" xmlns:rdf="http://www.w3.org/1999/02/22-rdf-syntax-ns#">
   <cc:Work>
    <dc:type rdf:resource="http://purl.org/dc/dcmitype/StillImage"/>
    <dc:date>2025-12-30T09:51:00.379057</dc:date>
    <dc:format>image/svg+xml</dc:format>
    <dc:creator>
     <cc:Agent>
      <dc:title>Matplotlib v3.10.3, https://matplotlib.org/</dc:title>
     </cc:Agent>
    </dc:creator>
   </cc:Work>
  </rdf:RDF>
 </metadata>
 <defs>
  <style type="text/css">*{stroke-linejoin: round; stroke-linecap: butt}</style>
 </defs>
 <g id="figure_1">
  <g id="patch_1">
   <path d="M 0 345.6 
L 460.8 345.6 
L 460.8 0 
L 0 0 
z
" style="fill: #ffffff"/>
  </g>
  <g id="axes_1">
   <g id="patch_2">
    <path d="M 57.6 99.322435 
L 414.72 99.322435 
L 414.72 41.472 
L 57.6 41.472 
z
" style="fill: #ffffff"/>
   </g>
   <g id="matplotlib.axis_1">
    <g id="xtick_1">
     <g id="line2d_1">
      <defs>
       <path id="md8a9dde1b9" d="M 0 0 
L 0 3.5 
" style="stroke: #000000; stroke-width: 0.8"/>
      </defs>
      <g>
       <use xlink:href="#md8a9dde1b9" x="73.832727" y="99.322435" style="stroke: #000000; stroke-width: 0.8"/>
      </g>
     </g>
     <g id="text_1">
      <!-- 0 -->
      <g transform="translate(70.651477 113.920872) scale(0.1 -0.1)">
       <defs>
        <path id="DejaVuSans-30" d="M 2034 4250 
Q 1547 4250 1301 3770 
Q 1056 3291 1056 2328 
Q 1056 1369 1301 889 
Q 1547 409 2034 409 
Q 2525 409 2770 889 
Q 3016 1369 3016 2328 
Q 3016 3291 2770 3770 
Q 2525 4250 2034 4250 
z
M 2034 4750 
Q 2819 4750 3233 4129 
Q 3647 3509 3647 2328 
Q 3647 1150 3233 529 
Q 2819 -91 2034 -91 
Q 1250 -91 836 529 
Q 422 1150 422 2328 
Q 422 3509 836 4129 
Q 1250 4750 2034 4750 
z
" transform="scale(0.015625)"/>
       </defs>
       <use xlink:href="#DejaVuSans-30"/>
      </g>
     </g>
    </g>
    <g id="xtick_2">
     <g id="line2d_2">
      <g>
       <use xlink:href="#md8a9dde1b9" x="119.049238" y="99.322435" style="stroke: #000000; stroke-width: 0.8"/>
      </g>
     </g>
     <g id="text_2">
      <!-- 50 -->
      <g transform="translate(112.686738 113.920872) scale(0.1 -0.1)">
       <defs>
        <path id="DejaVuSans-35" d="M 691 4666 
L 3169 4666 
L 3169 4134 
L 1269 4134 
L 1269 2991 
Q 1406 3038 1543 3061 
Q 1681 3084 1819 3084 
Q 2600 3084 3056 2656 
Q 3513 2228 3513 1497 
Q 3513 744 3044 326 
Q 2575 -91 1722 -91 
Q 1428 -91 1123 -41 
Q 819 9 494 109 
L 494 744 
Q 775 591 1075 516 
Q 1375 441 1709 441 
Q 2250 441 2565 725 
Q 2881 1009 2881 1497 
Q 2881 1984 2565 2268 
Q 2250 2553 1709 2553 
Q 1456 2553 1204 2497 
Q 953 2441 691 2322 
L 691 4666 
z
" transform="scale(0.015625)"/>
       </defs>
       <use xlink:href="#DejaVuSans-35"/>
       <use xlink:href="#DejaVuSans-30" transform="translate(63.623047 0)"/>
      </g>
     </g>
    </g>
    <g id="xtick_3">
     <g id="line2d_3">
      <g>
       <use xlink:href="#md8a9dde1b9" x="164.265748" y="99.322435" style="stroke: #000000; stroke-width: 0.8"/>
      </g>
     </g>
     <g id="text_3">
      <!-- 100 -->
      <g transform="translate(154.721998 113.920872) scale(0.1 -0.1)">
       <defs>
        <path id="DejaVuSans-31" d="M 794 531 
L 1825 531 
L 1825 4091 
L 703 3866 
L 703 4441 
L 1819 4666 
L 2450 4666 
L 2450 531 
L 3481 531 
L 3481 0 
L 794 0 
L 794 531 
z
" transform="scale(0.015625)"/>
       </defs>
       <use xlink:href="#DejaVuSans-31"/>
       <use xlink:href="#DejaVuSans-30" transform="translate(63.623047 0)"/>
       <use xlink:href="#DejaVuSans-30" transform="translate(127.246094 0)"/>
      </g>
     </g>
    </g>
    <g id="xtick_4">
     <g id="line2d_4">
      <g>
       <use xlink:href="#md8a9dde1b9" x="209.482259" y="99.322435" style="stroke: #000000; stroke-width: 0.8"/>
      </g>
     </g>
     <g id="text_4">
      <!-- 150 -->
      <g transform="translate(199.938509 113.920872) scale(0.1 -0.1)">
       <use xlink:href="#DejaVuSans-31"/>
       <use xlink:href="#DejaVuSans-35" transform="translate(63.623047 0)"/>
       <use xlink:href="#DejaVuSans-30" transform="translate(127.246094 0)"/>
      </g>
     </g>
    </g>
    <g id="xtick_5">
     <g id="line2d_5">
      <g>
       <use xlink:href="#md8a9dde1b9" x="254.698769" y="99.322435" style="stroke: #000000; stroke-width: 0.8"/>
      </g>
     </g>
     <g id="text_5">
      <!-- 200 -->
      <g transform="translate(245.155019 113.920872) scale(0.1 -0.1)">
       <defs>
        <path id="DejaVuSans-32" d="M 1228 531 
L 3431 531 
L 3431 0 
L 469 0 
L 469 531 
Q 828 903 1448 1529 
Q 2069 2156 2228 2338 
Q 2531 2678 2651 2914 
Q 2772 3150 2772 3378 
Q 2772 3750 2511 3984 
Q 2250 4219 1831 4219 
Q 1534 4219 1204 4116 
Q 875 4013 500 3803 
L 500 4441 
Q 881 4594 1212 4672 
Q 1544 4750 1819 4750 
Q 2544 4750 2975 4387 
Q 3406 4025 3406 3419 
Q 3406 3131 3298 2873 
Q 3191 2616 2906 2266 
Q 2828 2175 2409 1742 
Q 1991 1309 1228 531 
z
" transform="scale(0.015625)"/>
       </defs>
       <use xlink:href="#DejaVuSans-32"/>
       <use xlink:href="#DejaVuSans-30" transform="translate(63.623047 0)"/>
       <use xlink:href="#DejaVuSans-30" transform="translate(127.246094 0)"/>
      </g>
     </g>
    </g>
    <g id="xtick_6">
     <g id="line2d_6">
      <g>
       <use xlink:href="#md8a9dde1b9" x="299.91528" y="99.322435" style="stroke: #000000; stroke-width: 0.8"/>
      </g>
     </g>
     <g id="text_6">
      <!-- 250 -->
      <g transform="translate(290.37153 113.920872) scale(0.1 -0.1)">
       <use xlink:href="#DejaVuSans-32"/>
       <use xlink:href="#DejaVuSans-35" transform="translate(63.623047 0)"/>
       <use xlink:href="#DejaVuSans-30" transform="translate(127.246094 0)"/>
      </g>
     </g>
    </g>
    <g id="xtick_7">
     <g id="line2d_7">
      <g>
       <use xlink:href="#md8a9dde1b9" x="345.13179" y="99.322435" style="stroke: #000000; stroke-width: 0.8"/>
      </g>
     </g>
     <g id="text_7">
      <!-- 300 -->
      <g transform="translate(335.58804 113.920872) scale(0.1 -0.1)">
       <defs>
        <path id="DejaVuSans-33" d="M 2597 2516 
Q 3050 2419 3304 2112 
Q 3559 1806 3559 1356 
Q 3559 666 3084 287 
Q 2609 -91 1734 -91 
Q 1441 -91 1130 -33 
Q 819 25 488 141 
L 488 750 
Q 750 597 1062 519 
Q 1375 441 1716 441 
Q 2309 441 2620 675 
Q 2931 909 2931 1356 
Q 2931 1769 2642 2001 
Q 2353 2234 1838 2234 
L 1294 2234 
L 1294 2753 
L 1863 2753 
Q 2328 2753 2575 2939 
Q 2822 3125 2822 3475 
Q 2822 3834 2567 4026 
Q 2313 4219 1838 4219 
Q 1578 4219 1281 4162 
Q 984 4106 628 3988 
L 628 4550 
Q 988 4650 1302 4700 
Q 1616 4750 1894 4750 
Q 2613 4750 3031 4423 
Q 3450 4097 3450 3541 
Q 3450 3153 3228 2886 
Q 3006 2619 2597 2516 
z
" transform="scale(0.015625)"/>
       </defs>
       <use xlink:href="#DejaVuSans-33"/>
       <use xlink:href="#DejaVuSans-30" transform="translate(63.623047 0)"/>
       <use xlink:href="#DejaVuSans-30" transform="translate(127.246094 0)"/>
      </g>
     </g>
    </g>
    <g id="xtick_8">
     <g id="line2d_8">
      <g>
       <use xlink:href="#md8a9dde1b9" x="390.348301" y="99.322435" style="stroke: #000000; stroke-width: 0.8"/>
      </g>
     </g>
     <g id="text_8">
      <!-- 350 -->
      <g transform="translate(380.804551 113.920872) scale(0.1 -0.1)">
       <use xlink:href="#DejaVuSans-33"/>
       <use xlink:href="#DejaVuSans-35" transform="translate(63.623047 0)"/>
       <use xlink:href="#DejaVuSans-30" transform="translate(127.246094 0)"/>
      </g>
     </g>
    </g>
   </g>
   <g id="matplotlib.axis_2">
    <g id="ytick_1">
     <g id="line2d_9">
      <defs>
       <path id="m61165ef272" d="M 0 0 
L -3.5 0 
" style="stroke: #000000; stroke-width: 0.8"/>
      </defs>
      <g>
       <use xlink:href="#m61165ef272" x="57.6" y="91.672165" style="stroke: #000000; stroke-width: 0.8"/>
      </g>
     </g>
     <g id="text_9">
      <!-- 0 -->
      <g transform="translate(44.2375 95.471383) scale(0.1 -0.1)">
       <use xlink:href="#DejaVuSans-30"/>
      </g>
     </g>
    </g>
    <g id="ytick_2">
     <g id="line2d_10">
      <g>
       <use xlink:href="#m61165ef272" x="57.6" y="54.749608" style="stroke: #000000; stroke-width: 0.8"/>
      </g>
     </g>
     <g id="text_10">
      <!-- 50 -->
      <g transform="translate(37.875 58.548827) scale(0.1 -0.1)">
       <use xlink:href="#DejaVuSans-35"/>
       <use xlink:href="#DejaVuSans-30" transform="translate(63.623047 0)"/>
      </g>
     </g>
    </g>
   </g>
   <g id="line2d_11">
    <path d="M 73.832727 77.528533 
L 74.737057 79.71444 
L 75.641388 79.012003 
L 76.545718 77.297633 
L 77.450048 78.017032 
L 78.354378 82.420275 
L 79.258709 79.811771 
L 80.163039 81.699664 
L 81.067369 81.886489 
L 81.971699 81.350688 
L 82.876029 81.906583 
L 83.78036 80.062817 
L 85.58902 82.069334 
L 86.49335 81.619724 
L 87.39768 81.874876 
L 88.302011 80.350942 
L 89.206341 83.152642 
L 90.110671 82.755267 
L 91.015001 84.870187 
L 91.919331 87.727602 
L 92.823662 83.236662 
L 93.727992 83.030228 
L 94.632322 85.368497 
L 95.536652 80.787019 
L 96.440983 86.127921 
L 97.345313 83.812776 
L 98.249643 84.191926 
L 99.153973 81.86343 
L 100.058303 82.339582 
L 100.962634 84.778801 
L 101.866964 84.970235 
L 102.771294 87.278626 
L 103.675624 89.159653 
L 104.579954 86.79567 
L 105.484285 85.890562 
L 106.388615 84.005874 
L 107.292945 83.722423 
L 108.197275 85.844817 
L 109.101605 85.697065 
L 110.005936 87.032776 
L 111.814596 89.104969 
L 112.718926 84.354938 
L 113.623257 88.517852 
L 114.527587 88.700747 
L 115.431917 89.894341 
L 116.336247 86.609604 
L 117.240577 89.677457 
L 118.144908 87.117999 
L 119.049238 87.775031 
L 119.953568 85.801622 
L 121.762228 88.935414 
L 122.666559 87.991255 
L 123.570889 88.098063 
L 124.475219 89.251925 
L 125.379549 89.213902 
L 126.283879 90.53049 
L 127.18821 89.717348 
L 128.09254 89.545367 
L 128.99687 88.427735 
L 129.9012 88.62052 
L 130.805531 89.832362 
L 131.709861 87.298043 
L 132.614191 88.807143 
L 133.518521 91.50926 
L 134.422851 89.329135 
L 135.327182 92.062501 
L 137.135842 89.853762 
L 138.040172 90.20218 
L 138.944502 87.915072 
L 139.848833 90.600661 
L 140.753163 87.579758 
L 141.657493 88.991307 
L 142.561823 89.565115 
L 143.466153 89.877999 
L 145.274814 90.998945 
L 146.179144 93.602993 
L 147.083474 90.905909 
L 147.987805 91.367045 
L 148.892135 93.659943 
L 149.796465 88.232825 
L 150.700795 86.644461 
L 151.605125 86.974755 
L 153.413786 90.366704 
L 154.318116 88.062441 
L 155.222446 91.363015 
L 156.126776 90.133068 
L 157.031107 92.521576 
L 157.935437 91.762789 
L 158.839767 92.440016 
L 159.744097 91.133233 
L 160.648427 91.03562 
L 161.552758 87.261834 
L 162.457088 88.857307 
L 163.361418 88.142384 
L 164.265748 86.297678 
L 165.170079 91.994266 
L 166.074409 93.157906 
L 166.978739 91.150725 
L 167.883069 95.29609 
L 168.787399 91.090825 
L 169.69173 94.276087 
L 170.59606 93.853729 
L 171.50039 88.618755 
L 172.40472 87.955026 
L 173.30905 86.402914 
L 174.213381 87.45702 
L 175.117711 90.431781 
L 176.022041 87.354099 
L 176.926371 91.978627 
L 177.830701 91.828535 
L 178.735032 92.686152 
L 179.639362 94.733798 
L 181.448022 91.748166 
L 182.352352 91.09776 
L 183.256683 91.794847 
L 184.161013 88.624346 
L 185.065343 86.682619 
L 185.969673 90.053896 
L 186.874004 90.35472 
L 187.778334 92.314105 
L 188.682664 90.501084 
L 189.586994 93.401213 
L 190.491324 94.233908 
L 191.395655 95.562036 
L 192.299985 92.461447 
L 193.204315 92.631904 
L 194.108645 89.940993 
L 195.012975 89.694921 
L 195.917306 87.276264 
L 196.821636 87.832098 
L 197.725966 90.187335 
L 198.630296 90.962503 
L 199.534626 94.852518 
L 200.438957 96.69287 
L 201.343287 94.304903 
L 202.247617 94.239641 
L 203.151947 92.255002 
L 204.056278 87.885912 
L 204.960608 88.19729 
L 205.864938 89.582339 
L 206.769268 86.04662 
L 207.673598 90.070038 
L 208.577929 90.094712 
L 209.482259 91.311419 
L 210.386589 90.500967 
L 211.290919 95.473986 
L 212.195249 96.079889 
L 213.09958 94.479388 
L 214.00391 93.895117 
L 214.90824 89.298582 
L 215.81257 90.578664 
L 216.7169 89.194565 
L 217.621231 87.551342 
L 218.525561 88.092348 
L 219.429891 85.883891 
L 222.142882 95.854858 
L 223.047212 93.305082 
L 223.951542 95.446712 
L 224.855872 94.706368 
L 225.760203 88.552165 
L 226.664533 87.694459 
L 227.568863 85.192851 
L 228.473193 85.429701 
L 229.377523 85.108904 
L 230.281854 88.803074 
L 231.186184 91.426619 
L 232.090514 90.973204 
L 232.994844 94.689846 
L 233.899174 95.050652 
L 234.803505 94.065103 
L 235.707835 91.696072 
L 236.612165 89.961164 
L 237.516495 89.15939 
L 238.420826 86.343759 
L 239.325156 87.967212 
L 240.229486 84.255837 
L 241.133816 89.102932 
L 242.038146 90.555454 
L 242.942477 91.058022 
L 243.846807 93.841157 
L 244.751137 91.020829 
L 245.655467 94.511909 
L 246.559797 90.4118 
L 247.464128 88.415274 
L 248.368458 87.607375 
L 249.272788 83.248024 
L 250.177118 83.507179 
L 251.081448 82.631593 
L 251.985779 84.203218 
L 252.890109 84.542071 
L 253.794439 88.103681 
L 254.698769 92.327072 
L 255.6031 92.708033 
L 256.50743 89.975882 
L 257.41176 88.710094 
L 258.31609 86.11808 
L 259.22042 86.811122 
L 260.124751 82.471761 
L 261.029081 82.701506 
L 261.933411 81.737566 
L 262.837741 84.034341 
L 263.742071 84.99261 
L 264.646402 88.338966 
L 265.550732 89.440755 
L 266.455062 91.885458 
L 267.359392 91.779639 
L 268.263722 88.94243 
L 270.072383 82.191213 
L 270.976713 77.301362 
L 271.881043 79.818927 
L 272.785374 81.729686 
L 273.689704 82.657619 
L 274.594034 85.408764 
L 275.498364 86.613556 
L 276.402694 91.485275 
L 277.307025 89.732605 
L 278.211355 88.725778 
L 279.115685 86.440217 
L 280.020015 84.720114 
L 280.924345 81.218043 
L 281.828676 80.730973 
L 282.733006 78.417439 
L 283.637336 79.07379 
L 284.541666 79.576754 
L 285.445996 84.606195 
L 286.350327 84.47542 
L 287.254657 85.397371 
L 288.158987 91.299963 
L 289.063317 86.686845 
L 289.967648 84.017024 
L 290.871978 82.847581 
L 291.776308 79.356186 
L 292.680638 76.600985 
L 293.584968 75.848325 
L 294.489299 76.469932 
L 295.393629 80.49842 
L 296.297959 79.158621 
L 297.202289 82.126524 
L 298.106619 86.988075 
L 299.01095 88.61265 
L 299.91528 84.693616 
L 300.81961 83.888084 
L 301.72394 79.552036 
L 302.62827 76.931196 
L 303.532601 72.947683 
L 304.436931 71.88943 
L 306.245591 77.685453 
L 307.149921 80.947548 
L 308.054252 80.698713 
L 308.958582 85.512206 
L 309.862912 85.186816 
L 310.767242 84.277992 
L 311.671573 80.923616 
L 312.575903 80.264246 
L 313.480233 73.658223 
L 314.384563 70.546894 
L 315.288893 70.07923 
L 316.193224 71.317704 
L 317.097554 72.905069 
L 318.001884 75.556877 
L 318.906214 83.361527 
L 319.810544 78.624574 
L 320.714875 81.640907 
L 321.619205 82.082281 
L 322.523535 79.018982 
L 323.427865 74.105532 
L 324.332195 71.373281 
L 325.236526 71.45869 
L 326.140856 64.242408 
L 327.045186 68.125305 
L 327.949516 68.73611 
L 328.853847 74.492173 
L 329.758177 74.45142 
L 330.662507 78.634579 
L 331.566837 78.883899 
L 332.471167 80.171243 
L 333.375498 74.035768 
L 334.279828 71.033463 
L 335.184158 66.331211 
L 336.088488 66.313455 
L 336.992818 64.87086 
L 337.897149 61.450205 
L 338.801479 68.789557 
L 339.705809 70.782046 
L 340.610139 72.282568 
L 341.514469 76.24469 
L 342.4188 76.275527 
L 343.32313 76.513548 
L 344.22746 72.44823 
L 345.13179 70.986711 
L 346.036121 62.644443 
L 347.844781 61.82128 
L 348.749111 60.546826 
L 349.653441 64.672993 
L 350.557772 69.450337 
L 351.462102 72.979088 
L 352.366432 72.483252 
L 353.270762 74.512884 
L 354.175092 73.204486 
L 355.079423 68.360626 
L 355.983753 67.513479 
L 356.888083 62.799234 
L 357.792413 59.168766 
L 358.696743 57.120994 
L 359.601074 58.058762 
L 361.409734 64.256615 
L 363.218395 71.476865 
L 364.122725 72.405964 
L 365.027055 69.472335 
L 365.931385 68.01305 
L 366.835715 64.138062 
L 367.740046 58.595401 
L 368.644376 55.121437 
L 369.548706 50.158328 
L 370.453036 55.290048 
L 371.357366 55.498505 
L 372.261697 59.535232 
L 373.166027 66.164997 
L 374.070357 65.96558 
L 374.974687 69.669099 
L 375.879017 70.463179 
L 376.783348 62.334014 
L 377.687678 61.388861 
L 378.592008 53.669597 
L 379.496338 51.974363 
L 380.400669 47.058565 
L 381.304999 48.711313 
L 382.209329 53.691732 
L 384.017989 62.592566 
L 384.92232 64.239643 
L 385.82665 64.837376 
L 386.73098 63.519858 
L 387.63531 59.317612 
L 388.53964 54.095309 
L 389.443971 49.807911 
L 390.348301 47.955606 
L 391.252631 47.438634 
L 392.156961 44.101565 
L 393.061291 49.958216 
L 394.869952 57.747015 
L 395.774282 62.578648 
L 396.678612 61.419261 
L 397.582943 59.922371 
L 398.487273 54.739725 
L 398.487273 54.739725 
" clip-path="url(#pd6cfe371a6)" style="fill: none; stroke: #1f77b4; stroke-width: 1.5; stroke-linecap: square"/>
   </g>
   <g id="patch_3">
    <path d="M 57.6 99.322435 
L 57.6 41.472 
" style="fill: none; stroke: #000000; stroke-width: 0.8; stroke-linejoin: miter; stroke-linecap: square"/>
   </g>
   <g id="patch_4">
    <path d="M 414.72 99.322435 
L 414.72 41.472 
" style="fill: none; stroke: #000000; stroke-width: 0.8; stroke-linejoin: miter; stroke-linecap: square"/>
   </g>
   <g id="patch_5">
    <path d="M 57.6 99.322435 
L 414.72 99.322435 
" style="fill: none; stroke: #000000; stroke-width: 0.8; stroke-linejoin: miter; stroke-linecap: square"/>
   </g>
   <g id="patch_6">
    <path d="M 57.6 41.472 
L 414.72 41.472 
" style="fill: none; stroke: #000000; stroke-width: 0.8; stroke-linejoin: miter; stroke-linecap: square"/>
   </g>
  </g>
  <g id="axes_2">
   <g id="patch_7">
    <path d="M 57.6 168.742957 
L 414.72 168.742957 
L 414.72 110.892522 
L 57.6 110.892522 
z
" style="fill: #ffffff"/>
   </g>
   <g id="matplotlib.axis_3">
    <g id="xtick_9">
     <g id="line2d_12">
      <g>
       <use xlink:href="#md8a9dde1b9" x="73.832727" y="168.742957" style="stroke: #000000; stroke-width: 0.8"/>
      </g>
     </g>
     <g id="text_11">
      <!-- 0 -->
      <g transform="translate(70.651477 183.341394) scale(0.1 -0.1)">
       <use xlink:href="#DejaVuSans-30"/>
      </g>
     </g>
    </g>
    <g id="xtick_10">
     <g id="line2d_13">
      <g>
       <use xlink:href="#md8a9dde1b9" x="119.049238" y="168.742957" style="stroke: #000000; stroke-width: 0.8"/>
      </g>
     </g>
     <g id="text_12">
      <!-- 50 -->
      <g transform="translate(112.686738 183.341394) scale(0.1 -0.1)">
       <use xlink:href="#DejaVuSans-35"/>
       <use xlink:href="#DejaVuSans-30" transform="translate(63.623047 0)"/>
      </g>
     </g>
    </g>
    <g id="xtick_11">
     <g id="line2d_14">
      <g>
       <use xlink:href="#md8a9dde1b9" x="164.265748" y="168.742957" style="stroke: #000000; stroke-width: 0.8"/>
      </g>
     </g>
     <g id="text_13">
      <!-- 100 -->
      <g transform="translate(154.721998 183.341394) scale(0.1 -0.1)">
       <use xlink:href="#DejaVuSans-31"/>
       <use xlink:href="#DejaVuSans-30" transform="translate(63.623047 0)"/>
       <use xlink:href="#DejaVuSans-30" transform="translate(127.246094 0)"/>
      </g>
     </g>
    </g>
    <g id="xtick_12">
     <g id="line2d_15">
      <g>
       <use xlink:href="#md8a9dde1b9" x="209.482259" y="168.742957" style="stroke: #000000; stroke-width: 0.8"/>
      </g>
     </g>
     <g id="text_14">
      <!-- 150 -->
      <g transform="translate(199.938509 183.341394) scale(0.1 -0.1)">
       <use xlink:href="#DejaVuSans-31"/>
       <use xlink:href="#DejaVuSans-35" transform="translate(63.623047 0)"/>
       <use xlink:href="#DejaVuSans-30" transform="translate(127.246094 0)"/>
      </g>
     </g>
    </g>
    <g id="xtick_13">
     <g id="line2d_16">
      <g>
       <use xlink:href="#md8a9dde1b9" x="254.698769" y="168.742957" style="stroke: #000000; stroke-width: 0.8"/>
      </g>
     </g>
     <g id="text_15">
      <!-- 200 -->
      <g transform="translate(245.155019 183.341394) scale(0.1 -0.1)">
       <use xlink:href="#DejaVuSans-32"/>
       <use xlink:href="#DejaVuSans-30" transform="translate(63.623047 0)"/>
       <use xlink:href="#DejaVuSans-30" transform="translate(127.246094 0)"/>
      </g>
     </g>
    </g>
    <g id="xtick_14">
     <g id="line2d_17">
      <g>
       <use xlink:href="#md8a9dde1b9" x="299.91528" y="168.742957" style="stroke: #000000; stroke-width: 0.8"/>
      </g>
     </g>
     <g id="text_16">
      <!-- 250 -->
      <g transform="translate(290.37153 183.341394) scale(0.1 -0.1)">
       <use xlink:href="#DejaVuSans-32"/>
       <use xlink:href="#DejaVuSans-35" transform="translate(63.623047 0)"/>
       <use xlink:href="#DejaVuSans-30" transform="translate(127.246094 0)"/>
      </g>
     </g>
    </g>
    <g id="xtick_15">
     <g id="line2d_18">
      <g>
       <use xlink:href="#md8a9dde1b9" x="345.13179" y="168.742957" style="stroke: #000000; stroke-width: 0.8"/>
      </g>
     </g>
     <g id="text_17">
      <!-- 300 -->
      <g transform="translate(335.58804 183.341394) scale(0.1 -0.1)">
       <use xlink:href="#DejaVuSans-33"/>
       <use xlink:href="#DejaVuSans-30" transform="translate(63.623047 0)"/>
       <use xlink:href="#DejaVuSans-30" transform="translate(127.246094 0)"/>
      </g>
     </g>
    </g>
    <g id="xtick_16">
     <g id="line2d_19">
      <g>
       <use xlink:href="#md8a9dde1b9" x="390.348301" y="168.742957" style="stroke: #000000; stroke-width: 0.8"/>
      </g>
     </g>
     <g id="text_18">
      <!-- 350 -->
      <g transform="translate(380.804551 183.341394) scale(0.1 -0.1)">
       <use xlink:href="#DejaVuSans-33"/>
       <use xlink:href="#DejaVuSans-35" transform="translate(63.623047 0)"/>
       <use xlink:href="#DejaVuSans-30" transform="translate(127.246094 0)"/>
      </g>
     </g>
    </g>
   </g>
   <g id="matplotlib.axis_4">
    <g id="ytick_3">
     <g id="line2d_20">
      <g>
       <use xlink:href="#m61165ef272" x="57.6" y="166.113391" style="stroke: #000000; stroke-width: 0.8"/>
      </g>
     </g>
     <g id="text_19">
      <!-- 0 -->
      <g transform="translate(44.2375 169.91261) scale(0.1 -0.1)">
       <use xlink:href="#DejaVuSans-30"/>
      </g>
     </g>
    </g>
    <g id="ytick_4">
     <g id="line2d_21">
      <g>
       <use xlink:href="#m61165ef272" x="57.6" y="118.090066" style="stroke: #000000; stroke-width: 0.8"/>
      </g>
     </g>
     <g id="text_20">
      <!-- 50 -->
      <g transform="translate(37.875 121.889284) scale(0.1 -0.1)">
       <use xlink:href="#DejaVuSans-35"/>
       <use xlink:href="#DejaVuSans-30" transform="translate(63.623047 0)"/>
      </g>
     </g>
    </g>
   </g>
   <g id="line2d_22">
    <path d="M 73.832727 151.106102 
L 83.78036 153.631169 
L 93.727992 155.923802 
L 103.675624 157.984003 
L 113.623257 159.811771 
L 123.570889 161.407105 
L 133.518521 162.770007 
L 143.466153 163.900476 
L 153.413786 164.798513 
L 163.361418 165.464116 
L 173.30905 165.897286 
L 183.256683 166.098024 
L 193.204315 166.066328 
L 203.151947 165.8022 
L 213.09958 165.305639 
L 223.047212 164.576645 
L 232.994844 163.615218 
L 242.942477 162.421358 
L 252.890109 160.995065 
L 262.837741 159.33634 
L 272.785374 157.445181 
L 282.733006 155.32159 
L 292.680638 152.965565 
L 302.62827 150.377108 
L 312.575903 147.556218 
L 322.523535 144.502895 
L 332.471167 141.217139 
L 342.4188 137.69895 
L 352.366432 133.948328 
L 362.314064 129.965274 
L 372.261697 125.749786 
L 382.209329 121.301866 
L 392.156961 116.621512 
L 398.487273 113.522087 
L 398.487273 113.522087 
" clip-path="url(#p10221db0f4)" style="fill: none; stroke: #1f77b4; stroke-width: 1.5; stroke-linecap: square"/>
   </g>
   <g id="patch_8">
    <path d="M 57.6 168.742957 
L 57.6 110.892522 
" style="fill: none; stroke: #000000; stroke-width: 0.8; stroke-linejoin: miter; stroke-linecap: square"/>
   </g>
   <g id="patch_9">
    <path d="M 414.72 168.742957 
L 414.72 110.892522 
" style="fill: none; stroke: #000000; stroke-width: 0.8; stroke-linejoin: miter; stroke-linecap: square"/>
   </g>
   <g id="patch_10">
    <path d="M 57.6 168.742957 
L 414.72 168.742957 
" style="fill: none; stroke: #000000; stroke-width: 0.8; stroke-linejoin: miter; stroke-linecap: square"/>
   </g>
   <g id="patch_11">
    <path d="M 57.6 110.892522 
L 414.72 110.892522 
" style="fill: none; stroke: #000000; stroke-width: 0.8; stroke-linejoin: miter; stroke-linecap: square"/>
   </g>
  </g>
  <g id="axes_3">
   <g id="patch_12">
    <path d="M 57.6 238.163478 
L 414.72 238.163478 
L 414.72 180.313043 
L 57.6 180.313043 
z
" style="fill: #ffffff"/>
   </g>
   <g id="matplotlib.axis_5">
    <g id="xtick_17">
     <g id="line2d_23">
      <g>
       <use xlink:href="#md8a9dde1b9" x="73.832727" y="238.163478" style="stroke: #000000; stroke-width: 0.8"/>
      </g>
     </g>
     <g id="text_21">
      <!-- 0 -->
      <g transform="translate(70.651477 252.761916) scale(0.1 -0.1)">
       <use xlink:href="#DejaVuSans-30"/>
      </g>
     </g>
    </g>
    <g id="xtick_18">
     <g id="line2d_24">
      <g>
       <use xlink:href="#md8a9dde1b9" x="119.049238" y="238.163478" style="stroke: #000000; stroke-width: 0.8"/>
      </g>
     </g>
     <g id="text_22">
      <!-- 50 -->
      <g transform="translate(112.686738 252.761916) scale(0.1 -0.1)">
       <use xlink:href="#DejaVuSans-35"/>
       <use xlink:href="#DejaVuSans-30" transform="translate(63.623047 0)"/>
      </g>
     </g>
    </g>
    <g id="xtick_19">
     <g id="line2d_25">
      <g>
       <use xlink:href="#md8a9dde1b9" x="164.265748" y="238.163478" style="stroke: #000000; stroke-width: 0.8"/>
      </g>
     </g>
     <g id="text_23">
      <!-- 100 -->
      <g transform="translate(154.721998 252.761916) scale(0.1 -0.1)">
       <use xlink:href="#DejaVuSans-31"/>
       <use xlink:href="#DejaVuSans-30" transform="translate(63.623047 0)"/>
       <use xlink:href="#DejaVuSans-30" transform="translate(127.246094 0)"/>
      </g>
     </g>
    </g>
    <g id="xtick_20">
     <g id="line2d_26">
      <g>
       <use xlink:href="#md8a9dde1b9" x="209.482259" y="238.163478" style="stroke: #000000; stroke-width: 0.8"/>
      </g>
     </g>
     <g id="text_24">
      <!-- 150 -->
      <g transform="translate(199.938509 252.761916) scale(0.1 -0.1)">
       <use xlink:href="#DejaVuSans-31"/>
       <use xlink:href="#DejaVuSans-35" transform="translate(63.623047 0)"/>
       <use xlink:href="#DejaVuSans-30" transform="translate(127.246094 0)"/>
      </g>
     </g>
    </g>
    <g id="xtick_21">
     <g id="line2d_27">
      <g>
       <use xlink:href="#md8a9dde1b9" x="254.698769" y="238.163478" style="stroke: #000000; stroke-width: 0.8"/>
      </g>
     </g>
     <g id="text_25">
      <!-- 200 -->
      <g transform="translate(245.155019 252.761916) scale(0.1 -0.1)">
       <use xlink:href="#DejaVuSans-32"/>
       <use xlink:href="#DejaVuSans-30" transform="translate(63.623047 0)"/>
       <use xlink:href="#DejaVuSans-30" transform="translate(127.246094 0)"/>
      </g>
     </g>
    </g>
    <g id="xtick_22">
     <g id="line2d_28">
      <g>
       <use xlink:href="#md8a9dde1b9" x="299.91528" y="238.163478" style="stroke: #000000; stroke-width: 0.8"/>
      </g>
     </g>
     <g id="text_26">
      <!-- 250 -->
      <g transform="translate(290.37153 252.761916) scale(0.1 -0.1)">
       <use xlink:href="#DejaVuSans-32"/>
       <use xlink:href="#DejaVuSans-35" transform="translate(63.623047 0)"/>
       <use xlink:href="#DejaVuSans-30" transform="translate(127.246094 0)"/>
      </g>
     </g>
    </g>
    <g id="xtick_23">
     <g id="line2d_29">
      <g>
       <use xlink:href="#md8a9dde1b9" x="345.13179" y="238.163478" style="stroke: #000000; stroke-width: 0.8"/>
      </g>
     </g>
     <g id="text_27">
      <!-- 300 -->
      <g transform="translate(335.58804 252.761916) scale(0.1 -0.1)">
       <use xlink:href="#DejaVuSans-33"/>
       <use xlink:href="#DejaVuSans-30" transform="translate(63.623047 0)"/>
       <use xlink:href="#DejaVuSans-30" transform="translate(127.246094 0)"/>
      </g>
     </g>
    </g>
    <g id="xtick_24">
     <g id="line2d_30">
      <g>
       <use xlink:href="#md8a9dde1b9" x="390.348301" y="238.163478" style="stroke: #000000; stroke-width: 0.8"/>
      </g>
     </g>
     <g id="text_28">
      <!-- 350 -->
      <g transform="translate(380.804551 252.761916) scale(0.1 -0.1)">
       <use xlink:href="#DejaVuSans-33"/>
       <use xlink:href="#DejaVuSans-35" transform="translate(63.623047 0)"/>
       <use xlink:href="#DejaVuSans-30" transform="translate(127.246094 0)"/>
      </g>
     </g>
    </g>
   </g>
   <g id="matplotlib.axis_6">
    <g id="ytick_5">
     <g id="line2d_31">
      <g>
       <use xlink:href="#m61165ef272" x="57.6" y="231.299867" style="stroke: #000000; stroke-width: 0.8"/>
      </g>
     </g>
     <g id="text_29">
      <!-- −10 -->
      <g transform="translate(29.495313 235.099086) scale(0.1 -0.1)">
       <defs>
        <path id="DejaVuSans-2212" d="M 678 2272 
L 4684 2272 
L 4684 1741 
L 678 1741 
L 678 2272 
z
" transform="scale(0.015625)"/>
       </defs>
       <use xlink:href="#DejaVuSans-2212"/>
       <use xlink:href="#DejaVuSans-31" transform="translate(83.789062 0)"/>
       <use xlink:href="#DejaVuSans-30" transform="translate(147.412109 0)"/>
      </g>
     </g>
    </g>
    <g id="ytick_6">
     <g id="line2d_32">
      <g>
       <use xlink:href="#m61165ef272" x="57.6" y="209.015416" style="stroke: #000000; stroke-width: 0.8"/>
      </g>
     </g>
     <g id="text_30">
      <!-- 0 -->
      <g transform="translate(44.2375 212.814635) scale(0.1 -0.1)">
       <use xlink:href="#DejaVuSans-30"/>
      </g>
     </g>
    </g>
    <g id="ytick_7">
     <g id="line2d_33">
      <g>
       <use xlink:href="#m61165ef272" x="57.6" y="186.730965" style="stroke: #000000; stroke-width: 0.8"/>
      </g>
     </g>
     <g id="text_31">
      <!-- 10 -->
      <g transform="translate(37.875 190.530184) scale(0.1 -0.1)">
       <use xlink:href="#DejaVuSans-31"/>
       <use xlink:href="#DejaVuSans-30" transform="translate(63.623047 0)"/>
      </g>
     </g>
    </g>
   </g>
   <g id="line2d_34">
    <path d="M 73.832727 209.015416 
L 75.641388 208.886757 
L 77.450048 208.758098 
L 78.354378 208.829713 
L 80.163039 209.275402 
L 81.971699 209.68395 
L 82.876029 209.658713 
L 83.78036 209.423965 
L 87.39768 207.901194 
L 88.302011 207.986142 
L 89.206341 208.384024 
L 91.919331 210.30201 
L 92.823662 210.575328 
L 93.727992 210.430669 
L 94.632322 209.869654 
L 97.345313 207.342845 
L 98.249643 207.009816 
L 99.153973 207.214186 
L 100.058303 207.938335 
L 102.771294 211.073966 
L 103.675624 211.466706 
L 104.579954 211.202625 
L 105.484285 210.315343 
L 108.197275 206.570889 
L 109.101605 206.118438 
L 110.005936 206.44223 
L 110.910266 207.492646 
L 113.623257 211.845922 
L 114.527587 212.358084 
L 115.431917 211.974581 
L 116.336247 210.761032 
L 118.144908 207.19552 
L 119.049238 205.798933 
L 119.953568 205.22706 
L 120.857898 205.670274 
L 121.762228 207.046957 
L 123.570889 211.058158 
L 124.475219 212.617878 
L 125.379549 213.249462 
L 126.283879 212.746537 
L 127.18821 211.206721 
L 128.99687 206.749831 
L 129.9012 205.026977 
L 130.805531 204.335682 
L 131.709861 204.898318 
L 132.614191 206.601268 
L 134.422851 211.503847 
L 135.327182 213.389834 
L 136.231512 214.14084 
L 137.135842 213.518493 
L 138.040172 211.65241 
L 139.848833 206.304141 
L 140.753163 204.255021 
L 141.657493 203.444304 
L 142.561823 204.126362 
L 143.466153 206.155578 
L 145.274814 211.949536 
L 146.179144 214.16179 
L 147.083474 215.032218 
L 147.987805 214.290449 
L 148.892135 212.098099 
L 150.700795 205.858452 
L 151.605125 203.483065 
L 152.509456 202.552926 
L 153.413786 203.354405 
L 154.318116 205.709889 
L 156.126776 212.395225 
L 157.031107 214.933746 
L 157.935437 215.923596 
L 158.839767 215.062405 
L 159.744097 212.543788 
L 161.552758 205.412763 
L 162.457088 202.711109 
L 163.361418 201.661548 
L 164.265748 202.582449 
L 165.170079 205.2642 
L 166.978739 212.840914 
L 167.883069 215.705702 
L 168.787399 216.814974 
L 169.69173 215.834361 
L 170.59606 212.989477 
L 172.40472 204.967074 
L 173.30905 201.939153 
L 174.213381 200.770169 
L 175.117711 201.810493 
L 176.022041 204.818511 
L 177.830701 213.286603 
L 178.735032 216.477658 
L 179.639362 217.706352 
L 180.543692 216.606317 
L 181.448022 213.435166 
L 183.256683 204.521385 
L 184.161013 201.167197 
L 185.065343 199.878791 
L 185.969673 201.038537 
L 186.874004 204.372822 
L 188.682664 213.732292 
L 189.586994 217.249614 
L 190.491324 218.59773 
L 191.395655 217.378273 
L 192.299985 213.880855 
L 194.108645 204.075696 
L 195.012975 200.395241 
L 195.917306 198.987413 
L 196.821636 200.266581 
L 197.725966 203.927133 
L 199.534626 214.177981 
L 200.438957 218.02157 
L 201.343287 219.489108 
L 202.247617 218.150229 
L 203.151947 214.326544 
L 204.960608 203.630007 
L 205.864938 199.623285 
L 206.769268 198.096035 
L 207.673598 199.494625 
L 208.577929 203.481444 
L 210.386589 214.62367 
L 211.290919 218.793526 
L 212.195249 220.380486 
L 213.09958 218.922185 
L 214.00391 214.772233 
L 215.81257 203.184318 
L 216.7169 198.851329 
L 217.621231 197.204657 
L 218.525561 198.722669 
L 219.429891 203.035755 
L 221.238552 215.069359 
L 222.142882 219.565482 
L 223.047212 221.271864 
L 223.951542 219.694141 
L 224.855872 215.217922 
L 226.664533 202.738629 
L 227.568863 198.079373 
L 228.473193 196.313279 
L 229.377523 197.950713 
L 230.281854 202.590066 
L 232.090514 215.515048 
L 232.994844 220.337438 
L 233.899174 222.163242 
L 234.803505 220.466097 
L 235.707835 215.663611 
L 237.516495 202.29294 
L 238.420826 197.307417 
L 239.325156 195.421901 
L 240.229486 197.178757 
L 241.133816 202.144377 
L 242.942477 215.960737 
L 243.846807 221.109394 
L 244.751137 223.05462 
L 245.655467 221.238053 
L 246.559797 216.1093 
L 248.368458 201.847251 
L 249.272788 196.535461 
L 250.177118 194.530523 
L 251.081448 196.406801 
L 251.985779 201.698688 
L 253.794439 216.406426 
L 254.698769 221.88135 
L 255.6031 223.945999 
L 256.50743 222.010009 
L 257.41176 216.554989 
L 259.22042 201.401562 
L 260.124751 195.763505 
L 261.029081 193.639145 
L 261.933411 195.634845 
L 262.837741 201.252999 
L 264.646402 216.852115 
L 265.550732 222.653306 
L 266.455062 224.837377 
L 267.359392 222.781966 
L 268.263722 217.000678 
L 270.072383 200.955873 
L 270.976713 194.991549 
L 271.881043 192.747767 
L 272.785374 194.862889 
L 273.689704 200.80731 
L 275.498364 217.297804 
L 276.402694 223.425262 
L 277.307025 225.728755 
L 278.211355 223.553922 
L 279.115685 217.446367 
L 280.924345 200.510184 
L 281.828676 194.219593 
L 282.733006 191.856389 
L 283.637336 194.090933 
L 284.541666 200.361621 
L 286.350327 217.743493 
L 287.254657 224.197218 
L 288.158987 226.620133 
L 289.063317 224.325878 
L 289.967648 217.892056 
L 291.776308 200.064495 
L 292.680638 193.447636 
L 293.584968 190.965011 
L 294.489299 193.318977 
L 295.393629 199.915932 
L 297.202289 218.189182 
L 298.106619 224.969174 
L 299.01095 227.511511 
L 299.91528 225.097834 
L 300.81961 218.337745 
L 302.62827 199.618806 
L 303.532601 192.67568 
L 304.436931 190.073633 
L 305.341261 192.547021 
L 306.245591 199.470243 
L 308.054252 218.634871 
L 308.958582 225.74113 
L 309.862912 228.402889 
L 310.767242 225.86979 
L 311.671573 218.783434 
L 313.480233 199.173117 
L 314.384563 191.903724 
L 315.288893 189.182255 
L 316.193224 191.775065 
L 317.097554 199.024554 
L 318.906214 219.08056 
L 319.810544 226.513086 
L 320.714875 229.294267 
L 321.619205 226.641746 
L 322.523535 219.229123 
L 324.332195 198.727428 
L 325.236526 191.131768 
L 326.140856 188.290877 
L 327.045186 191.003109 
L 327.949516 198.578865 
L 329.758177 219.526249 
L 330.662507 227.285042 
L 331.566837 230.185645 
L 332.471167 227.413702 
L 333.375498 219.674812 
L 335.184158 198.281739 
L 336.088488 190.359812 
L 336.992818 187.399499 
L 337.897149 190.231153 
L 338.801479 198.133176 
L 340.610139 219.971938 
L 341.514469 228.056998 
L 342.4188 231.077023 
L 343.32313 228.185658 
L 344.22746 220.120501 
L 346.036121 197.83605 
L 346.940451 189.587856 
L 347.844781 186.508121 
L 348.749111 189.459197 
L 349.653441 197.687487 
L 351.462102 220.417627 
L 352.366432 228.828954 
L 353.270762 231.968401 
L 354.175092 228.957614 
L 355.079423 220.56619 
L 356.888083 197.390361 
L 357.792413 188.8159 
L 358.696743 185.616743 
L 359.601074 188.687241 
L 360.505404 197.241798 
L 362.314064 220.863316 
L 363.218395 229.60091 
L 364.122725 232.859779 
L 365.027055 229.72957 
L 365.931385 221.011879 
L 367.740046 196.944672 
L 368.644376 188.043944 
L 369.548706 184.725365 
L 370.453036 187.915285 
L 371.357366 196.796109 
L 373.166027 221.309005 
L 374.070357 230.372866 
L 374.974687 233.751157 
L 375.879017 230.501526 
L 376.783348 221.457568 
L 378.592008 196.498983 
L 379.496338 187.271988 
L 380.400669 183.833987 
L 381.304999 187.143329 
L 382.209329 196.35042 
L 384.017989 221.754694 
L 384.92232 231.144822 
L 385.82665 234.642535 
L 386.73098 231.273482 
L 387.63531 221.903257 
L 389.443971 196.053294 
L 390.348301 186.500032 
L 391.252631 182.942609 
L 392.156961 186.371373 
L 393.061291 195.904731 
L 394.869952 222.200383 
L 395.774282 231.916778 
L 396.678612 235.533913 
L 397.582943 232.045438 
L 398.487273 222.348946 
L 398.487273 222.348946 
" clip-path="url(#p1266c0f730)" style="fill: none; stroke: #1f77b4; stroke-width: 1.5; stroke-linecap: square"/>
   </g>
   <g id="patch_13">
    <path d="M 57.6 238.163478 
L 57.6 180.313043 
" style="fill: none; stroke: #000000; stroke-width: 0.8; stroke-linejoin: miter; stroke-linecap: square"/>
   </g>
   <g id="patch_14">
    <path d="M 414.72 238.163478 
L 414.72 180.313043 
" style="fill: none; stroke: #000000; stroke-width: 0.8; stroke-linejoin: miter; stroke-linecap: square"/>
   </g>
   <g id="patch_15">
    <path d="M 57.6 238.163478 
L 414.72 238.163478 
" style="fill: none; stroke: #000000; stroke-width: 0.8; stroke-linejoin: miter; stroke-linecap: square"/>
   </g>
   <g id="patch_16">
    <path d="M 57.6 180.313043 
L 414.72 180.313043 
" style="fill: none; stroke: #000000; stroke-width: 0.8; stroke-linejoin: miter; stroke-linecap: square"/>
   </g>
  </g>
  <g id="axes_4">
   <g id="patch_17">
    <path d="M 57.6 307.584 
L 414.72 307.584 
L 414.72 249.733565 
L 57.6 249.733565 
z
" style="fill: #ffffff"/>
   </g>
   <g id="matplotlib.axis_7">
    <g id="xtick_25">
     <g id="line2d_35">
      <g>
       <use xlink:href="#md8a9dde1b9" x="73.832727" y="307.584" style="stroke: #000000; stroke-width: 0.8"/>
      </g>
     </g>
     <g id="text_32">
      <!-- 0 -->
      <g transform="translate(70.651477 322.182437) scale(0.1 -0.1)">
       <use xlink:href="#DejaVuSans-30"/>
      </g>
     </g>
    </g>
    <g id="xtick_26">
     <g id="line2d_36">
      <g>
       <use xlink:href="#md8a9dde1b9" x="119.049238" y="307.584" style="stroke: #000000; stroke-width: 0.8"/>
      </g>
     </g>
     <g id="text_33">
      <!-- 50 -->
      <g transform="translate(112.686738 322.182437) scale(0.1 -0.1)">
       <use xlink:href="#DejaVuSans-35"/>
       <use xlink:href="#DejaVuSans-30" transform="translate(63.623047 0)"/>
      </g>
     </g>
    </g>
    <g id="xtick_27">
     <g id="line2d_37">
      <g>
       <use xlink:href="#md8a9dde1b9" x="164.265748" y="307.584" style="stroke: #000000; stroke-width: 0.8"/>
      </g>
     </g>
     <g id="text_34">
      <!-- 100 -->
      <g transform="translate(154.721998 322.182437) scale(0.1 -0.1)">
       <use xlink:href="#DejaVuSans-31"/>
       <use xlink:href="#DejaVuSans-30" transform="translate(63.623047 0)"/>
       <use xlink:href="#DejaVuSans-30" transform="translate(127.246094 0)"/>
      </g>
     </g>
    </g>
    <g id="xtick_28">
     <g id="line2d_38">
      <g>
       <use xlink:href="#md8a9dde1b9" x="209.482259" y="307.584" style="stroke: #000000; stroke-width: 0.8"/>
      </g>
     </g>
     <g id="text_35">
      <!-- 150 -->
      <g transform="translate(199.938509 322.182437) scale(0.1 -0.1)">
       <use xlink:href="#DejaVuSans-31"/>
       <use xlink:href="#DejaVuSans-35" transform="translate(63.623047 0)"/>
       <use xlink:href="#DejaVuSans-30" transform="translate(127.246094 0)"/>
      </g>
     </g>
    </g>
    <g id="xtick_29">
     <g id="line2d_39">
      <g>
       <use xlink:href="#md8a9dde1b9" x="254.698769" y="307.584" style="stroke: #000000; stroke-width: 0.8"/>
      </g>
     </g>
     <g id="text_36">
      <!-- 200 -->
      <g transform="translate(245.155019 322.182437) scale(0.1 -0.1)">
       <use xlink:href="#DejaVuSans-32"/>
       <use xlink:href="#DejaVuSans-30" transform="translate(63.623047 0)"/>
       <use xlink:href="#DejaVuSans-30" transform="translate(127.246094 0)"/>
      </g>
     </g>
    </g>
    <g id="xtick_30">
     <g id="line2d_40">
      <g>
       <use xlink:href="#md8a9dde1b9" x="299.91528" y="307.584" style="stroke: #000000; stroke-width: 0.8"/>
      </g>
     </g>
     <g id="text_37">
      <!-- 250 -->
      <g transform="translate(290.37153 322.182437) scale(0.1 -0.1)">
       <use xlink:href="#DejaVuSans-32"/>
       <use xlink:href="#DejaVuSans-35" transform="translate(63.623047 0)"/>
       <use xlink:href="#DejaVuSans-30" transform="translate(127.246094 0)"/>
      </g>
     </g>
    </g>
    <g id="xtick_31">
     <g id="line2d_41">
      <g>
       <use xlink:href="#md8a9dde1b9" x="345.13179" y="307.584" style="stroke: #000000; stroke-width: 0.8"/>
      </g>
     </g>
     <g id="text_38">
      <!-- 300 -->
      <g transform="translate(335.58804 322.182437) scale(0.1 -0.1)">
       <use xlink:href="#DejaVuSans-33"/>
       <use xlink:href="#DejaVuSans-30" transform="translate(63.623047 0)"/>
       <use xlink:href="#DejaVuSans-30" transform="translate(127.246094 0)"/>
      </g>
     </g>
    </g>
    <g id="xtick_32">
     <g id="line2d_42">
      <g>
       <use xlink:href="#md8a9dde1b9" x="390.348301" y="307.584" style="stroke: #000000; stroke-width: 0.8"/>
      </g>
     </g>
     <g id="text_39">
      <!-- 350 -->
      <g transform="translate(380.804551 322.182437) scale(0.1 -0.1)">
       <use xlink:href="#DejaVuSans-33"/>
       <use xlink:href="#DejaVuSans-35" transform="translate(63.623047 0)"/>
       <use xlink:href="#DejaVuSans-30" transform="translate(127.246094 0)"/>
      </g>
     </g>
    </g>
   </g>
   <g id="matplotlib.axis_8">
    <g id="ytick_8">
     <g id="line2d_43">
      <g>
       <use xlink:href="#m61165ef272" x="57.6" y="302.173842" style="stroke: #000000; stroke-width: 0.8"/>
      </g>
     </g>
     <g id="text_40">
      <!-- −5 -->
      <g transform="translate(35.857813 305.97306) scale(0.1 -0.1)">
       <use xlink:href="#DejaVuSans-2212"/>
       <use xlink:href="#DejaVuSans-35" transform="translate(83.789062 0)"/>
      </g>
     </g>
    </g>
    <g id="ytick_9">
     <g id="line2d_44">
      <g>
       <use xlink:href="#m61165ef272" x="57.6" y="276.672493" style="stroke: #000000; stroke-width: 0.8"/>
      </g>
     </g>
     <g id="text_41">
      <!-- 0 -->
      <g transform="translate(44.2375 280.471712) scale(0.1 -0.1)">
       <use xlink:href="#DejaVuSans-30"/>
      </g>
     </g>
    </g>
    <g id="ytick_10">
     <g id="line2d_45">
      <g>
       <use xlink:href="#m61165ef272" x="57.6" y="251.171144" style="stroke: #000000; stroke-width: 0.8"/>
      </g>
     </g>
     <g id="text_42">
      <!-- 5 -->
      <g transform="translate(44.2375 254.970363) scale(0.1 -0.1)">
       <use xlink:href="#DejaVuSans-35"/>
      </g>
     </g>
    </g>
   </g>
   <g id="line2d_46">
    <path d="M 73.832727 258.678207 
L 74.737057 272.590673 
L 75.641388 266.688837 
L 76.545718 253.814173 
L 77.450048 257.622394 
L 78.354378 286.641254 
L 79.258709 266.981078 
L 80.163039 278.216418 
L 81.067369 277.725381 
L 81.971699 272.484167 
L 82.876029 275.203171 
L 83.78036 261.838118 
L 85.58902 275.431342 
L 86.49335 272.144848 
L 87.39768 273.268835 
L 88.302011 261.43208 
L 89.206341 278.765218 
L 90.110671 273.479033 
L 91.015001 285.38473 
L 91.919331 302.714366 
L 92.823662 270.005231 
L 93.727992 267.854777 
L 94.632322 284.242976 
L 95.536652 253.519771 
L 96.440983 291.507807 
L 97.345313 276.205731 
L 98.249643 278.581869 
L 99.153973 261.037318 
L 100.058303 261.684241 
L 100.962634 275.091946 
L 101.866964 272.815031 
L 102.771294 285.728386 
L 103.675624 296.877685 
L 104.579954 280.221384 
L 105.484285 275.077649 
L 106.388615 264.122864 
L 107.292945 264.40757 
L 108.197275 280.623435 
L 109.101605 279.756144 
L 110.005936 287.368299 
L 110.910266 291.157442 
L 111.814596 294.077369 
L 112.718926 256.773531 
L 113.623257 281.87122 
L 114.527587 281.141087 
L 115.431917 289.451681 
L 116.336247 268.741672 
L 117.240577 293.135122 
L 118.144908 278.842558 
L 119.049238 285.806735 
L 119.953568 272.725879 
L 120.857898 281.882981 
L 121.762228 288.715578 
L 122.666559 276.959967 
L 123.570889 272.303277 
L 124.475219 275.993981 
L 125.379549 273.587116 
L 126.283879 283.14292 
L 127.18821 280.372648 
L 128.09254 283.531952 
L 128.99687 280.340129 
L 129.9012 284.967024 
L 130.805531 294.281507 
L 131.709861 274.86265 
L 132.614191 280.770875 
L 133.518521 293.301395 
L 134.422851 271.951864 
L 135.327182 285.927426 
L 136.231512 276.142622 
L 137.135842 269.235376 
L 138.040172 275.356798 
L 138.944502 265.049991 
L 139.848833 289.268382 
L 140.753163 272.568391 
L 141.657493 283.657925 
L 142.561823 285.555094 
L 144.370484 279.850497 
L 145.274814 276.099576 
L 146.179144 288.55765 
L 147.083474 267.483577 
L 147.987805 271.922485 
L 148.892135 292.343007 
L 149.796465 261.491518 
L 150.700795 257.3334 
L 151.605125 264.648305 
L 152.509456 278.507823 
L 153.413786 287.594747 
L 154.318116 265.916516 
L 155.222446 280.785115 
L 156.126776 264.202894 
L 157.031107 274.547976 
L 157.935437 266.710248 
L 158.839767 273.037363 
L 159.744097 269.465065 
L 160.648427 276.565387 
L 161.552758 258.45565 
L 162.457088 275.377921 
L 163.361418 272.571984 
L 164.265748 257.46334 
L 165.170079 290.420362 
L 166.074409 289.632125 
L 166.978739 266.784123 
L 167.883069 288.638984 
L 168.787399 256.846508 
L 169.69173 280.89163 
L 170.59606 284.296935 
L 171.50039 257.057447 
L 172.40472 261.570443 
L 173.30905 257.622384 
L 174.213381 267.430349 
L 175.117711 285.457459 
L 176.022041 257.1888 
L 176.926371 279.406272 
L 177.830701 268.487005 
L 178.735032 267.010012 
L 179.639362 278.253679 
L 180.543692 270.408552 
L 181.448022 267.265487 
L 182.352352 272.832749 
L 183.256683 287.886974 
L 184.161013 273.630303 
L 185.065343 263.142641 
L 185.969673 283.75746 
L 186.874004 278.198846 
L 187.778334 281.111294 
L 188.682664 257.809005 
L 189.586994 269.814724 
L 190.491324 272.516162 
L 191.395655 284.526052 
L 192.299985 271.17186 
L 193.204315 283.55105 
L 194.108645 276.347804 
L 195.012975 283.158466 
L 195.917306 269.772508 
L 196.821636 270.790955 
L 197.725966 278.797253 
L 198.630296 272.633011 
L 199.534626 287.82231 
L 200.438957 291.884125 
L 201.343287 272.19046 
L 202.247617 274.972333 
L 203.151947 270.19483 
L 204.056278 252.36313 
L 204.960608 267.038293 
L 205.864938 285.983772 
L 206.769268 265.278324 
L 207.673598 290.095458 
L 208.577929 281.380905 
L 209.482259 277.368594 
L 210.386589 259.195473 
L 211.290919 284.269394 
L 212.195249 285.102612 
L 213.09958 277.676762 
L 214.00391 283.440329 
L 214.90824 265.180199 
L 215.81257 287.688377 
L 216.7169 288.377292 
L 217.621231 281.138494 
L 218.525561 281.752693 
L 219.429891 256.990225 
L 221.238552 275.779423 
L 222.142882 289.172596 
L 223.047212 268.059535 
L 223.951542 286.875229 
L 224.855872 292.429991 
L 225.760203 264.553948 
L 226.664533 273.439507 
L 227.568863 267.279236 
L 228.473193 273.421299 
L 229.377523 267.932358 
L 230.281854 283.313305 
L 231.186184 287.222328 
L 232.090514 269.719861 
L 232.994844 284.867705 
L 233.899174 283.706273 
L 234.803505 281.31917 
L 235.707835 276.494196 
L 236.612165 280.283422 
L 237.516495 290.697738 
L 238.420826 283.237748 
L 239.325156 299.352405 
L 240.229486 270.294795 
L 241.133816 293.014345 
L 242.038146 287.937799 
L 242.942477 276.140381 
L 243.846807 284.216434 
L 244.751137 260.932912 
L 245.655467 289.860331 
L 246.559797 273.94843 
L 247.464128 277.073199 
L 248.368458 288.587677 
L 249.272788 271.334789 
L 250.177118 278.422358 
L 251.081448 268.799813 
L 251.985779 268.272306 
L 252.890109 254.606319 
L 253.794439 263.039187 
L 254.698769 280.438347 
L 255.6031 279.11429 
L 256.50743 265.455372 
L 257.41176 269.988449 
L 258.31609 270.142806 
L 259.22042 293.166317 
L 260.124751 276.920632 
L 261.029081 284.200806 
L 261.933411 273.817111 
L 262.837741 277.67368 
L 263.742071 267.388177 
L 264.646402 273.436696 
L 265.550732 268.651523 
L 266.455062 281.430219 
L 267.359392 286.306354 
L 268.263722 280.855221 
L 270.072383 272.804941 
L 270.976713 253.626323 
L 271.881043 277.103539 
L 272.785374 286.423648 
L 273.689704 280.201694 
L 274.594034 281.401422 
L 275.498364 271.761122 
L 276.402694 292.389454 
L 277.307025 276.027186 
L 278.211355 275.076042 
L 279.115685 274.304121 
L 280.020015 282.765439 
L 280.924345 279.099423 
L 281.828676 291.198682 
L 282.733006 281.704622 
L 283.637336 282.209973 
L 284.541666 272.428558 
L 285.445996 288.466177 
L 286.350327 268.703851 
L 287.254657 261.427944 
L 288.158987 297.787457 
L 289.063317 272.324424 
L 289.967648 269.767666 
L 290.871978 283.174694 
L 292.680638 278.027946 
L 293.584968 279.71012 
L 294.489299 279.824592 
L 295.393629 293.768636 
L 296.297959 264.918089 
L 297.202289 265.659801 
L 298.106619 284.969247 
L 299.01095 291.630812 
L 299.91528 271.35735 
L 300.81961 282.545841 
L 301.72394 275.224494 
L 302.62827 279.929815 
L 303.532601 269.618425 
L 304.436931 269.585677 
L 305.341261 284.073978 
L 306.245591 290.783552 
L 307.149921 292.819318 
L 308.054252 270.446294 
L 308.958582 288.799499 
L 309.862912 281.842293 
L 310.767242 282.755218 
L 311.671573 277.208708 
L 312.575903 296.423591 
L 313.480233 274.746849 
L 314.384563 271.328522 
L 316.193224 279.8437 
L 317.097554 275.678959 
L 318.001884 272.602005 
L 318.906214 304.954435 
L 319.810544 256.721132 
L 320.714875 272.693331 
L 321.619205 283.327412 
L 322.523535 280.660428 
L 323.427865 271.63606 
L 324.332195 277.856816 
L 325.236526 297.38657 
L 326.140856 255.613552 
L 327.045186 277.800067 
L 327.949516 266.266181 
L 328.853847 283.731775 
L 329.758177 261.000618 
L 330.662507 273.751633 
L 331.566837 270.461957 
L 332.471167 287.334641 
L 333.375498 264.318157 
L 334.279828 269.635975 
L 335.184158 263.392959 
L 336.088488 283.079325 
L 336.992818 281.579229 
L 337.897149 253.1713 
L 338.801479 287.485226 
L 339.705809 278.059253 
L 340.610139 265.075588 
L 341.514469 275.675645 
L 342.4188 270.726051 
L 343.32313 280.747088 
L 344.22746 272.897723 
L 345.13179 289.999772 
L 346.036121 259.758665 
L 346.940451 277.87783 
L 347.844781 283.610677 
L 348.749111 269.875026 
L 349.653441 281.372083 
L 350.557772 290.282649 
L 351.462102 290.409738 
L 352.366432 269.595632 
L 353.270762 278.300228 
L 354.175092 278.036321 
L 355.079423 265.678925 
L 355.983753 288.166724 
L 356.888083 284.1258 
L 357.792413 280.598475 
L 358.696743 275.710056 
L 359.601074 277.102664 
L 360.505404 279.598897 
L 361.409734 277.301115 
L 362.314064 277.767065 
L 363.218395 284.012846 
L 364.122725 284.96546 
L 365.027055 273.872278 
L 365.931385 285.760307 
L 366.835715 288.478141 
L 367.740046 279.858042 
L 368.644376 278.280781 
L 369.548706 253.652696 
L 370.453036 283.860816 
L 371.357366 267.050725 
L 372.261697 269.050769 
L 373.166027 288.800373 
L 374.070357 268.784895 
L 374.974687 288.748714 
L 375.879017 303.797484 
L 376.783348 270.487707 
L 377.687678 294.583524 
L 378.592008 272.072718 
L 379.496338 283.649773 
L 380.400669 259.744179 
L 381.304999 265.773121 
L 382.209329 281.297273 
L 383.113659 283.688808 
L 384.017989 289.056737 
L 384.92232 281.170142 
L 385.82665 279.53227 
L 386.73098 280.392564 
L 387.63531 275.074029 
L 388.53964 270.771261 
L 389.443971 273.105829 
L 390.348301 284.467173 
L 391.252631 291.338742 
L 392.156961 262.753532 
L 393.061291 283.705246 
L 393.965622 283.326239 
L 394.869952 281.988905 
L 395.774282 295.472797 
L 396.678612 281.548086 
L 397.582943 281.565241 
L 398.487273 270.344504 
L 398.487273 270.344504 
" clip-path="url(#pb1f1f5a0cb)" style="fill: none; stroke: #1f77b4; stroke-width: 1.5; stroke-linecap: square"/>
   </g>
   <g id="patch_18">
    <path d="M 57.6 307.584 
L 57.6 249.733565 
" style="fill: none; stroke: #000000; stroke-width: 0.8; stroke-linejoin: miter; stroke-linecap: square"/>
   </g>
   <g id="patch_19">
    <path d="M 414.72 307.584 
L 414.72 249.733565 
" style="fill: none; stroke: #000000; stroke-width: 0.8; stroke-linejoin: miter; stroke-linecap: square"/>
   </g>
   <g id="patch_20">
    <path d="M 57.6 307.584 
L 414.72 307.584 
" style="fill: none; stroke: #000000; stroke-width: 0.8; stroke-linejoin: miter; stroke-linecap: square"/>
   </g>
   <g id="patch_21">
    <path d="M 57.6 249.733565 
L 414.72 249.733565 
" style="fill: none; stroke: #000000; stroke-width: 0.8; stroke-linejoin: miter; stroke-linecap: square"/>
   </g>
  </g>
 </g>
 <defs>
  <clipPath id="pd6cfe371a6">
   <rect x="57.6" y="41.472" width="357.12" height="57.850435"/>
  </clipPath>
  <clipPath id="p10221db0f4">
   <rect x="57.6" y="110.892522" width="357.12" height="57.850435"/>
  </clipPath>
  <clipPath id="p1266c0f730">
   <rect x="57.6" y="180.313043" width="357.12" height="57.850435"/>
  </clipPath>
  <clipPath id="pb1f1f5a0cb">
   <rect x="57.6" y="249.733565" width="357.12" height="57.850435"/>
  </clipPath>
 </defs>
</svg>
