<?xml version="1.0" encoding="utf-8" standalone="no"?>
<!DOCTYPE svg PUBLIC "-//W3C//DTD SVG 1.1//EN"
  "http://www.w3.org/Graphics/SVG/1.1/DTD/svg11.dtd">
<svg xmlns:xlink="http://www.w3.org/1999/xlink" width="460.8pt" height="345.6pt" viewBox="0 0 460.8 345.6" xmlns="http://www.w3.org/2000/svg" version="1.1">
 <metadata>
  <rdf:RDF xmlns:dc="http://purl.org/dc/elements/1.1/" xmlns:cc="http://creativecommons.org/ns#" xmlns:rdf="http://www.w3.org/1999/02/22-rdf-syntax-ns#">
   <cc:Work>
    <dc:type rdf:resource="http://purl.org/dc/dcmitype/StillImage"/>
    <dc:date>2025-12-30T09:51:15.378617</dc:date>
    <dc:format>image/svg+xml</dc:format>
    <dc:creator>
     <cc:Agent>
      <dc:title>Matplotlib v3.10.3, https://matplotlib.org/</dc:title>
     </cc:Agent>
    </dc:creator>
   </cc:Work>
  </rdf:RDF>
 </metadata>
 <defs>
  <style type="text/css">*{stroke-linejoin: round; stroke-linecap: butt}</style>
 </defs>
 <g id="figure_1">
  <g id="patch_1">
   <path d="M 0 345.6 
L 460.8 345.6 
L 460.8 0 
L 0 0 
z
" style="fill: #ffffff"/>
  </g>
  <g id="axes_1">
   <g id="patch_2">
    <path d="M 57.6 99.322435 
L 414.72 99.322435 
L 414.72 41.472 
L 57.6 41.472 
z
" style="fill: #ffffff"/>
   </g>
   <g id="matplotlib.axis_1">
    <g id="xtick_1">
     <g id="line2d_1">
      <defs>
       <path id="mc153e0d6fb" d="M 0 0 
L 0 3.5 
" style="stroke: #000000; stroke-width: 0.8"/>
      </defs>
      <g>
       <use xlink:href="#mc153e0d6fb" x="73.832727" y="99.322435" style="stroke: #000000; stroke-width: 0.8"/>
      </g>
     </g>
     <g id="text_1">
      <!-- 0 -->
      <g transform="translate(70.651477 113.920872) scale(0.1 -0.1)">
       <defs>
        <path id="DejaVuSans-30" d="M 2034 4250 
Q 1547 4250 1301 3770 
Q 1056 3291 1056 2328 
Q 1056 1369 1301 889 
Q 1547 409 2034 409 
Q 2525 409 2770 889 
Q 3016 1369 3016 2328 
Q 3016 3291 2770 3770 
Q 2525 4250 2034 4250 
z
M 2034 4750 
Q 2819 4750 3233 4129 
Q 3647 3509 3647 2328 
Q 3647 1150 3233 529 
Q 2819 -91 2034 -91 
Q 1250 -91 836 529 
Q 422 1150 422 2328 
Q 422 3509 836 4129 
Q 1250 4750 2034 4750 
z
" transform="scale(0.015625)"/>
       </defs>
       <use xlink:href="#DejaVuSans-30"/>
      </g>
     </g>
    </g>
    <g id="xtick_2">
     <g id="line2d_2">
      <g>
       <use xlink:href="#mc153e0d6fb" x="119.049238" y="99.322435" style="stroke: #000000; stroke-width: 0.8"/>
      </g>
     </g>
     <g id="text_2">
      <!-- 50 -->
      <g transform="translate(112.686738 113.920872) scale(0.1 -0.1)">
       <defs>
        <path id="DejaVuSans-35" d="M 691 4666 
L 3169 4666 
L 3169 4134 
L 1269 4134 
L 1269 2991 
Q 1406 3038 1543 3061 
Q 1681 3084 1819 3084 
Q 2600 3084 3056 2656 
Q 3513 2228 3513 1497 
Q 3513 744 3044 326 
Q 2575 -91 1722 -91 
Q 1428 -91 1123 -41 
Q 819 9 494 109 
L 494 744 
Q 775 591 1075 516 
Q 1375 441 1709 441 
Q 2250 441 2565 725 
Q 2881 1009 2881 1497 
Q 2881 1984 2565 2268 
Q 2250 2553 1709 2553 
Q 1456 2553 1204 2497 
Q 953 2441 691 2322 
L 691 4666 
z
" transform="scale(0.015625)"/>
       </defs>
       <use xlink:href="#DejaVuSans-35"/>
       <use xlink:href="#DejaVuSans-30" transform="translate(63.623047 0)"/>
      </g>
     </g>
    </g>
    <g id="xtick_3">
     <g id="line2d_3">
      <g>
       <use xlink:href="#mc153e0d6fb" x="164.265748" y="99.322435" style="stroke: #000000; stroke-width: 0.8"/>
      </g>
     </g>
     <g id="text_3">
      <!-- 100 -->
      <g transform="translate(154.721998 113.920872) scale(0.1 -0.1)">
       <defs>
        <path id="DejaVuSans-31" d="M 794 531 
L 1825 531 
L 1825 4091 
L 703 3866 
L 703 4441 
L 1819 4666 
L 2450 4666 
L 2450 531 
L 3481 531 
L 3481 0 
L 794 0 
L 794 531 
z
" transform="scale(0.015625)"/>
       </defs>
       <use xlink:href="#DejaVuSans-31"/>
       <use xlink:href="#DejaVuSans-30" transform="translate(63.623047 0)"/>
       <use xlink:href="#DejaVuSans-30" transform="translate(127.246094 0)"/>
      </g>
     </g>
    </g>
    <g id="xtick_4">
     <g id="line2d_4">
      <g>
       <use xlink:href="#mc153e0d6fb" x="209.482259" y="99.322435" style="stroke: #000000; stroke-width: 0.8"/>
      </g>
     </g>
     <g id="text_4">
      <!-- 150 -->
      <g transform="translate(199.938509 113.920872) scale(0.1 -0.1)">
       <use xlink:href="#DejaVuSans-31"/>
       <use xlink:href="#DejaVuSans-35" transform="translate(63.623047 0)"/>
       <use xlink:href="#DejaVuSans-30" transform="translate(127.246094 0)"/>
      </g>
     </g>
    </g>
    <g id="xtick_5">
     <g id="line2d_5">
      <g>
       <use xlink:href="#mc153e0d6fb" x="254.698769" y="99.322435" style="stroke: #000000; stroke-width: 0.8"/>
      </g>
     </g>
     <g id="text_5">
      <!-- 200 -->
      <g transform="translate(245.155019 113.920872) scale(0.1 -0.1)">
       <defs>
        <path id="DejaVuSans-32" d="M 1228 531 
L 3431 531 
L 3431 0 
L 469 0 
L 469 531 
Q 828 903 1448 1529 
Q 2069 2156 2228 2338 
Q 2531 2678 2651 2914 
Q 2772 3150 2772 3378 
Q 2772 3750 2511 3984 
Q 2250 4219 1831 4219 
Q 1534 4219 1204 4116 
Q 875 4013 500 3803 
L 500 4441 
Q 881 4594 1212 4672 
Q 1544 4750 1819 4750 
Q 2544 4750 2975 4387 
Q 3406 4025 3406 3419 
Q 3406 3131 3298 2873 
Q 3191 2616 2906 2266 
Q 2828 2175 2409 1742 
Q 1991 1309 1228 531 
z
" transform="scale(0.015625)"/>
       </defs>
       <use xlink:href="#DejaVuSans-32"/>
       <use xlink:href="#DejaVuSans-30" transform="translate(63.623047 0)"/>
       <use xlink:href="#DejaVuSans-30" transform="translate(127.246094 0)"/>
      </g>
     </g>
    </g>
    <g id="xtick_6">
     <g id="line2d_6">
      <g>
       <use xlink:href="#mc153e0d6fb" x="299.91528" y="99.322435" style="stroke: #000000; stroke-width: 0.8"/>
      </g>
     </g>
     <g id="text_6">
      <!-- 250 -->
      <g transform="translate(290.37153 113.920872) scale(0.1 -0.1)">
       <use xlink:href="#DejaVuSans-32"/>
       <use xlink:href="#DejaVuSans-35" transform="translate(63.623047 0)"/>
       <use xlink:href="#DejaVuSans-30" transform="translate(127.246094 0)"/>
      </g>
     </g>
    </g>
    <g id="xtick_7">
     <g id="line2d_7">
      <g>
       <use xlink:href="#mc153e0d6fb" x="345.13179" y="99.322435" style="stroke: #000000; stroke-width: 0.8"/>
      </g>
     </g>
     <g id="text_7">
      <!-- 300 -->
      <g transform="translate(335.58804 113.920872) scale(0.1 -0.1)">
       <defs>
        <path id="DejaVuSans-33" d="M 2597 2516 
Q 3050 2419 3304 2112 
Q 3559 1806 3559 1356 
Q 3559 666 3084 287 
Q 2609 -91 1734 -91 
Q 1441 -91 1130 -33 
Q 819 25 488 141 
L 488 750 
Q 750 597 1062 519 
Q 1375 441 1716 441 
Q 2309 441 2620 675 
Q 2931 909 2931 1356 
Q 2931 1769 2642 2001 
Q 2353 2234 1838 2234 
L 1294 2234 
L 1294 2753 
L 1863 2753 
Q 2328 2753 2575 2939 
Q 2822 3125 2822 3475 
Q 2822 3834 2567 4026 
Q 2313 4219 1838 4219 
Q 1578 4219 1281 4162 
Q 984 4106 628 3988 
L 628 4550 
Q 988 4650 1302 4700 
Q 1616 4750 1894 4750 
Q 2613 4750 3031 4423 
Q 3450 4097 3450 3541 
Q 3450 3153 3228 2886 
Q 3006 2619 2597 2516 
z
" transform="scale(0.015625)"/>
       </defs>
       <use xlink:href="#DejaVuSans-33"/>
       <use xlink:href="#DejaVuSans-30" transform="translate(63.623047 0)"/>
       <use xlink:href="#DejaVuSans-30" transform="translate(127.246094 0)"/>
      </g>
     </g>
    </g>
    <g id="xtick_8">
     <g id="line2d_8">
      <g>
       <use xlink:href="#mc153e0d6fb" x="390.348301" y="99.322435" style="stroke: #000000; stroke-width: 0.8"/>
      </g>
     </g>
     <g id="text_8">
      <!-- 350 -->
      <g transform="translate(380.804551 113.920872) scale(0.1 -0.1)">
       <use xlink:href="#DejaVuSans-33"/>
       <use xlink:href="#DejaVuSans-35" transform="translate(63.623047 0)"/>
       <use xlink:href="#DejaVuSans-30" transform="translate(127.246094 0)"/>
      </g>
     </g>
    </g>
   </g>
   <g id="matplotlib.axis_2">
    <g id="ytick_1">
     <g id="line2d_9">
      <defs>
       <path id="mcca563b03b" d="M 0 0 
L -3.5 0 
" style="stroke: #000000; stroke-width: 0.8"/>
      </defs>
      <g>
       <use xlink:href="#mcca563b03b" x="57.6" y="91.672165" style="stroke: #000000; stroke-width: 0.8"/>
      </g>
     </g>
     <g id="text_9">
      <!-- 0 -->
      <g transform="translate(44.2375 95.471383) scale(0.1 -0.1)">
       <use xlink:href="#DejaVuSans-30"/>
      </g>
     </g>
    </g>
    <g id="ytick_2">
     <g id="line2d_10">
      <g>
       <use xlink:href="#mcca563b03b" x="57.6" y="54.749608" style="stroke: #000000; stroke-width: 0.8"/>
      </g>
     </g>
     <g id="text_10">
      <!-- 50 -->
      <g transform="translate(37.875 58.548827) scale(0.1 -0.1)">
       <use xlink:href="#DejaVuSans-35"/>
       <use xlink:href="#DejaVuSans-30" transform="translate(63.623047 0)"/>
      </g>
     </g>
    </g>
   </g>
   <g id="line2d_11">
    <path d="M 73.832727 77.528533 
L 74.737057 79.71444 
L 75.641388 79.012003 
L 76.545718 77.297633 
L 77.450048 78.017032 
L 78.354378 82.420275 
L 79.258709 79.811771 
L 80.163039 81.699664 
L 81.067369 81.886489 
L 81.971699 81.350688 
L 82.876029 81.906583 
L 83.78036 80.062817 
L 85.58902 82.069334 
L 86.49335 81.619724 
L 87.39768 81.874876 
L 88.302011 80.350942 
L 89.206341 83.152642 
L 90.110671 82.755267 
L 91.015001 84.870187 
L 91.919331 87.727602 
L 92.823662 83.236662 
L 93.727992 83.030228 
L 94.632322 85.368497 
L 95.536652 80.787019 
L 96.440983 86.127921 
L 97.345313 83.812776 
L 98.249643 84.191926 
L 99.153973 81.86343 
L 100.058303 82.339582 
L 100.962634 84.778801 
L 101.866964 84.970235 
L 102.771294 87.278626 
L 103.675624 89.159653 
L 104.579954 86.79567 
L 105.484285 85.890562 
L 106.388615 84.005874 
L 107.292945 83.722423 
L 108.197275 85.844817 
L 109.101605 85.697065 
L 110.005936 87.032776 
L 111.814596 89.104969 
L 112.718926 84.354938 
L 113.623257 88.517852 
L 114.527587 88.700747 
L 115.431917 89.894341 
L 116.336247 86.609604 
L 117.240577 89.677457 
L 118.144908 87.117999 
L 119.049238 87.775031 
L 119.953568 85.801622 
L 121.762228 88.935414 
L 122.666559 87.991255 
L 123.570889 88.098063 
L 124.475219 89.251925 
L 125.379549 89.213902 
L 126.283879 90.53049 
L 127.18821 89.717348 
L 128.09254 89.545367 
L 128.99687 88.427735 
L 129.9012 88.62052 
L 130.805531 89.832362 
L 131.709861 87.298043 
L 132.614191 88.807143 
L 133.518521 91.50926 
L 134.422851 89.329135 
L 135.327182 92.062501 
L 137.135842 89.853762 
L 138.040172 90.20218 
L 138.944502 87.915072 
L 139.848833 90.600661 
L 140.753163 87.579758 
L 141.657493 88.991307 
L 142.561823 89.565115 
L 143.466153 89.877999 
L 145.274814 90.998945 
L 146.179144 93.602993 
L 147.083474 90.905909 
L 147.987805 91.367045 
L 148.892135 93.659943 
L 149.796465 88.232825 
L 150.700795 86.644461 
L 151.605125 86.974755 
L 153.413786 90.366704 
L 154.318116 88.062441 
L 155.222446 91.363015 
L 156.126776 90.133068 
L 157.031107 92.521576 
L 157.935437 91.762789 
L 158.839767 92.440016 
L 159.744097 91.133233 
L 160.648427 91.03562 
L 161.552758 87.261834 
L 162.457088 88.857307 
L 163.361418 88.142384 
L 164.265748 86.297678 
L 165.170079 91.994266 
L 166.074409 93.157906 
L 166.978739 91.150725 
L 167.883069 95.29609 
L 168.787399 91.090825 
L 169.69173 94.276087 
L 170.59606 93.853729 
L 171.50039 88.618755 
L 172.40472 87.955026 
L 173.30905 86.402914 
L 174.213381 87.45702 
L 175.117711 90.431781 
L 176.022041 87.354099 
L 176.926371 91.978627 
L 177.830701 91.828535 
L 178.735032 92.686152 
L 179.639362 94.733798 
L 181.448022 91.748166 
L 182.352352 91.09776 
L 183.256683 91.794847 
L 184.161013 88.624346 
L 185.065343 86.682619 
L 185.969673 90.053896 
L 186.874004 90.35472 
L 187.778334 92.314105 
L 188.682664 90.501084 
L 189.586994 93.401213 
L 190.491324 94.233908 
L 191.395655 95.562036 
L 192.299985 92.461447 
L 193.204315 92.631904 
L 194.108645 89.940993 
L 195.012975 89.694921 
L 195.917306 87.276264 
L 196.821636 87.832098 
L 197.725966 90.187335 
L 198.630296 90.962503 
L 199.534626 94.852518 
L 200.438957 96.69287 
L 201.343287 94.304903 
L 202.247617 94.239641 
L 203.151947 92.255002 
L 204.056278 87.885912 
L 204.960608 88.19729 
L 205.864938 89.582339 
L 206.769268 86.04662 
L 207.673598 90.070038 
L 208.577929 90.094712 
L 209.482259 91.311419 
L 210.386589 90.500967 
L 211.290919 95.473986 
L 212.195249 96.079889 
L 213.09958 94.479388 
L 214.00391 93.895117 
L 214.90824 89.298582 
L 215.81257 90.578664 
L 216.7169 89.194565 
L 217.621231 87.551342 
L 218.525561 88.092348 
L 219.429891 85.883891 
L 222.142882 95.854858 
L 223.047212 93.305082 
L 223.951542 95.446712 
L 224.855872 94.706368 
L 225.760203 88.552165 
L 226.664533 87.694459 
L 227.568863 85.192851 
L 228.473193 85.429701 
L 229.377523 85.108904 
L 230.281854 88.803074 
L 231.186184 91.426619 
L 232.090514 90.973204 
L 232.994844 94.689846 
L 233.899174 95.050652 
L 234.803505 94.065103 
L 235.707835 91.696072 
L 236.612165 89.961164 
L 237.516495 89.15939 
L 238.420826 86.343759 
L 239.325156 87.967212 
L 240.229486 84.255837 
L 241.133816 89.102932 
L 242.038146 90.555454 
L 242.942477 91.058022 
L 243.846807 93.841157 
L 244.751137 91.020829 
L 245.655467 94.511909 
L 246.559797 90.4118 
L 247.464128 88.415274 
L 248.368458 87.607375 
L 249.272788 83.248024 
L 250.177118 83.507179 
L 251.081448 82.631593 
L 251.985779 84.203218 
L 252.890109 84.542071 
L 253.794439 88.103681 
L 254.698769 92.327072 
L 255.6031 92.708033 
L 256.50743 89.975882 
L 257.41176 88.710094 
L 258.31609 86.11808 
L 259.22042 86.811122 
L 260.124751 82.471761 
L 261.029081 82.701506 
L 261.933411 81.737566 
L 262.837741 84.034341 
L 263.742071 84.99261 
L 264.646402 88.338966 
L 265.550732 89.440755 
L 266.455062 91.885458 
L 267.359392 91.779639 
L 268.263722 88.94243 
L 270.072383 82.191213 
L 270.976713 77.301362 
L 271.881043 79.818927 
L 272.785374 81.729686 
L 273.689704 82.657619 
L 274.594034 85.408764 
L 275.498364 86.613556 
L 276.402694 91.485275 
L 277.307025 89.732605 
L 278.211355 88.725778 
L 279.115685 86.440217 
L 280.020015 84.720114 
L 280.924345 81.218043 
L 281.828676 80.730973 
L 282.733006 78.417439 
L 283.637336 79.07379 
L 284.541666 79.576754 
L 285.445996 84.606195 
L 286.350327 84.47542 
L 287.254657 85.397371 
L 288.158987 91.299963 
L 289.063317 86.686845 
L 289.967648 84.017024 
L 290.871978 82.847581 
L 291.776308 79.356186 
L 292.680638 76.600985 
L 293.584968 75.848325 
L 294.489299 76.469932 
L 295.393629 80.49842 
L 296.297959 79.158621 
L 297.202289 82.126524 
L 298.106619 86.988075 
L 299.01095 88.61265 
L 299.91528 84.693616 
L 300.81961 83.888084 
L 301.72394 79.552036 
L 302.62827 76.931196 
L 303.532601 72.947683 
L 304.436931 71.88943 
L 306.245591 77.685453 
L 307.149921 80.947548 
L 308.054252 80.698713 
L 308.958582 85.512206 
L 309.862912 85.186816 
L 310.767242 84.277992 
L 311.671573 80.923616 
L 312.575903 80.264246 
L 313.480233 73.658223 
L 314.384563 70.546894 
L 315.288893 70.07923 
L 316.193224 71.317704 
L 317.097554 72.905069 
L 318.001884 75.556877 
L 318.906214 83.361527 
L 319.810544 78.624574 
L 320.714875 81.640907 
L 321.619205 82.082281 
L 322.523535 79.018982 
L 323.427865 74.105532 
L 324.332195 71.373281 
L 325.236526 71.45869 
L 326.140856 64.242408 
L 327.045186 68.125305 
L 327.949516 68.73611 
L 328.853847 74.492173 
L 329.758177 74.45142 
L 330.662507 78.634579 
L 331.566837 78.883899 
L 332.471167 80.171243 
L 333.375498 74.035768 
L 334.279828 71.033463 
L 335.184158 66.331211 
L 336.088488 66.313455 
L 336.992818 64.87086 
L 337.897149 61.450205 
L 338.801479 68.789557 
L 339.705809 70.782046 
L 340.610139 72.282568 
L 341.514469 76.24469 
L 342.4188 76.275527 
L 343.32313 76.513548 
L 344.22746 72.44823 
L 345.13179 70.986711 
L 346.036121 62.644443 
L 347.844781 61.82128 
L 348.749111 60.546826 
L 349.653441 64.672993 
L 350.557772 69.450337 
L 351.462102 72.979088 
L 352.366432 72.483252 
L 353.270762 74.512884 
L 354.175092 73.204486 
L 355.079423 68.360626 
L 355.983753 67.513479 
L 356.888083 62.799234 
L 357.792413 59.168766 
L 358.696743 57.120994 
L 359.601074 58.058762 
L 361.409734 64.256615 
L 363.218395 71.476865 
L 364.122725 72.405964 
L 365.027055 69.472335 
L 365.931385 68.01305 
L 366.835715 64.138062 
L 367.740046 58.595401 
L 368.644376 55.121437 
L 369.548706 50.158328 
L 370.453036 55.290048 
L 371.357366 55.498505 
L 372.261697 59.535232 
L 373.166027 66.164997 
L 374.070357 65.96558 
L 374.974687 69.669099 
L 375.879017 70.463179 
L 376.783348 62.334014 
L 377.687678 61.388861 
L 378.592008 53.669597 
L 379.496338 51.974363 
L 380.400669 47.058565 
L 381.304999 48.711313 
L 382.209329 53.691732 
L 384.017989 62.592566 
L 384.92232 64.239643 
L 385.82665 64.837376 
L 386.73098 63.519858 
L 387.63531 59.317612 
L 388.53964 54.095309 
L 389.443971 49.807911 
L 390.348301 47.955606 
L 391.252631 47.438634 
L 392.156961 44.101565 
L 393.061291 49.958216 
L 394.869952 57.747015 
L 395.774282 62.578648 
L 396.678612 61.419261 
L 397.582943 59.922371 
L 398.487273 54.739725 
L 398.487273 54.739725 
" clip-path="url(#p65eef8000b)" style="fill: none; stroke: #1f77b4; stroke-width: 1.5; stroke-linecap: square"/>
   </g>
   <g id="patch_3">
    <path d="M 57.6 99.322435 
L 57.6 41.472 
" style="fill: none; stroke: #000000; stroke-width: 0.8; stroke-linejoin: miter; stroke-linecap: square"/>
   </g>
   <g id="patch_4">
    <path d="M 414.72 99.322435 
L 414.72 41.472 
" style="fill: none; stroke: #000000; stroke-width: 0.8; stroke-linejoin: miter; stroke-linecap: square"/>
   </g>
   <g id="patch_5">
    <path d="M 57.6 99.322435 
L 414.72 99.322435 
" style="fill: none; stroke: #000000; stroke-width: 0.8; stroke-linejoin: miter; stroke-linecap: square"/>
   </g>
   <g id="patch_6">
    <path d="M 57.6 41.472 
L 414.72 41.472 
" style="fill: none; stroke: #000000; stroke-width: 0.8; stroke-linejoin: miter; stroke-linecap: square"/>
   </g>
  </g>
  <g id="axes_2">
   <g id="patch_7">
    <path d="M 57.6 168.742957 
L 414.72 168.742957 
L 414.72 110.892522 
L 57.6 110.892522 
z
" style="fill: #ffffff"/>
   </g>
   <g id="matplotlib.axis_3">
    <g id="xtick_9">
     <g id="line2d_12">
      <g>
       <use xlink:href="#mc153e0d6fb" x="73.832727" y="168.742957" style="stroke: #000000; stroke-width: 0.8"/>
      </g>
     </g>
     <g id="text_11">
      <!-- 0 -->
      <g transform="translate(70.651477 183.341394) scale(0.1 -0.1)">
       <use xlink:href="#DejaVuSans-30"/>
      </g>
     </g>
    </g>
    <g id="xtick_10">
     <g id="line2d_13">
      <g>
       <use xlink:href="#mc153e0d6fb" x="119.049238" y="168.742957" style="stroke: #000000; stroke-width: 0.8"/>
      </g>
     </g>
     <g id="text_12">
      <!-- 50 -->
      <g transform="translate(112.686738 183.341394) scale(0.1 -0.1)">
       <use xlink:href="#DejaVuSans-35"/>
       <use xlink:href="#DejaVuSans-30" transform="translate(63.623047 0)"/>
      </g>
     </g>
    </g>
    <g id="xtick_11">
     <g id="line2d_14">
      <g>
       <use xlink:href="#mc153e0d6fb" x="164.265748" y="168.742957" style="stroke: #000000; stroke-width: 0.8"/>
      </g>
     </g>
     <g id="text_13">
      <!-- 100 -->
      <g transform="translate(154.721998 183.341394) scale(0.1 -0.1)">
       <use xlink:href="#DejaVuSans-31"/>
       <use xlink:href="#DejaVuSans-30" transform="translate(63.623047 0)"/>
       <use xlink:href="#DejaVuSans-30" transform="translate(127.246094 0)"/>
      </g>
     </g>
    </g>
    <g id="xtick_12">
     <g id="line2d_15">
      <g>
       <use xlink:href="#mc153e0d6fb" x="209.482259" y="168.742957" style="stroke: #000000; stroke-width: 0.8"/>
      </g>
     </g>
     <g id="text_14">
      <!-- 150 -->
      <g transform="translate(199.938509 183.341394) scale(0.1 -0.1)">
       <use xlink:href="#DejaVuSans-31"/>
       <use xlink:href="#DejaVuSans-35" transform="translate(63.623047 0)"/>
       <use xlink:href="#DejaVuSans-30" transform="translate(127.246094 0)"/>
      </g>
     </g>
    </g>
    <g id="xtick_13">
     <g id="line2d_16">
      <g>
       <use xlink:href="#mc153e0d6fb" x="254.698769" y="168.742957" style="stroke: #000000; stroke-width: 0.8"/>
      </g>
     </g>
     <g id="text_15">
      <!-- 200 -->
      <g transform="translate(245.155019 183.341394) scale(0.1 -0.1)">
       <use xlink:href="#DejaVuSans-32"/>
       <use xlink:href="#DejaVuSans-30" transform="translate(63.623047 0)"/>
       <use xlink:href="#DejaVuSans-30" transform="translate(127.246094 0)"/>
      </g>
     </g>
    </g>
    <g id="xtick_14">
     <g id="line2d_17">
      <g>
       <use xlink:href="#mc153e0d6fb" x="299.91528" y="168.742957" style="stroke: #000000; stroke-width: 0.8"/>
      </g>
     </g>
     <g id="text_16">
      <!-- 250 -->
      <g transform="translate(290.37153 183.341394) scale(0.1 -0.1)">
       <use xlink:href="#DejaVuSans-32"/>
       <use xlink:href="#DejaVuSans-35" transform="translate(63.623047 0)"/>
       <use xlink:href="#DejaVuSans-30" transform="translate(127.246094 0)"/>
      </g>
     </g>
    </g>
    <g id="xtick_15">
     <g id="line2d_18">
      <g>
       <use xlink:href="#mc153e0d6fb" x="345.13179" y="168.742957" style="stroke: #000000; stroke-width: 0.8"/>
      </g>
     </g>
     <g id="text_17">
      <!-- 300 -->
      <g transform="translate(335.58804 183.341394) scale(0.1 -0.1)">
       <use xlink:href="#DejaVuSans-33"/>
       <use xlink:href="#DejaVuSans-30" transform="translate(63.623047 0)"/>
       <use xlink:href="#DejaVuSans-30" transform="translate(127.246094 0)"/>
      </g>
     </g>
    </g>
    <g id="xtick_16">
     <g id="line2d_19">
      <g>
       <use xlink:href="#mc153e0d6fb" x="390.348301" y="168.742957" style="stroke: #000000; stroke-width: 0.8"/>
      </g>
     </g>
     <g id="text_18">
      <!-- 350 -->
      <g transform="translate(380.804551 183.341394) scale(0.1 -0.1)">
       <use xlink:href="#DejaVuSans-33"/>
       <use xlink:href="#DejaVuSans-35" transform="translate(63.623047 0)"/>
       <use xlink:href="#DejaVuSans-30" transform="translate(127.246094 0)"/>
      </g>
     </g>
    </g>
   </g>
   <g id="matplotlib.axis_4">
    <g id="ytick_3">
     <g id="line2d_20">
      <g>
       <use xlink:href="#mcca563b03b" x="57.6" y="165.40829" style="stroke: #000000; stroke-width: 0.8"/>
      </g>
     </g>
     <g id="text_19">
      <!-- 0 -->
      <g transform="translate(44.2375 169.207509) scale(0.1 -0.1)">
       <use xlink:href="#DejaVuSans-30"/>
      </g>
     </g>
    </g>
    <g id="ytick_4">
     <g id="line2d_21">
      <g>
       <use xlink:href="#mcca563b03b" x="57.6" y="136.659382" style="stroke: #000000; stroke-width: 0.8"/>
      </g>
     </g>
     <g id="text_20">
      <!-- 25 -->
      <g transform="translate(37.875 140.4586) scale(0.1 -0.1)">
       <use xlink:href="#DejaVuSans-32"/>
       <use xlink:href="#DejaVuSans-35" transform="translate(63.623047 0)"/>
      </g>
     </g>
    </g>
   </g>
   <g id="line2d_22">
    <path d="M 73.832727 143.383056 
L 74.737057 145.585579 
L 75.641388 145.891941 
L 76.545718 146.069217 
L 78.354378 146.016665 
L 79.258709 146.659149 
L 80.163039 146.871794 
L 81.971699 147.76433 
L 83.78036 148.446081 
L 84.68469 148.515218 
L 86.49335 149.047874 
L 88.302011 149.515244 
L 89.206341 149.517846 
L 91.919331 150.778914 
L 92.823662 151.68901 
L 94.632322 152.020447 
L 95.536652 152.475754 
L 96.440983 152.243423 
L 97.345313 152.782867 
L 99.153973 153.141956 
L 100.962634 152.927321 
L 102.771294 153.489897 
L 103.675624 154.065969 
L 104.579954 154.848066 
L 105.484285 155.220633 
L 106.388615 155.42909 
L 108.197275 155.243951 
L 110.910266 155.933036 
L 112.718926 156.917182 
L 113.623257 156.740762 
L 116.336247 158.107598 
L 117.240577 158.128134 
L 118.144908 158.576586 
L 119.953568 158.753964 
L 120.857898 158.596623 
L 121.762228 158.676632 
L 122.666559 158.966235 
L 124.475219 159.225003 
L 128.99687 160.609145 
L 130.805531 160.684041 
L 131.709861 160.898613 
L 132.614191 160.736534 
L 133.518521 160.802169 
L 134.422851 161.239949 
L 135.327182 161.328401 
L 136.231512 161.791097 
L 137.135842 162.055541 
L 138.944502 162.257172 
L 139.848833 162.045716 
L 140.753163 162.231799 
L 141.657493 161.975886 
L 143.466153 161.994576 
L 145.274814 162.252736 
L 146.179144 162.473938 
L 147.083474 163.037984 
L 148.892135 163.348925 
L 149.796465 163.833455 
L 150.700795 163.508905 
L 152.509456 162.57725 
L 153.413786 162.44801 
L 154.318116 162.561074 
L 155.222446 162.339882 
L 156.126776 162.603395 
L 157.031107 162.668175 
L 157.935437 163.061234 
L 160.648427 163.728897 
L 161.552758 163.807622 
L 162.457088 163.349568 
L 164.265748 162.890957 
L 165.170079 162.389441 
L 166.074409 162.736469 
L 166.978739 163.211882 
L 167.883069 163.358441 
L 168.787399 164.07133 
L 169.69173 164.12355 
L 171.50039 165.001855 
L 173.30905 164.17296 
L 174.213381 163.557992 
L 175.117711 163.152257 
L 176.022041 163.204017 
L 176.926371 162.819255 
L 179.639362 163.717512 
L 180.543692 164.315686 
L 181.448022 164.645311 
L 184.161013 164.805447 
L 185.065343 164.438571 
L 185.969673 163.836243 
L 187.778334 163.746164 
L 188.682664 164.002346 
L 189.586994 163.97881 
L 191.395655 164.827545 
L 192.299985 165.430797 
L 194.108645 165.660589 
L 195.917306 165.11717 
L 196.821636 164.530184 
L 197.725966 164.079798 
L 198.630296 164.004544 
L 199.534626 164.045457 
L 200.438957 164.627476 
L 201.343287 165.409224 
L 203.151947 166.100973 
L 204.056278 166.113391 
L 205.864938 165.014819 
L 206.769268 164.761271 
L 207.673598 164.037537 
L 209.482259 163.874807 
L 210.386589 163.977596 
L 211.290919 163.956518 
L 213.09958 165.329663 
L 214.00391 165.730966 
L 214.90824 166.010252 
L 215.81257 165.617391 
L 216.7169 165.443224 
L 217.621231 165.092488 
L 218.525561 164.546522 
L 219.429891 164.130977 
L 220.334221 163.447465 
L 221.238552 163.305339 
L 222.142882 163.629228 
L 223.047212 164.393351 
L 223.951542 164.723703 
L 224.855872 165.321175 
L 225.760203 165.755139 
L 227.568863 164.738202 
L 229.377523 163.173334 
L 230.281854 162.476969 
L 231.186184 162.36799 
L 232.994844 162.816713 
L 234.803505 164.163261 
L 235.707835 164.623141 
L 236.612165 164.705007 
L 238.420826 164.270636 
L 239.325156 163.63761 
L 240.229486 163.295418 
L 241.133816 162.467286 
L 242.038146 162.401301 
L 243.846807 162.745696 
L 244.751137 163.315946 
L 245.655467 163.433893 
L 246.559797 164.029332 
L 247.464128 163.990584 
L 249.272788 163.279439 
L 251.081448 161.476974 
L 251.985779 160.603043 
L 253.794439 159.574621 
L 254.698769 159.657855 
L 256.50743 160.978226 
L 257.41176 161.183494 
L 258.31609 161.19083 
L 259.22042 160.834155 
L 260.124751 160.610279 
L 261.933411 159.104121 
L 262.837741 158.342175 
L 263.742071 157.978323 
L 264.646402 157.785161 
L 265.550732 158.080316 
L 266.455062 158.500375 
L 268.263722 159.854846 
L 269.168053 160.02761 
L 270.072383 159.71215 
L 270.976713 158.952981 
L 271.881043 157.584403 
L 272.785374 156.705526 
L 273.689704 156.182335 
L 274.594034 155.841516 
L 275.498364 155.920359 
L 276.402694 156.160174 
L 277.307025 157.058792 
L 278.211355 157.621907 
L 279.115685 157.987601 
L 280.020015 157.996397 
L 280.924345 157.763236 
L 282.733006 156.363699 
L 283.637336 155.41047 
L 284.541666 154.644553 
L 285.445996 154.025719 
L 288.158987 154.521029 
L 289.063317 155.55759 
L 289.967648 155.843953 
L 290.871978 155.727497 
L 291.776308 155.458785 
L 292.680638 154.727615 
L 294.489299 152.638144 
L 295.393629 151.784521 
L 296.297959 151.580865 
L 297.202289 151.209798 
L 298.106619 151.291798 
L 299.01095 152.046959 
L 299.91528 152.954292 
L 300.81961 153.221628 
L 301.72394 153.349333 
L 302.62827 152.856557 
L 303.532601 152.045741 
L 305.341261 149.450156 
L 306.245591 148.655222 
L 307.149921 148.37025 
L 308.958582 148.716739 
L 310.767242 150.202191 
L 311.671573 150.686486 
L 313.480233 150.52898 
L 314.384563 149.492204 
L 316.193224 146.825257 
L 317.097554 145.830823 
L 318.001884 145.158307 
L 318.906214 144.924701 
L 319.810544 145.8083 
L 320.714875 145.939641 
L 322.523535 147.029315 
L 323.427865 147.093833 
L 324.332195 146.463264 
L 326.140856 144.669389 
L 327.045186 142.898919 
L 327.949516 141.849695 
L 328.853847 140.991 
L 330.662507 141.049705 
L 333.375498 142.945835 
L 334.279828 142.720289 
L 335.184158 142.096515 
L 338.801479 137.029145 
L 339.705809 136.659996 
L 340.610139 136.607014 
L 341.514469 136.769634 
L 343.32313 138.10711 
L 344.22746 138.712704 
L 345.13179 138.687972 
L 346.036121 138.460878 
L 347.844781 135.799151 
L 349.653441 133.297262 
L 350.557772 132.724352 
L 351.462102 132.878292 
L 354.175092 134.746445 
L 355.079423 135.224331 
L 356.888083 134.632911 
L 357.792413 133.663824 
L 360.505404 129.507445 
L 361.409734 128.794829 
L 362.314064 128.613807 
L 363.218395 128.970542 
L 365.027055 130.646114 
L 365.931385 131.010961 
L 366.835715 131.1348 
L 367.740046 130.703164 
L 368.644376 129.537873 
L 369.548706 128.002224 
L 370.453036 125.924545 
L 372.261697 123.76746 
L 373.166027 123.427459 
L 374.974687 124.583551 
L 376.783348 126.592336 
L 378.592008 126.02243 
L 380.400669 123.148428 
L 381.304999 121.121689 
L 382.209329 119.529261 
L 383.113659 118.794096 
L 384.017989 118.724366 
L 384.92232 119.317168 
L 386.73098 120.853235 
L 387.63531 121.363112 
L 388.53964 121.233046 
L 389.443971 120.384065 
L 392.156961 116.119278 
L 393.061291 114.381022 
L 393.965622 113.637417 
L 394.869952 113.522087 
L 395.774282 113.955999 
L 396.678612 115.023687 
L 397.582943 115.822115 
L 398.487273 116.330907 
L 398.487273 116.330907 
" clip-path="url(#p6c45f9cac9)" style="fill: none; stroke: #1f77b4; stroke-width: 1.5; stroke-linecap: square"/>
   </g>
   <g id="patch_8">
    <path d="M 57.6 168.742957 
L 57.6 110.892522 
" style="fill: none; stroke: #000000; stroke-width: 0.8; stroke-linejoin: miter; stroke-linecap: square"/>
   </g>
   <g id="patch_9">
    <path d="M 414.72 168.742957 
L 414.72 110.892522 
" style="fill: none; stroke: #000000; stroke-width: 0.8; stroke-linejoin: miter; stroke-linecap: square"/>
   </g>
   <g id="patch_10">
    <path d="M 57.6 168.742957 
L 414.72 168.742957 
" style="fill: none; stroke: #000000; stroke-width: 0.8; stroke-linejoin: miter; stroke-linecap: square"/>
   </g>
   <g id="patch_11">
    <path d="M 57.6 110.892522 
L 414.72 110.892522 
" style="fill: none; stroke: #000000; stroke-width: 0.8; stroke-linejoin: miter; stroke-linecap: square"/>
   </g>
  </g>
  <g id="axes_3">
   <g id="patch_12">
    <path d="M 57.6 238.163478 
L 414.72 238.163478 
L 414.72 180.313043 
L 57.6 180.313043 
z
" style="fill: #ffffff"/>
   </g>
   <g id="matplotlib.axis_5">
    <g id="xtick_17">
     <g id="line2d_23">
      <g>
       <use xlink:href="#mc153e0d6fb" x="73.832727" y="238.163478" style="stroke: #000000; stroke-width: 0.8"/>
      </g>
     </g>
     <g id="text_21">
      <!-- 0 -->
      <g transform="translate(70.651477 252.761916) scale(0.1 -0.1)">
       <use xlink:href="#DejaVuSans-30"/>
      </g>
     </g>
    </g>
    <g id="xtick_18">
     <g id="line2d_24">
      <g>
       <use xlink:href="#mc153e0d6fb" x="119.049238" y="238.163478" style="stroke: #000000; stroke-width: 0.8"/>
      </g>
     </g>
     <g id="text_22">
      <!-- 50 -->
      <g transform="translate(112.686738 252.761916) scale(0.1 -0.1)">
       <use xlink:href="#DejaVuSans-35"/>
       <use xlink:href="#DejaVuSans-30" transform="translate(63.623047 0)"/>
      </g>
     </g>
    </g>
    <g id="xtick_19">
     <g id="line2d_25">
      <g>
       <use xlink:href="#mc153e0d6fb" x="164.265748" y="238.163478" style="stroke: #000000; stroke-width: 0.8"/>
      </g>
     </g>
     <g id="text_23">
      <!-- 100 -->
      <g transform="translate(154.721998 252.761916) scale(0.1 -0.1)">
       <use xlink:href="#DejaVuSans-31"/>
       <use xlink:href="#DejaVuSans-30" transform="translate(63.623047 0)"/>
       <use xlink:href="#DejaVuSans-30" transform="translate(127.246094 0)"/>
      </g>
     </g>
    </g>
    <g id="xtick_20">
     <g id="line2d_26">
      <g>
       <use xlink:href="#mc153e0d6fb" x="209.482259" y="238.163478" style="stroke: #000000; stroke-width: 0.8"/>
      </g>
     </g>
     <g id="text_24">
      <!-- 150 -->
      <g transform="translate(199.938509 252.761916) scale(0.1 -0.1)">
       <use xlink:href="#DejaVuSans-31"/>
       <use xlink:href="#DejaVuSans-35" transform="translate(63.623047 0)"/>
       <use xlink:href="#DejaVuSans-30" transform="translate(127.246094 0)"/>
      </g>
     </g>
    </g>
    <g id="xtick_21">
     <g id="line2d_27">
      <g>
       <use xlink:href="#mc153e0d6fb" x="254.698769" y="238.163478" style="stroke: #000000; stroke-width: 0.8"/>
      </g>
     </g>
     <g id="text_25">
      <!-- 200 -->
      <g transform="translate(245.155019 252.761916) scale(0.1 -0.1)">
       <use xlink:href="#DejaVuSans-32"/>
       <use xlink:href="#DejaVuSans-30" transform="translate(63.623047 0)"/>
       <use xlink:href="#DejaVuSans-30" transform="translate(127.246094 0)"/>
      </g>
     </g>
    </g>
    <g id="xtick_22">
     <g id="line2d_28">
      <g>
       <use xlink:href="#mc153e0d6fb" x="299.91528" y="238.163478" style="stroke: #000000; stroke-width: 0.8"/>
      </g>
     </g>
     <g id="text_26">
      <!-- 250 -->
      <g transform="translate(290.37153 252.761916) scale(0.1 -0.1)">
       <use xlink:href="#DejaVuSans-32"/>
       <use xlink:href="#DejaVuSans-35" transform="translate(63.623047 0)"/>
       <use xlink:href="#DejaVuSans-30" transform="translate(127.246094 0)"/>
      </g>
     </g>
    </g>
    <g id="xtick_23">
     <g id="line2d_29">
      <g>
       <use xlink:href="#mc153e0d6fb" x="345.13179" y="238.163478" style="stroke: #000000; stroke-width: 0.8"/>
      </g>
     </g>
     <g id="text_27">
      <!-- 300 -->
      <g transform="translate(335.58804 252.761916) scale(0.1 -0.1)">
       <use xlink:href="#DejaVuSans-33"/>
       <use xlink:href="#DejaVuSans-30" transform="translate(63.623047 0)"/>
       <use xlink:href="#DejaVuSans-30" transform="translate(127.246094 0)"/>
      </g>
     </g>
    </g>
    <g id="xtick_24">
     <g id="line2d_30">
      <g>
       <use xlink:href="#mc153e0d6fb" x="390.348301" y="238.163478" style="stroke: #000000; stroke-width: 0.8"/>
      </g>
     </g>
     <g id="text_28">
      <!-- 350 -->
      <g transform="translate(380.804551 252.761916) scale(0.1 -0.1)">
       <use xlink:href="#DejaVuSans-33"/>
       <use xlink:href="#DejaVuSans-35" transform="translate(63.623047 0)"/>
       <use xlink:href="#DejaVuSans-30" transform="translate(127.246094 0)"/>
      </g>
     </g>
    </g>
   </g>
   <g id="matplotlib.axis_6">
    <g id="ytick_5">
     <g id="line2d_31">
      <g>
       <use xlink:href="#mcca563b03b" x="57.6" y="233.154433" style="stroke: #000000; stroke-width: 0.8"/>
      </g>
     </g>
     <g id="text_29">
      <!-- 0 -->
      <g transform="translate(44.2375 236.953652) scale(0.1 -0.1)">
       <use xlink:href="#DejaVuSans-30"/>
      </g>
     </g>
    </g>
    <g id="ytick_6">
     <g id="line2d_32">
      <g>
       <use xlink:href="#mcca563b03b" x="57.6" y="201.745915" style="stroke: #000000; stroke-width: 0.8"/>
      </g>
     </g>
     <g id="text_30">
      <!-- 25 -->
      <g transform="translate(37.875 205.545134) scale(0.1 -0.1)">
       <use xlink:href="#DejaVuSans-32"/>
       <use xlink:href="#DejaVuSans-35" transform="translate(63.623047 0)"/>
      </g>
     </g>
    </g>
   </g>
   <g id="line2d_33">
    <path d="M 73.832727 209.091608 
L 74.737057 216.310455 
L 75.641388 217.091429 
L 76.545718 217.387147 
L 77.450048 216.981644 
L 78.354378 216.954817 
L 79.258709 218.509215 
L 80.163039 218.665335 
L 81.067369 219.44912 
L 81.971699 220.064518 
L 82.876029 220.303867 
L 83.78036 220.67002 
L 84.68469 220.267591 
L 85.58902 220.363207 
L 86.49335 220.769705 
L 88.302011 221.071518 
L 89.206341 220.651581 
L 90.110671 221.358607 
L 91.015001 221.711553 
L 91.919331 222.714227 
L 92.823662 224.436988 
L 94.632322 223.685653 
L 95.536652 224.274132 
L 96.440983 223.049211 
L 97.345313 224.099947 
L 98.249643 224.008315 
L 99.153973 224.079634 
L 100.058303 223.297639 
L 100.962634 222.920361 
L 102.771294 224.021305 
L 103.675624 225.191533 
L 104.579954 226.682741 
L 105.484285 226.881989 
L 106.388615 226.698089 
L 108.197275 225.233273 
L 109.101605 225.527644 
L 110.005936 225.680916 
L 110.910266 226.265424 
L 112.718926 227.956806 
L 113.623257 226.901818 
L 114.527587 227.650639 
L 115.431917 228.240159 
L 116.336247 229.079265 
L 117.240577 228.49308 
L 118.144908 229.178823 
L 119.049238 228.744407 
L 119.953568 228.675059 
L 120.857898 227.921462 
L 121.762228 227.958888 
L 122.666559 228.539773 
L 124.475219 228.695733 
L 125.379549 229.168647 
L 126.283879 229.486102 
L 127.18821 230.178707 
L 128.09254 230.373014 
L 128.99687 230.447584 
L 129.9012 230.100479 
L 130.805531 229.926383 
L 131.709861 230.237479 
L 132.614191 229.549792 
L 133.518521 229.607578 
L 134.422851 230.613433 
L 135.327182 230.538622 
L 136.231512 231.462823 
L 137.135842 231.722333 
L 138.040172 231.50229 
L 138.944502 231.472741 
L 139.848833 230.634926 
L 140.753163 231.007955 
L 141.657493 230.189775 
L 142.561823 230.121364 
L 144.370484 230.500255 
L 146.179144 231.320473 
L 147.083474 232.560502 
L 147.987805 232.464916 
L 148.892135 232.562758 
L 149.796465 233.450448 
L 151.605125 230.64304 
L 152.509456 229.718182 
L 153.413786 229.697913 
L 154.318116 230.268458 
L 155.222446 229.844579 
L 156.126776 230.727083 
L 157.031107 230.905404 
L 157.935437 231.883588 
L 159.744097 232.828719 
L 161.552758 232.632627 
L 162.457088 231.213459 
L 163.361418 230.790067 
L 164.265748 230.238268 
L 165.170079 229.192937 
L 166.978739 231.824677 
L 167.883069 232.037305 
L 168.787399 233.667188 
L 169.69173 233.305662 
L 170.59606 234.190615 
L 171.50039 234.659183 
L 172.40472 233.116845 
L 174.213381 230.323799 
L 175.117711 229.667015 
L 176.022041 230.27008 
L 176.926371 229.592641 
L 177.830701 230.77067 
L 179.639362 232.387771 
L 180.543692 233.71162 
L 181.448022 234.106216 
L 182.352352 233.847835 
L 183.256683 233.434593 
L 184.161013 233.394376 
L 185.065343 232.233478 
L 185.969673 230.727115 
L 187.778334 231.089636 
L 188.682664 231.938425 
L 189.586994 231.884828 
L 191.395655 233.880002 
L 192.299985 235.052093 
L 193.204315 234.764787 
L 194.108645 234.624574 
L 195.012975 233.565024 
L 195.917306 232.735423 
L 196.821636 231.290572 
L 197.725966 230.477763 
L 198.630296 230.750268 
L 199.534626 231.217972 
L 201.343287 234.794736 
L 202.247617 235.243262 
L 203.151947 235.533913 
L 204.056278 235.028303 
L 204.960608 233.113402 
L 205.864938 231.884218 
L 206.769268 231.518636 
L 207.673598 229.999498 
L 209.482259 230.644245 
L 210.386589 231.268415 
L 211.290919 231.415779 
L 212.195249 233.295678 
L 213.09958 234.828082 
L 214.00391 235.328944 
L 214.90824 235.4708 
L 215.81257 233.927863 
L 216.7169 233.305152 
L 217.621231 232.374747 
L 218.525561 231.136378 
L 219.429891 230.462808 
L 220.334221 229.202279 
L 221.238552 229.525765 
L 222.142882 230.903938 
L 223.047212 233.073466 
L 223.951542 233.68116 
L 224.855872 234.8717 
L 225.760203 235.440571 
L 228.473193 230.082664 
L 229.377523 228.773907 
L 230.281854 227.743163 
L 231.186184 228.341484 
L 232.090514 229.697641 
L 232.994844 230.484956 
L 233.899174 232.363947 
L 234.803505 233.808148 
L 235.707835 234.466975 
L 236.612165 234.081754 
L 238.420826 232.283153 
L 239.325156 230.640821 
L 240.229486 230.07121 
L 241.133816 228.346494 
L 242.038146 228.870948 
L 243.846807 230.556824 
L 244.751137 232.111038 
L 245.655467 232.191349 
L 246.559797 233.494849 
L 247.464128 232.942425 
L 249.272788 230.783765 
L 250.177118 228.485215 
L 251.985779 225.594516 
L 252.890109 225.194008 
L 253.794439 225.034718 
L 254.698769 226.195695 
L 255.6031 228.5173 
L 256.50743 230.278532 
L 257.41176 230.535259 
L 258.31609 230.262732 
L 259.22042 229.145896 
L 260.124751 228.611719 
L 261.029081 226.687441 
L 262.837741 224.192697 
L 263.742071 224.1524 
L 264.646402 224.466559 
L 266.455062 227.266531 
L 267.359392 229.109106 
L 268.263722 230.361102 
L 269.168053 230.22383 
L 270.072383 228.927203 
L 270.976713 226.808047 
L 271.881043 223.577606 
L 272.785374 222.215766 
L 273.689704 221.945148 
L 274.594034 222.087244 
L 276.402694 224.357748 
L 277.307025 226.929982 
L 278.211355 228.104358 
L 279.115685 228.566704 
L 280.020015 228.073769 
L 280.924345 227.114161 
L 281.828676 225.191226 
L 282.733006 223.671152 
L 283.637336 221.780529 
L 284.541666 220.691592 
L 285.445996 220.109033 
L 286.350327 221.498145 
L 288.158987 223.401151 
L 289.063317 226.194157 
L 289.967648 226.5011 
L 290.871978 225.762094 
L 291.776308 224.826976 
L 292.680638 222.924998 
L 293.584968 220.609244 
L 294.489299 218.719308 
L 295.393629 217.618438 
L 296.297959 218.287115 
L 297.202289 218.27651 
L 298.106619 219.32945 
L 299.91528 224.115635 
L 300.81961 224.334 
L 301.72394 224.199058 
L 302.62827 222.555428 
L 303.532601 220.468521 
L 304.436931 217.58447 
L 305.341261 215.187544 
L 306.245591 214.483131 
L 307.149921 215.087392 
L 308.054252 216.675846 
L 308.958582 217.698861 
L 309.862912 220.134722 
L 310.767242 221.72357 
L 311.671573 222.511061 
L 313.480233 221.175249 
L 316.193224 212.893992 
L 317.097554 211.699945 
L 318.001884 211.431241 
L 318.906214 212.190578 
L 319.810544 215.510535 
L 320.714875 216.142102 
L 321.619205 217.661864 
L 322.523535 218.883391 
L 323.427865 218.644013 
L 324.332195 216.720987 
L 325.236526 214.398698 
L 326.140856 212.80361 
L 327.045186 209.108838 
L 327.949516 207.909767 
L 328.853847 207.288643 
L 329.758177 208.910366 
L 330.662507 210.031011 
L 331.566837 212.310009 
L 333.375498 215.633385 
L 334.279828 214.588621 
L 335.184158 212.784633 
L 336.088488 209.841835 
L 337.897149 205.813715 
L 338.801479 203.218321 
L 339.705809 204.023727 
L 341.514469 206.728441 
L 342.4188 209.144358 
L 343.32313 210.846517 
L 344.22746 212.123068 
L 345.13179 211.564209 
L 346.036121 210.650841 
L 346.940451 207.030983 
L 347.844781 204.36471 
L 349.653441 200.461581 
L 350.557772 200.623255 
L 351.462102 202.443262 
L 352.366432 204.978008 
L 353.270762 206.57518 
L 354.175092 208.418341 
L 355.079423 209.241093 
L 356.888083 206.975483 
L 357.792413 204.513536 
L 359.601074 198.647157 
L 360.505404 196.990047 
L 361.409734 196.870946 
L 362.314064 197.961049 
L 363.218395 200.048825 
L 364.122725 202.765193 
L 365.027055 204.998596 
L 365.931385 205.51386 
L 366.835715 205.353176 
L 367.740046 203.856254 
L 369.548706 197.467298 
L 370.453036 193.341503 
L 371.357366 192.286891 
L 372.261697 191.62314 
L 373.166027 192.600743 
L 374.070357 195.653728 
L 374.974687 197.71957 
L 375.879017 200.488841 
L 376.783348 202.711037 
L 378.592008 200.080352 
L 379.496338 196.425136 
L 380.400669 193.260817 
L 381.304999 189.289492 
L 382.209329 187.100053 
L 383.113659 187.346835 
L 384.017989 189.028497 
L 385.82665 194.459089 
L 386.73098 196.480241 
L 387.63531 197.424329 
L 388.53964 196.583825 
L 389.443971 194.129664 
L 391.252631 187.943386 
L 392.156961 185.70308 
L 393.061291 182.942609 
L 393.965622 183.102725 
L 394.869952 184.626838 
L 395.774282 187.064443 
L 396.678612 190.496998 
L 397.582943 192.485564 
L 398.487273 193.342756 
L 398.487273 193.342756 
" clip-path="url(#pb77cc954d5)" style="fill: none; stroke: #1f77b4; stroke-width: 1.5; stroke-linecap: square"/>
   </g>
   <g id="patch_13">
    <path d="M 57.6 238.163478 
L 57.6 180.313043 
" style="fill: none; stroke: #000000; stroke-width: 0.8; stroke-linejoin: miter; stroke-linecap: square"/>
   </g>
   <g id="patch_14">
    <path d="M 414.72 238.163478 
L 414.72 180.313043 
" style="fill: none; stroke: #000000; stroke-width: 0.8; stroke-linejoin: miter; stroke-linecap: square"/>
   </g>
   <g id="patch_15">
    <path d="M 57.6 238.163478 
L 414.72 238.163478 
" style="fill: none; stroke: #000000; stroke-width: 0.8; stroke-linejoin: miter; stroke-linecap: square"/>
   </g>
   <g id="patch_16">
    <path d="M 57.6 180.313043 
L 414.72 180.313043 
" style="fill: none; stroke: #000000; stroke-width: 0.8; stroke-linejoin: miter; stroke-linecap: square"/>
   </g>
  </g>
  <g id="axes_4">
   <g id="patch_17">
    <path d="M 57.6 307.584 
L 414.72 307.584 
L 414.72 249.733565 
L 57.6 249.733565 
z
" style="fill: #ffffff"/>
   </g>
   <g id="matplotlib.axis_7">
    <g id="xtick_25">
     <g id="line2d_34">
      <g>
       <use xlink:href="#mc153e0d6fb" x="73.832727" y="307.584" style="stroke: #000000; stroke-width: 0.8"/>
      </g>
     </g>
     <g id="text_31">
      <!-- 0 -->
      <g transform="translate(70.651477 322.182437) scale(0.1 -0.1)">
       <use xlink:href="#DejaVuSans-30"/>
      </g>
     </g>
    </g>
    <g id="xtick_26">
     <g id="line2d_35">
      <g>
       <use xlink:href="#mc153e0d6fb" x="119.049238" y="307.584" style="stroke: #000000; stroke-width: 0.8"/>
      </g>
     </g>
     <g id="text_32">
      <!-- 50 -->
      <g transform="translate(112.686738 322.182437) scale(0.1 -0.1)">
       <use xlink:href="#DejaVuSans-35"/>
       <use xlink:href="#DejaVuSans-30" transform="translate(63.623047 0)"/>
      </g>
     </g>
    </g>
    <g id="xtick_27">
     <g id="line2d_36">
      <g>
       <use xlink:href="#mc153e0d6fb" x="164.265748" y="307.584" style="stroke: #000000; stroke-width: 0.8"/>
      </g>
     </g>
     <g id="text_33">
      <!-- 100 -->
      <g transform="translate(154.721998 322.182437) scale(0.1 -0.1)">
       <use xlink:href="#DejaVuSans-31"/>
       <use xlink:href="#DejaVuSans-30" transform="translate(63.623047 0)"/>
       <use xlink:href="#DejaVuSans-30" transform="translate(127.246094 0)"/>
      </g>
     </g>
    </g>
    <g id="xtick_28">
     <g id="line2d_37">
      <g>
       <use xlink:href="#mc153e0d6fb" x="209.482259" y="307.584" style="stroke: #000000; stroke-width: 0.8"/>
      </g>
     </g>
     <g id="text_34">
      <!-- 150 -->
      <g transform="translate(199.938509 322.182437) scale(0.1 -0.1)">
       <use xlink:href="#DejaVuSans-31"/>
       <use xlink:href="#DejaVuSans-35" transform="translate(63.623047 0)"/>
       <use xlink:href="#DejaVuSans-30" transform="translate(127.246094 0)"/>
      </g>
     </g>
    </g>
    <g id="xtick_29">
     <g id="line2d_38">
      <g>
       <use xlink:href="#mc153e0d6fb" x="254.698769" y="307.584" style="stroke: #000000; stroke-width: 0.8"/>
      </g>
     </g>
     <g id="text_35">
      <!-- 200 -->
      <g transform="translate(245.155019 322.182437) scale(0.1 -0.1)">
       <use xlink:href="#DejaVuSans-32"/>
       <use xlink:href="#DejaVuSans-30" transform="translate(63.623047 0)"/>
       <use xlink:href="#DejaVuSans-30" transform="translate(127.246094 0)"/>
      </g>
     </g>
    </g>
    <g id="xtick_30">
     <g id="line2d_39">
      <g>
       <use xlink:href="#mc153e0d6fb" x="299.91528" y="307.584" style="stroke: #000000; stroke-width: 0.8"/>
      </g>
     </g>
     <g id="text_36">
      <!-- 250 -->
      <g transform="translate(290.37153 322.182437) scale(0.1 -0.1)">
       <use xlink:href="#DejaVuSans-32"/>
       <use xlink:href="#DejaVuSans-35" transform="translate(63.623047 0)"/>
       <use xlink:href="#DejaVuSans-30" transform="translate(127.246094 0)"/>
      </g>
     </g>
    </g>
    <g id="xtick_31">
     <g id="line2d_40">
      <g>
       <use xlink:href="#mc153e0d6fb" x="345.13179" y="307.584" style="stroke: #000000; stroke-width: 0.8"/>
      </g>
     </g>
     <g id="text_37">
      <!-- 300 -->
      <g transform="translate(335.58804 322.182437) scale(0.1 -0.1)">
       <use xlink:href="#DejaVuSans-33"/>
       <use xlink:href="#DejaVuSans-30" transform="translate(63.623047 0)"/>
       <use xlink:href="#DejaVuSans-30" transform="translate(127.246094 0)"/>
      </g>
     </g>
    </g>
    <g id="xtick_32">
     <g id="line2d_41">
      <g>
       <use xlink:href="#mc153e0d6fb" x="390.348301" y="307.584" style="stroke: #000000; stroke-width: 0.8"/>
      </g>
     </g>
     <g id="text_38">
      <!-- 350 -->
      <g transform="translate(380.804551 322.182437) scale(0.1 -0.1)">
       <use xlink:href="#DejaVuSans-33"/>
       <use xlink:href="#DejaVuSans-35" transform="translate(63.623047 0)"/>
       <use xlink:href="#DejaVuSans-30" transform="translate(127.246094 0)"/>
      </g>
     </g>
    </g>
   </g>
   <g id="matplotlib.axis_8">
    <g id="ytick_7">
     <g id="line2d_42">
      <g>
       <use xlink:href="#mcca563b03b" x="57.6" y="301.754692" style="stroke: #000000; stroke-width: 0.8"/>
      </g>
     </g>
     <g id="text_39">
      <!-- 0 -->
      <g transform="translate(44.2375 305.553911) scale(0.1 -0.1)">
       <use xlink:href="#DejaVuSans-30"/>
      </g>
     </g>
    </g>
    <g id="ytick_8">
     <g id="line2d_43">
      <g>
       <use xlink:href="#mcca563b03b" x="57.6" y="269.368042" style="stroke: #000000; stroke-width: 0.8"/>
      </g>
     </g>
     <g id="text_40">
      <!-- 20 -->
      <g transform="translate(37.875 273.167261) scale(0.1 -0.1)">
       <use xlink:href="#DejaVuSans-32"/>
       <use xlink:href="#DejaVuSans-30" transform="translate(63.623047 0)"/>
      </g>
     </g>
    </g>
   </g>
   <g id="line2d_44">
    <path d="M 73.832727 270.739447 
L 74.737057 286.24707 
L 75.641388 287.445426 
L 76.545718 287.659514 
L 77.450048 286.826708 
L 78.354378 286.804693 
L 79.258709 289.207628 
L 80.163039 288.979064 
L 81.067369 289.899761 
L 81.971699 290.462531 
L 82.876029 290.450179 
L 83.78036 290.748755 
L 84.68469 289.887256 
L 85.58902 290.035473 
L 86.49335 290.630626 
L 87.39768 290.681717 
L 88.302011 290.847142 
L 89.206341 290.094405 
L 90.110671 291.253982 
L 91.015001 291.615922 
L 91.919331 292.956332 
L 92.823662 295.193027 
L 93.727992 293.849355 
L 94.632322 293.064347 
L 95.536652 293.953728 
L 96.440983 291.886763 
L 97.345313 293.781267 
L 98.249643 293.459311 
L 99.153973 293.506191 
L 100.058303 292.253104 
L 100.962634 291.887596 
L 101.866964 293.04207 
L 102.771294 293.724254 
L 103.675624 295.33085 
L 104.579954 297.165364 
L 105.484285 296.786639 
L 106.388615 296.10108 
L 107.292945 294.725078 
L 108.197275 293.881684 
L 109.101605 294.623523 
L 110.005936 294.913443 
L 111.814596 296.789281 
L 112.718926 297.8646 
L 113.623257 295.798202 
L 114.527587 297.047192 
L 115.431917 297.771954 
L 116.336247 298.788686 
L 117.240577 297.496296 
L 118.144908 298.531957 
L 119.049238 297.646643 
L 119.953568 297.564184 
L 120.857898 296.441094 
L 121.762228 296.746419 
L 122.666559 297.750216 
L 124.475219 297.785209 
L 125.379549 298.443129 
L 126.283879 298.751244 
L 127.18821 299.62708 
L 128.99687 299.521003 
L 129.9012 298.859189 
L 130.805531 298.63397 
L 131.709861 299.185716 
L 132.614191 298.072226 
L 133.518521 298.342799 
L 134.422851 299.959438 
L 135.327182 299.572571 
L 136.231512 300.877621 
L 137.135842 300.935658 
L 138.040172 300.348291 
L 138.944502 300.245618 
L 139.848833 298.940444 
L 140.753163 299.760149 
L 141.657493 298.513884 
L 142.561823 298.66459 
L 145.274814 299.945827 
L 146.179144 300.481188 
L 147.083474 302.176457 
L 147.987805 301.545498 
L 148.892135 301.482823 
L 149.796465 302.708495 
L 151.605125 298.294103 
L 152.509456 297.449187 
L 153.413786 297.989023 
L 154.318116 299.156179 
L 155.222446 298.476515 
L 156.126776 299.946122 
L 157.031107 300.006644 
L 157.935437 301.346332 
L 158.839767 301.600194 
L 159.744097 302.098394 
L 160.648427 301.63109 
L 161.552758 301.343925 
L 162.457088 299.13148 
L 163.361418 298.899927 
L 164.265748 298.392216 
L 165.170079 297.127057 
L 166.074409 299.617456 
L 166.978739 301.500586 
L 167.883069 301.341776 
L 168.787399 303.534939 
L 169.69173 302.326114 
L 170.59606 303.467923 
L 171.50039 303.807283 
L 172.40472 301.107049 
L 174.213381 297.685173 
L 175.117711 297.409109 
L 176.022041 298.901898 
L 176.926371 297.961048 
L 177.830701 300.025879 
L 179.639362 301.921239 
L 180.543692 303.516412 
L 181.448022 303.497526 
L 183.256683 301.896333 
L 184.161013 301.892769 
L 185.969673 298.21841 
L 186.874004 299.099385 
L 187.778334 299.70479 
L 188.682664 301.081665 
L 189.586994 300.77617 
L 190.491324 302.213328 
L 192.299985 304.704052 
L 193.204315 303.662072 
L 194.108645 303.234529 
L 195.012975 301.545549 
L 195.917306 300.566158 
L 196.821636 298.750507 
L 197.725966 298.147401 
L 199.534626 300.056813 
L 201.343287 304.954435 
L 203.151947 304.683826 
L 204.056278 303.538782 
L 204.960608 300.57104 
L 205.864938 299.257873 
L 206.769268 299.3606 
L 207.673598 297.473614 
L 208.577929 298.735836 
L 209.482259 299.380474 
L 210.386589 300.369815 
L 211.290919 300.420181 
L 212.195249 303.171668 
L 213.09958 304.879579 
L 214.00391 304.856109 
L 214.90824 304.524066 
L 215.81257 301.838135 
L 216.7169 301.196935 
L 217.621231 300.117546 
L 218.525561 298.677004 
L 219.429891 298.253323 
L 220.334221 296.830765 
L 221.238552 297.969798 
L 222.142882 300.306575 
L 223.047212 303.323666 
L 223.951542 303.434376 
L 224.855872 304.663813 
L 225.760203 304.872662 
L 226.664533 301.603233 
L 227.568863 299.498308 
L 228.473193 297.074415 
L 229.377523 295.992315 
L 230.281854 295.275398 
L 231.186184 296.942154 
L 232.090514 299.21381 
L 232.994844 300.101067 
L 233.899174 302.582231 
L 234.803505 304.020613 
L 235.707835 304.199507 
L 236.612165 302.990206 
L 237.516495 301.434446 
L 238.420826 300.217017 
L 239.325156 298.06472 
L 240.229486 297.87858 
L 241.133816 295.750862 
L 242.942477 298.937281 
L 243.846807 300.009302 
L 244.751137 302.07108 
L 245.655467 301.555811 
L 246.559797 303.212054 
L 247.464128 301.792417 
L 248.368458 299.988064 
L 249.272788 298.642982 
L 250.177118 295.580561 
L 251.081448 294.191424 
L 251.985779 293.016843 
L 253.794439 293.614064 
L 254.698769 295.728067 
L 255.6031 299.100412 
L 256.50743 300.995435 
L 257.41176 300.445129 
L 258.31609 299.476046 
L 259.22042 297.570513 
L 260.124751 296.997685 
L 261.029081 294.33235 
L 262.837741 291.993824 
L 263.742071 292.687056 
L 264.646402 293.559013 
L 265.550732 295.829529 
L 266.455062 297.568809 
L 267.359392 299.778682 
L 268.263722 300.825606 
L 269.168053 299.793656 
L 270.072383 297.435532 
L 270.976713 294.397471 
L 271.881043 290.197731 
L 272.785374 289.478038 
L 273.689704 290.165707 
L 274.594034 291.018252 
L 275.498364 292.952755 
L 276.402694 294.580497 
L 277.307025 298.065138 
L 278.211355 298.846611 
L 279.115685 298.685385 
L 280.020015 297.351784 
L 280.924345 295.74199 
L 281.828676 293.01719 
L 282.733006 291.387769 
L 283.637336 289.304735 
L 284.541666 288.623042 
L 285.445996 288.55793 
L 286.350327 291.28261 
L 288.158987 293.724012 
L 289.063317 297.535304 
L 289.967648 296.91195 
L 290.871978 295.136625 
L 291.776308 293.607852 
L 293.584968 288.079743 
L 294.489299 286.242284 
L 295.393629 285.664331 
L 296.297959 287.58385 
L 297.202289 287.809105 
L 298.106619 289.548795 
L 299.01095 293.083835 
L 299.91528 295.741978 
L 301.72394 294.071243 
L 303.532601 288.430303 
L 304.436931 284.827376 
L 305.341261 282.445758 
L 306.245591 282.748625 
L 307.149921 284.583874 
L 308.054252 287.289842 
L 308.958582 288.506409 
L 309.862912 291.753543 
L 310.767242 293.198724 
L 311.671573 293.42308 
L 312.575903 291.696325 
L 313.480233 290.471468 
L 315.288893 282.414811 
L 316.193224 280.247089 
L 317.097554 279.842183 
L 318.001884 280.509954 
L 318.906214 282.297612 
L 319.810544 287.4701 
L 320.714875 287.459456 
L 321.619205 289.107745 
L 322.523535 290.17386 
L 323.427865 289.027557 
L 325.236526 282.629487 
L 326.140856 281.110673 
L 327.045186 276.395162 
L 327.949516 276.166085 
L 328.853847 276.386402 
L 329.758177 279.652145 
L 330.662507 281.262674 
L 331.566837 284.361227 
L 333.375498 287.595912 
L 334.279828 285.00669 
L 335.184158 282.066157 
L 336.088488 278.018026 
L 337.897149 274.176467 
L 338.801479 271.39732 
L 340.610139 276.440641 
L 341.514469 278.467916 
L 342.4188 281.653666 
L 343.32313 283.263446 
L 344.22746 284.198823 
L 346.036121 280.756096 
L 346.940451 275.341838 
L 347.844781 272.431591 
L 349.653441 269.177992 
L 350.557772 270.664876 
L 352.366432 277.643116 
L 353.270762 279.179173 
L 354.175092 281.059885 
L 355.079423 281.282951 
L 355.983753 278.738987 
L 356.888083 277.002583 
L 359.601074 266.852393 
L 360.505404 265.876028 
L 361.409734 266.985006 
L 362.314064 269.340117 
L 364.122725 276.081069 
L 365.027055 278.355778 
L 365.931385 277.884861 
L 366.835715 276.849394 
L 367.740046 274.207318 
L 370.453036 261.00035 
L 372.261697 261.762321 
L 373.166027 264.140421 
L 374.070357 268.964036 
L 374.974687 271.266519 
L 375.879017 274.448101 
L 376.783348 276.474222 
L 377.687678 273.030718 
L 378.592008 270.790815 
L 379.496338 265.439014 
L 380.400669 261.833754 
L 381.304999 257.336189 
L 382.209329 255.993474 
L 383.113659 258.052479 
L 384.017989 261.397317 
L 384.92232 265.634009 
L 385.82665 268.655314 
L 386.73098 270.493655 
L 387.63531 270.690537 
L 388.53964 268.485226 
L 391.252631 257.004266 
L 392.156961 255.129806 
L 393.061291 252.36313 
L 393.965622 254.190522 
L 394.869952 257.270893 
L 395.774282 260.914372 
L 396.678612 265.384906 
L 397.582943 266.984575 
L 398.487273 266.963785 
L 398.487273 266.963785 
" clip-path="url(#p95032face7)" style="fill: none; stroke: #1f77b4; stroke-width: 1.5; stroke-linecap: square"/>
   </g>
   <g id="patch_18">
    <path d="M 57.6 307.584 
L 57.6 249.733565 
" style="fill: none; stroke: #000000; stroke-width: 0.8; stroke-linejoin: miter; stroke-linecap: square"/>
   </g>
   <g id="patch_19">
    <path d="M 414.72 307.584 
L 414.72 249.733565 
" style="fill: none; stroke: #000000; stroke-width: 0.8; stroke-linejoin: miter; stroke-linecap: square"/>
   </g>
   <g id="patch_20">
    <path d="M 57.6 307.584 
L 414.72 307.584 
" style="fill: none; stroke: #000000; stroke-width: 0.8; stroke-linejoin: miter; stroke-linecap: square"/>
   </g>
   <g id="patch_21">
    <path d="M 57.6 249.733565 
L 414.72 249.733565 
" style="fill: none; stroke: #000000; stroke-width: 0.8; stroke-linejoin: miter; stroke-linecap: square"/>
   </g>
  </g>
 </g>
 <defs>
  <clipPath id="p65eef8000b">
   <rect x="57.6" y="41.472" width="357.12" height="57.850435"/>
  </clipPath>
  <clipPath id="p6c45f9cac9">
   <rect x="57.6" y="110.892522" width="357.12" height="57.850435"/>
  </clipPath>
  <clipPath id="pb77cc954d5">
   <rect x="57.6" y="180.313043" width="357.12" height="57.850435"/>
  </clipPath>
  <clipPath id="p95032face7">
   <rect x="57.6" y="249.733565" width="357.12" height="57.850435"/>
  </clipPath>
 </defs>
</svg>
