<?xml version="1.0" encoding="utf-8" standalone="no"?>
<!DOCTYPE svg PUBLIC "-//W3C//DTD SVG 1.1//EN"
  "http://www.w3.org/Graphics/SVG/1.1/DTD/svg11.dtd">
<svg xmlns:xlink="http://www.w3.org/1999/xlink" width="460.8pt" height="345.6pt" viewBox="0 0 460.8 345.6" xmlns="http://www.w3.org/2000/svg" version="1.1">
 <metadata>
  <rdf:RDF xmlns:dc="http://purl.org/dc/elements/1.1/" xmlns:cc="http://creativecommons.org/ns#" xmlns:rdf="http://www.w3.org/1999/02/22-rdf-syntax-ns#">
   <cc:Work>
    <dc:type rdf:resource="http://purl.org/dc/dcmitype/StillImage"/>
    <dc:date>2025-12-30T09:51:27.263371</dc:date>
    <dc:format>image/svg+xml</dc:format>
    <dc:creator>
     <cc:Agent>
      <dc:title>Matplotlib v3.10.3, https://matplotlib.org/</dc:title>
     </cc:Agent>
    </dc:creator>
   </cc:Work>
  </rdf:RDF>
 </metadata>
 <defs>
  <style type="text/css">*{stroke-linejoin: round; stroke-linecap: butt}</style>
 </defs>
 <g id="figure_1">
  <g id="patch_1">
   <path d="M 0 345.6 
L 460.8 345.6 
L 460.8 0 
L 0 0 
z
" style="fill: #ffffff"/>
  </g>
  <g id="axes_1">
   <g id="patch_2">
    <path d="M 57.6 307.584 
L 414.72 307.584 
L 414.72 41.472 
L 57.6 41.472 
z
" style="fill: #ffffff"/>
   </g>
   <g id="matplotlib.axis_1">
    <g id="xtick_1">
     <g id="line2d_1">
      <defs>
       <path id="m678d36cf83" d="M 0 0 
L 0 3.5 
" style="stroke: #000000; stroke-width: 0.8"/>
      </defs>
      <g>
       <use xlink:href="#m678d36cf83" x="73.832727" y="307.584" style="stroke: #000000; stroke-width: 0.8"/>
      </g>
     </g>
     <g id="text_1">
      <!-- 0 -->
      <g transform="translate(70.651477 322.182437) scale(0.1 -0.1)">
       <defs>
        <path id="DejaVuSans-30" d="M 2034 4250 
Q 1547 4250 1301 3770 
Q 1056 3291 1056 2328 
Q 1056 1369 1301 889 
Q 1547 409 2034 409 
Q 2525 409 2770 889 
Q 3016 1369 3016 2328 
Q 3016 3291 2770 3770 
Q 2525 4250 2034 4250 
z
M 2034 4750 
Q 2819 4750 3233 4129 
Q 3647 3509 3647 2328 
Q 3647 1150 3233 529 
Q 2819 -91 2034 -91 
Q 1250 -91 836 529 
Q 422 1150 422 2328 
Q 422 3509 836 4129 
Q 1250 4750 2034 4750 
z
" transform="scale(0.015625)"/>
       </defs>
       <use xlink:href="#DejaVuSans-30"/>
      </g>
     </g>
    </g>
    <g id="xtick_2">
     <g id="line2d_2">
      <g>
       <use xlink:href="#m678d36cf83" x="119.049238" y="307.584" style="stroke: #000000; stroke-width: 0.8"/>
      </g>
     </g>
     <g id="text_2">
      <!-- 50 -->
      <g transform="translate(112.686738 322.182437) scale(0.1 -0.1)">
       <defs>
        <path id="DejaVuSans-35" d="M 691 4666 
L 3169 4666 
L 3169 4134 
L 1269 4134 
L 1269 2991 
Q 1406 3038 1543 3061 
Q 1681 3084 1819 3084 
Q 2600 3084 3056 2656 
Q 3513 2228 3513 1497 
Q 3513 744 3044 326 
Q 2575 -91 1722 -91 
Q 1428 -91 1123 -41 
Q 819 9 494 109 
L 494 744 
Q 775 591 1075 516 
Q 1375 441 1709 441 
Q 2250 441 2565 725 
Q 2881 1009 2881 1497 
Q 2881 1984 2565 2268 
Q 2250 2553 1709 2553 
Q 1456 2553 1204 2497 
Q 953 2441 691 2322 
L 691 4666 
z
" transform="scale(0.015625)"/>
       </defs>
       <use xlink:href="#DejaVuSans-35"/>
       <use xlink:href="#DejaVuSans-30" transform="translate(63.623047 0)"/>
      </g>
     </g>
    </g>
    <g id="xtick_3">
     <g id="line2d_3">
      <g>
       <use xlink:href="#m678d36cf83" x="164.265748" y="307.584" style="stroke: #000000; stroke-width: 0.8"/>
      </g>
     </g>
     <g id="text_3">
      <!-- 100 -->
      <g transform="translate(154.721998 322.182437) scale(0.1 -0.1)">
       <defs>
        <path id="DejaVuSans-31" d="M 794 531 
L 1825 531 
L 1825 4091 
L 703 3866 
L 703 4441 
L 1819 4666 
L 2450 4666 
L 2450 531 
L 3481 531 
L 3481 0 
L 794 0 
L 794 531 
z
" transform="scale(0.015625)"/>
       </defs>
       <use xlink:href="#DejaVuSans-31"/>
       <use xlink:href="#DejaVuSans-30" transform="translate(63.623047 0)"/>
       <use xlink:href="#DejaVuSans-30" transform="translate(127.246094 0)"/>
      </g>
     </g>
    </g>
    <g id="xtick_4">
     <g id="line2d_4">
      <g>
       <use xlink:href="#m678d36cf83" x="209.482259" y="307.584" style="stroke: #000000; stroke-width: 0.8"/>
      </g>
     </g>
     <g id="text_4">
      <!-- 150 -->
      <g transform="translate(199.938509 322.182437) scale(0.1 -0.1)">
       <use xlink:href="#DejaVuSans-31"/>
       <use xlink:href="#DejaVuSans-35" transform="translate(63.623047 0)"/>
       <use xlink:href="#DejaVuSans-30" transform="translate(127.246094 0)"/>
      </g>
     </g>
    </g>
    <g id="xtick_5">
     <g id="line2d_5">
      <g>
       <use xlink:href="#m678d36cf83" x="254.698769" y="307.584" style="stroke: #000000; stroke-width: 0.8"/>
      </g>
     </g>
     <g id="text_5">
      <!-- 200 -->
      <g transform="translate(245.155019 322.182437) scale(0.1 -0.1)">
       <defs>
        <path id="DejaVuSans-32" d="M 1228 531 
L 3431 531 
L 3431 0 
L 469 0 
L 469 531 
Q 828 903 1448 1529 
Q 2069 2156 2228 2338 
Q 2531 2678 2651 2914 
Q 2772 3150 2772 3378 
Q 2772 3750 2511 3984 
Q 2250 4219 1831 4219 
Q 1534 4219 1204 4116 
Q 875 4013 500 3803 
L 500 4441 
Q 881 4594 1212 4672 
Q 1544 4750 1819 4750 
Q 2544 4750 2975 4387 
Q 3406 4025 3406 3419 
Q 3406 3131 3298 2873 
Q 3191 2616 2906 2266 
Q 2828 2175 2409 1742 
Q 1991 1309 1228 531 
z
" transform="scale(0.015625)"/>
       </defs>
       <use xlink:href="#DejaVuSans-32"/>
       <use xlink:href="#DejaVuSans-30" transform="translate(63.623047 0)"/>
       <use xlink:href="#DejaVuSans-30" transform="translate(127.246094 0)"/>
      </g>
     </g>
    </g>
    <g id="xtick_6">
     <g id="line2d_6">
      <g>
       <use xlink:href="#m678d36cf83" x="299.91528" y="307.584" style="stroke: #000000; stroke-width: 0.8"/>
      </g>
     </g>
     <g id="text_6">
      <!-- 250 -->
      <g transform="translate(290.37153 322.182437) scale(0.1 -0.1)">
       <use xlink:href="#DejaVuSans-32"/>
       <use xlink:href="#DejaVuSans-35" transform="translate(63.623047 0)"/>
       <use xlink:href="#DejaVuSans-30" transform="translate(127.246094 0)"/>
      </g>
     </g>
    </g>
    <g id="xtick_7">
     <g id="line2d_7">
      <g>
       <use xlink:href="#m678d36cf83" x="345.13179" y="307.584" style="stroke: #000000; stroke-width: 0.8"/>
      </g>
     </g>
     <g id="text_7">
      <!-- 300 -->
      <g transform="translate(335.58804 322.182437) scale(0.1 -0.1)">
       <defs>
        <path id="DejaVuSans-33" d="M 2597 2516 
Q 3050 2419 3304 2112 
Q 3559 1806 3559 1356 
Q 3559 666 3084 287 
Q 2609 -91 1734 -91 
Q 1441 -91 1130 -33 
Q 819 25 488 141 
L 488 750 
Q 750 597 1062 519 
Q 1375 441 1716 441 
Q 2309 441 2620 675 
Q 2931 909 2931 1356 
Q 2931 1769 2642 2001 
Q 2353 2234 1838 2234 
L 1294 2234 
L 1294 2753 
L 1863 2753 
Q 2328 2753 2575 2939 
Q 2822 3125 2822 3475 
Q 2822 3834 2567 4026 
Q 2313 4219 1838 4219 
Q 1578 4219 1281 4162 
Q 984 4106 628 3988 
L 628 4550 
Q 988 4650 1302 4700 
Q 1616 4750 1894 4750 
Q 2613 4750 3031 4423 
Q 3450 4097 3450 3541 
Q 3450 3153 3228 2886 
Q 3006 2619 2597 2516 
z
" transform="scale(0.015625)"/>
       </defs>
       <use xlink:href="#DejaVuSans-33"/>
       <use xlink:href="#DejaVuSans-30" transform="translate(63.623047 0)"/>
       <use xlink:href="#DejaVuSans-30" transform="translate(127.246094 0)"/>
      </g>
     </g>
    </g>
    <g id="xtick_8">
     <g id="line2d_8">
      <g>
       <use xlink:href="#m678d36cf83" x="390.348301" y="307.584" style="stroke: #000000; stroke-width: 0.8"/>
      </g>
     </g>
     <g id="text_8">
      <!-- 350 -->
      <g transform="translate(380.804551 322.182437) scale(0.1 -0.1)">
       <use xlink:href="#DejaVuSans-33"/>
       <use xlink:href="#DejaVuSans-35" transform="translate(63.623047 0)"/>
       <use xlink:href="#DejaVuSans-30" transform="translate(127.246094 0)"/>
      </g>
     </g>
    </g>
   </g>
   <g id="matplotlib.axis_2">
    <g id="ytick_1">
     <g id="line2d_9">
      <defs>
       <path id="m8b3b3a7370" d="M 0 0 
L -3.5 0 
" style="stroke: #000000; stroke-width: 0.8"/>
      </defs>
      <g>
       <use xlink:href="#m8b3b3a7370" x="57.6" y="292.244535" style="stroke: #000000; stroke-width: 0.8"/>
      </g>
     </g>
     <g id="text_9">
      <!-- 0 -->
      <g transform="translate(44.2375 296.043753) scale(0.1 -0.1)">
       <use xlink:href="#DejaVuSans-30"/>
      </g>
     </g>
    </g>
    <g id="ytick_2">
     <g id="line2d_10">
      <g>
       <use xlink:href="#m8b3b3a7370" x="57.6" y="239.346543" style="stroke: #000000; stroke-width: 0.8"/>
      </g>
     </g>
     <g id="text_10">
      <!-- 10 -->
      <g transform="translate(37.875 243.145762) scale(0.1 -0.1)">
       <use xlink:href="#DejaVuSans-31"/>
       <use xlink:href="#DejaVuSans-30" transform="translate(63.623047 0)"/>
      </g>
     </g>
    </g>
    <g id="ytick_3">
     <g id="line2d_11">
      <g>
       <use xlink:href="#m8b3b3a7370" x="57.6" y="186.448551" style="stroke: #000000; stroke-width: 0.8"/>
      </g>
     </g>
     <g id="text_11">
      <!-- 20 -->
      <g transform="translate(37.875 190.24777) scale(0.1 -0.1)">
       <use xlink:href="#DejaVuSans-32"/>
       <use xlink:href="#DejaVuSans-30" transform="translate(63.623047 0)"/>
      </g>
     </g>
    </g>
    <g id="ytick_4">
     <g id="line2d_12">
      <g>
       <use xlink:href="#m8b3b3a7370" x="57.6" y="133.55056" style="stroke: #000000; stroke-width: 0.8"/>
      </g>
     </g>
     <g id="text_12">
      <!-- 30 -->
      <g transform="translate(37.875 137.349779) scale(0.1 -0.1)">
       <use xlink:href="#DejaVuSans-33"/>
       <use xlink:href="#DejaVuSans-30" transform="translate(63.623047 0)"/>
      </g>
     </g>
    </g>
    <g id="ytick_5">
     <g id="line2d_13">
      <g>
       <use xlink:href="#m8b3b3a7370" x="57.6" y="80.652568" style="stroke: #000000; stroke-width: 0.8"/>
      </g>
     </g>
     <g id="text_13">
      <!-- 40 -->
      <g transform="translate(37.875 84.451787) scale(0.1 -0.1)">
       <defs>
        <path id="DejaVuSans-34" d="M 2419 4116 
L 825 1625 
L 2419 1625 
L 2419 4116 
z
M 2253 4666 
L 3047 4666 
L 3047 1625 
L 3713 1625 
L 3713 1100 
L 3047 1100 
L 3047 0 
L 2419 0 
L 2419 1100 
L 313 1100 
L 313 1709 
L 2253 4666 
z
" transform="scale(0.015625)"/>
       </defs>
       <use xlink:href="#DejaVuSans-34"/>
       <use xlink:href="#DejaVuSans-30" transform="translate(63.623047 0)"/>
      </g>
     </g>
    </g>
   </g>
   <g id="line2d_14">
    <path d="M 73.832727 190.928457 
L 74.737057 201.060065 
L 75.641388 202.469327 
L 76.545718 203.284798 
L 77.450048 202.913463 
L 78.354378 203.04306 
L 79.258709 205.998483 
L 80.163039 206.976652 
L 81.971699 211.082318 
L 82.876029 212.544249 
L 83.78036 214.218374 
L 84.68469 214.536404 
L 85.58902 215.503494 
L 86.49335 216.986621 
L 88.302011 219.136522 
L 89.206341 219.148493 
L 90.110671 220.965532 
L 91.015001 222.344678 
L 91.919331 224.949406 
L 92.823662 229.135846 
L 93.727992 230.008318 
L 94.632322 230.660455 
L 95.536652 232.754867 
L 96.440983 231.686144 
L 97.345313 234.16759 
L 98.249643 234.908311 
L 99.153973 235.819398 
L 100.058303 235.138188 
L 100.962634 234.832075 
L 102.771294 237.419928 
L 103.675624 240.069859 
L 104.579954 243.667502 
L 105.484285 245.381313 
L 106.388615 246.340216 
L 107.292945 245.988164 
L 108.197275 245.488577 
L 109.101605 246.407261 
L 110.005936 247.138822 
L 110.910266 248.658364 
L 111.814596 250.684514 
L 112.718926 253.185436 
L 113.623257 252.373905 
L 115.431917 256.203406 
L 116.336247 258.66135 
L 117.240577 258.755818 
L 118.144908 260.818695 
L 119.049238 261.025193 
L 119.953568 261.634633 
L 120.857898 260.910864 
L 121.762228 261.278909 
L 122.666559 262.611079 
L 124.475219 263.801415 
L 126.283879 266.216455 
L 127.18821 268.083221 
L 128.09254 269.239076 
L 128.99687 270.168468 
L 129.9012 270.28438 
L 130.805531 270.51299 
L 131.709861 271.500018 
L 132.614191 270.754459 
L 133.518521 271.056377 
L 134.422851 273.070168 
L 135.327182 273.477045 
L 136.231512 275.605445 
L 137.135842 276.821889 
L 138.040172 277.191823 
L 138.944502 277.74939 
L 139.848833 276.776694 
L 140.753163 277.632676 
L 141.657493 276.455473 
L 142.561823 276.306021 
L 143.466153 276.541451 
L 144.370484 276.955054 
L 145.274814 277.728986 
L 146.179144 278.746514 
L 147.083474 281.341128 
L 147.987805 281.937461 
L 148.892135 282.771457 
L 149.796465 285.000292 
L 150.700795 283.507362 
L 151.605125 281.139702 
L 152.509456 279.221749 
L 153.413786 278.627246 
L 154.318116 279.14734 
L 155.222446 278.129858 
L 156.126776 279.342016 
L 157.031107 279.640007 
L 157.935437 281.448078 
L 158.839767 282.586149 
L 159.744097 284.047024 
L 161.552758 284.881463 
L 162.457088 282.774415 
L 163.361418 281.906678 
L 164.265748 280.664803 
L 165.170079 278.357826 
L 166.074409 279.954157 
L 166.978739 282.141057 
L 167.883069 282.815231 
L 168.787399 286.094518 
L 169.69173 286.334728 
L 170.59606 288.604466 
L 171.50039 290.374934 
L 172.40472 288.593351 
L 173.30905 286.562017 
L 174.213381 283.733165 
L 175.117711 281.866784 
L 176.022041 282.10488 
L 176.926371 280.334974 
L 177.830701 281.723507 
L 178.735032 282.876422 
L 179.639362 284.466954 
L 180.543692 287.218558 
L 181.448022 288.734833 
L 182.352352 289.134801 
L 183.256683 289.075454 
L 184.161013 289.471456 
L 185.065343 287.783824 
L 185.969673 285.013118 
L 186.874004 284.692957 
L 187.778334 284.598754 
L 188.682664 285.777193 
L 189.586994 285.668928 
L 190.491324 287.441212 
L 191.395655 289.573108 
L 192.299985 292.348064 
L 194.108645 293.405109 
L 195.917306 290.905381 
L 196.821636 288.205244 
L 197.725966 286.13347 
L 198.630296 285.787301 
L 199.534626 285.975503 
L 200.438957 288.652791 
L 201.343287 292.248831 
L 203.151947 295.430877 
L 204.056278 295.488 
L 204.960608 292.722644 
L 205.864938 290.434569 
L 206.769268 289.268248 
L 207.673598 285.939069 
L 209.482259 285.190512 
L 210.386589 285.66334 
L 211.290919 285.566384 
L 213.09958 291.882849 
L 214.00391 293.728844 
L 214.90824 295.013558 
L 215.81257 293.206399 
L 216.7169 292.405229 
L 217.621231 290.791843 
L 218.525561 288.280403 
L 219.429891 286.368896 
L 220.334221 283.224741 
L 221.238552 282.57096 
L 222.142882 284.060848 
L 223.047212 287.575813 
L 223.951542 289.095432 
L 224.855872 291.843806 
L 225.760203 293.84004 
L 226.664533 291.669015 
L 227.568863 289.162127 
L 228.473193 285.293132 
L 230.281854 278.760459 
L 231.186184 278.259154 
L 232.090514 279.499388 
L 232.994844 280.323281 
L 234.803505 286.5174 
L 235.707835 288.632848 
L 236.612165 289.00943 
L 237.516495 288.229853 
L 238.420826 287.011327 
L 239.325156 284.099406 
L 240.229486 282.525324 
L 241.133816 278.715914 
L 242.038146 278.412383 
L 242.942477 279.075651 
L 243.846807 279.9966 
L 244.751137 282.61975 
L 245.655467 283.16231 
L 246.559797 285.901325 
L 247.464128 285.723085 
L 248.368458 284.275501 
L 249.272788 282.451821 
L 250.177118 278.000021 
L 251.985779 270.140397 
L 252.890109 267.535556 
L 253.794439 265.409658 
L 254.698769 265.792532 
L 256.50743 271.86624 
L 257.41176 272.81047 
L 258.31609 272.84422 
L 259.22042 271.203514 
L 260.124751 270.173685 
L 261.029081 266.449239 
L 262.837741 259.740404 
L 263.742071 258.066686 
L 264.646402 257.178139 
L 265.550732 258.535855 
L 266.455062 260.468125 
L 268.263722 266.698692 
L 269.168053 267.493407 
L 270.072383 266.042292 
L 270.976713 262.550115 
L 271.881043 256.254652 
L 272.785374 252.211818 
L 273.689704 249.80514 
L 274.594034 248.237372 
L 275.498364 248.600052 
L 276.402694 249.703198 
L 277.307025 253.836844 
L 278.211355 256.427172 
L 279.115685 258.109363 
L 280.020015 258.149826 
L 280.924345 257.077287 
L 282.733006 250.639414 
L 283.637336 246.25456 
L 284.541666 242.731342 
L 285.445996 239.884709 
L 286.350327 240.565238 
L 287.254657 241.093402 
L 288.158987 242.163135 
L 289.063317 246.931315 
L 289.967648 248.248584 
L 290.871978 247.712884 
L 291.776308 246.47681 
L 292.680638 243.11343 
L 294.489299 233.501861 
L 295.393629 229.575198 
L 296.297959 228.638381 
L 297.202289 226.931472 
L 298.106619 227.308672 
L 299.01095 230.782409 
L 299.91528 234.956142 
L 300.81961 236.185888 
L 301.72394 236.77333 
L 302.62827 234.506562 
L 303.532601 230.776807 
L 305.341261 218.837117 
L 306.245591 215.180419 
L 307.149921 213.869551 
L 308.054252 214.792853 
L 308.958582 215.4634 
L 309.862912 219.170167 
L 310.767242 222.296478 
L 311.671573 224.524236 
L 312.575903 224.36664 
L 313.480233 223.799706 
L 314.384563 219.03054 
L 316.193224 206.762582 
L 317.097554 202.188188 
L 318.001884 199.094613 
L 318.906214 198.020025 
L 319.810544 202.084579 
L 320.714875 202.68875 
L 322.523535 207.701251 
L 323.427865 207.99803 
L 324.332195 205.097414 
L 326.140856 196.845589 
L 327.045186 188.701427 
L 327.949516 183.874998 
L 328.853847 179.925 
L 330.662507 180.195041 
L 333.375498 188.917242 
L 334.279828 187.879727 
L 335.184158 185.010367 
L 337.897149 168.844682 
L 338.801479 161.700468 
L 339.705809 160.00238 
L 340.610139 159.758666 
L 341.514469 160.506715 
L 343.32313 166.659106 
L 344.22746 169.444838 
L 345.13179 169.331073 
L 346.036121 168.286437 
L 347.844781 156.042497 
L 349.653441 144.533804 
L 350.557772 141.89842 
L 351.462102 142.606545 
L 352.366432 145.518854 
L 353.270762 147.820266 
L 354.175092 151.200047 
L 355.079423 153.398321 
L 355.983753 152.253915 
L 356.888083 150.677791 
L 357.792413 146.21999 
L 360.505404 127.100647 
L 361.409734 123.822615 
L 362.314064 122.98991 
L 363.218395 124.630894 
L 365.027055 132.338522 
L 365.931385 134.016819 
L 366.835715 134.586479 
L 367.740046 132.600956 
L 368.644376 127.240614 
L 369.548706 120.176628 
L 370.453036 110.619309 
L 371.357366 105.326159 
L 372.261697 100.696716 
L 373.166027 99.132709 
L 374.070357 101.999335 
L 374.974687 104.450733 
L 376.783348 113.691146 
L 377.687678 112.63208 
L 378.592008 111.069578 
L 380.400669 97.849169 
L 381.304999 88.526167 
L 382.209329 81.200999 
L 383.113659 77.819239 
L 384.017989 77.498481 
L 384.92232 80.225372 
L 386.73098 87.291279 
L 387.63531 89.636717 
L 388.53964 89.03841 
L 389.443971 85.133098 
L 391.252631 72.009036 
L 392.156961 65.51508 
L 393.061291 57.5191 
L 393.965622 54.09852 
L 394.869952 53.568 
L 395.774282 55.563995 
L 396.678612 60.475361 
L 397.582943 64.14813 
L 398.487273 66.488571 
L 398.487273 66.488571 
" clip-path="url(#p2e2f824a03)" style="fill: none; stroke: #1f77b4; stroke-width: 1.5; stroke-linecap: square"/>
   </g>
   <g id="patch_3">
    <path d="M 57.6 307.584 
L 57.6 41.472 
" style="fill: none; stroke: #000000; stroke-width: 0.8; stroke-linejoin: miter; stroke-linecap: square"/>
   </g>
   <g id="patch_4">
    <path d="M 414.72 307.584 
L 414.72 41.472 
" style="fill: none; stroke: #000000; stroke-width: 0.8; stroke-linejoin: miter; stroke-linecap: square"/>
   </g>
   <g id="patch_5">
    <path d="M 57.6 307.584 
L 414.72 307.584 
" style="fill: none; stroke: #000000; stroke-width: 0.8; stroke-linejoin: miter; stroke-linecap: square"/>
   </g>
   <g id="patch_6">
    <path d="M 57.6 41.472 
L 414.72 41.472 
" style="fill: none; stroke: #000000; stroke-width: 0.8; stroke-linejoin: miter; stroke-linecap: square"/>
   </g>
  </g>
  <g id="text_14">
   <!-- Optimal alpha: 0.10 with MSE: 43.66 -->
   <g transform="translate(120.409688 16.030125) scale(0.12 -0.12)">
    <defs>
     <path id="DejaVuSans-4f" d="M 2522 4238 
Q 1834 4238 1429 3725 
Q 1025 3213 1025 2328 
Q 1025 1447 1429 934 
Q 1834 422 2522 422 
Q 3209 422 3611 934 
Q 4013 1447 4013 2328 
Q 4013 3213 3611 3725 
Q 3209 4238 2522 4238 
z
M 2522 4750 
Q 3503 4750 4090 4092 
Q 4678 3434 4678 2328 
Q 4678 1225 4090 567 
Q 3503 -91 2522 -91 
Q 1538 -91 948 565 
Q 359 1222 359 2328 
Q 359 3434 948 4092 
Q 1538 4750 2522 4750 
z
" transform="scale(0.015625)"/>
     <path id="DejaVuSans-70" d="M 1159 525 
L 1159 -1331 
L 581 -1331 
L 581 3500 
L 1159 3500 
L 1159 2969 
Q 1341 3281 1617 3432 
Q 1894 3584 2278 3584 
Q 2916 3584 3314 3078 
Q 3713 2572 3713 1747 
Q 3713 922 3314 415 
Q 2916 -91 2278 -91 
Q 1894 -91 1617 61 
Q 1341 213 1159 525 
z
M 3116 1747 
Q 3116 2381 2855 2742 
Q 2594 3103 2138 3103 
Q 1681 3103 1420 2742 
Q 1159 2381 1159 1747 
Q 1159 1113 1420 752 
Q 1681 391 2138 391 
Q 2594 391 2855 752 
Q 3116 1113 3116 1747 
z
" transform="scale(0.015625)"/>
     <path id="DejaVuSans-74" d="M 1172 4494 
L 1172 3500 
L 2356 3500 
L 2356 3053 
L 1172 3053 
L 1172 1153 
Q 1172 725 1289 603 
Q 1406 481 1766 481 
L 2356 481 
L 2356 0 
L 1766 0 
Q 1100 0 847 248 
Q 594 497 594 1153 
L 594 3053 
L 172 3053 
L 172 3500 
L 594 3500 
L 594 4494 
L 1172 4494 
z
" transform="scale(0.015625)"/>
     <path id="DejaVuSans-69" d="M 603 3500 
L 1178 3500 
L 1178 0 
L 603 0 
L 603 3500 
z
M 603 4863 
L 1178 4863 
L 1178 4134 
L 603 4134 
L 603 4863 
z
" transform="scale(0.015625)"/>
     <path id="DejaVuSans-6d" d="M 3328 2828 
Q 3544 3216 3844 3400 
Q 4144 3584 4550 3584 
Q 5097 3584 5394 3201 
Q 5691 2819 5691 2113 
L 5691 0 
L 5113 0 
L 5113 2094 
Q 5113 2597 4934 2840 
Q 4756 3084 4391 3084 
Q 3944 3084 3684 2787 
Q 3425 2491 3425 1978 
L 3425 0 
L 2847 0 
L 2847 2094 
Q 2847 2600 2669 2842 
Q 2491 3084 2119 3084 
Q 1678 3084 1418 2786 
Q 1159 2488 1159 1978 
L 1159 0 
L 581 0 
L 581 3500 
L 1159 3500 
L 1159 2956 
Q 1356 3278 1631 3431 
Q 1906 3584 2284 3584 
Q 2666 3584 2933 3390 
Q 3200 3197 3328 2828 
z
" transform="scale(0.015625)"/>
     <path id="DejaVuSans-61" d="M 2194 1759 
Q 1497 1759 1228 1600 
Q 959 1441 959 1056 
Q 959 750 1161 570 
Q 1363 391 1709 391 
Q 2188 391 2477 730 
Q 2766 1069 2766 1631 
L 2766 1759 
L 2194 1759 
z
M 3341 1997 
L 3341 0 
L 2766 0 
L 2766 531 
Q 2569 213 2275 61 
Q 1981 -91 1556 -91 
Q 1019 -91 701 211 
Q 384 513 384 1019 
Q 384 1609 779 1909 
Q 1175 2209 1959 2209 
L 2766 2209 
L 2766 2266 
Q 2766 2663 2505 2880 
Q 2244 3097 1772 3097 
Q 1472 3097 1187 3025 
Q 903 2953 641 2809 
L 641 3341 
Q 956 3463 1253 3523 
Q 1550 3584 1831 3584 
Q 2591 3584 2966 3190 
Q 3341 2797 3341 1997 
z
" transform="scale(0.015625)"/>
     <path id="DejaVuSans-6c" d="M 603 4863 
L 1178 4863 
L 1178 0 
L 603 0 
L 603 4863 
z
" transform="scale(0.015625)"/>
     <path id="DejaVuSans-20" transform="scale(0.015625)"/>
     <path id="DejaVuSans-68" d="M 3513 2113 
L 3513 0 
L 2938 0 
L 2938 2094 
Q 2938 2591 2744 2837 
Q 2550 3084 2163 3084 
Q 1697 3084 1428 2787 
Q 1159 2491 1159 1978 
L 1159 0 
L 581 0 
L 581 4863 
L 1159 4863 
L 1159 2956 
Q 1366 3272 1645 3428 
Q 1925 3584 2291 3584 
Q 2894 3584 3203 3211 
Q 3513 2838 3513 2113 
z
" transform="scale(0.015625)"/>
     <path id="DejaVuSans-3a" d="M 750 794 
L 1409 794 
L 1409 0 
L 750 0 
L 750 794 
z
M 750 3309 
L 1409 3309 
L 1409 2516 
L 750 2516 
L 750 3309 
z
" transform="scale(0.015625)"/>
     <path id="DejaVuSans-2e" d="M 684 794 
L 1344 794 
L 1344 0 
L 684 0 
L 684 794 
z
" transform="scale(0.015625)"/>
     <path id="DejaVuSans-77" d="M 269 3500 
L 844 3500 
L 1563 769 
L 2278 3500 
L 2956 3500 
L 3675 769 
L 4391 3500 
L 4966 3500 
L 4050 0 
L 3372 0 
L 2619 2869 
L 1863 0 
L 1184 0 
L 269 3500 
z
" transform="scale(0.015625)"/>
     <path id="DejaVuSans-4d" d="M 628 4666 
L 1569 4666 
L 2759 1491 
L 3956 4666 
L 4897 4666 
L 4897 0 
L 4281 0 
L 4281 4097 
L 3078 897 
L 2444 897 
L 1241 4097 
L 1241 0 
L 628 0 
L 628 4666 
z
" transform="scale(0.015625)"/>
     <path id="DejaVuSans-53" d="M 3425 4513 
L 3425 3897 
Q 3066 4069 2747 4153 
Q 2428 4238 2131 4238 
Q 1616 4238 1336 4038 
Q 1056 3838 1056 3469 
Q 1056 3159 1242 3001 
Q 1428 2844 1947 2747 
L 2328 2669 
Q 3034 2534 3370 2195 
Q 3706 1856 3706 1288 
Q 3706 609 3251 259 
Q 2797 -91 1919 -91 
Q 1588 -91 1214 -16 
Q 841 59 441 206 
L 441 856 
Q 825 641 1194 531 
Q 1563 422 1919 422 
Q 2459 422 2753 634 
Q 3047 847 3047 1241 
Q 3047 1584 2836 1778 
Q 2625 1972 2144 2069 
L 1759 2144 
Q 1053 2284 737 2584 
Q 422 2884 422 3419 
Q 422 4038 858 4394 
Q 1294 4750 2059 4750 
Q 2388 4750 2728 4690 
Q 3069 4631 3425 4513 
z
" transform="scale(0.015625)"/>
     <path id="DejaVuSans-45" d="M 628 4666 
L 3578 4666 
L 3578 4134 
L 1259 4134 
L 1259 2753 
L 3481 2753 
L 3481 2222 
L 1259 2222 
L 1259 531 
L 3634 531 
L 3634 0 
L 628 0 
L 628 4666 
z
" transform="scale(0.015625)"/>
     <path id="DejaVuSans-36" d="M 2113 2584 
Q 1688 2584 1439 2293 
Q 1191 2003 1191 1497 
Q 1191 994 1439 701 
Q 1688 409 2113 409 
Q 2538 409 2786 701 
Q 3034 994 3034 1497 
Q 3034 2003 2786 2293 
Q 2538 2584 2113 2584 
z
M 3366 4563 
L 3366 3988 
Q 3128 4100 2886 4159 
Q 2644 4219 2406 4219 
Q 1781 4219 1451 3797 
Q 1122 3375 1075 2522 
Q 1259 2794 1537 2939 
Q 1816 3084 2150 3084 
Q 2853 3084 3261 2657 
Q 3669 2231 3669 1497 
Q 3669 778 3244 343 
Q 2819 -91 2113 -91 
Q 1303 -91 875 529 
Q 447 1150 447 2328 
Q 447 3434 972 4092 
Q 1497 4750 2381 4750 
Q 2619 4750 2861 4703 
Q 3103 4656 3366 4563 
z
" transform="scale(0.015625)"/>
    </defs>
    <use xlink:href="#DejaVuSans-4f"/>
    <use xlink:href="#DejaVuSans-70" transform="translate(78.710938 0)"/>
    <use xlink:href="#DejaVuSans-74" transform="translate(142.1875 0)"/>
    <use xlink:href="#DejaVuSans-69" transform="translate(181.396484 0)"/>
    <use xlink:href="#DejaVuSans-6d" transform="translate(209.179688 0)"/>
    <use xlink:href="#DejaVuSans-61" transform="translate(306.591797 0)"/>
    <use xlink:href="#DejaVuSans-6c" transform="translate(367.871094 0)"/>
    <use xlink:href="#DejaVuSans-20" transform="translate(395.654297 0)"/>
    <use xlink:href="#DejaVuSans-61" transform="translate(427.441406 0)"/>
    <use xlink:href="#DejaVuSans-6c" transform="translate(488.720703 0)"/>
    <use xlink:href="#DejaVuSans-70" transform="translate(516.503906 0)"/>
    <use xlink:href="#DejaVuSans-68" transform="translate(579.980469 0)"/>
    <use xlink:href="#DejaVuSans-61" transform="translate(643.359375 0)"/>
    <use xlink:href="#DejaVuSans-3a" transform="translate(704.638672 0)"/>
    <use xlink:href="#DejaVuSans-20" transform="translate(738.330078 0)"/>
    <use xlink:href="#DejaVuSans-30" transform="translate(770.117188 0)"/>
    <use xlink:href="#DejaVuSans-2e" transform="translate(833.740234 0)"/>
    <use xlink:href="#DejaVuSans-31" transform="translate(865.527344 0)"/>
    <use xlink:href="#DejaVuSans-30" transform="translate(929.150391 0)"/>
    <use xlink:href="#DejaVuSans-20" transform="translate(992.773438 0)"/>
    <use xlink:href="#DejaVuSans-77" transform="translate(1024.560547 0)"/>
    <use xlink:href="#DejaVuSans-69" transform="translate(1106.347656 0)"/>
    <use xlink:href="#DejaVuSans-74" transform="translate(1134.130859 0)"/>
    <use xlink:href="#DejaVuSans-68" transform="translate(1173.339844 0)"/>
    <use xlink:href="#DejaVuSans-20" transform="translate(1236.71875 0)"/>
    <use xlink:href="#DejaVuSans-4d" transform="translate(1268.505859 0)"/>
    <use xlink:href="#DejaVuSans-53" transform="translate(1354.785156 0)"/>
    <use xlink:href="#DejaVuSans-45" transform="translate(1418.261719 0)"/>
    <use xlink:href="#DejaVuSans-3a" transform="translate(1481.445312 0)"/>
    <use xlink:href="#DejaVuSans-20" transform="translate(1515.136719 0)"/>
    <use xlink:href="#DejaVuSans-34" transform="translate(1546.923828 0)"/>
    <use xlink:href="#DejaVuSans-33" transform="translate(1610.546875 0)"/>
    <use xlink:href="#DejaVuSans-2e" transform="translate(1674.169922 0)"/>
    <use xlink:href="#DejaVuSans-36" transform="translate(1705.957031 0)"/>
    <use xlink:href="#DejaVuSans-36" transform="translate(1769.580078 0)"/>
   </g>
  </g>
 </g>
 <defs>
  <clipPath id="p2e2f824a03">
   <rect x="57.6" y="41.472" width="357.12" height="266.112"/>
  </clipPath>
 </defs>
</svg>
