<?xml version="1.0" encoding="utf-8" standalone="no"?>
<!DOCTYPE svg PUBLIC "-//W3C//DTD SVG 1.1//EN"
  "http://www.w3.org/Graphics/SVG/1.1/DTD/svg11.dtd">
<svg xmlns:xlink="http://www.w3.org/1999/xlink" width="460.8pt" height="345.6pt" viewBox="0 0 460.8 345.6" xmlns="http://www.w3.org/2000/svg" version="1.1">
 <metadata>
  <rdf:RDF xmlns:dc="http://purl.org/dc/elements/1.1/" xmlns:cc="http://creativecommons.org/ns#" xmlns:rdf="http://www.w3.org/1999/02/22-rdf-syntax-ns#">
   <cc:Work>
    <dc:type rdf:resource="http://purl.org/dc/dcmitype/StillImage"/>
    <dc:date>2025-12-30T09:51:37.122680</dc:date>
    <dc:format>image/svg+xml</dc:format>
    <dc:creator>
     <cc:Agent>
      <dc:title>Matplotlib v3.10.3, https://matplotlib.org/</dc:title>
     </cc:Agent>
    </dc:creator>
   </cc:Work>
  </rdf:RDF>
 </metadata>
 <defs>
  <style type="text/css">*{stroke-linejoin: round; stroke-linecap: butt}</style>
 </defs>
 <g id="figure_1">
  <g id="patch_1">
   <path d="M 0 345.6 
L 460.8 345.6 
L 460.8 0 
L 0 0 
z
" style="fill: #ffffff"/>
  </g>
  <g id="axes_1">
   <g id="patch_2">
    <path d="M 57.6 307.584 
L 414.72 307.584 
L 414.72 41.472 
L 57.6 41.472 
z
" style="fill: #ffffff"/>
   </g>
   <g id="matplotlib.axis_1">
    <g id="xtick_1">
     <g id="line2d_1">
      <defs>
       <path id="m491fe36776" d="M 0 0 
L 0 3.5 
" style="stroke: #000000; stroke-width: 0.8"/>
      </defs>
      <g>
       <use xlink:href="#m491fe36776" x="73.832727" y="307.584" style="stroke: #000000; stroke-width: 0.8"/>
      </g>
     </g>
     <g id="text_1">
      <!-- 0 -->
      <g transform="translate(70.651477 322.182437) scale(0.1 -0.1)">
       <defs>
        <path id="DejaVuSans-30" d="M 2034 4250 
Q 1547 4250 1301 3770 
Q 1056 3291 1056 2328 
Q 1056 1369 1301 889 
Q 1547 409 2034 409 
Q 2525 409 2770 889 
Q 3016 1369 3016 2328 
Q 3016 3291 2770 3770 
Q 2525 4250 2034 4250 
z
M 2034 4750 
Q 2819 4750 3233 4129 
Q 3647 3509 3647 2328 
Q 3647 1150 3233 529 
Q 2819 -91 2034 -91 
Q 1250 -91 836 529 
Q 422 1150 422 2328 
Q 422 3509 836 4129 
Q 1250 4750 2034 4750 
z
" transform="scale(0.015625)"/>
       </defs>
       <use xlink:href="#DejaVuSans-30"/>
      </g>
     </g>
    </g>
    <g id="xtick_2">
     <g id="line2d_2">
      <g>
       <use xlink:href="#m491fe36776" x="119.049238" y="307.584" style="stroke: #000000; stroke-width: 0.8"/>
      </g>
     </g>
     <g id="text_2">
      <!-- 50 -->
      <g transform="translate(112.686738 322.182437) scale(0.1 -0.1)">
       <defs>
        <path id="DejaVuSans-35" d="M 691 4666 
L 3169 4666 
L 3169 4134 
L 1269 4134 
L 1269 2991 
Q 1406 3038 1543 3061 
Q 1681 3084 1819 3084 
Q 2600 3084 3056 2656 
Q 3513 2228 3513 1497 
Q 3513 744 3044 326 
Q 2575 -91 1722 -91 
Q 1428 -91 1123 -41 
Q 819 9 494 109 
L 494 744 
Q 775 591 1075 516 
Q 1375 441 1709 441 
Q 2250 441 2565 725 
Q 2881 1009 2881 1497 
Q 2881 1984 2565 2268 
Q 2250 2553 1709 2553 
Q 1456 2553 1204 2497 
Q 953 2441 691 2322 
L 691 4666 
z
" transform="scale(0.015625)"/>
       </defs>
       <use xlink:href="#DejaVuSans-35"/>
       <use xlink:href="#DejaVuSans-30" transform="translate(63.623047 0)"/>
      </g>
     </g>
    </g>
    <g id="xtick_3">
     <g id="line2d_3">
      <g>
       <use xlink:href="#m491fe36776" x="164.265748" y="307.584" style="stroke: #000000; stroke-width: 0.8"/>
      </g>
     </g>
     <g id="text_3">
      <!-- 100 -->
      <g transform="translate(154.721998 322.182437) scale(0.1 -0.1)">
       <defs>
        <path id="DejaVuSans-31" d="M 794 531 
L 1825 531 
L 1825 4091 
L 703 3866 
L 703 4441 
L 1819 4666 
L 2450 4666 
L 2450 531 
L 3481 531 
L 3481 0 
L 794 0 
L 794 531 
z
" transform="scale(0.015625)"/>
       </defs>
       <use xlink:href="#DejaVuSans-31"/>
       <use xlink:href="#DejaVuSans-30" transform="translate(63.623047 0)"/>
       <use xlink:href="#DejaVuSans-30" transform="translate(127.246094 0)"/>
      </g>
     </g>
    </g>
    <g id="xtick_4">
     <g id="line2d_4">
      <g>
       <use xlink:href="#m491fe36776" x="209.482259" y="307.584" style="stroke: #000000; stroke-width: 0.8"/>
      </g>
     </g>
     <g id="text_4">
      <!-- 150 -->
      <g transform="translate(199.938509 322.182437) scale(0.1 -0.1)">
       <use xlink:href="#DejaVuSans-31"/>
       <use xlink:href="#DejaVuSans-35" transform="translate(63.623047 0)"/>
       <use xlink:href="#DejaVuSans-30" transform="translate(127.246094 0)"/>
      </g>
     </g>
    </g>
    <g id="xtick_5">
     <g id="line2d_5">
      <g>
       <use xlink:href="#m491fe36776" x="254.698769" y="307.584" style="stroke: #000000; stroke-width: 0.8"/>
      </g>
     </g>
     <g id="text_5">
      <!-- 200 -->
      <g transform="translate(245.155019 322.182437) scale(0.1 -0.1)">
       <defs>
        <path id="DejaVuSans-32" d="M 1228 531 
L 3431 531 
L 3431 0 
L 469 0 
L 469 531 
Q 828 903 1448 1529 
Q 2069 2156 2228 2338 
Q 2531 2678 2651 2914 
Q 2772 3150 2772 3378 
Q 2772 3750 2511 3984 
Q 2250 4219 1831 4219 
Q 1534 4219 1204 4116 
Q 875 4013 500 3803 
L 500 4441 
Q 881 4594 1212 4672 
Q 1544 4750 1819 4750 
Q 2544 4750 2975 4387 
Q 3406 4025 3406 3419 
Q 3406 3131 3298 2873 
Q 3191 2616 2906 2266 
Q 2828 2175 2409 1742 
Q 1991 1309 1228 531 
z
" transform="scale(0.015625)"/>
       </defs>
       <use xlink:href="#DejaVuSans-32"/>
       <use xlink:href="#DejaVuSans-30" transform="translate(63.623047 0)"/>
       <use xlink:href="#DejaVuSans-30" transform="translate(127.246094 0)"/>
      </g>
     </g>
    </g>
    <g id="xtick_6">
     <g id="line2d_6">
      <g>
       <use xlink:href="#m491fe36776" x="299.91528" y="307.584" style="stroke: #000000; stroke-width: 0.8"/>
      </g>
     </g>
     <g id="text_6">
      <!-- 250 -->
      <g transform="translate(290.37153 322.182437) scale(0.1 -0.1)">
       <use xlink:href="#DejaVuSans-32"/>
       <use xlink:href="#DejaVuSans-35" transform="translate(63.623047 0)"/>
       <use xlink:href="#DejaVuSans-30" transform="translate(127.246094 0)"/>
      </g>
     </g>
    </g>
    <g id="xtick_7">
     <g id="line2d_7">
      <g>
       <use xlink:href="#m491fe36776" x="345.13179" y="307.584" style="stroke: #000000; stroke-width: 0.8"/>
      </g>
     </g>
     <g id="text_7">
      <!-- 300 -->
      <g transform="translate(335.58804 322.182437) scale(0.1 -0.1)">
       <defs>
        <path id="DejaVuSans-33" d="M 2597 2516 
Q 3050 2419 3304 2112 
Q 3559 1806 3559 1356 
Q 3559 666 3084 287 
Q 2609 -91 1734 -91 
Q 1441 -91 1130 -33 
Q 819 25 488 141 
L 488 750 
Q 750 597 1062 519 
Q 1375 441 1716 441 
Q 2309 441 2620 675 
Q 2931 909 2931 1356 
Q 2931 1769 2642 2001 
Q 2353 2234 1838 2234 
L 1294 2234 
L 1294 2753 
L 1863 2753 
Q 2328 2753 2575 2939 
Q 2822 3125 2822 3475 
Q 2822 3834 2567 4026 
Q 2313 4219 1838 4219 
Q 1578 4219 1281 4162 
Q 984 4106 628 3988 
L 628 4550 
Q 988 4650 1302 4700 
Q 1616 4750 1894 4750 
Q 2613 4750 3031 4423 
Q 3450 4097 3450 3541 
Q 3450 3153 3228 2886 
Q 3006 2619 2597 2516 
z
" transform="scale(0.015625)"/>
       </defs>
       <use xlink:href="#DejaVuSans-33"/>
       <use xlink:href="#DejaVuSans-30" transform="translate(63.623047 0)"/>
       <use xlink:href="#DejaVuSans-30" transform="translate(127.246094 0)"/>
      </g>
     </g>
    </g>
    <g id="xtick_8">
     <g id="line2d_8">
      <g>
       <use xlink:href="#m491fe36776" x="390.348301" y="307.584" style="stroke: #000000; stroke-width: 0.8"/>
      </g>
     </g>
     <g id="text_8">
      <!-- 350 -->
      <g transform="translate(380.804551 322.182437) scale(0.1 -0.1)">
       <use xlink:href="#DejaVuSans-33"/>
       <use xlink:href="#DejaVuSans-35" transform="translate(63.623047 0)"/>
       <use xlink:href="#DejaVuSans-30" transform="translate(127.246094 0)"/>
      </g>
     </g>
    </g>
   </g>
   <g id="matplotlib.axis_2">
    <g id="ytick_1">
     <g id="line2d_9">
      <defs>
       <path id="mc414378e58" d="M 0 0 
L -3.5 0 
" style="stroke: #000000; stroke-width: 0.8"/>
      </defs>
      <g>
       <use xlink:href="#mc414378e58" x="57.6" y="278.621687" style="stroke: #000000; stroke-width: 0.8"/>
      </g>
     </g>
     <g id="text_9">
      <!-- 0 -->
      <g transform="translate(44.2375 282.420906) scale(0.1 -0.1)">
       <use xlink:href="#DejaVuSans-30"/>
      </g>
     </g>
    </g>
    <g id="ytick_2">
     <g id="line2d_10">
      <g>
       <use xlink:href="#mc414378e58" x="57.6" y="243.47586" style="stroke: #000000; stroke-width: 0.8"/>
      </g>
     </g>
     <g id="text_10">
      <!-- 10 -->
      <g transform="translate(37.875 247.275079) scale(0.1 -0.1)">
       <use xlink:href="#DejaVuSans-31"/>
       <use xlink:href="#DejaVuSans-30" transform="translate(63.623047 0)"/>
      </g>
     </g>
    </g>
    <g id="ytick_3">
     <g id="line2d_11">
      <g>
       <use xlink:href="#mc414378e58" x="57.6" y="208.330033" style="stroke: #000000; stroke-width: 0.8"/>
      </g>
     </g>
     <g id="text_11">
      <!-- 20 -->
      <g transform="translate(37.875 212.129252) scale(0.1 -0.1)">
       <use xlink:href="#DejaVuSans-32"/>
       <use xlink:href="#DejaVuSans-30" transform="translate(63.623047 0)"/>
      </g>
     </g>
    </g>
    <g id="ytick_4">
     <g id="line2d_12">
      <g>
       <use xlink:href="#mc414378e58" x="57.6" y="173.184207" style="stroke: #000000; stroke-width: 0.8"/>
      </g>
     </g>
     <g id="text_12">
      <!-- 30 -->
      <g transform="translate(37.875 176.983425) scale(0.1 -0.1)">
       <use xlink:href="#DejaVuSans-33"/>
       <use xlink:href="#DejaVuSans-30" transform="translate(63.623047 0)"/>
      </g>
     </g>
    </g>
    <g id="ytick_5">
     <g id="line2d_13">
      <g>
       <use xlink:href="#mc414378e58" x="57.6" y="138.03838" style="stroke: #000000; stroke-width: 0.8"/>
      </g>
     </g>
     <g id="text_13">
      <!-- 40 -->
      <g transform="translate(37.875 141.837598) scale(0.1 -0.1)">
       <defs>
        <path id="DejaVuSans-34" d="M 2419 4116 
L 825 1625 
L 2419 1625 
L 2419 4116 
z
M 2253 4666 
L 3047 4666 
L 3047 1625 
L 3713 1625 
L 3713 1100 
L 3047 1100 
L 3047 0 
L 2419 0 
L 2419 1100 
L 313 1100 
L 313 1709 
L 2253 4666 
z
" transform="scale(0.015625)"/>
       </defs>
       <use xlink:href="#DejaVuSans-34"/>
       <use xlink:href="#DejaVuSans-30" transform="translate(63.623047 0)"/>
      </g>
     </g>
    </g>
    <g id="ytick_6">
     <g id="line2d_14">
      <g>
       <use xlink:href="#mc414378e58" x="57.6" y="102.892553" style="stroke: #000000; stroke-width: 0.8"/>
      </g>
     </g>
     <g id="text_14">
      <!-- 50 -->
      <g transform="translate(37.875 106.691771) scale(0.1 -0.1)">
       <use xlink:href="#DejaVuSans-35"/>
       <use xlink:href="#DejaVuSans-30" transform="translate(63.623047 0)"/>
      </g>
     </g>
    </g>
    <g id="ytick_7">
     <g id="line2d_15">
      <g>
       <use xlink:href="#mc414378e58" x="57.6" y="67.746726" style="stroke: #000000; stroke-width: 0.8"/>
      </g>
     </g>
     <g id="text_15">
      <!-- 60 -->
      <g transform="translate(37.875 71.545945) scale(0.1 -0.1)">
       <defs>
        <path id="DejaVuSans-36" d="M 2113 2584 
Q 1688 2584 1439 2293 
Q 1191 2003 1191 1497 
Q 1191 994 1439 701 
Q 1688 409 2113 409 
Q 2538 409 2786 701 
Q 3034 994 3034 1497 
Q 3034 2003 2786 2293 
Q 2538 2584 2113 2584 
z
M 3366 4563 
L 3366 3988 
Q 3128 4100 2886 4159 
Q 2644 4219 2406 4219 
Q 1781 4219 1451 3797 
Q 1122 3375 1075 2522 
Q 1259 2794 1537 2939 
Q 1816 3084 2150 3084 
Q 2853 3084 3261 2657 
Q 3669 2231 3669 1497 
Q 3669 778 3244 343 
Q 2819 -91 2113 -91 
Q 1303 -91 875 529 
Q 447 1150 447 2328 
Q 447 3434 972 4092 
Q 1497 4750 2381 4750 
Q 2619 4750 2861 4703 
Q 3103 4656 3366 4563 
z
" transform="scale(0.015625)"/>
       </defs>
       <use xlink:href="#DejaVuSans-36"/>
       <use xlink:href="#DejaVuSans-30" transform="translate(63.623047 0)"/>
      </g>
     </g>
    </g>
   </g>
   <g id="line2d_16">
    <path d="M 73.832727 230.569663 
L 74.737057 216.185754 
L 75.641388 215.310351 
L 76.545718 231.027187 
L 77.450048 212.912923 
L 78.354378 202.662801 
L 79.258709 241.804459 
L 80.163039 234.432113 
L 81.067369 207.555884 
L 81.971699 232.056452 
L 82.876029 236.133484 
L 83.78036 223.184262 
L 84.68469 212.793403 
L 86.49335 236.060691 
L 87.39768 230.41119 
L 88.302011 215.726707 
L 89.206341 241.645363 
L 90.110671 238.519132 
L 91.015001 242.518012 
L 91.919331 244.134522 
L 92.823662 249.653579 
L 93.727992 248.896639 
L 94.632322 242.198723 
L 95.536652 243.740236 
L 96.440983 241.873506 
L 97.345313 232.431342 
L 98.249643 250.128282 
L 99.153973 249.018525 
L 100.058303 251.262167 
L 100.962634 251.409543 
L 101.866964 242.9285 
L 102.771294 255.361991 
L 103.675624 259.026575 
L 104.579954 259.789386 
L 105.484285 258.094545 
L 106.388615 244.923385 
L 107.292945 249.414108 
L 108.197275 243.311267 
L 109.101605 252.508392 
L 110.005936 252.095011 
L 110.910266 254.62292 
L 111.814596 259.542131 
L 112.718926 262.978224 
L 113.623257 265.740995 
L 114.527587 263.810303 
L 115.431917 263.275177 
L 116.336247 267.284099 
L 117.240577 261.382504 
L 118.144908 262.192049 
L 119.049238 250.321601 
L 119.953568 257.570851 
L 120.857898 261.495735 
L 121.762228 266.785659 
L 122.666559 270.601288 
L 123.570889 271.703606 
L 124.475219 271.858684 
L 125.379549 269.936092 
L 126.283879 270.870529 
L 127.18821 269.270851 
L 128.09254 267.92108 
L 128.99687 267.845766 
L 129.9012 262.885109 
L 130.805531 264.756163 
L 131.709861 264.782978 
L 132.614191 267.870087 
L 133.518521 273.025658 
L 134.422851 274.531687 
L 135.327182 279.86592 
L 136.231512 276.540431 
L 137.135842 277.768616 
L 138.040172 274.644335 
L 138.944502 270.749957 
L 139.848833 272.406386 
L 140.753163 264.569172 
L 141.657493 268.115124 
L 142.561823 270.336636 
L 143.466153 269.549392 
L 144.370484 276.084466 
L 145.274814 274.083735 
L 146.179144 280.626924 
L 147.083474 280.115233 
L 147.987805 281.483871 
L 148.892135 277.063124 
L 149.796465 270.390055 
L 150.700795 272.499428 
L 151.605125 267.091629 
L 152.509456 267.50421 
L 153.413786 265.721686 
L 154.318116 268.419385 
L 155.222446 280.3638 
L 156.126776 277.875183 
L 157.031107 278.513082 
L 157.935437 276.307237 
L 158.839767 275.949541 
L 159.744097 278.516025 
L 160.648427 272.526907 
L 161.552758 269.706982 
L 162.457088 260.130585 
L 163.361418 261.223785 
L 164.265748 265.490463 
L 165.170079 270.960466 
L 166.074409 275.26503 
L 166.978739 277.282979 
L 167.883069 281.867139 
L 169.69173 282.859157 
L 170.59606 274.437719 
L 171.50039 271.121428 
L 172.40472 273.797627 
L 173.30905 264.387499 
L 174.213381 265.257453 
L 175.117711 261.43652 
L 176.022041 265.214182 
L 176.926371 281.871102 
L 177.830701 283.050266 
L 178.735032 284.970881 
L 179.639362 281.76357 
L 180.543692 278.046957 
L 181.448022 280.849096 
L 183.256683 268.470671 
L 184.161013 259.903444 
L 185.065343 261.208363 
L 185.969673 268.74102 
L 186.874004 272.779167 
L 187.778334 278.982842 
L 188.682664 280.98441 
L 189.586994 289.206832 
L 190.491324 289.383398 
L 191.395655 285.720514 
L 192.299985 282.525225 
L 193.204315 273.911749 
L 194.108645 272.294566 
L 195.012975 267.894345 
L 196.821636 266.118306 
L 197.725966 269.684804 
L 199.534626 287.669137 
L 200.438957 293.432296 
L 202.247617 289.978447 
L 203.151947 286.769775 
L 204.056278 280.519471 
L 205.864938 260.678826 
L 206.769268 261.283756 
L 207.673598 267.407467 
L 208.577929 272.762282 
L 209.482259 279.563798 
L 210.386589 280.283674 
L 211.290919 288.622503 
L 212.195249 295.488 
L 213.09958 291.091161 
L 214.00391 285.667309 
L 214.90824 273.184956 
L 215.81257 264.85378 
L 216.7169 259.350741 
L 219.429891 268.757409 
L 220.334221 279.987356 
L 221.238552 280.48932 
L 222.142882 286.780416 
L 223.047212 290.986062 
L 223.951542 289.806486 
L 224.855872 286.371163 
L 226.664533 263.492124 
L 227.568863 253.944344 
L 228.473193 254.401562 
L 229.377523 256.652428 
L 230.281854 262.311345 
L 231.186184 271.79184 
L 232.090514 274.741527 
L 232.994844 287.635449 
L 233.899174 291.452498 
L 234.803505 287.220124 
L 235.707835 278.999885 
L 236.612165 269.140145 
L 238.420826 251.868486 
L 239.325156 249.284857 
L 240.229486 250.382504 
L 241.133816 258.231656 
L 242.038146 272.533759 
L 243.846807 289.702925 
L 244.751137 288.215987 
L 245.655467 287.000496 
L 247.464128 268.353444 
L 248.368458 257.496228 
L 249.272788 245.25014 
L 250.177118 245.899717 
L 251.081448 247.23858 
L 251.985779 252.800989 
L 252.890109 261.001263 
L 253.794439 267.748079 
L 254.698769 278.054006 
L 255.6031 280.56432 
L 256.50743 277.590474 
L 257.41176 267.724423 
L 259.22042 241.058578 
L 260.124751 234.320578 
L 261.029081 232.574159 
L 261.933411 234.713512 
L 262.837741 238.115913 
L 263.742071 249.602434 
L 264.646402 258.426852 
L 265.550732 269.125679 
L 266.455062 272.37513 
L 267.359392 270.924097 
L 268.263722 263.620147 
L 269.168053 251.413878 
L 270.072383 235.751958 
L 270.976713 226.056892 
L 271.881043 220.53209 
L 272.785374 222.919989 
L 273.689704 231.16856 
L 274.594034 244.69139 
L 275.498364 256.334692 
L 276.402694 265.311559 
L 277.307025 265.785161 
L 278.211355 264.620036 
L 279.115685 259.843031 
L 281.828676 216.850219 
L 282.733006 212.30077 
L 283.637336 217.659264 
L 285.445996 240.049684 
L 286.350327 251.654027 
L 287.254657 259.977626 
L 288.158987 265.37787 
L 289.063317 260.392628 
L 289.967648 251.406715 
L 291.776308 219.229356 
L 292.680638 210.062798 
L 293.584968 204.715552 
L 294.489299 210.989854 
L 295.393629 215.133421 
L 296.297959 226.508269 
L 297.202289 244.718619 
L 298.106619 253.178735 
L 299.01095 252.388637 
L 299.91528 250.4944 
L 300.81961 241.799329 
L 301.72394 229.052233 
L 303.532601 194.180595 
L 304.436931 188.997381 
L 306.245591 204.543962 
L 307.149921 220.04765 
L 308.054252 233.141182 
L 308.958582 242.156381 
L 309.862912 246.234473 
L 310.767242 242.560017 
L 311.671573 231.982384 
L 313.480233 199.082177 
L 314.384563 185.48881 
L 315.288893 181.141835 
L 316.193224 181.289781 
L 317.097554 190.241225 
L 318.001884 207.804576 
L 318.906214 227.778707 
L 319.810544 236.258659 
L 320.714875 237.123552 
L 321.619205 228.364039 
L 322.523535 214.321576 
L 323.427865 202.44806 
L 324.332195 185.356569 
L 326.140856 159.596495 
L 327.045186 165.419752 
L 330.662507 218.661091 
L 331.566837 225.154057 
L 332.471167 214.73602 
L 333.375498 202.730865 
L 334.279828 181.933946 
L 335.184158 164.63799 
L 336.088488 149.736263 
L 336.992818 144.646387 
L 337.897149 147.156201 
L 339.705809 173.376355 
L 340.610139 190.638302 
L 341.514469 204.874416 
L 342.4188 207.670533 
L 343.32313 201.569094 
L 346.036121 151.314371 
L 346.940451 132.900176 
L 347.844781 126.370743 
L 348.749111 131.065074 
L 349.653441 146.483331 
L 351.462102 181.754027 
L 352.366432 191.897307 
L 353.270762 198.924903 
L 354.175092 193.288987 
L 356.888083 137.049287 
L 357.792413 123.982169 
L 358.696743 117.126405 
L 359.601074 120.436722 
L 360.505404 130.072724 
L 361.409734 149.074254 
L 362.314064 172.488272 
L 363.218395 185.335275 
L 364.122725 186.054564 
L 365.027055 177.37208 
L 365.931385 162.574713 
L 367.740046 123.584824 
L 368.644376 107.694475 
L 369.548706 99.548863 
L 370.453036 104.034932 
L 371.357366 112.969323 
L 373.166027 153.718039 
L 374.070357 165.748668 
L 374.974687 172.205091 
L 375.879017 161.991982 
L 376.783348 148.406467 
L 378.592008 103.110655 
L 379.496338 87.219717 
L 380.400669 77.195219 
L 381.304999 80.201815 
L 383.113659 112.357503 
L 384.017989 136.615195 
L 384.92232 153.816538 
L 385.82665 158.090948 
L 386.73098 147.468316 
L 387.63531 130.219725 
L 389.443971 83.185169 
L 390.348301 63.619819 
L 391.252631 53.568 
L 392.156961 60.18347 
L 393.061291 76.412712 
L 394.869952 116.303856 
L 395.774282 134.965246 
L 396.678612 141.95856 
L 397.582943 135.218998 
L 398.487273 112.362473 
L 398.487273 112.362473 
" clip-path="url(#p99d2e4c41a)" style="fill: none; stroke: #1f77b4; stroke-width: 1.5; stroke-linecap: square"/>
   </g>
   <g id="patch_3">
    <path d="M 57.6 307.584 
L 57.6 41.472 
" style="fill: none; stroke: #000000; stroke-width: 0.8; stroke-linejoin: miter; stroke-linecap: square"/>
   </g>
   <g id="patch_4">
    <path d="M 414.72 307.584 
L 414.72 41.472 
" style="fill: none; stroke: #000000; stroke-width: 0.8; stroke-linejoin: miter; stroke-linecap: square"/>
   </g>
   <g id="patch_5">
    <path d="M 57.6 307.584 
L 414.72 307.584 
" style="fill: none; stroke: #000000; stroke-width: 0.8; stroke-linejoin: miter; stroke-linecap: square"/>
   </g>
   <g id="patch_6">
    <path d="M 57.6 41.472 
L 414.72 41.472 
" style="fill: none; stroke: #000000; stroke-width: 0.8; stroke-linejoin: miter; stroke-linecap: square"/>
   </g>
  </g>
  <g id="text_16">
   <!-- Optimal ARIMA: (17, 19) -->
   <g transform="translate(157.840313 16.030125) scale(0.12 -0.12)">
    <defs>
     <path id="DejaVuSans-4f" d="M 2522 4238 
Q 1834 4238 1429 3725 
Q 1025 3213 1025 2328 
Q 1025 1447 1429 934 
Q 1834 422 2522 422 
Q 3209 422 3611 934 
Q 4013 1447 4013 2328 
Q 4013 3213 3611 3725 
Q 3209 4238 2522 4238 
z
M 2522 4750 
Q 3503 4750 4090 4092 
Q 4678 3434 4678 2328 
Q 4678 1225 4090 567 
Q 3503 -91 2522 -91 
Q 1538 -91 948 565 
Q 359 1222 359 2328 
Q 359 3434 948 4092 
Q 1538 4750 2522 4750 
z
" transform="scale(0.015625)"/>
     <path id="DejaVuSans-70" d="M 1159 525 
L 1159 -1331 
L 581 -1331 
L 581 3500 
L 1159 3500 
L 1159 2969 
Q 1341 3281 1617 3432 
Q 1894 3584 2278 3584 
Q 2916 3584 3314 3078 
Q 3713 2572 3713 1747 
Q 3713 922 3314 415 
Q 2916 -91 2278 -91 
Q 1894 -91 1617 61 
Q 1341 213 1159 525 
z
M 3116 1747 
Q 3116 2381 2855 2742 
Q 2594 3103 2138 3103 
Q 1681 3103 1420 2742 
Q 1159 2381 1159 1747 
Q 1159 1113 1420 752 
Q 1681 391 2138 391 
Q 2594 391 2855 752 
Q 3116 1113 3116 1747 
z
" transform="scale(0.015625)"/>
     <path id="DejaVuSans-74" d="M 1172 4494 
L 1172 3500 
L 2356 3500 
L 2356 3053 
L 1172 3053 
L 1172 1153 
Q 1172 725 1289 603 
Q 1406 481 1766 481 
L 2356 481 
L 2356 0 
L 1766 0 
Q 1100 0 847 248 
Q 594 497 594 1153 
L 594 3053 
L 172 3053 
L 172 3500 
L 594 3500 
L 594 4494 
L 1172 4494 
z
" transform="scale(0.015625)"/>
     <path id="DejaVuSans-69" d="M 603 3500 
L 1178 3500 
L 1178 0 
L 603 0 
L 603 3500 
z
M 603 4863 
L 1178 4863 
L 1178 4134 
L 603 4134 
L 603 4863 
z
" transform="scale(0.015625)"/>
     <path id="DejaVuSans-6d" d="M 3328 2828 
Q 3544 3216 3844 3400 
Q 4144 3584 4550 3584 
Q 5097 3584 5394 3201 
Q 5691 2819 5691 2113 
L 5691 0 
L 5113 0 
L 5113 2094 
Q 5113 2597 4934 2840 
Q 4756 3084 4391 3084 
Q 3944 3084 3684 2787 
Q 3425 2491 3425 1978 
L 3425 0 
L 2847 0 
L 2847 2094 
Q 2847 2600 2669 2842 
Q 2491 3084 2119 3084 
Q 1678 3084 1418 2786 
Q 1159 2488 1159 1978 
L 1159 0 
L 581 0 
L 581 3500 
L 1159 3500 
L 1159 2956 
Q 1356 3278 1631 3431 
Q 1906 3584 2284 3584 
Q 2666 3584 2933 3390 
Q 3200 3197 3328 2828 
z
" transform="scale(0.015625)"/>
     <path id="DejaVuSans-61" d="M 2194 1759 
Q 1497 1759 1228 1600 
Q 959 1441 959 1056 
Q 959 750 1161 570 
Q 1363 391 1709 391 
Q 2188 391 2477 730 
Q 2766 1069 2766 1631 
L 2766 1759 
L 2194 1759 
z
M 3341 1997 
L 3341 0 
L 2766 0 
L 2766 531 
Q 2569 213 2275 61 
Q 1981 -91 1556 -91 
Q 1019 -91 701 211 
Q 384 513 384 1019 
Q 384 1609 779 1909 
Q 1175 2209 1959 2209 
L 2766 2209 
L 2766 2266 
Q 2766 2663 2505 2880 
Q 2244 3097 1772 3097 
Q 1472 3097 1187 3025 
Q 903 2953 641 2809 
L 641 3341 
Q 956 3463 1253 3523 
Q 1550 3584 1831 3584 
Q 2591 3584 2966 3190 
Q 3341 2797 3341 1997 
z
" transform="scale(0.015625)"/>
     <path id="DejaVuSans-6c" d="M 603 4863 
L 1178 4863 
L 1178 0 
L 603 0 
L 603 4863 
z
" transform="scale(0.015625)"/>
     <path id="DejaVuSans-20" transform="scale(0.015625)"/>
     <path id="DejaVuSans-41" d="M 2188 4044 
L 1331 1722 
L 3047 1722 
L 2188 4044 
z
M 1831 4666 
L 2547 4666 
L 4325 0 
L 3669 0 
L 3244 1197 
L 1141 1197 
L 716 0 
L 50 0 
L 1831 4666 
z
" transform="scale(0.015625)"/>
     <path id="DejaVuSans-52" d="M 2841 2188 
Q 3044 2119 3236 1894 
Q 3428 1669 3622 1275 
L 4263 0 
L 3584 0 
L 2988 1197 
Q 2756 1666 2539 1819 
Q 2322 1972 1947 1972 
L 1259 1972 
L 1259 0 
L 628 0 
L 628 4666 
L 2053 4666 
Q 2853 4666 3247 4331 
Q 3641 3997 3641 3322 
Q 3641 2881 3436 2590 
Q 3231 2300 2841 2188 
z
M 1259 4147 
L 1259 2491 
L 2053 2491 
Q 2509 2491 2742 2702 
Q 2975 2913 2975 3322 
Q 2975 3731 2742 3939 
Q 2509 4147 2053 4147 
L 1259 4147 
z
" transform="scale(0.015625)"/>
     <path id="DejaVuSans-49" d="M 628 4666 
L 1259 4666 
L 1259 0 
L 628 0 
L 628 4666 
z
" transform="scale(0.015625)"/>
     <path id="DejaVuSans-4d" d="M 628 4666 
L 1569 4666 
L 2759 1491 
L 3956 4666 
L 4897 4666 
L 4897 0 
L 4281 0 
L 4281 4097 
L 3078 897 
L 2444 897 
L 1241 4097 
L 1241 0 
L 628 0 
L 628 4666 
z
" transform="scale(0.015625)"/>
     <path id="DejaVuSans-3a" d="M 750 794 
L 1409 794 
L 1409 0 
L 750 0 
L 750 794 
z
M 750 3309 
L 1409 3309 
L 1409 2516 
L 750 2516 
L 750 3309 
z
" transform="scale(0.015625)"/>
     <path id="DejaVuSans-28" d="M 1984 4856 
Q 1566 4138 1362 3434 
Q 1159 2731 1159 2009 
Q 1159 1288 1364 580 
Q 1569 -128 1984 -844 
L 1484 -844 
Q 1016 -109 783 600 
Q 550 1309 550 2009 
Q 550 2706 781 3412 
Q 1013 4119 1484 4856 
L 1984 4856 
z
" transform="scale(0.015625)"/>
     <path id="DejaVuSans-37" d="M 525 4666 
L 3525 4666 
L 3525 4397 
L 1831 0 
L 1172 0 
L 2766 4134 
L 525 4134 
L 525 4666 
z
" transform="scale(0.015625)"/>
     <path id="DejaVuSans-2c" d="M 750 794 
L 1409 794 
L 1409 256 
L 897 -744 
L 494 -744 
L 750 256 
L 750 794 
z
" transform="scale(0.015625)"/>
     <path id="DejaVuSans-39" d="M 703 97 
L 703 672 
Q 941 559 1184 500 
Q 1428 441 1663 441 
Q 2288 441 2617 861 
Q 2947 1281 2994 2138 
Q 2813 1869 2534 1725 
Q 2256 1581 1919 1581 
Q 1219 1581 811 2004 
Q 403 2428 403 3163 
Q 403 3881 828 4315 
Q 1253 4750 1959 4750 
Q 2769 4750 3195 4129 
Q 3622 3509 3622 2328 
Q 3622 1225 3098 567 
Q 2575 -91 1691 -91 
Q 1453 -91 1209 -44 
Q 966 3 703 97 
z
M 1959 2075 
Q 2384 2075 2632 2365 
Q 2881 2656 2881 3163 
Q 2881 3666 2632 3958 
Q 2384 4250 1959 4250 
Q 1534 4250 1286 3958 
Q 1038 3666 1038 3163 
Q 1038 2656 1286 2365 
Q 1534 2075 1959 2075 
z
" transform="scale(0.015625)"/>
     <path id="DejaVuSans-29" d="M 513 4856 
L 1013 4856 
Q 1481 4119 1714 3412 
Q 1947 2706 1947 2009 
Q 1947 1309 1714 600 
Q 1481 -109 1013 -844 
L 513 -844 
Q 928 -128 1133 580 
Q 1338 1288 1338 2009 
Q 1338 2731 1133 3434 
Q 928 4138 513 4856 
z
" transform="scale(0.015625)"/>
    </defs>
    <use xlink:href="#DejaVuSans-4f"/>
    <use xlink:href="#DejaVuSans-70" transform="translate(78.710938 0)"/>
    <use xlink:href="#DejaVuSans-74" transform="translate(142.1875 0)"/>
    <use xlink:href="#DejaVuSans-69" transform="translate(181.396484 0)"/>
    <use xlink:href="#DejaVuSans-6d" transform="translate(209.179688 0)"/>
    <use xlink:href="#DejaVuSans-61" transform="translate(306.591797 0)"/>
    <use xlink:href="#DejaVuSans-6c" transform="translate(367.871094 0)"/>
    <use xlink:href="#DejaVuSans-20" transform="translate(395.654297 0)"/>
    <use xlink:href="#DejaVuSans-41" transform="translate(427.441406 0)"/>
    <use xlink:href="#DejaVuSans-52" transform="translate(495.849609 0)"/>
    <use xlink:href="#DejaVuSans-49" transform="translate(565.332031 0)"/>
    <use xlink:href="#DejaVuSans-4d" transform="translate(594.824219 0)"/>
    <use xlink:href="#DejaVuSans-41" transform="translate(681.103516 0)"/>
    <use xlink:href="#DejaVuSans-3a" transform="translate(747.761719 0)"/>
    <use xlink:href="#DejaVuSans-20" transform="translate(781.453125 0)"/>
    <use xlink:href="#DejaVuSans-28" transform="translate(813.240234 0)"/>
    <use xlink:href="#DejaVuSans-31" transform="translate(852.253906 0)"/>
    <use xlink:href="#DejaVuSans-37" transform="translate(915.876953 0)"/>
    <use xlink:href="#DejaVuSans-2c" transform="translate(979.5 0)"/>
    <use xlink:href="#DejaVuSans-20" transform="translate(1011.287109 0)"/>
    <use xlink:href="#DejaVuSans-31" transform="translate(1043.074219 0)"/>
    <use xlink:href="#DejaVuSans-39" transform="translate(1106.697266 0)"/>
    <use xlink:href="#DejaVuSans-29" transform="translate(1170.320312 0)"/>
   </g>
  </g>
 </g>
 <defs>
  <clipPath id="p99d2e4c41a">
   <rect x="57.6" y="41.472" width="357.12" height="266.112"/>
  </clipPath>
 </defs>
</svg>
