<?xml version="1.0" encoding="utf-8" standalone="no"?>
<!DOCTYPE svg PUBLIC "-//W3C//DTD SVG 1.1//EN"
  "http://www.w3.org/Graphics/SVG/1.1/DTD/svg11.dtd">
<svg xmlns:xlink="http://www.w3.org/1999/xlink" width="460.8pt" height="345.6pt" viewBox="0 0 460.8 345.6" xmlns="http://www.w3.org/2000/svg" version="1.1">
 <metadata>
  <rdf:RDF xmlns:dc="http://purl.org/dc/elements/1.1/" xmlns:cc="http://creativecommons.org/ns#" xmlns:rdf="http://www.w3.org/1999/02/22-rdf-syntax-ns#">
   <cc:Work>
    <dc:type rdf:resource="http://purl.org/dc/dcmitype/StillImage"/>
    <dc:date>2025-12-02T17:23:57.761801</dc:date>
    <dc:format>image/svg+xml</dc:format>
    <dc:creator>
     <cc:Agent>
      <dc:title>Matplotlib v3.10.3, https://matplotlib.org/</dc:title>
     </cc:Agent>
    </dc:creator>
   </cc:Work>
  </rdf:RDF>
 </metadata>
 <defs>
  <style type="text/css">*{stroke-linejoin: round; stroke-linecap: butt}</style>
 </defs>
 <g id="figure_1">
  <g id="patch_1">
   <path d="M 0 345.6 
L 460.8 345.6 
L 460.8 0 
L 0 0 
z
" style="fill: #ffffff"/>
  </g>
  <g id="axes_1">
   <g id="patch_2">
    <path d="M 57.6 99.322435 
L 414.72 99.322435 
L 414.72 41.472 
L 57.6 41.472 
z
" style="fill: #ffffff"/>
   </g>
   <g id="matplotlib.axis_1">
    <g id="xtick_1">
     <g id="line2d_1">
      <defs>
       <path id="mf28ac580c7" d="M 0 0 
L 0 3.5 
" style="stroke: #000000; stroke-width: 0.8"/>
      </defs>
      <g>
       <use xlink:href="#mf28ac580c7" x="73.832727" y="99.322435" style="stroke: #000000; stroke-width: 0.8"/>
      </g>
     </g>
     <g id="text_1">
      <!-- 0 -->
      <g transform="translate(70.651477 113.920872) scale(0.1 -0.1)">
       <defs>
        <path id="DejaVuSans-30" d="M 2034 4250 
Q 1547 4250 1301 3770 
Q 1056 3291 1056 2328 
Q 1056 1369 1301 889 
Q 1547 409 2034 409 
Q 2525 409 2770 889 
Q 3016 1369 3016 2328 
Q 3016 3291 2770 3770 
Q 2525 4250 2034 4250 
z
M 2034 4750 
Q 2819 4750 3233 4129 
Q 3647 3509 3647 2328 
Q 3647 1150 3233 529 
Q 2819 -91 2034 -91 
Q 1250 -91 836 529 
Q 422 1150 422 2328 
Q 422 3509 836 4129 
Q 1250 4750 2034 4750 
z
" transform="scale(0.015625)"/>
       </defs>
       <use xlink:href="#DejaVuSans-30"/>
      </g>
     </g>
    </g>
    <g id="xtick_2">
     <g id="line2d_2">
      <g>
       <use xlink:href="#mf28ac580c7" x="138.828632" y="99.322435" style="stroke: #000000; stroke-width: 0.8"/>
      </g>
     </g>
     <g id="text_2">
      <!-- 200 -->
      <g transform="translate(129.284882 113.920872) scale(0.1 -0.1)">
       <defs>
        <path id="DejaVuSans-32" d="M 1228 531 
L 3431 531 
L 3431 0 
L 469 0 
L 469 531 
Q 828 903 1448 1529 
Q 2069 2156 2228 2338 
Q 2531 2678 2651 2914 
Q 2772 3150 2772 3378 
Q 2772 3750 2511 3984 
Q 2250 4219 1831 4219 
Q 1534 4219 1204 4116 
Q 875 4013 500 3803 
L 500 4441 
Q 881 4594 1212 4672 
Q 1544 4750 1819 4750 
Q 2544 4750 2975 4387 
Q 3406 4025 3406 3419 
Q 3406 3131 3298 2873 
Q 3191 2616 2906 2266 
Q 2828 2175 2409 1742 
Q 1991 1309 1228 531 
z
" transform="scale(0.015625)"/>
       </defs>
       <use xlink:href="#DejaVuSans-32"/>
       <use xlink:href="#DejaVuSans-30" transform="translate(63.623047 0)"/>
       <use xlink:href="#DejaVuSans-30" transform="translate(127.246094 0)"/>
      </g>
     </g>
    </g>
    <g id="xtick_3">
     <g id="line2d_3">
      <g>
       <use xlink:href="#mf28ac580c7" x="203.824537" y="99.322435" style="stroke: #000000; stroke-width: 0.8"/>
      </g>
     </g>
     <g id="text_3">
      <!-- 400 -->
      <g transform="translate(194.280787 113.920872) scale(0.1 -0.1)">
       <defs>
        <path id="DejaVuSans-34" d="M 2419 4116 
L 825 1625 
L 2419 1625 
L 2419 4116 
z
M 2253 4666 
L 3047 4666 
L 3047 1625 
L 3713 1625 
L 3713 1100 
L 3047 1100 
L 3047 0 
L 2419 0 
L 2419 1100 
L 313 1100 
L 313 1709 
L 2253 4666 
z
" transform="scale(0.015625)"/>
       </defs>
       <use xlink:href="#DejaVuSans-34"/>
       <use xlink:href="#DejaVuSans-30" transform="translate(63.623047 0)"/>
       <use xlink:href="#DejaVuSans-30" transform="translate(127.246094 0)"/>
      </g>
     </g>
    </g>
    <g id="xtick_4">
     <g id="line2d_4">
      <g>
       <use xlink:href="#mf28ac580c7" x="268.820442" y="99.322435" style="stroke: #000000; stroke-width: 0.8"/>
      </g>
     </g>
     <g id="text_4">
      <!-- 600 -->
      <g transform="translate(259.276692 113.920872) scale(0.1 -0.1)">
       <defs>
        <path id="DejaVuSans-36" d="M 2113 2584 
Q 1688 2584 1439 2293 
Q 1191 2003 1191 1497 
Q 1191 994 1439 701 
Q 1688 409 2113 409 
Q 2538 409 2786 701 
Q 3034 994 3034 1497 
Q 3034 2003 2786 2293 
Q 2538 2584 2113 2584 
z
M 3366 4563 
L 3366 3988 
Q 3128 4100 2886 4159 
Q 2644 4219 2406 4219 
Q 1781 4219 1451 3797 
Q 1122 3375 1075 2522 
Q 1259 2794 1537 2939 
Q 1816 3084 2150 3084 
Q 2853 3084 3261 2657 
Q 3669 2231 3669 1497 
Q 3669 778 3244 343 
Q 2819 -91 2113 -91 
Q 1303 -91 875 529 
Q 447 1150 447 2328 
Q 447 3434 972 4092 
Q 1497 4750 2381 4750 
Q 2619 4750 2861 4703 
Q 3103 4656 3366 4563 
z
" transform="scale(0.015625)"/>
       </defs>
       <use xlink:href="#DejaVuSans-36"/>
       <use xlink:href="#DejaVuSans-30" transform="translate(63.623047 0)"/>
       <use xlink:href="#DejaVuSans-30" transform="translate(127.246094 0)"/>
      </g>
     </g>
    </g>
    <g id="xtick_5">
     <g id="line2d_5">
      <g>
       <use xlink:href="#mf28ac580c7" x="333.816347" y="99.322435" style="stroke: #000000; stroke-width: 0.8"/>
      </g>
     </g>
     <g id="text_5">
      <!-- 800 -->
      <g transform="translate(324.272597 113.920872) scale(0.1 -0.1)">
       <defs>
        <path id="DejaVuSans-38" d="M 2034 2216 
Q 1584 2216 1326 1975 
Q 1069 1734 1069 1313 
Q 1069 891 1326 650 
Q 1584 409 2034 409 
Q 2484 409 2743 651 
Q 3003 894 3003 1313 
Q 3003 1734 2745 1975 
Q 2488 2216 2034 2216 
z
M 1403 2484 
Q 997 2584 770 2862 
Q 544 3141 544 3541 
Q 544 4100 942 4425 
Q 1341 4750 2034 4750 
Q 2731 4750 3128 4425 
Q 3525 4100 3525 3541 
Q 3525 3141 3298 2862 
Q 3072 2584 2669 2484 
Q 3125 2378 3379 2068 
Q 3634 1759 3634 1313 
Q 3634 634 3220 271 
Q 2806 -91 2034 -91 
Q 1263 -91 848 271 
Q 434 634 434 1313 
Q 434 1759 690 2068 
Q 947 2378 1403 2484 
z
M 1172 3481 
Q 1172 3119 1398 2916 
Q 1625 2713 2034 2713 
Q 2441 2713 2670 2916 
Q 2900 3119 2900 3481 
Q 2900 3844 2670 4047 
Q 2441 4250 2034 4250 
Q 1625 4250 1398 4047 
Q 1172 3844 1172 3481 
z
" transform="scale(0.015625)"/>
       </defs>
       <use xlink:href="#DejaVuSans-38"/>
       <use xlink:href="#DejaVuSans-30" transform="translate(63.623047 0)"/>
       <use xlink:href="#DejaVuSans-30" transform="translate(127.246094 0)"/>
      </g>
     </g>
    </g>
    <g id="xtick_6">
     <g id="line2d_6">
      <g>
       <use xlink:href="#mf28ac580c7" x="398.812252" y="99.322435" style="stroke: #000000; stroke-width: 0.8"/>
      </g>
     </g>
     <g id="text_6">
      <!-- 1000 -->
      <g transform="translate(386.087252 113.920872) scale(0.1 -0.1)">
       <defs>
        <path id="DejaVuSans-31" d="M 794 531 
L 1825 531 
L 1825 4091 
L 703 3866 
L 703 4441 
L 1819 4666 
L 2450 4666 
L 2450 531 
L 3481 531 
L 3481 0 
L 794 0 
L 794 531 
z
" transform="scale(0.015625)"/>
       </defs>
       <use xlink:href="#DejaVuSans-31"/>
       <use xlink:href="#DejaVuSans-30" transform="translate(63.623047 0)"/>
       <use xlink:href="#DejaVuSans-30" transform="translate(127.246094 0)"/>
       <use xlink:href="#DejaVuSans-30" transform="translate(190.869141 0)"/>
      </g>
     </g>
    </g>
   </g>
   <g id="matplotlib.axis_2">
    <g id="ytick_1">
     <g id="line2d_7">
      <defs>
       <path id="mdc201f3f1a" d="M 0 0 
L -3.5 0 
" style="stroke: #000000; stroke-width: 0.8"/>
      </defs>
      <g>
       <use xlink:href="#mdc201f3f1a" x="57.6" y="79.616999" style="stroke: #000000; stroke-width: 0.8"/>
      </g>
     </g>
     <g id="text_7">
      <!-- 0 -->
      <g transform="translate(44.2375 83.416218) scale(0.1 -0.1)">
       <use xlink:href="#DejaVuSans-30"/>
      </g>
     </g>
    </g>
    <g id="ytick_2">
     <g id="line2d_8">
      <g>
       <use xlink:href="#mdc201f3f1a" x="57.6" y="57.483668" style="stroke: #000000; stroke-width: 0.8"/>
      </g>
     </g>
     <g id="text_8">
      <!-- 25 -->
      <g transform="translate(37.875 61.282886) scale(0.1 -0.1)">
       <defs>
        <path id="DejaVuSans-35" d="M 691 4666 
L 3169 4666 
L 3169 4134 
L 1269 4134 
L 1269 2991 
Q 1406 3038 1543 3061 
Q 1681 3084 1819 3084 
Q 2600 3084 3056 2656 
Q 3513 2228 3513 1497 
Q 3513 744 3044 326 
Q 2575 -91 1722 -91 
Q 1428 -91 1123 -41 
Q 819 9 494 109 
L 494 744 
Q 775 591 1075 516 
Q 1375 441 1709 441 
Q 2250 441 2565 725 
Q 2881 1009 2881 1497 
Q 2881 1984 2565 2268 
Q 2250 2553 1709 2553 
Q 1456 2553 1204 2497 
Q 953 2441 691 2322 
L 691 4666 
z
" transform="scale(0.015625)"/>
       </defs>
       <use xlink:href="#DejaVuSans-32"/>
       <use xlink:href="#DejaVuSans-35" transform="translate(63.623047 0)"/>
      </g>
     </g>
    </g>
   </g>
   <g id="line2d_9">
    <path d="M 73.832727 80.420636 
L 74.157707 77.820986 
L 74.482686 70.511798 
L 75.132645 67.233483 
L 75.457625 62.859906 
L 75.782604 61.406871 
L 76.432563 67.103158 
L 76.757543 66.793828 
L 77.082523 69.713412 
L 77.407502 76.106335 
L 77.732482 75.131862 
L 78.70742 85.970289 
L 79.0324 87.340616 
L 79.357379 92.749121 
L 79.682359 93.31947 
L 80.007338 95.369006 
L 80.332318 93.592481 
L 80.657297 89.827784 
L 80.982277 89.246835 
L 81.307256 90.067975 
L 81.632236 88.807518 
L 81.957215 82.726549 
L 82.282195 82.369837 
L 82.607174 79.994374 
L 82.932154 76.48771 
L 83.257133 71.536062 
L 83.582113 73.264763 
L 83.907093 69.961364 
L 84.232072 70.11836 
L 84.557052 69.881267 
L 84.882031 70.287811 
L 85.207011 68.863971 
L 86.506929 79.349406 
L 86.831908 79.292229 
L 87.156888 82.31744 
L 87.481867 87.947014 
L 87.806847 83.82293 
L 88.131826 87.458553 
L 88.781785 82.87727 
L 89.106765 86.861211 
L 89.431744 83.77023 
L 89.756724 84.385414 
L 90.081704 82.069783 
L 90.406683 78.408237 
L 90.731663 80.440914 
L 91.056642 76.974471 
L 91.381622 78.489944 
L 91.706601 79.253728 
L 92.031581 76.510368 
L 92.35656 79.49942 
L 92.68154 79.526734 
L 93.006519 77.772269 
L 93.331499 80.894935 
L 93.656478 78.592898 
L 93.981458 82.430144 
L 94.306437 80.375273 
L 94.631417 81.818422 
L 94.956396 79.158434 
L 95.281376 80.450095 
L 95.606355 83.385 
L 95.931335 80.021912 
L 96.256314 81.903482 
L 96.906274 73.797066 
L 97.231253 74.420188 
L 97.556233 73.645132 
L 97.881212 74.292246 
L 98.206192 70.650995 
L 98.531171 71.368845 
L 99.18113 75.048745 
L 99.50611 78.484015 
L 99.831089 75.684735 
L 100.156069 79.56732 
L 100.481048 79.292394 
L 100.806028 85.678544 
L 101.131007 86.535877 
L 101.455987 87.746455 
L 101.780966 88.16902 
L 102.105946 93.416008 
L 102.430925 88.323742 
L 102.755905 88.296098 
L 103.405864 87.737336 
L 103.730844 83.492989 
L 104.055823 82.879143 
L 104.380803 79.697583 
L 104.705782 78.612138 
L 105.355741 70.241196 
L 105.680721 68.719054 
L 106.33068 62.862954 
L 106.655659 65.893542 
L 107.305618 68.853455 
L 108.280557 82.376626 
L 108.605536 78.674708 
L 108.930516 84.224768 
L 109.255495 85.828111 
L 109.580475 91.009866 
L 109.905455 92.069939 
L 110.555414 95.420483 
L 110.880393 91.457935 
L 111.205373 94.58776 
L 111.530352 90.58226 
L 111.855332 90.103324 
L 112.180311 84.037248 
L 112.505291 84.882648 
L 112.83027 77.770426 
L 113.15525 73.840223 
L 113.480229 72.565043 
L 113.805209 66.861236 
L 114.130188 66.36571 
L 114.455168 67.638926 
L 115.105127 59.854404 
L 115.430106 67.431365 
L 115.755086 67.970209 
L 116.080066 68.830576 
L 116.730025 74.891604 
L 117.055004 75.146277 
L 117.379984 82.340845 
L 117.704963 81.614922 
L 118.029943 89.044837 
L 118.354922 89.360933 
L 118.679902 96.69287 
L 119.329861 92.990678 
L 119.65484 92.637574 
L 119.97982 91.57528 
L 120.304799 89.185412 
L 120.629779 87.719879 
L 121.929697 73.12679 
L 122.254676 70.764826 
L 122.579656 69.568556 
L 122.904636 68.9166 
L 123.229615 65.786275 
L 123.554595 67.270172 
L 123.879574 66.811109 
L 124.204554 71.786979 
L 124.854513 73.532086 
L 125.179492 75.058666 
L 125.504472 79.567846 
L 125.829451 79.677107 
L 126.154431 85.265383 
L 126.47941 83.691963 
L 126.80439 83.60742 
L 127.129369 84.170863 
L 127.454349 85.314302 
L 127.779328 82.574417 
L 128.104308 84.301074 
L 128.429287 81.964748 
L 128.754267 81.839984 
L 129.079247 80.568559 
L 129.404226 76.119748 
L 130.054185 79.252546 
L 130.379165 77.324706 
L 130.704144 77.50018 
L 131.029124 77.340496 
L 131.354103 76.411745 
L 131.679083 76.603961 
L 132.004062 76.578808 
L 132.329042 77.304919 
L 132.654021 79.618449 
L 132.979001 83.838308 
L 133.30398 82.286734 
L 133.62896 84.969067 
L 133.953939 82.428305 
L 134.278919 86.127123 
L 134.928878 78.885653 
L 135.253857 79.04803 
L 135.578837 74.983551 
L 135.903817 74.220998 
L 136.228796 77.137224 
L 136.553776 71.033635 
L 136.878755 74.106948 
L 137.203735 72.376384 
L 137.853694 72.205639 
L 138.503653 78.326339 
L 138.828632 77.238378 
L 139.478591 83.733611 
L 139.803571 82.676887 
L 140.12855 85.793268 
L 140.45353 85.152505 
L 140.778509 87.387349 
L 141.103489 90.711595 
L 141.428468 89.958881 
L 141.753448 90.689187 
L 142.078428 90.621172 
L 142.403407 92.138906 
L 142.728387 82.212996 
L 143.053366 82.213216 
L 144.028305 72.506462 
L 144.353284 67.952924 
L 144.678264 68.869306 
L 145.003243 66.008795 
L 145.328223 65.55377 
L 145.653202 62.709308 
L 145.978182 68.105414 
L 146.303161 63.99942 
L 146.628141 71.129379 
L 146.95312 72.775591 
L 147.2781 73.812114 
L 147.603079 81.135005 
L 147.928059 79.222104 
L 148.578018 92.008937 
L 148.902998 92.345037 
L 149.227977 95.373143 
L 149.552957 94.662253 
L 149.877936 91.934863 
L 150.202916 94.556223 
L 150.852875 86.788545 
L 151.177854 87.170352 
L 151.502834 80.702203 
L 151.827813 78.524873 
L 152.477772 72.764696 
L 152.802752 65.862776 
L 153.127731 65.389405 
L 153.452711 65.146404 
L 154.10267 60.317799 
L 154.427649 61.596501 
L 154.752629 66.121849 
L 155.077609 68.872414 
L 155.402588 67.661387 
L 156.052547 78.592154 
L 156.377527 79.912918 
L 156.702506 82.694222 
L 157.027486 88.127975 
L 157.352465 90.658645 
L 157.677445 95.094613 
L 158.002424 95.657334 
L 158.327404 93.752574 
L 158.652383 89.44326 
L 159.627322 87.397439 
L 159.952301 78.876131 
L 160.92724 74.106917 
L 161.252219 69.566807 
L 161.577199 72.860346 
L 161.902179 68.537809 
L 162.227158 66.303793 
L 162.552138 70.782464 
L 162.877117 68.514164 
L 163.527076 73.189326 
L 163.852056 70.405087 
L 164.177035 77.484424 
L 164.502015 80.515526 
L 164.826994 81.169722 
L 165.151974 83.517979 
L 165.476953 82.611857 
L 165.801933 83.637627 
L 166.126912 81.220909 
L 166.451892 85.01158 
L 166.776871 86.977692 
L 167.42683 82.085297 
L 167.75181 79.903734 
L 168.07679 79.345345 
L 168.401769 77.314412 
L 168.726749 79.513774 
L 169.051728 79.125282 
L 169.376708 75.909116 
L 169.701687 77.071784 
L 170.026667 76.333325 
L 170.351646 76.611321 
L 170.676626 76.192444 
L 171.001605 79.297737 
L 171.326585 79.241896 
L 171.651564 78.080391 
L 171.976544 77.96218 
L 172.301523 76.689825 
L 172.626503 79.608801 
L 172.951482 76.671257 
L 173.276462 80.11947 
L 173.601441 79.253468 
L 173.926421 77.365701 
L 174.2514 76.693073 
L 174.57638 77.534288 
L 175.551319 72.917311 
L 175.876298 71.886062 
L 176.201278 74.953026 
L 176.851237 71.077593 
L 177.176216 75.757934 
L 177.501196 72.910496 
L 177.826175 77.140237 
L 178.151155 76.852326 
L 178.476134 82.679922 
L 178.801114 83.921907 
L 179.126093 86.221232 
L 179.451073 85.719768 
L 179.776052 87.712383 
L 180.101032 88.120007 
L 180.426011 87.667645 
L 180.750991 92.717343 
L 181.075971 85.970398 
L 181.40095 85.090329 
L 182.050909 81.332223 
L 182.375889 76.739971 
L 183.025848 73.510924 
L 183.350827 66.313165 
L 183.675807 64.926522 
L 184.000786 64.292802 
L 184.325766 62.410637 
L 184.650745 64.593222 
L 184.975725 63.124846 
L 185.300704 65.101948 
L 185.625684 69.741383 
L 185.950663 70.409835 
L 186.275643 75.962969 
L 186.600622 75.714239 
L 186.925602 79.041925 
L 187.575561 89.851217 
L 187.900541 91.605924 
L 188.22552 95.243643 
L 188.5505 90.155563 
L 188.875479 90.883066 
L 189.200459 92.336796 
L 189.525438 87.674163 
L 189.850418 89.794014 
L 190.500377 78.329738 
L 190.825356 76.055508 
L 191.150336 72.358208 
L 191.475315 72.164667 
L 192.125274 62.641287 
L 192.450254 61.384227 
L 192.775233 61.239746 
L 193.100213 64.817881 
L 193.425192 65.0506 
L 193.750172 64.036136 
L 195.37507 79.315324 
L 195.700049 78.86352 
L 196.025029 83.587073 
L 196.350008 90.575058 
L 196.674988 90.259849 
L 196.999967 90.846353 
L 197.324947 88.232786 
L 197.649926 89.776749 
L 198.299885 85.940685 
L 198.624865 87.434721 
L 199.274824 77.625003 
L 199.599803 74.739967 
L 199.924783 76.578323 
L 200.249762 69.252943 
L 200.574742 70.672655 
L 200.899722 65.400578 
L 201.224701 63.472908 
L 201.549681 68.653341 
L 201.87466 68.053551 
L 202.19964 72.329855 
L 202.524619 68.11078 
L 203.174578 75.337663 
L 203.499558 76.451275 
L 203.824537 82.981131 
L 204.149517 79.648059 
L 204.474496 82.596262 
L 204.799476 83.733914 
L 205.124455 85.393066 
L 205.449435 81.673271 
L 205.774414 84.569792 
L 206.099394 79.105209 
L 206.749353 79.26544 
L 207.074333 78.390184 
L 207.399312 78.771298 
L 207.724292 76.718446 
L 208.049271 77.108563 
L 208.374251 75.235591 
L 208.69923 74.859107 
L 209.02421 72.938354 
L 209.349189 74.085788 
L 209.674169 77.730171 
L 209.999148 74.392534 
L 210.649107 79.076629 
L 210.974087 76.128963 
L 211.299066 82.384795 
L 211.624046 79.688015 
L 211.949025 80.629495 
L 212.274005 79.457979 
L 212.598984 79.828348 
L 212.923964 79.463317 
L 213.248943 77.517546 
L 213.573923 76.489851 
L 213.898903 73.259671 
L 214.873841 69.45335 
L 215.198821 69.723356 
L 215.5238 68.455011 
L 215.84878 70.095496 
L 216.173759 70.613559 
L 216.498739 74.542441 
L 216.823718 74.738492 
L 217.148698 77.361888 
L 217.473677 77.689102 
L 217.798657 79.638227 
L 218.123636 84.622048 
L 218.448616 81.530412 
L 218.773595 85.350755 
L 219.098575 85.327078 
L 219.423554 87.522469 
L 219.748534 82.573409 
L 220.073514 82.326484 
L 220.398493 84.967141 
L 220.723473 78.779219 
L 221.048452 76.591109 
L 221.373432 73.608507 
L 221.698411 72.853021 
L 222.023391 68.609866 
L 222.34837 68.814304 
L 222.67335 64.617229 
L 222.998329 61.961433 
L 223.648288 64.425075 
L 223.973268 65.019932 
L 224.623227 68.152797 
L 224.948206 73.207265 
L 225.273186 71.83591 
L 225.598165 76.681433 
L 225.923145 76.024863 
L 226.248124 82.771659 
L 226.898084 87.960732 
L 227.223063 93.10339 
L 227.548043 92.514728 
L 227.873022 89.099616 
L 228.198002 92.58606 
L 228.522981 86.375979 
L 228.847961 83.302797 
L 229.17294 82.214732 
L 229.49792 74.621352 
L 229.822899 74.376346 
L 230.147879 72.656274 
L 230.472858 70.058924 
L 230.797838 65.211944 
L 231.122817 63.427021 
L 231.447797 60.865498 
L 231.772776 60.924938 
L 232.097756 56.638187 
L 232.422735 63.252382 
L 232.747715 65.69807 
L 233.072695 66.77939 
L 233.397674 70.488833 
L 233.722654 69.389845 
L 234.047633 75.783675 
L 234.372613 75.747777 
L 234.697592 82.697496 
L 235.347551 88.694033 
L 235.672531 85.207285 
L 236.647469 91.135783 
L 236.972449 86.276041 
L 237.297428 84.673003 
L 237.622408 82.390178 
L 237.947387 81.079381 
L 238.272367 75.430772 
L 238.597346 75.256483 
L 238.922326 69.909987 
L 239.247305 66.779411 
L 239.572285 68.273359 
L 239.897265 63.830518 
L 240.222244 64.117938 
L 240.547224 66.604288 
L 240.872203 64.995145 
L 241.197183 64.687843 
L 241.522162 67.204703 
L 241.847142 71.487789 
L 242.172121 71.586429 
L 242.497101 74.895299 
L 242.82208 76.982738 
L 243.14706 75.839036 
L 243.797019 82.520009 
L 244.121998 83.016059 
L 244.446978 79.940788 
L 244.771957 80.679015 
L 245.096937 83.214735 
L 245.746896 74.087769 
L 246.071876 74.859015 
L 246.721835 75.911291 
L 247.046814 72.778638 
L 247.371794 75.281499 
L 247.696773 74.520896 
L 248.021753 70.204108 
L 248.346732 71.157604 
L 248.671712 72.765736 
L 248.996691 71.292109 
L 249.321671 75.005905 
L 249.64665 73.167362 
L 249.97163 80.047246 
L 250.296609 74.004243 
L 250.621589 79.089645 
L 250.946568 76.858489 
L 251.271548 76.500082 
L 251.596527 79.589931 
L 251.921507 73.223322 
L 252.246486 74.725946 
L 252.571466 71.529219 
L 252.896446 70.613705 
L 253.221425 70.093709 
L 253.546405 67.676681 
L 253.871384 68.229212 
L 254.196364 67.56158 
L 254.521343 67.904778 
L 254.846323 68.699351 
L 255.171302 72.402022 
L 255.496282 71.215598 
L 255.821261 72.938944 
L 256.146241 72.24543 
L 256.47122 73.608294 
L 256.7962 79.08303 
L 257.121179 82.374222 
L 257.446159 81.229026 
L 257.771138 83.9284 
L 258.096118 85.646083 
L 258.421097 83.987092 
L 258.746077 83.233975 
L 259.071057 84.560873 
L 259.721016 77.935064 
L 260.045995 77.473916 
L 260.370975 69.983891 
L 260.695954 72.461203 
L 261.020934 65.490647 
L 261.345913 65.40278 
L 261.670893 62.215625 
L 261.995872 62.089942 
L 262.320852 59.311518 
L 262.645831 61.123823 
L 262.970811 59.286862 
L 263.29579 61.278206 
L 263.62077 64.278792 
L 263.945749 66.090173 
L 265.570647 84.230071 
L 265.895627 84.663215 
L 266.220606 87.868101 
L 266.545586 88.928455 
L 266.870565 86.571482 
L 267.195545 86.42767 
L 267.520524 83.678719 
L 267.845504 84.066977 
L 268.170483 78.946403 
L 268.495463 78.317708 
L 268.820442 69.544588 
L 269.145422 70.509067 
L 269.470401 63.61731 
L 269.795381 62.324692 
L 270.12036 59.634347 
L 270.44534 58.105144 
L 270.770319 58.452801 
L 271.095299 57.441534 
L 271.420278 61.319572 
L 271.745258 59.05225 
L 272.070238 60.876656 
L 272.395217 68.073269 
L 272.720197 66.873708 
L 273.045176 74.748414 
L 273.370156 74.036467 
L 273.695135 79.554194 
L 274.670074 85.788924 
L 274.995053 84.817724 
L 275.320033 87.891725 
L 275.645012 86.46611 
L 275.969992 82.856493 
L 276.294971 84.8337 
L 276.94493 75.905845 
L 277.26991 74.470139 
L 277.594889 73.640626 
L 277.919869 67.524545 
L 278.244848 66.03076 
L 278.569828 62.57395 
L 278.894808 61.914343 
L 279.219787 66.101829 
L 279.544767 60.151367 
L 280.194726 65.010891 
L 280.519705 65.134412 
L 280.844685 70.50305 
L 281.169664 68.870218 
L 281.494644 73.821456 
L 281.819623 71.282384 
L 282.144603 74.641792 
L 282.469582 79.552323 
L 282.794562 77.286685 
L 283.119541 79.168231 
L 283.444521 78.604793 
L 283.7695 76.565673 
L 284.09448 78.303431 
L 284.419459 73.564888 
L 284.744439 72.622325 
L 285.069419 73.770488 
L 285.394398 72.630907 
L 285.719378 69.792997 
L 286.044357 70.519062 
L 286.694316 67.959202 
L 287.019296 66.904226 
L 287.344275 71.109489 
L 287.669255 72.825143 
L 287.994234 72.885911 
L 288.319214 71.031271 
L 288.644193 73.37392 
L 288.969173 73.741798 
L 289.294152 75.044505 
L 289.619132 73.218918 
L 290.269091 72.482792 
L 290.59407 70.024176 
L 290.91905 73.574395 
L 291.569009 68.234803 
L 291.893989 69.7917 
L 292.218968 67.257054 
L 292.543948 66.64814 
L 292.868927 65.527553 
L 293.193907 67.195218 
L 293.518886 65.569404 
L 293.843866 66.332511 
L 294.168845 66.352798 
L 294.493825 65.017389 
L 294.818804 68.104845 
L 295.143784 73.172804 
L 295.468763 71.8313 
L 295.793743 76.652963 
L 296.118722 76.380563 
L 296.443702 80.900705 
L 296.768681 82.952076 
L 297.093661 81.95921 
L 297.41864 82.266737 
L 297.74362 83.232802 
L 298.718559 79.136335 
L 299.043538 70.497393 
L 299.368518 72.555738 
L 299.693497 66.672399 
L 300.018477 66.051443 
L 300.343456 59.45894 
L 300.668436 58.502845 
L 300.993415 58.191753 
L 301.318395 58.318179 
L 301.643374 55.702614 
L 301.968354 58.245452 
L 302.293333 59.526384 
L 302.943292 66.367283 
L 303.268272 67.195713 
L 303.593251 71.509155 
L 303.918231 80.657024 
L 304.24321 78.309716 
L 304.56819 78.525608 
L 304.89317 83.984651 
L 305.218149 84.69487 
L 305.543129 88.927735 
L 306.193088 85.385187 
L 306.518067 85.391125 
L 306.843047 79.333669 
L 307.493006 74.955263 
L 308.467944 60.11224 
L 308.792924 59.072449 
L 309.117903 59.172643 
L 309.442883 58.061516 
L 310.092842 52.220183 
L 310.417821 56.469602 
L 310.742801 54.751696 
L 311.067781 60.63885 
L 311.71774 66.383234 
L 312.042719 72.366135 
L 312.367699 73.63671 
L 312.692678 76.292016 
L 313.342637 84.904062 
L 313.992596 82.337968 
L 314.317576 84.150111 
L 314.642555 84.179736 
L 314.967535 81.688985 
L 315.292514 82.037995 
L 315.617494 78.008877 
L 315.942473 75.487459 
L 316.267453 69.866303 
L 316.592432 71.1632 
L 317.242391 62.131969 
L 317.567371 60.101798 
L 317.892351 60.023214 
L 318.21733 57.874842 
L 318.867289 61.547068 
L 319.517248 63.786022 
L 319.842228 64.652322 
L 320.167207 66.707674 
L 320.492187 70.814328 
L 320.817166 68.530127 
L 321.142146 74.775539 
L 321.467125 74.502814 
L 321.792105 76.290679 
L 322.117084 75.835432 
L 322.442064 76.059656 
L 323.092023 74.709663 
L 323.417002 73.193972 
L 323.741982 75.58004 
L 324.066962 71.887459 
L 324.391941 70.565837 
L 324.716921 66.475794 
L 325.0419 69.184546 
L 325.36688 65.573811 
L 325.691859 66.396519 
L 326.016839 66.358301 
L 326.341818 66.473566 
L 326.666798 67.00751 
L 326.991777 66.202234 
L 327.316757 69.116433 
L 327.641736 70.492124 
L 327.966716 68.363761 
L 328.291695 71.609415 
L 328.941654 73.757112 
L 329.266634 69.540717 
L 329.591613 70.723578 
L 329.916593 69.240817 
L 330.241572 71.207888 
L 330.566552 66.505392 
L 330.891532 65.122169 
L 331.216511 61.421602 
L 331.541491 61.121668 
L 331.86647 63.478034 
L 332.19145 62.436535 
L 332.516429 60.738635 
L 332.841409 64.803952 
L 333.166388 60.646384 
L 333.491368 66.791197 
L 333.816347 66.099937 
L 334.141327 71.922861 
L 334.466306 71.745132 
L 334.791286 69.292617 
L 335.441245 79.70547 
L 335.766224 78.564775 
L 336.091204 76.80912 
L 336.416183 77.337555 
L 336.741163 79.461111 
L 337.066143 74.586885 
L 337.391122 73.471291 
L 337.716102 71.169813 
L 338.041081 65.157628 
L 338.69104 65.582639 
L 339.01602 61.92324 
L 339.340999 64.013941 
L 339.990958 53.565381 
L 340.315938 53.811844 
L 340.640917 53.681303 
L 340.965897 51.76818 
L 341.615856 56.818571 
L 341.940835 63.28836 
L 342.265815 62.496883 
L 342.590794 72.692441 
L 342.915774 71.245155 
L 343.565733 78.257015 
L 343.890713 79.285476 
L 344.215692 80.942287 
L 344.540672 85.962942 
L 344.865651 84.836699 
L 345.51561 79.928096 
L 345.84059 75.463125 
L 346.165569 73.331249 
L 346.490549 69.849765 
L 346.815528 70.792989 
L 347.465487 58.536185 
L 347.790467 54.421554 
L 348.115446 56.052582 
L 348.440426 50.564294 
L 348.765405 50.491057 
L 349.090385 51.350429 
L 349.415364 53.759477 
L 349.740344 52.465381 
L 350.065324 57.291544 
L 350.390303 57.164175 
L 351.040262 67.859083 
L 351.365242 67.321066 
L 351.690221 73.841649 
L 352.015201 75.397426 
L 352.34018 77.717111 
L 352.66516 82.959734 
L 352.990139 81.838439 
L 353.315119 82.09394 
L 353.640098 80.104376 
L 353.965078 79.098724 
L 354.290057 77.486888 
L 354.615037 74.532762 
L 354.940016 66.685125 
L 355.264996 68.441294 
L 355.589975 56.942717 
L 355.914955 62.499808 
L 356.564914 56.511266 
L 356.889894 56.332513 
L 357.214873 55.589453 
L 357.539853 52.266311 
L 357.864832 56.859897 
L 358.189812 58.374097 
L 358.514791 58.293987 
L 358.839771 64.006425 
L 359.16475 64.264258 
L 359.48973 68.430821 
L 359.814709 69.469715 
L 360.139689 66.75563 
L 360.464668 69.949644 
L 360.789648 67.684155 
L 361.114627 68.436768 
L 361.439607 73.635181 
L 361.764586 71.916285 
L 362.089566 73.526926 
L 362.414545 68.658316 
L 362.739525 66.119313 
L 363.064505 66.485133 
L 363.389484 67.248983 
L 363.714464 63.993045 
L 364.364423 61.744849 
L 364.689402 66.48511 
L 365.014382 64.977838 
L 365.339361 64.204274 
L 365.664341 62.97179 
L 365.98932 65.451881 
L 366.3143 62.748568 
L 366.964259 67.37012 
L 367.289238 68.410968 
L 367.614218 67.766078 
L 367.939197 68.084976 
L 368.264177 67.177208 
L 368.589156 67.92647 
L 368.914136 67.41417 
L 369.564095 61.844185 
L 369.889075 61.137078 
L 370.539034 62.16965 
L 370.864013 61.73732 
L 371.188993 59.314457 
L 371.838952 57.008102 
L 372.163931 62.22771 
L 372.488911 60.070895 
L 373.13887 66.058813 
L 373.788829 71.066652 
L 374.113808 70.356811 
L 374.438788 70.764378 
L 374.763767 75.61507 
L 375.088747 72.305299 
L 375.413726 76.09648 
L 375.738706 72.949392 
L 376.063686 72.947265 
L 376.388665 70.267168 
L 376.713645 69.383809 
L 377.038624 69.724573 
L 377.363604 65.389299 
L 377.688583 63.298606 
L 378.013563 57.110011 
L 378.338542 57.259041 
L 378.988501 49.890229 
L 379.313481 51.536262 
L 379.63846 51.372663 
L 379.96344 48.157158 
L 380.288419 53.330738 
L 380.613399 56.148809 
L 380.938378 60.449949 
L 381.263358 61.774232 
L 381.588337 61.633469 
L 381.913317 66.827559 
L 382.238296 69.683407 
L 382.563276 75.72376 
L 382.888256 77.227017 
L 383.213235 80.095905 
L 383.538215 80.953288 
L 383.863194 79.601004 
L 384.188174 79.269756 
L 384.513153 75.503645 
L 384.838133 74.266261 
L 385.163112 72.584336 
L 385.488092 67.702531 
L 385.813071 65.609648 
L 386.138051 59.234192 
L 386.78801 52.27431 
L 387.112989 52.969402 
L 387.437969 48.247741 
L 388.087928 44.101565 
L 388.412907 49.546001 
L 388.737887 45.863196 
L 389.062867 54.764161 
L 389.387846 56.620542 
L 389.712826 61.014587 
L 390.037805 63.468163 
L 390.687764 71.367693 
L 391.012744 70.676774 
L 391.337723 73.875014 
L 391.662703 75.415086 
L 391.987682 78.337788 
L 392.312662 76.088486 
L 392.637641 76.062974 
L 392.962621 70.027985 
L 393.2876 68.329416 
L 393.61258 70.909706 
L 393.937559 64.869801 
L 394.262539 65.381757 
L 394.587518 59.758936 
L 394.912498 57.986919 
L 395.237477 53.875683 
L 395.887437 51.568768 
L 396.212416 50.952076 
L 396.537396 52.279687 
L 396.862375 51.215102 
L 397.187355 55.393261 
L 397.512334 53.931675 
L 397.837314 55.731705 
L 398.162293 60.661134 
L 398.487273 62.47857 
L 398.487273 62.47857 
" clip-path="url(#pd2f3076a1b)" style="fill: none; stroke: #1f77b4; stroke-width: 1.5; stroke-linecap: square"/>
   </g>
   <g id="patch_3">
    <path d="M 57.6 99.322435 
L 57.6 41.472 
" style="fill: none; stroke: #000000; stroke-width: 0.8; stroke-linejoin: miter; stroke-linecap: square"/>
   </g>
   <g id="patch_4">
    <path d="M 414.72 99.322435 
L 414.72 41.472 
" style="fill: none; stroke: #000000; stroke-width: 0.8; stroke-linejoin: miter; stroke-linecap: square"/>
   </g>
   <g id="patch_5">
    <path d="M 57.6 99.322435 
L 414.72 99.322435 
" style="fill: none; stroke: #000000; stroke-width: 0.8; stroke-linejoin: miter; stroke-linecap: square"/>
   </g>
   <g id="patch_6">
    <path d="M 57.6 41.472 
L 414.72 41.472 
" style="fill: none; stroke: #000000; stroke-width: 0.8; stroke-linejoin: miter; stroke-linecap: square"/>
   </g>
   <g id="text_9">
    <!-- Original Time Series -->
    <g transform="translate(175.735312 35.472) scale(0.12 -0.12)">
     <defs>
      <path id="DejaVuSans-4f" d="M 2522 4238 
Q 1834 4238 1429 3725 
Q 1025 3213 1025 2328 
Q 1025 1447 1429 934 
Q 1834 422 2522 422 
Q 3209 422 3611 934 
Q 4013 1447 4013 2328 
Q 4013 3213 3611 3725 
Q 3209 4238 2522 4238 
z
M 2522 4750 
Q 3503 4750 4090 4092 
Q 4678 3434 4678 2328 
Q 4678 1225 4090 567 
Q 3503 -91 2522 -91 
Q 1538 -91 948 565 
Q 359 1222 359 2328 
Q 359 3434 948 4092 
Q 1538 4750 2522 4750 
z
" transform="scale(0.015625)"/>
      <path id="DejaVuSans-72" d="M 2631 2963 
Q 2534 3019 2420 3045 
Q 2306 3072 2169 3072 
Q 1681 3072 1420 2755 
Q 1159 2438 1159 1844 
L 1159 0 
L 581 0 
L 581 3500 
L 1159 3500 
L 1159 2956 
Q 1341 3275 1631 3429 
Q 1922 3584 2338 3584 
Q 2397 3584 2469 3576 
Q 2541 3569 2628 3553 
L 2631 2963 
z
" transform="scale(0.015625)"/>
      <path id="DejaVuSans-69" d="M 603 3500 
L 1178 3500 
L 1178 0 
L 603 0 
L 603 3500 
z
M 603 4863 
L 1178 4863 
L 1178 4134 
L 603 4134 
L 603 4863 
z
" transform="scale(0.015625)"/>
      <path id="DejaVuSans-67" d="M 2906 1791 
Q 2906 2416 2648 2759 
Q 2391 3103 1925 3103 
Q 1463 3103 1205 2759 
Q 947 2416 947 1791 
Q 947 1169 1205 825 
Q 1463 481 1925 481 
Q 2391 481 2648 825 
Q 2906 1169 2906 1791 
z
M 3481 434 
Q 3481 -459 3084 -895 
Q 2688 -1331 1869 -1331 
Q 1566 -1331 1297 -1286 
Q 1028 -1241 775 -1147 
L 775 -588 
Q 1028 -725 1275 -790 
Q 1522 -856 1778 -856 
Q 2344 -856 2625 -561 
Q 2906 -266 2906 331 
L 2906 616 
Q 2728 306 2450 153 
Q 2172 0 1784 0 
Q 1141 0 747 490 
Q 353 981 353 1791 
Q 353 2603 747 3093 
Q 1141 3584 1784 3584 
Q 2172 3584 2450 3431 
Q 2728 3278 2906 2969 
L 2906 3500 
L 3481 3500 
L 3481 434 
z
" transform="scale(0.015625)"/>
      <path id="DejaVuSans-6e" d="M 3513 2113 
L 3513 0 
L 2938 0 
L 2938 2094 
Q 2938 2591 2744 2837 
Q 2550 3084 2163 3084 
Q 1697 3084 1428 2787 
Q 1159 2491 1159 1978 
L 1159 0 
L 581 0 
L 581 3500 
L 1159 3500 
L 1159 2956 
Q 1366 3272 1645 3428 
Q 1925 3584 2291 3584 
Q 2894 3584 3203 3211 
Q 3513 2838 3513 2113 
z
" transform="scale(0.015625)"/>
      <path id="DejaVuSans-61" d="M 2194 1759 
Q 1497 1759 1228 1600 
Q 959 1441 959 1056 
Q 959 750 1161 570 
Q 1363 391 1709 391 
Q 2188 391 2477 730 
Q 2766 1069 2766 1631 
L 2766 1759 
L 2194 1759 
z
M 3341 1997 
L 3341 0 
L 2766 0 
L 2766 531 
Q 2569 213 2275 61 
Q 1981 -91 1556 -91 
Q 1019 -91 701 211 
Q 384 513 384 1019 
Q 384 1609 779 1909 
Q 1175 2209 1959 2209 
L 2766 2209 
L 2766 2266 
Q 2766 2663 2505 2880 
Q 2244 3097 1772 3097 
Q 1472 3097 1187 3025 
Q 903 2953 641 2809 
L 641 3341 
Q 956 3463 1253 3523 
Q 1550 3584 1831 3584 
Q 2591 3584 2966 3190 
Q 3341 2797 3341 1997 
z
" transform="scale(0.015625)"/>
      <path id="DejaVuSans-6c" d="M 603 4863 
L 1178 4863 
L 1178 0 
L 603 0 
L 603 4863 
z
" transform="scale(0.015625)"/>
      <path id="DejaVuSans-20" transform="scale(0.015625)"/>
      <path id="DejaVuSans-54" d="M -19 4666 
L 3928 4666 
L 3928 4134 
L 2272 4134 
L 2272 0 
L 1638 0 
L 1638 4134 
L -19 4134 
L -19 4666 
z
" transform="scale(0.015625)"/>
      <path id="DejaVuSans-6d" d="M 3328 2828 
Q 3544 3216 3844 3400 
Q 4144 3584 4550 3584 
Q 5097 3584 5394 3201 
Q 5691 2819 5691 2113 
L 5691 0 
L 5113 0 
L 5113 2094 
Q 5113 2597 4934 2840 
Q 4756 3084 4391 3084 
Q 3944 3084 3684 2787 
Q 3425 2491 3425 1978 
L 3425 0 
L 2847 0 
L 2847 2094 
Q 2847 2600 2669 2842 
Q 2491 3084 2119 3084 
Q 1678 3084 1418 2786 
Q 1159 2488 1159 1978 
L 1159 0 
L 581 0 
L 581 3500 
L 1159 3500 
L 1159 2956 
Q 1356 3278 1631 3431 
Q 1906 3584 2284 3584 
Q 2666 3584 2933 3390 
Q 3200 3197 3328 2828 
z
" transform="scale(0.015625)"/>
      <path id="DejaVuSans-65" d="M 3597 1894 
L 3597 1613 
L 953 1613 
Q 991 1019 1311 708 
Q 1631 397 2203 397 
Q 2534 397 2845 478 
Q 3156 559 3463 722 
L 3463 178 
Q 3153 47 2828 -22 
Q 2503 -91 2169 -91 
Q 1331 -91 842 396 
Q 353 884 353 1716 
Q 353 2575 817 3079 
Q 1281 3584 2069 3584 
Q 2775 3584 3186 3129 
Q 3597 2675 3597 1894 
z
M 3022 2063 
Q 3016 2534 2758 2815 
Q 2500 3097 2075 3097 
Q 1594 3097 1305 2825 
Q 1016 2553 972 2059 
L 3022 2063 
z
" transform="scale(0.015625)"/>
      <path id="DejaVuSans-53" d="M 3425 4513 
L 3425 3897 
Q 3066 4069 2747 4153 
Q 2428 4238 2131 4238 
Q 1616 4238 1336 4038 
Q 1056 3838 1056 3469 
Q 1056 3159 1242 3001 
Q 1428 2844 1947 2747 
L 2328 2669 
Q 3034 2534 3370 2195 
Q 3706 1856 3706 1288 
Q 3706 609 3251 259 
Q 2797 -91 1919 -91 
Q 1588 -91 1214 -16 
Q 841 59 441 206 
L 441 856 
Q 825 641 1194 531 
Q 1563 422 1919 422 
Q 2459 422 2753 634 
Q 3047 847 3047 1241 
Q 3047 1584 2836 1778 
Q 2625 1972 2144 2069 
L 1759 2144 
Q 1053 2284 737 2584 
Q 422 2884 422 3419 
Q 422 4038 858 4394 
Q 1294 4750 2059 4750 
Q 2388 4750 2728 4690 
Q 3069 4631 3425 4513 
z
" transform="scale(0.015625)"/>
      <path id="DejaVuSans-73" d="M 2834 3397 
L 2834 2853 
Q 2591 2978 2328 3040 
Q 2066 3103 1784 3103 
Q 1356 3103 1142 2972 
Q 928 2841 928 2578 
Q 928 2378 1081 2264 
Q 1234 2150 1697 2047 
L 1894 2003 
Q 2506 1872 2764 1633 
Q 3022 1394 3022 966 
Q 3022 478 2636 193 
Q 2250 -91 1575 -91 
Q 1294 -91 989 -36 
Q 684 19 347 128 
L 347 722 
Q 666 556 975 473 
Q 1284 391 1588 391 
Q 1994 391 2212 530 
Q 2431 669 2431 922 
Q 2431 1156 2273 1281 
Q 2116 1406 1581 1522 
L 1381 1569 
Q 847 1681 609 1914 
Q 372 2147 372 2553 
Q 372 3047 722 3315 
Q 1072 3584 1716 3584 
Q 2034 3584 2315 3537 
Q 2597 3491 2834 3397 
z
" transform="scale(0.015625)"/>
     </defs>
     <use xlink:href="#DejaVuSans-4f"/>
     <use xlink:href="#DejaVuSans-72" transform="translate(78.710938 0)"/>
     <use xlink:href="#DejaVuSans-69" transform="translate(119.824219 0)"/>
     <use xlink:href="#DejaVuSans-67" transform="translate(147.607422 0)"/>
     <use xlink:href="#DejaVuSans-69" transform="translate(211.083984 0)"/>
     <use xlink:href="#DejaVuSans-6e" transform="translate(238.867188 0)"/>
     <use xlink:href="#DejaVuSans-61" transform="translate(302.246094 0)"/>
     <use xlink:href="#DejaVuSans-6c" transform="translate(363.525391 0)"/>
     <use xlink:href="#DejaVuSans-20" transform="translate(391.308594 0)"/>
     <use xlink:href="#DejaVuSans-54" transform="translate(423.095703 0)"/>
     <use xlink:href="#DejaVuSans-69" transform="translate(481.054688 0)"/>
     <use xlink:href="#DejaVuSans-6d" transform="translate(508.837891 0)"/>
     <use xlink:href="#DejaVuSans-65" transform="translate(606.25 0)"/>
     <use xlink:href="#DejaVuSans-20" transform="translate(667.773438 0)"/>
     <use xlink:href="#DejaVuSans-53" transform="translate(699.560547 0)"/>
     <use xlink:href="#DejaVuSans-65" transform="translate(763.037109 0)"/>
     <use xlink:href="#DejaVuSans-72" transform="translate(824.560547 0)"/>
     <use xlink:href="#DejaVuSans-69" transform="translate(865.673828 0)"/>
     <use xlink:href="#DejaVuSans-65" transform="translate(893.457031 0)"/>
     <use xlink:href="#DejaVuSans-73" transform="translate(954.980469 0)"/>
    </g>
   </g>
  </g>
  <g id="axes_2">
   <g id="patch_7">
    <path d="M 57.6 168.742957 
L 414.72 168.742957 
L 414.72 110.892522 
L 57.6 110.892522 
z
" style="fill: #ffffff"/>
   </g>
   <g id="matplotlib.axis_3">
    <g id="xtick_7">
     <g id="line2d_10">
      <g>
       <use xlink:href="#mf28ac580c7" x="73.832727" y="168.742957" style="stroke: #000000; stroke-width: 0.8"/>
      </g>
     </g>
     <g id="text_10">
      <!-- 0 -->
      <g transform="translate(70.651477 183.341394) scale(0.1 -0.1)">
       <use xlink:href="#DejaVuSans-30"/>
      </g>
     </g>
    </g>
    <g id="xtick_8">
     <g id="line2d_11">
      <g>
       <use xlink:href="#mf28ac580c7" x="138.828632" y="168.742957" style="stroke: #000000; stroke-width: 0.8"/>
      </g>
     </g>
     <g id="text_11">
      <!-- 200 -->
      <g transform="translate(129.284882 183.341394) scale(0.1 -0.1)">
       <use xlink:href="#DejaVuSans-32"/>
       <use xlink:href="#DejaVuSans-30" transform="translate(63.623047 0)"/>
       <use xlink:href="#DejaVuSans-30" transform="translate(127.246094 0)"/>
      </g>
     </g>
    </g>
    <g id="xtick_9">
     <g id="line2d_12">
      <g>
       <use xlink:href="#mf28ac580c7" x="203.824537" y="168.742957" style="stroke: #000000; stroke-width: 0.8"/>
      </g>
     </g>
     <g id="text_12">
      <!-- 400 -->
      <g transform="translate(194.280787 183.341394) scale(0.1 -0.1)">
       <use xlink:href="#DejaVuSans-34"/>
       <use xlink:href="#DejaVuSans-30" transform="translate(63.623047 0)"/>
       <use xlink:href="#DejaVuSans-30" transform="translate(127.246094 0)"/>
      </g>
     </g>
    </g>
    <g id="xtick_10">
     <g id="line2d_13">
      <g>
       <use xlink:href="#mf28ac580c7" x="268.820442" y="168.742957" style="stroke: #000000; stroke-width: 0.8"/>
      </g>
     </g>
     <g id="text_13">
      <!-- 600 -->
      <g transform="translate(259.276692 183.341394) scale(0.1 -0.1)">
       <use xlink:href="#DejaVuSans-36"/>
       <use xlink:href="#DejaVuSans-30" transform="translate(63.623047 0)"/>
       <use xlink:href="#DejaVuSans-30" transform="translate(127.246094 0)"/>
      </g>
     </g>
    </g>
    <g id="xtick_11">
     <g id="line2d_14">
      <g>
       <use xlink:href="#mf28ac580c7" x="333.816347" y="168.742957" style="stroke: #000000; stroke-width: 0.8"/>
      </g>
     </g>
     <g id="text_14">
      <!-- 800 -->
      <g transform="translate(324.272597 183.341394) scale(0.1 -0.1)">
       <use xlink:href="#DejaVuSans-38"/>
       <use xlink:href="#DejaVuSans-30" transform="translate(63.623047 0)"/>
       <use xlink:href="#DejaVuSans-30" transform="translate(127.246094 0)"/>
      </g>
     </g>
    </g>
    <g id="xtick_12">
     <g id="line2d_15">
      <g>
       <use xlink:href="#mf28ac580c7" x="398.812252" y="168.742957" style="stroke: #000000; stroke-width: 0.8"/>
      </g>
     </g>
     <g id="text_15">
      <!-- 1000 -->
      <g transform="translate(386.087252 183.341394) scale(0.1 -0.1)">
       <use xlink:href="#DejaVuSans-31"/>
       <use xlink:href="#DejaVuSans-30" transform="translate(63.623047 0)"/>
       <use xlink:href="#DejaVuSans-30" transform="translate(127.246094 0)"/>
       <use xlink:href="#DejaVuSans-30" transform="translate(190.869141 0)"/>
      </g>
     </g>
    </g>
   </g>
   <g id="matplotlib.axis_4">
    <g id="ytick_3">
     <g id="line2d_16">
      <g>
       <use xlink:href="#mdc201f3f1a" x="57.6" y="166.113074" style="stroke: #000000; stroke-width: 0.8"/>
      </g>
     </g>
     <g id="text_16">
      <!-- 0 -->
      <g transform="translate(44.2375 169.912292) scale(0.1 -0.1)">
       <use xlink:href="#DejaVuSans-30"/>
      </g>
     </g>
    </g>
    <g id="ytick_4">
     <g id="line2d_17">
      <g>
       <use xlink:href="#mdc201f3f1a" x="57.6" y="113.151675" style="stroke: #000000; stroke-width: 0.8"/>
      </g>
     </g>
     <g id="text_17">
      <!-- 20 -->
      <g transform="translate(37.875 116.950894) scale(0.1 -0.1)">
       <use xlink:href="#DejaVuSans-32"/>
       <use xlink:href="#DejaVuSans-30" transform="translate(63.623047 0)"/>
      </g>
     </g>
    </g>
   </g>
   <g id="line2d_18">
    <path d="M 73.832727 166.113074 
L 88.781785 166.013188 
L 103.730844 165.689171 
L 118.679902 165.14102 
L 133.62896 164.368737 
L 148.578018 163.372321 
L 163.527076 162.151773 
L 178.476134 160.707092 
L 193.425192 159.038278 
L 208.374251 157.145332 
L 223.323309 155.028253 
L 238.272367 152.687041 
L 253.221425 150.121697 
L 268.170483 147.33222 
L 283.119541 144.318611 
L 298.0686 141.080868 
L 313.017658 137.618994 
L 327.966716 133.932986 
L 343.240753 129.935354 
L 358.514791 125.703738 
L 373.788829 121.238139 
L 389.062867 116.538556 
L 398.487273 113.522087 
L 398.487273 113.522087 
" clip-path="url(#p065bcb6d66)" style="fill: none; stroke: #1f77b4; stroke-width: 1.5; stroke-linecap: square"/>
   </g>
   <g id="patch_8">
    <path d="M 57.6 168.742957 
L 57.6 110.892522 
" style="fill: none; stroke: #000000; stroke-width: 0.8; stroke-linejoin: miter; stroke-linecap: square"/>
   </g>
   <g id="patch_9">
    <path d="M 414.72 168.742957 
L 414.72 110.892522 
" style="fill: none; stroke: #000000; stroke-width: 0.8; stroke-linejoin: miter; stroke-linecap: square"/>
   </g>
   <g id="patch_10">
    <path d="M 57.6 168.742957 
L 414.72 168.742957 
" style="fill: none; stroke: #000000; stroke-width: 0.8; stroke-linejoin: miter; stroke-linecap: square"/>
   </g>
   <g id="patch_11">
    <path d="M 57.6 110.892522 
L 414.72 110.892522 
" style="fill: none; stroke: #000000; stroke-width: 0.8; stroke-linejoin: miter; stroke-linecap: square"/>
   </g>
   <g id="text_18">
    <!-- Trend Component -->
    <g transform="translate(183.00375 104.892522) scale(0.12 -0.12)">
     <defs>
      <path id="DejaVuSans-64" d="M 2906 2969 
L 2906 4863 
L 3481 4863 
L 3481 0 
L 2906 0 
L 2906 525 
Q 2725 213 2448 61 
Q 2172 -91 1784 -91 
Q 1150 -91 751 415 
Q 353 922 353 1747 
Q 353 2572 751 3078 
Q 1150 3584 1784 3584 
Q 2172 3584 2448 3432 
Q 2725 3281 2906 2969 
z
M 947 1747 
Q 947 1113 1208 752 
Q 1469 391 1925 391 
Q 2381 391 2643 752 
Q 2906 1113 2906 1747 
Q 2906 2381 2643 2742 
Q 2381 3103 1925 3103 
Q 1469 3103 1208 2742 
Q 947 2381 947 1747 
z
" transform="scale(0.015625)"/>
      <path id="DejaVuSans-43" d="M 4122 4306 
L 4122 3641 
Q 3803 3938 3442 4084 
Q 3081 4231 2675 4231 
Q 1875 4231 1450 3742 
Q 1025 3253 1025 2328 
Q 1025 1406 1450 917 
Q 1875 428 2675 428 
Q 3081 428 3442 575 
Q 3803 722 4122 1019 
L 4122 359 
Q 3791 134 3420 21 
Q 3050 -91 2638 -91 
Q 1578 -91 968 557 
Q 359 1206 359 2328 
Q 359 3453 968 4101 
Q 1578 4750 2638 4750 
Q 3056 4750 3426 4639 
Q 3797 4528 4122 4306 
z
" transform="scale(0.015625)"/>
      <path id="DejaVuSans-6f" d="M 1959 3097 
Q 1497 3097 1228 2736 
Q 959 2375 959 1747 
Q 959 1119 1226 758 
Q 1494 397 1959 397 
Q 2419 397 2687 759 
Q 2956 1122 2956 1747 
Q 2956 2369 2687 2733 
Q 2419 3097 1959 3097 
z
M 1959 3584 
Q 2709 3584 3137 3096 
Q 3566 2609 3566 1747 
Q 3566 888 3137 398 
Q 2709 -91 1959 -91 
Q 1206 -91 779 398 
Q 353 888 353 1747 
Q 353 2609 779 3096 
Q 1206 3584 1959 3584 
z
" transform="scale(0.015625)"/>
      <path id="DejaVuSans-70" d="M 1159 525 
L 1159 -1331 
L 581 -1331 
L 581 3500 
L 1159 3500 
L 1159 2969 
Q 1341 3281 1617 3432 
Q 1894 3584 2278 3584 
Q 2916 3584 3314 3078 
Q 3713 2572 3713 1747 
Q 3713 922 3314 415 
Q 2916 -91 2278 -91 
Q 1894 -91 1617 61 
Q 1341 213 1159 525 
z
M 3116 1747 
Q 3116 2381 2855 2742 
Q 2594 3103 2138 3103 
Q 1681 3103 1420 2742 
Q 1159 2381 1159 1747 
Q 1159 1113 1420 752 
Q 1681 391 2138 391 
Q 2594 391 2855 752 
Q 3116 1113 3116 1747 
z
" transform="scale(0.015625)"/>
      <path id="DejaVuSans-74" d="M 1172 4494 
L 1172 3500 
L 2356 3500 
L 2356 3053 
L 1172 3053 
L 1172 1153 
Q 1172 725 1289 603 
Q 1406 481 1766 481 
L 2356 481 
L 2356 0 
L 1766 0 
Q 1100 0 847 248 
Q 594 497 594 1153 
L 594 3053 
L 172 3053 
L 172 3500 
L 594 3500 
L 594 4494 
L 1172 4494 
z
" transform="scale(0.015625)"/>
     </defs>
     <use xlink:href="#DejaVuSans-54"/>
     <use xlink:href="#DejaVuSans-72" transform="translate(46.333984 0)"/>
     <use xlink:href="#DejaVuSans-65" transform="translate(85.197266 0)"/>
     <use xlink:href="#DejaVuSans-6e" transform="translate(146.720703 0)"/>
     <use xlink:href="#DejaVuSans-64" transform="translate(210.099609 0)"/>
     <use xlink:href="#DejaVuSans-20" transform="translate(273.576172 0)"/>
     <use xlink:href="#DejaVuSans-43" transform="translate(305.363281 0)"/>
     <use xlink:href="#DejaVuSans-6f" transform="translate(375.1875 0)"/>
     <use xlink:href="#DejaVuSans-6d" transform="translate(436.369141 0)"/>
     <use xlink:href="#DejaVuSans-70" transform="translate(533.78125 0)"/>
     <use xlink:href="#DejaVuSans-6f" transform="translate(597.257812 0)"/>
     <use xlink:href="#DejaVuSans-6e" transform="translate(658.439453 0)"/>
     <use xlink:href="#DejaVuSans-65" transform="translate(721.818359 0)"/>
     <use xlink:href="#DejaVuSans-6e" transform="translate(783.341797 0)"/>
     <use xlink:href="#DejaVuSans-74" transform="translate(846.720703 0)"/>
    </g>
   </g>
  </g>
  <g id="axes_3">
   <g id="patch_12">
    <path d="M 57.6 238.163478 
L 414.72 238.163478 
L 414.72 180.313043 
L 57.6 180.313043 
z
" style="fill: #ffffff"/>
   </g>
   <g id="matplotlib.axis_5">
    <g id="xtick_13">
     <g id="line2d_19">
      <g>
       <use xlink:href="#mf28ac580c7" x="73.832727" y="238.163478" style="stroke: #000000; stroke-width: 0.8"/>
      </g>
     </g>
     <g id="text_19">
      <!-- 0 -->
      <g transform="translate(70.651477 252.761916) scale(0.1 -0.1)">
       <use xlink:href="#DejaVuSans-30"/>
      </g>
     </g>
    </g>
    <g id="xtick_14">
     <g id="line2d_20">
      <g>
       <use xlink:href="#mf28ac580c7" x="138.828632" y="238.163478" style="stroke: #000000; stroke-width: 0.8"/>
      </g>
     </g>
     <g id="text_20">
      <!-- 200 -->
      <g transform="translate(129.284882 252.761916) scale(0.1 -0.1)">
       <use xlink:href="#DejaVuSans-32"/>
       <use xlink:href="#DejaVuSans-30" transform="translate(63.623047 0)"/>
       <use xlink:href="#DejaVuSans-30" transform="translate(127.246094 0)"/>
      </g>
     </g>
    </g>
    <g id="xtick_15">
     <g id="line2d_21">
      <g>
       <use xlink:href="#mf28ac580c7" x="203.824537" y="238.163478" style="stroke: #000000; stroke-width: 0.8"/>
      </g>
     </g>
     <g id="text_21">
      <!-- 400 -->
      <g transform="translate(194.280787 252.761916) scale(0.1 -0.1)">
       <use xlink:href="#DejaVuSans-34"/>
       <use xlink:href="#DejaVuSans-30" transform="translate(63.623047 0)"/>
       <use xlink:href="#DejaVuSans-30" transform="translate(127.246094 0)"/>
      </g>
     </g>
    </g>
    <g id="xtick_16">
     <g id="line2d_22">
      <g>
       <use xlink:href="#mf28ac580c7" x="268.820442" y="238.163478" style="stroke: #000000; stroke-width: 0.8"/>
      </g>
     </g>
     <g id="text_22">
      <!-- 600 -->
      <g transform="translate(259.276692 252.761916) scale(0.1 -0.1)">
       <use xlink:href="#DejaVuSans-36"/>
       <use xlink:href="#DejaVuSans-30" transform="translate(63.623047 0)"/>
       <use xlink:href="#DejaVuSans-30" transform="translate(127.246094 0)"/>
      </g>
     </g>
    </g>
    <g id="xtick_17">
     <g id="line2d_23">
      <g>
       <use xlink:href="#mf28ac580c7" x="333.816347" y="238.163478" style="stroke: #000000; stroke-width: 0.8"/>
      </g>
     </g>
     <g id="text_23">
      <!-- 800 -->
      <g transform="translate(324.272597 252.761916) scale(0.1 -0.1)">
       <use xlink:href="#DejaVuSans-38"/>
       <use xlink:href="#DejaVuSans-30" transform="translate(63.623047 0)"/>
       <use xlink:href="#DejaVuSans-30" transform="translate(127.246094 0)"/>
      </g>
     </g>
    </g>
    <g id="xtick_18">
     <g id="line2d_24">
      <g>
       <use xlink:href="#mf28ac580c7" x="398.812252" y="238.163478" style="stroke: #000000; stroke-width: 0.8"/>
      </g>
     </g>
     <g id="text_24">
      <!-- 1000 -->
      <g transform="translate(386.087252 252.761916) scale(0.1 -0.1)">
       <use xlink:href="#DejaVuSans-31"/>
       <use xlink:href="#DejaVuSans-30" transform="translate(63.623047 0)"/>
       <use xlink:href="#DejaVuSans-30" transform="translate(127.246094 0)"/>
       <use xlink:href="#DejaVuSans-30" transform="translate(190.869141 0)"/>
      </g>
     </g>
    </g>
   </g>
   <g id="matplotlib.axis_6">
    <g id="ytick_5">
     <g id="line2d_25">
      <g>
       <use xlink:href="#mdc201f3f1a" x="57.6" y="224.165882" style="stroke: #000000; stroke-width: 0.8"/>
      </g>
     </g>
     <g id="text_25">
      <!-- 10 -->
      <g transform="translate(29.495313 227.965101) scale(0.1 -0.1)">
       <defs>
        <path id="DejaVuSans-2212" d="M 678 2272 
L 4684 2272 
L 4684 1741 
L 678 1741 
L 678 2272 
z
" transform="scale(0.015625)"/>
       </defs>
       <use xlink:href="#DejaVuSans-2212"/>
       <use xlink:href="#DejaVuSans-31" transform="translate(83.789062 0)"/>
       <use xlink:href="#DejaVuSans-30" transform="translate(147.412109 0)"/>
      </g>
     </g>
    </g>
    <g id="ytick_6">
     <g id="line2d_26">
      <g>
       <use xlink:href="#mdc201f3f1a" x="57.6" y="209.238261" style="stroke: #000000; stroke-width: 0.8"/>
      </g>
     </g>
     <g id="text_26">
      <!-- 0 -->
      <g transform="translate(44.2375 213.03748) scale(0.1 -0.1)">
       <use xlink:href="#DejaVuSans-30"/>
      </g>
     </g>
    </g>
    <g id="ytick_7">
     <g id="line2d_27">
      <g>
       <use xlink:href="#mdc201f3f1a" x="57.6" y="194.310639" style="stroke: #000000; stroke-width: 0.8"/>
      </g>
     </g>
     <g id="text_27">
      <!-- 10 -->
      <g transform="translate(37.875 198.109858) scale(0.1 -0.1)">
       <use xlink:href="#DejaVuSans-31"/>
       <use xlink:href="#DejaVuSans-30" transform="translate(63.623047 0)"/>
      </g>
     </g>
    </g>
   </g>
   <g id="line2d_28">
    <path d="M 73.832727 209.238261 
L 74.807666 191.66345 
L 75.457625 184.477126 
L 75.782604 182.95303 
L 76.107584 182.942609 
L 76.432563 184.433884 
L 76.757543 187.325229 
L 77.407502 196.5 
L 79.0324 224.648862 
L 79.682359 231.185271 
L 80.007338 232.531944 
L 80.332318 232.50812 
L 80.657297 231.151293 
L 80.982277 228.578749 
L 81.632236 220.59587 
L 83.257133 197.302187 
L 83.907093 192.336384 
L 84.232072 191.453273 
L 84.557052 191.66345 
L 84.882031 192.899742 
L 85.53199 197.880652 
L 87.481867 217.146494 
L 87.806847 218.799947 
L 88.131826 219.683059 
L 88.456806 219.793683 
L 88.781785 219.184973 
L 89.106765 217.959102 
L 89.756724 214.249416 
L 90.731663 208.187239 
L 91.381622 205.668249 
L 91.706601 205.161445 
L 92.031581 205.185269 
L 92.35656 205.702227 
L 93.006519 207.85761 
L 93.981458 211.844783 
L 94.306437 212.774295 
L 94.631417 213.291253 
L 94.956396 213.315076 
L 95.281376 212.808273 
L 95.606355 211.780559 
L 96.256314 208.436074 
L 97.556233 200.51742 
L 97.881212 199.291549 
L 98.206192 198.682839 
L 98.531171 198.793463 
L 98.856151 199.676574 
L 99.18113 201.330028 
L 99.831089 206.652721 
L 101.455987 223.443973 
L 101.780966 225.576779 
L 102.105946 226.813072 
L 102.430925 227.023249 
L 102.755905 226.140138 
L 103.080885 224.165882 
L 103.730844 217.308672 
L 105.680721 189.897773 
L 106.0057 187.325229 
L 106.33068 185.968402 
L 106.655659 185.944578 
L 106.980639 187.291251 
L 107.305618 189.961997 
L 107.955577 198.682839 
L 109.905455 231.151293 
L 110.230434 234.042637 
L 110.555414 235.533913 
L 110.880393 235.523492 
L 111.205373 233.999395 
L 111.530352 231.040668 
L 112.180311 221.55936 
L 114.130188 187.435854 
L 114.455168 184.477126 
L 114.780147 182.95303 
L 115.105127 182.942609 
L 115.430106 184.433884 
L 115.755086 187.325229 
L 116.405045 196.5 
L 118.029943 224.648862 
L 118.679902 231.185271 
L 119.004881 232.531944 
L 119.329861 232.50812 
L 119.65484 231.151293 
L 119.97982 228.578749 
L 120.629779 220.59587 
L 122.254676 197.302187 
L 122.904636 192.336384 
L 123.229615 191.453273 
L 123.554595 191.66345 
L 123.879574 192.899742 
L 124.529533 197.880652 
L 126.47941 217.146494 
L 126.80439 218.799947 
L 127.129369 219.683059 
L 127.454349 219.793683 
L 127.779328 219.184973 
L 128.104308 217.959102 
L 128.754267 214.249416 
L 129.729206 208.187239 
L 130.379165 205.668249 
L 130.704144 205.161445 
L 131.029124 205.185269 
L 131.354103 205.702227 
L 132.004062 207.85761 
L 132.979001 211.844783 
L 133.30398 212.774295 
L 133.62896 213.291253 
L 133.953939 213.315076 
L 134.278919 212.808273 
L 134.603898 211.780559 
L 135.253857 208.436074 
L 136.553776 200.51742 
L 136.878755 199.291549 
L 137.203735 198.682839 
L 137.528714 198.793463 
L 137.853694 199.676574 
L 138.178673 201.330028 
L 138.828632 206.652721 
L 140.45353 223.443973 
L 140.778509 225.576779 
L 141.103489 226.813072 
L 141.428468 227.023249 
L 141.753448 226.140138 
L 142.078428 224.165882 
L 142.728387 217.308672 
L 144.678264 189.897773 
L 145.003243 187.325229 
L 145.328223 185.968402 
L 145.653202 185.944578 
L 145.978182 187.291251 
L 146.303161 189.961997 
L 146.95312 198.682839 
L 148.902998 231.151293 
L 149.227977 234.042637 
L 149.552957 235.533913 
L 149.877936 235.523492 
L 150.202916 233.999395 
L 150.527895 231.040668 
L 151.177854 221.55936 
L 153.127731 187.435854 
L 153.452711 184.477126 
L 153.77769 182.95303 
L 154.10267 182.942609 
L 154.427649 184.433884 
L 154.752629 187.325229 
L 155.402588 196.5 
L 157.027486 224.648862 
L 157.677445 231.185271 
L 158.002424 232.531944 
L 158.327404 232.50812 
L 158.652383 231.151293 
L 158.977363 228.578749 
L 159.627322 220.59587 
L 161.252219 197.302187 
L 161.902179 192.336384 
L 162.227158 191.453273 
L 162.552138 191.66345 
L 162.877117 192.899742 
L 163.527076 197.880652 
L 165.476953 217.146494 
L 165.801933 218.799947 
L 166.126912 219.683059 
L 166.451892 219.793683 
L 166.776871 219.184973 
L 167.101851 217.959102 
L 167.75181 214.249416 
L 168.726749 208.187239 
L 169.376708 205.668249 
L 169.701687 205.161445 
L 170.026667 205.185269 
L 170.351646 205.702227 
L 171.001605 207.85761 
L 171.976544 211.844783 
L 172.301523 212.774295 
L 172.626503 213.291253 
L 172.951482 213.315076 
L 173.276462 212.808273 
L 173.601441 211.780559 
L 174.2514 208.436074 
L 175.551319 200.51742 
L 175.876298 199.291549 
L 176.201278 198.682839 
L 176.526257 198.793463 
L 176.851237 199.676574 
L 177.176216 201.330028 
L 177.826175 206.652721 
L 179.451073 223.443973 
L 179.776052 225.576779 
L 180.101032 226.813072 
L 180.426011 227.023249 
L 180.750991 226.140138 
L 181.075971 224.165882 
L 181.72593 217.308672 
L 183.675807 189.897773 
L 184.000786 187.325229 
L 184.325766 185.968402 
L 184.650745 185.944578 
L 184.975725 187.291251 
L 185.300704 189.961997 
L 185.950663 198.682839 
L 187.900541 231.151293 
L 188.22552 234.042637 
L 188.5505 235.533913 
L 188.875479 235.523492 
L 189.200459 233.999395 
L 189.525438 231.040668 
L 190.175397 221.55936 
L 192.125274 187.435854 
L 192.450254 184.477126 
L 192.775233 182.95303 
L 193.100213 182.942609 
L 193.425192 184.433884 
L 193.750172 187.325229 
L 194.400131 196.5 
L 196.025029 224.648862 
L 196.674988 231.185271 
L 196.999967 232.531944 
L 197.324947 232.50812 
L 197.649926 231.151293 
L 197.974906 228.578749 
L 198.624865 220.59587 
L 200.249762 197.302187 
L 200.899722 192.336384 
L 201.224701 191.453273 
L 201.549681 191.66345 
L 201.87466 192.899742 
L 202.524619 197.880652 
L 204.474496 217.146494 
L 204.799476 218.799947 
L 205.124455 219.683059 
L 205.449435 219.793683 
L 205.774414 219.184973 
L 206.099394 217.959102 
L 206.749353 214.249416 
L 207.724292 208.187239 
L 208.374251 205.668249 
L 208.69923 205.161445 
L 209.02421 205.185269 
L 209.349189 205.702227 
L 209.999148 207.85761 
L 210.974087 211.844783 
L 211.299066 212.774295 
L 211.624046 213.291253 
L 211.949025 213.315076 
L 212.274005 212.808273 
L 212.598984 211.780559 
L 213.248943 208.436074 
L 214.548862 200.51742 
L 214.873841 199.291549 
L 215.198821 198.682839 
L 215.5238 198.793463 
L 215.84878 199.676574 
L 216.173759 201.330028 
L 216.823718 206.652721 
L 218.448616 223.443973 
L 218.773595 225.576779 
L 219.098575 226.813072 
L 219.423554 227.023249 
L 219.748534 226.140138 
L 220.073514 224.165882 
L 220.723473 217.308672 
L 222.67335 189.897773 
L 222.998329 187.325229 
L 223.323309 185.968402 
L 223.648288 185.944578 
L 223.973268 187.291251 
L 224.298247 189.961997 
L 224.948206 198.682839 
L 226.898084 231.151293 
L 227.223063 234.042637 
L 227.548043 235.533913 
L 227.873022 235.523492 
L 228.198002 233.999395 
L 228.522981 231.040668 
L 229.17294 221.55936 
L 231.122817 187.435854 
L 231.447797 184.477126 
L 231.772776 182.95303 
L 232.097756 182.942609 
L 232.422735 184.433884 
L 232.747715 187.325229 
L 233.397674 196.5 
L 235.022572 224.648862 
L 235.672531 231.185271 
L 235.99751 232.531944 
L 236.32249 232.50812 
L 236.647469 231.151293 
L 236.972449 228.578749 
L 237.622408 220.59587 
L 239.247305 197.302187 
L 239.897265 192.336384 
L 240.222244 191.453273 
L 240.547224 191.66345 
L 240.872203 192.899742 
L 241.522162 197.880652 
L 243.472039 217.146494 
L 243.797019 218.799947 
L 244.121998 219.683059 
L 244.446978 219.793683 
L 244.771957 219.184973 
L 245.096937 217.959102 
L 245.746896 214.249416 
L 246.721835 208.187239 
L 247.371794 205.668249 
L 247.696773 205.161445 
L 248.021753 205.185269 
L 248.346732 205.702227 
L 248.996691 207.85761 
L 249.97163 211.844783 
L 250.296609 212.774295 
L 250.621589 213.291253 
L 250.946568 213.315076 
L 251.271548 212.808273 
L 251.596527 211.780559 
L 252.246486 208.436074 
L 253.546405 200.51742 
L 253.871384 199.291549 
L 254.196364 198.682839 
L 254.521343 198.793463 
L 254.846323 199.676574 
L 255.171302 201.330028 
L 255.821261 206.652721 
L 257.446159 223.443973 
L 257.771138 225.576779 
L 258.096118 226.813072 
L 258.421097 227.023249 
L 258.746077 226.140138 
L 259.071057 224.165882 
L 259.721016 217.308672 
L 261.670893 189.897773 
L 261.995872 187.325229 
L 262.320852 185.968402 
L 262.645831 185.944578 
L 262.970811 187.291251 
L 263.29579 189.961997 
L 263.945749 198.682839 
L 265.895627 231.151293 
L 266.220606 234.042637 
L 266.545586 235.533913 
L 266.870565 235.523492 
L 267.195545 233.999395 
L 267.520524 231.040668 
L 268.170483 221.55936 
L 270.12036 187.435854 
L 270.44534 184.477126 
L 270.770319 182.95303 
L 271.095299 182.942609 
L 271.420278 184.433884 
L 271.745258 187.325229 
L 272.395217 196.5 
L 274.020115 224.648862 
L 274.670074 231.185271 
L 274.995053 232.531944 
L 275.320033 232.50812 
L 275.645012 231.151293 
L 275.969992 228.578749 
L 276.619951 220.59587 
L 278.244848 197.302187 
L 278.894808 192.336384 
L 279.219787 191.453273 
L 279.544767 191.66345 
L 279.869746 192.899742 
L 280.519705 197.880652 
L 282.469582 217.146494 
L 282.794562 218.799947 
L 283.119541 219.683059 
L 283.444521 219.793683 
L 283.7695 219.184973 
L 284.09448 217.959102 
L 284.744439 214.249416 
L 285.719378 208.187239 
L 286.369337 205.668249 
L 286.694316 205.161445 
L 287.019296 205.185269 
L 287.344275 205.702227 
L 287.994234 207.85761 
L 288.969173 211.844783 
L 289.294152 212.774295 
L 289.619132 213.291253 
L 289.944111 213.315076 
L 290.269091 212.808273 
L 290.59407 211.780559 
L 291.244029 208.436074 
L 292.543948 200.51742 
L 292.868927 199.291549 
L 293.193907 198.682839 
L 293.518886 198.793463 
L 293.843866 199.676574 
L 294.168845 201.330028 
L 294.818804 206.652721 
L 296.443702 223.443973 
L 296.768681 225.576779 
L 297.093661 226.813072 
L 297.41864 227.023249 
L 297.74362 226.140138 
L 298.0686 224.165882 
L 298.718559 217.308672 
L 300.668436 189.897773 
L 300.993415 187.325229 
L 301.318395 185.968402 
L 301.643374 185.944578 
L 301.968354 187.291251 
L 302.293333 189.961997 
L 302.943292 198.682839 
L 304.89317 231.151293 
L 305.218149 234.042637 
L 305.543129 235.533913 
L 305.868108 235.523492 
L 306.193088 233.999395 
L 306.518067 231.040668 
L 307.168026 221.55936 
L 309.117903 187.435854 
L 309.442883 184.477126 
L 309.767862 182.95303 
L 310.092842 182.942609 
L 310.417821 184.433884 
L 310.742801 187.325229 
L 311.39276 196.5 
L 313.017658 224.648862 
L 313.667617 231.185271 
L 313.992596 232.531944 
L 314.317576 232.50812 
L 314.642555 231.151293 
L 314.967535 228.578749 
L 315.617494 220.59587 
L 317.242391 197.302187 
L 317.892351 192.336384 
L 318.21733 191.453273 
L 318.54231 191.66345 
L 318.867289 192.899742 
L 319.517248 197.880652 
L 321.467125 217.146494 
L 321.792105 218.799947 
L 322.117084 219.683059 
L 322.442064 219.793683 
L 322.767043 219.184973 
L 323.092023 217.959102 
L 323.741982 214.249416 
L 324.716921 208.187239 
L 325.36688 205.668249 
L 325.691859 205.161445 
L 326.016839 205.185269 
L 326.341818 205.702227 
L 326.991777 207.85761 
L 327.966716 211.844783 
L 328.291695 212.774295 
L 328.616675 213.291253 
L 328.941654 213.315076 
L 329.266634 212.808273 
L 329.591613 211.780559 
L 330.241572 208.436074 
L 331.541491 200.51742 
L 331.86647 199.291549 
L 332.19145 198.682839 
L 332.516429 198.793463 
L 332.841409 199.676574 
L 333.166388 201.330028 
L 333.816347 206.652721 
L 335.441245 223.443973 
L 335.766224 225.576779 
L 336.091204 226.813072 
L 336.416183 227.023249 
L 336.741163 226.140138 
L 337.066143 224.165882 
L 337.716102 217.308672 
L 339.665979 189.897773 
L 339.990958 187.325229 
L 340.315938 185.968402 
L 340.640917 185.944578 
L 340.965897 187.291251 
L 341.290876 189.961997 
L 341.940835 198.682839 
L 343.890713 231.151293 
L 344.215692 234.042637 
L 344.540672 235.533913 
L 344.865651 235.523492 
L 345.190631 233.999395 
L 345.51561 231.040668 
L 346.165569 221.55936 
L 348.115446 187.435854 
L 348.440426 184.477126 
L 348.765405 182.95303 
L 349.090385 182.942609 
L 349.415364 184.433884 
L 349.740344 187.325229 
L 350.390303 196.5 
L 352.015201 224.648862 
L 352.66516 231.185271 
L 352.990139 232.531944 
L 353.315119 232.50812 
L 353.640098 231.151293 
L 353.965078 228.578749 
L 354.615037 220.59587 
L 356.239934 197.302187 
L 356.889894 192.336384 
L 357.214873 191.453273 
L 357.539853 191.66345 
L 357.864832 192.899742 
L 358.514791 197.880652 
L 360.464668 217.146494 
L 360.789648 218.799947 
L 361.114627 219.683059 
L 361.439607 219.793683 
L 361.764586 219.184973 
L 362.089566 217.959102 
L 362.739525 214.249416 
L 363.714464 208.187239 
L 364.364423 205.668249 
L 364.689402 205.161445 
L 365.014382 205.185269 
L 365.339361 205.702227 
L 365.98932 207.85761 
L 366.964259 211.844783 
L 367.289238 212.774295 
L 367.614218 213.291253 
L 367.939197 213.315076 
L 368.264177 212.808273 
L 368.589156 211.780559 
L 369.239115 208.436074 
L 370.539034 200.51742 
L 370.864013 199.291549 
L 371.188993 198.682839 
L 371.513972 198.793463 
L 371.838952 199.676574 
L 372.163931 201.330028 
L 372.81389 206.652721 
L 374.438788 223.443973 
L 374.763767 225.576779 
L 375.088747 226.813072 
L 375.413726 227.023249 
L 375.738706 226.140138 
L 376.063686 224.165882 
L 376.713645 217.308672 
L 378.663522 189.897773 
L 378.988501 187.325229 
L 379.313481 185.968402 
L 379.63846 185.944578 
L 379.96344 187.291251 
L 380.288419 189.961997 
L 380.938378 198.682839 
L 382.888256 231.151293 
L 383.213235 234.042637 
L 383.538215 235.533913 
L 383.863194 235.523492 
L 384.188174 233.999395 
L 384.513153 231.040668 
L 385.163112 221.55936 
L 387.112989 187.435854 
L 387.437969 184.477126 
L 387.762948 182.95303 
L 388.087928 182.942609 
L 388.412907 184.433884 
L 388.737887 187.325229 
L 389.387846 196.5 
L 391.012744 224.648862 
L 391.662703 231.185271 
L 391.987682 232.531944 
L 392.312662 232.50812 
L 392.637641 231.151293 
L 392.962621 228.578749 
L 393.61258 220.59587 
L 395.237477 197.302187 
L 395.887437 192.336384 
L 396.212416 191.453273 
L 396.537396 191.66345 
L 396.862375 192.899742 
L 397.512334 197.880652 
L 398.487273 208.436074 
L 398.487273 208.436074 
" clip-path="url(#p2ee3e6f976)" style="fill: none; stroke: #1f77b4; stroke-width: 1.5; stroke-linecap: square"/>
   </g>
   <g id="patch_13">
    <path d="M 57.6 238.163478 
L 57.6 180.313043 
" style="fill: none; stroke: #000000; stroke-width: 0.8; stroke-linejoin: miter; stroke-linecap: square"/>
   </g>
   <g id="patch_14">
    <path d="M 414.72 238.163478 
L 414.72 180.313043 
" style="fill: none; stroke: #000000; stroke-width: 0.8; stroke-linejoin: miter; stroke-linecap: square"/>
   </g>
   <g id="patch_15">
    <path d="M 57.6 238.163478 
L 414.72 238.163478 
" style="fill: none; stroke: #000000; stroke-width: 0.8; stroke-linejoin: miter; stroke-linecap: square"/>
   </g>
   <g id="patch_16">
    <path d="M 57.6 180.313043 
L 414.72 180.313043 
" style="fill: none; stroke: #000000; stroke-width: 0.8; stroke-linejoin: miter; stroke-linecap: square"/>
   </g>
   <g id="text_28">
    <!-- Seasonal Component -->
    <g transform="translate(172.2975 174.313043) scale(0.12 -0.12)">
     <use xlink:href="#DejaVuSans-53"/>
     <use xlink:href="#DejaVuSans-65" transform="translate(63.476562 0)"/>
     <use xlink:href="#DejaVuSans-61" transform="translate(125 0)"/>
     <use xlink:href="#DejaVuSans-73" transform="translate(186.279297 0)"/>
     <use xlink:href="#DejaVuSans-6f" transform="translate(238.378906 0)"/>
     <use xlink:href="#DejaVuSans-6e" transform="translate(299.560547 0)"/>
     <use xlink:href="#DejaVuSans-61" transform="translate(362.939453 0)"/>
     <use xlink:href="#DejaVuSans-6c" transform="translate(424.21875 0)"/>
     <use xlink:href="#DejaVuSans-20" transform="translate(452.001953 0)"/>
     <use xlink:href="#DejaVuSans-43" transform="translate(483.789062 0)"/>
     <use xlink:href="#DejaVuSans-6f" transform="translate(553.613281 0)"/>
     <use xlink:href="#DejaVuSans-6d" transform="translate(614.794922 0)"/>
     <use xlink:href="#DejaVuSans-70" transform="translate(712.207031 0)"/>
     <use xlink:href="#DejaVuSans-6f" transform="translate(775.683594 0)"/>
     <use xlink:href="#DejaVuSans-6e" transform="translate(836.865234 0)"/>
     <use xlink:href="#DejaVuSans-65" transform="translate(900.244141 0)"/>
     <use xlink:href="#DejaVuSans-6e" transform="translate(961.767578 0)"/>
     <use xlink:href="#DejaVuSans-74" transform="translate(1025.146484 0)"/>
    </g>
   </g>
  </g>
  <g id="axes_4">
   <g id="patch_17">
    <path d="M 57.6 307.584 
L 414.72 307.584 
L 414.72 249.733565 
L 57.6 249.733565 
z
" style="fill: #ffffff"/>
   </g>
   <g id="matplotlib.axis_7">
    <g id="xtick_19">
     <g id="line2d_29">
      <g>
       <use xlink:href="#mf28ac580c7" x="73.832727" y="307.584" style="stroke: #000000; stroke-width: 0.8"/>
      </g>
     </g>
     <g id="text_29">
      <!-- 0 -->
      <g transform="translate(70.651477 322.182437) scale(0.1 -0.1)">
       <use xlink:href="#DejaVuSans-30"/>
      </g>
     </g>
    </g>
    <g id="xtick_20">
     <g id="line2d_30">
      <g>
       <use xlink:href="#mf28ac580c7" x="138.828632" y="307.584" style="stroke: #000000; stroke-width: 0.8"/>
      </g>
     </g>
     <g id="text_30">
      <!-- 200 -->
      <g transform="translate(129.284882 322.182437) scale(0.1 -0.1)">
       <use xlink:href="#DejaVuSans-32"/>
       <use xlink:href="#DejaVuSans-30" transform="translate(63.623047 0)"/>
       <use xlink:href="#DejaVuSans-30" transform="translate(127.246094 0)"/>
      </g>
     </g>
    </g>
    <g id="xtick_21">
     <g id="line2d_31">
      <g>
       <use xlink:href="#mf28ac580c7" x="203.824537" y="307.584" style="stroke: #000000; stroke-width: 0.8"/>
      </g>
     </g>
     <g id="text_31">
      <!-- 400 -->
      <g transform="translate(194.280787 322.182437) scale(0.1 -0.1)">
       <use xlink:href="#DejaVuSans-34"/>
       <use xlink:href="#DejaVuSans-30" transform="translate(63.623047 0)"/>
       <use xlink:href="#DejaVuSans-30" transform="translate(127.246094 0)"/>
      </g>
     </g>
    </g>
    <g id="xtick_22">
     <g id="line2d_32">
      <g>
       <use xlink:href="#mf28ac580c7" x="268.820442" y="307.584" style="stroke: #000000; stroke-width: 0.8"/>
      </g>
     </g>
     <g id="text_32">
      <!-- 600 -->
      <g transform="translate(259.276692 322.182437) scale(0.1 -0.1)">
       <use xlink:href="#DejaVuSans-36"/>
       <use xlink:href="#DejaVuSans-30" transform="translate(63.623047 0)"/>
       <use xlink:href="#DejaVuSans-30" transform="translate(127.246094 0)"/>
      </g>
     </g>
    </g>
    <g id="xtick_23">
     <g id="line2d_33">
      <g>
       <use xlink:href="#mf28ac580c7" x="333.816347" y="307.584" style="stroke: #000000; stroke-width: 0.8"/>
      </g>
     </g>
     <g id="text_33">
      <!-- 800 -->
      <g transform="translate(324.272597 322.182437) scale(0.1 -0.1)">
       <use xlink:href="#DejaVuSans-38"/>
       <use xlink:href="#DejaVuSans-30" transform="translate(63.623047 0)"/>
       <use xlink:href="#DejaVuSans-30" transform="translate(127.246094 0)"/>
      </g>
     </g>
    </g>
    <g id="xtick_24">
     <g id="line2d_34">
      <g>
       <use xlink:href="#mf28ac580c7" x="398.812252" y="307.584" style="stroke: #000000; stroke-width: 0.8"/>
      </g>
     </g>
     <g id="text_34">
      <!-- 1000 -->
      <g transform="translate(386.087252 322.182437) scale(0.1 -0.1)">
       <use xlink:href="#DejaVuSans-31"/>
       <use xlink:href="#DejaVuSans-30" transform="translate(63.623047 0)"/>
       <use xlink:href="#DejaVuSans-30" transform="translate(127.246094 0)"/>
       <use xlink:href="#DejaVuSans-30" transform="translate(190.869141 0)"/>
      </g>
     </g>
    </g>
   </g>
   <g id="matplotlib.axis_8">
    <g id="ytick_8">
     <g id="line2d_35">
      <g>
       <use xlink:href="#mdc201f3f1a" x="57.6" y="298.026591" style="stroke: #000000; stroke-width: 0.8"/>
      </g>
     </g>
     <g id="text_35">
      <!-- 5 -->
      <g transform="translate(35.857813 301.82581) scale(0.1 -0.1)">
       <use xlink:href="#DejaVuSans-2212"/>
       <use xlink:href="#DejaVuSans-35" transform="translate(83.789062 0)"/>
      </g>
     </g>
    </g>
    <g id="ytick_9">
     <g id="line2d_36">
      <g>
       <use xlink:href="#mdc201f3f1a" x="57.6" y="280.853612" style="stroke: #000000; stroke-width: 0.8"/>
      </g>
     </g>
     <g id="text_36">
      <!-- 0 -->
      <g transform="translate(44.2375 284.65283) scale(0.1 -0.1)">
       <use xlink:href="#DejaVuSans-30"/>
      </g>
     </g>
    </g>
    <g id="ytick_10">
     <g id="line2d_37">
      <g>
       <use xlink:href="#mdc201f3f1a" x="57.6" y="263.680632" style="stroke: #000000; stroke-width: 0.8"/>
      </g>
     </g>
     <g id="text_37">
      <!-- 5 -->
      <g transform="translate(44.2375 267.479851) scale(0.1 -0.1)">
       <use xlink:href="#DejaVuSans-35"/>
      </g>
     </g>
    </g>
   </g>
   <g id="line2d_38">
    <path d="M 73.832727 283.971271 
L 74.157707 288.487942 
L 74.482686 273.878918 
L 74.807666 279.883778 
L 75.132645 282.975938 
L 75.457625 272.816726 
L 75.782604 270.686868 
L 76.432563 289.379303 
L 76.757543 281.527601 
L 77.082523 283.405248 
L 77.407502 296.547346 
L 77.732482 279.610008 
L 78.057461 280.071271 
L 78.382441 278.598277 
L 78.70742 281.224854 
L 79.0324 275.371784 
L 79.357379 287.461427 
L 79.682359 283.531181 
L 80.007338 288.38596 
L 80.332318 281.551189 
L 80.657297 270.070585 
L 80.982277 273.738434 
L 81.307256 285.210333 
L 81.632236 290.407031 
L 81.957215 278.045073 
L 82.282195 288.324345 
L 82.607174 290.494239 
L 82.932154 287.326631 
L 83.257133 277.01483 
L 83.582113 290.60798 
L 83.907093 282.338926 
L 84.232072 284.983856 
L 84.882031 282.321526 
L 85.207011 271.894994 
L 85.53199 274.833645 
L 85.85697 278.822844 
L 86.181949 276.830286 
L 86.506929 281.752283 
L 86.831908 273.740962 
L 87.156888 278.674765 
L 87.481867 295.080617 
L 87.806847 275.282663 
L 88.131826 287.360583 
L 88.781785 270.745463 
L 89.106765 289.027487 
L 89.431744 280.957158 
L 89.756724 287.970656 
L 90.081704 283.900993 
L 90.406683 274.479746 
L 90.731663 286.636047 
L 91.056642 276.62624 
L 91.381622 284.87703 
L 91.706601 289.013297 
L 92.031581 278.323068 
L 92.35656 288.736894 
L 92.68154 286.711762 
L 93.006519 277.092595 
L 93.331499 286.03797 
L 93.656478 273.93868 
L 93.981458 286.012622 
L 94.306437 275.910466 
L 94.631417 280.32802 
L 94.956396 269.962464 
L 95.281376 276.148108 
L 95.606355 289.907284 
L 95.931335 280.300496 
L 96.256314 291.872921 
L 96.581294 278.701415 
L 96.906274 270.12726 
L 97.231253 277.174711 
L 97.556233 278.092305 
L 97.881212 283.433021 
L 98.206192 270.717443 
L 98.531171 273.2578 
L 98.856151 278.665724 
L 99.18113 281.718003 
L 99.50611 289.616274 
L 99.831089 271.959681 
L 100.156069 279.238053 
L 100.481048 269.87478 
L 100.806028 286.376856 
L 101.131007 282.018854 
L 101.455987 280.173474 
L 101.780966 276.91696 
L 102.105946 294.439368 
L 102.430925 274.21233 
L 102.755905 276.148793 
L 103.080885 279.343753 
L 103.405864 285.430634 
L 103.730844 277.87142 
L 104.055823 285.935249 
L 104.380803 284.987145 
L 104.705782 292.448821 
L 105.030762 284.886972 
L 105.355741 281.3094 
L 105.680721 283.700988 
L 106.33068 270.049948 
L 106.655659 281.875206 
L 106.980639 285.696832 
L 107.305618 284.141938 
L 107.630598 293.961727 
L 107.955577 295.30129 
L 108.280557 303.75507 
L 108.605536 275.661335 
L 108.930516 283.342856 
L 109.255495 276.419326 
L 109.580475 284.876371 
L 109.905455 279.554037 
L 110.230434 279.577254 
L 110.555414 282.498677 
L 110.880393 267.165443 
L 111.205373 282.829484 
L 111.530352 274.113454 
L 111.855332 281.998102 
L 112.180311 270.568847 
L 112.505291 287.611117 
L 112.83027 274.637893 
L 113.15525 274.009255 
L 113.480229 282.825279 
L 113.805209 272.802106 
L 114.130188 280.62336 
L 114.455168 292.38702 
L 115.105127 265.752047 
L 115.430106 291.732399 
L 116.080066 281.093147 
L 116.405045 282.543731 
L 116.730025 279.823723 
L 117.055004 266.965551 
L 117.379984 281.147773 
L 117.704963 265.523711 
L 118.029943 283.194928 
L 118.354922 275.54537 
L 118.679902 297.862775 
L 119.329861 280.494204 
L 119.97982 284.082132 
L 120.304799 283.113611 
L 120.629779 287.531214 
L 121.604717 274.881408 
L 121.929697 275.697705 
L 122.254676 275.448913 
L 122.904636 279.744844 
L 123.229615 269.653302 
L 123.554595 274.947013 
L 123.879574 270.342352 
L 124.204554 284.759584 
L 124.529533 281.802859 
L 124.854513 277.323689 
L 125.179492 274.983664 
L 125.504472 284.190613 
L 125.829451 276.841463 
L 126.154431 291.735005 
L 126.47941 280.213772 
L 126.80439 276.103456 
L 127.129369 276.279524 
L 127.454349 280.483153 
L 127.779328 271.276873 
L 128.104308 280.818386 
L 128.429287 275.692178 
L 128.754267 279.851582 
L 129.079247 279.849337 
L 129.404226 267.390431 
L 130.054185 287.285603 
L 130.379165 282.194758 
L 130.704144 284.065199 
L 131.029124 283.414665 
L 131.354103 278.646104 
L 131.679083 277.277185 
L 132.004062 274.383263 
L 132.329042 274.047836 
L 132.654021 279.870839 
L 132.979001 293.445591 
L 133.30398 285.312431 
L 133.62896 294.553809 
L 133.953939 284.66727 
L 134.278919 300.207818 
L 134.603898 286.58971 
L 134.928878 277.961449 
L 135.253857 282.880858 
L 135.578837 271.915555 
L 135.903817 273.890334 
L 136.228796 289.850228 
L 136.553776 270.112592 
L 136.878755 284.882087 
L 137.203735 279.595386 
L 137.528714 279.080275 
L 137.853694 276.699742 
L 138.503653 291.254925 
L 138.828632 280.253777 
L 139.478591 289.404012 
L 139.803571 277.048404 
L 140.12855 281.470724 
L 140.45353 272.459667 
L 140.778509 276.250268 
L 141.103489 286.33 
L 141.428468 282.954473 
L 142.078428 292.15485 
L 142.403407 304.954435 
L 142.728387 275.370433 
L 143.053366 285.832981 
L 143.378346 284.977357 
L 143.703325 281.898208 
L 144.028305 282.531382 
L 144.353284 274.979286 
L 144.678264 286.847465 
L 145.003243 281.698954 
L 145.328223 283.085357 
L 145.653202 272.135209 
L 145.978182 290.000687 
L 146.303161 267.957022 
L 146.628141 286.753376 
L 146.95312 281.999299 
L 147.2781 273.225043 
L 147.603079 287.917862 
L 147.928059 266.663774 
L 148.578018 291.513623 
L 148.902998 283.399164 
L 149.227977 288.525473 
L 149.552957 282.368043 
L 149.877936 271.843016 
L 150.202916 285.550982 
L 150.527895 276.492625 
L 150.852875 272.01544 
L 151.177854 285.616835 
L 151.502834 274.303129 
L 151.827813 280.490998 
L 152.152793 282.291384 
L 152.477772 286.559069 
L 152.802752 271.904378 
L 153.452711 285.72614 
L 154.10267 270.591437 
L 154.427649 272.154566 
L 154.752629 283.09167 
L 155.077609 284.346594 
L 155.402588 268.022608 
L 155.727568 280.268933 
L 156.052547 283.474212 
L 156.377527 274.885863 
L 156.702506 272.884358 
L 157.027486 282.828073 
L 157.352465 283.786303 
L 157.677445 294.88546 
L 158.002424 294.005203 
L 158.327404 286.705927 
L 158.652383 273.145485 
L 158.977363 276.305358 
L 159.302342 281.97277 
L 159.627322 289.602271 
L 159.952301 267.806141 
L 160.60226 278.589195 
L 160.92724 282.887932 
L 161.252219 274.205644 
L 161.577199 293.902457 
L 161.902179 281.712689 
L 162.227158 275.114809 
L 162.552138 292.04305 
L 162.877117 280.436049 
L 163.202097 285.469383 
L 163.527076 287.18769 
L 163.852056 268.728947 
L 164.177035 287.94699 
L 164.502015 291.43631 
L 164.826994 286.217686 
L 165.151974 288.558264 
L 165.476953 279.642257 
L 165.801933 279.855816 
L 166.126912 268.487022 
L 166.451892 282.976909 
L 166.776871 292.043742 
L 167.101851 283.480472 
L 167.75181 276.074111 
L 168.07679 278.854533 
L 168.401769 275.792123 
L 168.726749 288.628041 
L 169.051728 290.591926 
L 169.376708 280.519584 
L 169.701687 286.236271 
L 170.026667 283.356904 
L 170.351646 283.286328 
L 170.676626 279.563199 
L 171.001605 288.830131 
L 171.326585 285.477657 
L 171.651564 277.835962 
L 171.976544 274.597924 
L 172.301523 267.564464 
L 172.626503 277.740372 
L 172.951482 266.331025 
L 173.276462 280.915855 
L 173.601441 279.962616 
L 173.926421 276.112218 
L 174.2514 277.808764 
L 174.57638 285.891282 
L 174.90136 284.27585 
L 175.226339 281.922431 
L 175.551319 281.549954 
L 175.876298 280.412541 
L 176.201278 293.754041 
L 176.526257 286.993255 
L 176.851237 276.519256 
L 177.176216 290.915309 
L 177.501196 274.473172 
L 177.826175 284.118206 
L 178.151155 275.250367 
L 178.476134 289.594426 
L 178.801114 286.173002 
L 179.126093 287.442089 
L 179.451073 278.987919 
L 179.776052 281.855292 
L 180.101032 280.636655 
L 180.426011 278.442813 
L 180.750991 300.109482 
L 181.075971 278.522481 
L 181.40095 282.036422 
L 181.72593 283.673844 
L 182.050909 286.874702 
L 182.375889 280.486878 
L 183.025848 290.937068 
L 183.350827 273.143366 
L 184.000786 279.60026 
L 184.325766 275.466649 
L 184.650745 284.035105 
L 184.975725 275.286733 
L 185.300704 276.858548 
L 185.625684 286.009558 
L 185.950663 277.478808 
L 186.275643 286.242949 
L 186.600622 271.578618 
L 186.925602 270.67155 
L 187.250581 282.578955 
L 187.575561 287.882622 
L 187.900541 285.288047 
L 188.22552 292.795803 
L 188.5505 269.673818 
L 188.875479 272.568318 
L 189.200459 281.763026 
L 189.525438 270.530661 
L 189.850418 288.530116 
L 190.175397 275.499926 
L 190.500377 269.987413 
L 190.825356 275.815853 
L 191.150336 276.123718 
L 191.475315 289.168865 
L 191.800295 279.738214 
L 192.125274 274.137456 
L 192.450254 276.118038 
L 192.775233 279.114096 
L 193.100213 293.069235 
L 193.425192 290.591024 
L 193.750172 280.053255 
L 194.400131 284.817161 
L 195.37507 277.70294 
L 195.700049 263.175278 
L 196.025029 270.380304 
L 196.350008 288.6469 
L 196.674988 281.330643 
L 196.999967 280.559136 
L 197.324947 270.526572 
L 197.649926 279.690048 
L 197.974906 278.559534 
L 198.299885 279.115132 
L 198.624865 295.04717 
L 198.949844 285.627364 
L 199.274824 279.981794 
L 199.599803 280.224288 
L 199.924783 297.841811 
L 200.249762 278.370724 
L 200.574742 290.814629 
L 200.899722 274.957666 
L 201.224701 269.564722 
L 201.549681 289.23189 
L 201.87466 284.114259 
L 202.19964 295.85054 
L 202.524619 272.983881 
L 203.174578 285.149836 
L 203.499558 281.216857 
L 203.824537 298.808984 
L 204.149517 279.125676 
L 204.474496 285.178778 
L 204.799476 285.84286 
L 205.124455 290.302639 
L 205.449435 275.672624 
L 205.774414 288.365402 
L 206.099394 270.041916 
L 206.749353 279.310308 
L 207.074333 280.877953 
L 207.399312 287.189415 
L 207.724292 283.545616 
L 208.049271 288.546553 
L 208.374251 283.701537 
L 208.69923 283.463662 
L 209.02421 276.014144 
L 209.349189 279.332988 
L 209.674169 291.38951 
L 209.999148 275.677979 
L 210.649107 287.611059 
L 210.974087 273.412812 
L 211.299066 295.600975 
L 211.624046 284.007388 
L 211.949025 287.662965 
L 212.274005 284.342323 
L 212.598984 288.201994 
L 212.923964 290.275446 
L 213.248943 287.049394 
L 213.573923 287.89808 
L 213.898903 280.332825 
L 214.223882 280.097405 
L 214.548862 279.662272 
L 214.873841 277.099556 
L 215.198821 279.606915 
L 215.5238 274.491406 
L 215.84878 278.883301 
L 216.173759 277.148536 
L 216.498739 287.011203 
L 216.823718 281.024269 
L 217.148698 283.467158 
L 217.473677 276.489305 
L 217.798657 275.827674 
L 218.123636 287.527586 
L 218.448616 269.04149 
L 218.773595 279.015906 
L 219.098575 276.140548 
L 219.423554 284.234987 
L 219.748534 267.128579 
L 220.073514 270.774489 
L 220.398493 287.963355 
L 220.723473 272.913621 
L 221.048452 274.919649 
L 221.373432 274.792846 
L 221.698411 283.584035 
L 222.023391 278.410979 
L 222.34837 289.350135 
L 222.67335 281.41394 
L 222.998329 277.092581 
L 223.648288 289.952481 
L 223.973268 289.224783 
L 224.298247 289.786158 
L 224.623227 286.46589 
L 224.948206 294.966906 
L 225.273186 276.884402 
L 225.598165 281.9994 
L 225.923145 265.652141 
L 226.248124 278.731774 
L 226.573104 277.322172 
L 226.898084 277.881304 
L 227.223063 291.243865 
L 227.548043 285.593578 
L 227.873022 272.43355 
L 228.198002 289.530527 
L 228.522981 272.311422 
L 228.847961 270.181312 
L 229.17294 278.113398 
L 229.49792 262.467401 
L 229.822899 276.184578 
L 230.147879 284.179463 
L 230.472858 287.915667 
L 230.797838 281.265964 
L 231.122817 284.134538 
L 231.447797 281.07102 
L 231.772776 284.874663 
L 232.097756 268.334946 
L 232.422735 290.629764 
L 232.747715 293.531931 
L 233.072695 288.344091 
L 233.397674 291.141736 
L 233.722654 273.787294 
L 234.047633 284.795064 
L 234.372613 270.976595 
L 234.697592 285.179175 
L 235.022572 284.667939 
L 235.347551 288.512771 
L 235.672531 268.909211 
L 235.99751 272.838639 
L 236.647469 292.191475 
L 236.972449 279.325948 
L 237.297428 281.459346 
L 237.622408 282.755771 
L 237.947387 288.965351 
L 238.272367 278.780975 
L 238.597346 289.556133 
L 238.922326 279.316954 
L 239.247305 276.135835 
L 239.572285 288.88422 
L 239.897265 276.260716 
L 240.222244 279.477562 
L 240.547224 288.709689 
L 241.197183 273.663769 
L 241.522162 276.945241 
L 241.847142 285.936723 
L 242.172121 278.106554 
L 242.497101 282.706431 
L 242.82208 283.080959 
L 243.14706 271.907665 
L 243.797019 288.725422 
L 244.121998 288.689501 
L 244.446978 276.576364 
L 244.771957 280.912662 
L 245.096937 293.642344 
L 245.746896 266.914599 
L 246.721835 288.154511 
L 247.046814 279.505568 
L 247.371794 291.652812 
L 247.696773 289.941255 
L 248.021753 273.212954 
L 248.346732 275.795913 
L 248.671712 279.969413 
L 248.996691 271.505681 
L 249.321671 282.810253 
L 249.64665 272.575003 
L 249.97163 296.518612 
L 250.296609 271.01069 
L 250.621589 289.624089 
L 250.946568 280.988102 
L 251.271548 280.838353 
L 251.596527 295.264567 
L 251.921507 274.071749 
L 252.246486 284.240022 
L 252.571466 276.690567 
L 252.896446 278.121404 
L 253.221425 280.800144 
L 253.546405 275.413752 
L 253.871384 280.453484 
L 254.196364 279.339825 
L 254.846323 281.6194 
L 255.171302 292.25561 
L 255.496282 282.290248 
L 255.821261 282.24485 
L 256.146241 271.836472 
L 256.47122 268.89285 
L 256.7962 281.925093 
L 257.121179 287.075041 
L 257.446159 276.156526 
L 258.096118 285.695326 
L 258.421097 278.853415 
L 258.746077 278.041392 
L 259.071057 287.80934 
L 259.396036 281.768147 
L 259.721016 278.038419 
L 260.045995 286.760578 
L 260.370975 269.163992 
L 260.695954 290.513108 
L 261.020934 274.775754 
L 261.345913 284.597413 
L 261.670893 280.595629 
L 261.995872 286.106173 
L 262.320852 278.528552 
L 262.645831 285.693501 
L 262.970811 275.548199 
L 263.29579 277.208241 
L 263.62077 280.034405 
L 263.945749 275.970551 
L 264.270729 276.954553 
L 264.595708 274.635906 
L 264.920688 277.722853 
L 265.570647 281.490197 
L 265.895627 273.801673 
L 266.220606 279.663251 
L 266.545586 280.426709 
L 266.870565 271.388149 
L 267.195545 274.418262 
L 267.520524 270.642879 
L 267.845504 281.957699 
L 268.170483 274.262405 
L 268.495463 285.651959 
L 268.820442 266.301329 
L 269.145422 284.727249 
L 269.470401 271.820054 
L 269.795381 278.975762 
L 270.12036 278.348294 
L 270.44534 279.306086 
L 270.770319 284.244332 
L 271.095299 280.428143 
L 271.420278 292.124693 
L 271.745258 276.759513 
L 272.070238 274.470914 
L 272.395217 290.81331 
L 272.720197 273.085186 
L 273.045176 289.854406 
L 273.370156 273.429735 
L 273.695135 282.093475 
L 274.020115 279.351353 
L 274.345094 279.720805 
L 274.670074 280.323651 
L 274.995053 273.542099 
L 275.320033 285.607079 
L 275.645012 283.283229 
L 275.969992 275.283974 
L 276.294971 291.323198 
L 276.619951 282.388032 
L 276.94493 278.168344 
L 277.594889 292.593899 
L 277.919869 279.385645 
L 278.244848 282.570842 
L 278.569828 276.129554 
L 278.894808 278.199357 
L 279.219787 296.562756 
L 279.544767 273.081275 
L 280.194726 284.355283 
L 280.519705 278.36843 
L 280.844685 291.587732 
L 281.169664 277.056909 
L 281.494644 288.044739 
L 281.819623 270.487485 
L 282.144603 276.800216 
L 282.469582 290.499019 
L 282.794562 277.993222 
L 283.119541 283.348733 
L 283.444521 280.996585 
L 283.7695 274.574822 
L 284.09448 284.225343 
L 284.419459 269.845828 
L 284.744439 270.898574 
L 285.069419 280.348921 
L 285.394398 280.793911 
L 285.719378 274.137499 
L 286.044357 280.474701 
L 287.019296 270.195743 
L 287.344275 285.410216 
L 287.669255 290.017326 
L 287.994234 287.522672 
L 288.319214 277.241325 
L 288.644193 283.243239 
L 288.969173 281.940408 
L 289.294152 284.946206 
L 289.619132 276.76533 
L 289.944111 275.539363 
L 290.269091 275.202863 
L 290.59407 268.120635 
L 290.91905 285.416024 
L 291.244029 277.463538 
L 291.569009 273.925364 
L 291.893989 284.964254 
L 292.218968 279.843769 
L 292.543948 281.48833 
L 292.868927 280.053792 
L 293.193907 288.016256 
L 293.518886 281.54694 
L 293.843866 282.568075 
L 294.168845 278.935188 
L 294.493825 268.408335 
L 294.818804 273.671404 
L 295.143784 285.630793 
L 295.468763 272.212225 
L 295.793743 282.727398 
L 296.118722 274.069099 
L 296.443702 285.145397 
L 296.768681 288.29017 
L 297.093661 281.687874 
L 297.41864 282.491432 
L 297.74362 288.36536 
L 298.0686 287.18783 
L 298.393579 289.495285 
L 298.718559 293.076654 
L 299.043538 270.090047 
L 299.368518 289.552261 
L 299.693497 278.48323 
L 300.018477 287.395244 
L 300.343456 271.999058 
L 301.318395 285.184817 
L 301.643374 275.188605 
L 301.968354 282.050952 
L 302.293333 280.971474 
L 302.618313 285.990949 
L 302.943292 287.637875 
L 303.268272 278.122279 
L 303.593251 281.206069 
L 303.918231 302.927502 
L 304.24321 280.76009 
L 304.56819 270.034809 
L 304.89317 281.860438 
L 305.218149 278.060591 
L 305.543129 291.148097 
L 305.868108 284.137555 
L 306.193088 281.131166 
L 306.518067 288.059695 
L 306.843047 274.385252 
L 307.493006 283.430659 
L 307.817985 278.55739 
L 308.142965 277.217614 
L 308.467944 269.094908 
L 309.117903 287.462669 
L 309.442883 290.05885 
L 309.767862 282.241767 
L 310.092842 271.12722 
L 310.417821 284.281007 
L 310.742801 271.063737 
L 311.067781 284.552804 
L 311.39276 285.060268 
L 311.71774 282.219839 
L 312.042719 291.666406 
L 312.367699 282.949292 
L 312.692678 280.524931 
L 313.017658 283.884228 
L 313.342637 294.07118 
L 313.992596 275.07486 
L 314.317576 282.261025 
L 314.642555 285.599172 
L 314.967535 281.956978 
L 315.292514 291.696195 
L 315.617494 286.250958 
L 315.942473 287.796977 
L 316.267453 277.752079 
L 316.592432 294.267585 
L 317.242391 278.763403 
L 317.567371 277.873158 
L 317.892351 282.213488 
L 318.21733 276.013803 
L 318.54231 283.787431 
L 318.867289 287.138108 
L 319.192269 286.963465 
L 319.517248 284.570517 
L 319.842228 280.339763 
L 320.167207 280.133507 
L 320.492187 287.861312 
L 320.817166 271.3093 
L 321.142146 288.834594 
L 321.467125 282.441759 
L 321.792105 285.677763 
L 322.117084 281.984318 
L 322.442064 282.70434 
L 322.767043 281.24697 
L 323.092023 281.897975 
L 323.417002 280.037799 
L 323.741982 294.02025 
L 324.066962 284.707713 
L 324.391941 284.462972 
L 324.716921 272.965474 
L 325.0419 287.010872 
L 325.36688 275.47377 
L 325.691859 279.937543 
L 326.016839 279.840663 
L 326.341818 279.204729 
L 326.666798 279.243954 
L 326.991777 273.406018 
L 327.316757 281.641576 
L 327.641736 283.908722 
L 327.966716 272.938368 
L 328.291695 283.498191 
L 328.941654 290.80053 
L 329.266634 275.716926 
L 329.591613 282.778072 
L 329.916593 280.564813 
L 330.241572 292.567851 
L 330.566552 279.209831 
L 330.891532 278.85919 
L 331.216511 269.232074 
L 331.541491 272.09179 
L 331.86647 284.162362 
L 332.19145 281.631279 
L 332.516429 274.898795 
L 332.841409 288.747133 
L 333.166388 268.923003 
L 333.491368 287.431699 
L 333.816347 278.051953 
L 334.141327 292.956668 
L 334.466306 284.069382 
L 334.791286 266.381316 
L 335.441245 292.749458 
L 336.091204 273.982289 
L 336.416183 275.659333 
L 336.741163 286.040161 
L 337.066143 271.784198 
L 337.391122 274.45038 
L 337.716102 274.527324 
L 338.041081 261.747546 
L 338.69104 286.661334 
L 339.01602 283.802384 
L 339.340999 302.108635 
L 339.990958 276.000747 
L 340.315938 280.190959 
L 340.640917 279.85173 
L 340.965897 269.443935 
L 341.290876 274.513191 
L 341.615856 274.22288 
L 341.940835 288.264004 
L 342.265815 272.480563 
L 342.590794 298.400148 
L 342.915774 279.034812 
L 343.240753 279.670217 
L 343.565733 281.64587 
L 343.890713 276.299814 
L 344.215692 276.188701 
L 344.540672 292.348876 
L 344.865651 288.117828 
L 345.190631 282.106695 
L 345.51561 279.618176 
L 345.84059 272.138168 
L 346.165569 276.070312 
L 346.490549 276.425619 
L 346.815528 294.801917 
L 347.465487 275.83158 
L 347.790467 272.072439 
L 348.115446 288.242443 
L 348.440426 273.87418 
L 349.090385 280.686375 
L 349.415364 286.717044 
L 349.740344 275.160404 
L 350.065324 284.549911 
L 350.390303 272.512338 
L 351.040262 287.213806 
L 351.365242 271.496859 
L 351.690221 284.084085 
L 352.015201 279.065863 
L 352.34018 279.288022 
L 352.66516 293.598977 
L 352.990139 286.268113 
L 353.315119 287.431867 
L 353.640098 282.953183 
L 354.290057 287.237546 
L 354.615037 285.979162 
L 354.940016 266.87893 
L 355.264996 285.470392 
L 355.589975 252.36313 
L 355.914955 284.473202 
L 356.239934 282.251181 
L 356.564914 277.256402 
L 356.889894 281.224622 
L 357.214873 280.493244 
L 357.539853 267.237261 
L 357.864832 282.332955 
L 358.189812 283.419771 
L 358.514791 276.675915 
L 358.839771 291.261941 
L 359.16475 284.098805 
L 359.48973 292.07551 
L 359.814709 288.43173 
L 360.139689 271.215689 
L 360.464668 278.288343 
L 360.789648 265.816096 
L 361.114627 266.824955 
L 361.439607 286.858521 
L 361.764586 281.712018 
L 362.089566 290.902373 
L 362.414545 276.051244 
L 362.739525 270.943669 
L 363.389484 285.254141 
L 363.714464 277.008991 
L 364.039443 276.490036 
L 364.364423 274.327704 
L 364.689402 294.005872 
L 365.664341 277.361728 
L 365.98932 284.285661 
L 366.3143 270.744911 
L 366.964259 282.923647 
L 367.289238 284.946545 
L 367.614218 281.379084 
L 367.939197 282.685333 
L 368.264177 280.453833 
L 368.589156 285.849341 
L 368.914136 287.417413 
L 369.564095 275.0989 
L 369.889075 277.387697 
L 370.539034 290.178764 
L 370.864013 291.447247 
L 371.188993 283.573734 
L 371.838952 272.590952 
L 372.163931 289.161488 
L 372.488911 275.481012 
L 372.81389 278.906208 
L 373.13887 284.360741 
L 373.463849 287.686484 
L 373.788829 287.449832 
L 374.113808 277.127476 
L 374.438788 272.282269 
L 374.763767 286.319805 
L 375.088747 270.762191 
L 375.413726 285.113342 
L 375.738706 275.063516 
L 376.063686 279.725052 
L 376.388665 276.338326 
L 376.713645 281.933258 
L 377.038624 293.815841 
L 377.363604 288.507377 
L 377.688583 292.184655 
L 378.013563 279.530332 
L 378.338542 290.320475 
L 378.663522 285.009699 
L 378.988501 276.193254 
L 379.313481 285.829497 
L 379.63846 285.378506 
L 379.96344 269.934687 
L 380.288419 283.989473 
L 380.613399 286.15704 
L 380.938378 291.801509 
L 381.263358 284.242515 
L 381.588337 270.079468 
L 381.913317 276.49543 
L 382.238296 274.546314 
L 382.563276 286.449642 
L 382.888256 282.962015 
L 383.213235 287.569565 
L 383.538215 287.595069 
L 383.863194 282.503597 
L 384.188174 284.85602 
L 384.513153 277.184086 
L 385.163112 287.935975 
L 385.488092 282.87531 
L 385.813071 289.489706 
L 386.138051 279.490257 
L 386.46303 277.644215 
L 386.78801 278.588032 
L 387.112989 291.143619 
L 387.437969 279.765925 
L 388.087928 267.476497 
L 388.412907 285.299251 
L 388.737887 264.492249 
L 389.062867 289.706182 
L 389.387846 285.380934 
L 389.712826 289.402319 
L 390.037805 285.19006 
L 390.362785 286.751821 
L 390.687764 289.530056 
L 391.012744 275.812399 
L 391.337723 279.459343 
L 391.662703 279.422966 
L 391.987682 287.79703 
L 392.312662 279.260037 
L 392.637641 282.41726 
L 392.962621 265.058382 
L 393.2876 266.887117 
L 393.61258 287.115642 
L 393.937559 275.044883 
L 394.262539 288.825983 
L 394.587518 278.529842 
L 394.912498 282.223578 
L 395.237477 275.303995 
L 395.562457 277.462469 
L 395.887437 278.051272 
L 396.212416 277.82662 
L 396.537396 282.629433 
L 396.862375 275.791083 
L 397.187355 287.229052 
L 397.512334 275.142331 
L 397.837314 274.566895 
L 398.162293 285.54342 
L 398.487273 284.423316 
L 398.487273 284.423316 
" clip-path="url(#p29873d3546)" style="fill: none; stroke: #1f77b4; stroke-width: 1.5; stroke-linecap: square"/>
   </g>
   <g id="patch_18">
    <path d="M 57.6 307.584 
L 57.6 249.733565 
" style="fill: none; stroke: #000000; stroke-width: 0.8; stroke-linejoin: miter; stroke-linecap: square"/>
   </g>
   <g id="patch_19">
    <path d="M 414.72 307.584 
L 414.72 249.733565 
" style="fill: none; stroke: #000000; stroke-width: 0.8; stroke-linejoin: miter; stroke-linecap: square"/>
   </g>
   <g id="patch_20">
    <path d="M 57.6 307.584 
L 414.72 307.584 
" style="fill: none; stroke: #000000; stroke-width: 0.8; stroke-linejoin: miter; stroke-linecap: square"/>
   </g>
   <g id="patch_21">
    <path d="M 57.6 249.733565 
L 414.72 249.733565 
" style="fill: none; stroke: #000000; stroke-width: 0.8; stroke-linejoin: miter; stroke-linecap: square"/>
   </g>
   <g id="text_38">
    <!-- Noise Component -->
    <g transform="translate(182.774063 243.733565) scale(0.12 -0.12)">
     <defs>
      <path id="DejaVuSans-4e" d="M 628 4666 
L 1478 4666 
L 3547 763 
L 3547 4666 
L 4159 4666 
L 4159 0 
L 3309 0 
L 1241 3903 
L 1241 0 
L 628 0 
L 628 4666 
z
" transform="scale(0.015625)"/>
     </defs>
     <use xlink:href="#DejaVuSans-4e"/>
     <use xlink:href="#DejaVuSans-6f" transform="translate(74.804688 0)"/>
     <use xlink:href="#DejaVuSans-69" transform="translate(135.986328 0)"/>
     <use xlink:href="#DejaVuSans-73" transform="translate(163.769531 0)"/>
     <use xlink:href="#DejaVuSans-65" transform="translate(215.869141 0)"/>
     <use xlink:href="#DejaVuSans-20" transform="translate(277.392578 0)"/>
     <use xlink:href="#DejaVuSans-43" transform="translate(309.179688 0)"/>
     <use xlink:href="#DejaVuSans-6f" transform="translate(379.003906 0)"/>
     <use xlink:href="#DejaVuSans-6d" transform="translate(440.185547 0)"/>
     <use xlink:href="#DejaVuSans-70" transform="translate(537.597656 0)"/>
     <use xlink:href="#DejaVuSans-6f" transform="translate(601.074219 0)"/>
     <use xlink:href="#DejaVuSans-6e" transform="translate(662.255859 0)"/>
     <use xlink:href="#DejaVuSans-65" transform="translate(725.634766 0)"/>
     <use xlink:href="#DejaVuSans-6e" transform="translate(787.158203 0)"/>
     <use xlink:href="#DejaVuSans-74" transform="translate(850.537109 0)"/>
    </g>
   </g>
  </g>
 </g>
 <defs>
  <clipPath id="pd2f3076a1b">
   <rect x="57.6" y="41.472" width="357.12" height="57.850435"/>
  </clipPath>
  <clipPath id="p065bcb6d66">
   <rect x="57.6" y="110.892522" width="357.12" height="57.850435"/>
  </clipPath>
  <clipPath id="p2ee3e6f976">
   <rect x="57.6" y="180.313043" width="357.12" height="57.850435"/>
  </clipPath>
  <clipPath id="p29873d3546">
   <rect x="57.6" y="249.733565" width="357.12" height="57.850435"/>
  </clipPath>
 </defs>
</svg>
