<?xml version="1.0" encoding="utf-8" standalone="no"?>
<!DOCTYPE svg PUBLIC "-//W3C//DTD SVG 1.1//EN"
  "http://www.w3.org/Graphics/SVG/1.1/DTD/svg11.dtd">
<svg xmlns:xlink="http://www.w3.org/1999/xlink" width="460.8pt" height="345.6pt" viewBox="0 0 460.8 345.6" xmlns="http://www.w3.org/2000/svg" version="1.1">
 <metadata>
  <rdf:RDF xmlns:dc="http://purl.org/dc/elements/1.1/" xmlns:cc="http://creativecommons.org/ns#" xmlns:rdf="http://www.w3.org/1999/02/22-rdf-syntax-ns#">
   <cc:Work>
    <dc:type rdf:resource="http://purl.org/dc/dcmitype/StillImage"/>
    <dc:date>2025-12-02T17:24:11.852243</dc:date>
    <dc:format>image/svg+xml</dc:format>
    <dc:creator>
     <cc:Agent>
      <dc:title>Matplotlib v3.10.3, https://matplotlib.org/</dc:title>
     </cc:Agent>
    </dc:creator>
   </cc:Work>
  </rdf:RDF>
 </metadata>
 <defs>
  <style type="text/css">*{stroke-linejoin: round; stroke-linecap: butt}</style>
 </defs>
 <g id="figure_1">
  <g id="patch_1">
   <path d="M 0 345.6 
L 460.8 345.6 
L 460.8 0 
L 0 0 
z
" style="fill: #ffffff"/>
  </g>
  <g id="axes_1">
   <g id="patch_2">
    <path d="M 57.6 307.584 
L 414.72 307.584 
L 414.72 41.472 
L 57.6 41.472 
z
" style="fill: #ffffff"/>
   </g>
   <g id="matplotlib.axis_1">
    <g id="xtick_1">
     <g id="line2d_1">
      <defs>
       <path id="m00e3fad8cd" d="M 0 0 
L 0 3.5 
" style="stroke: #000000; stroke-width: 0.8"/>
      </defs>
      <g>
       <use xlink:href="#m00e3fad8cd" x="73.832727" y="307.584" style="stroke: #000000; stroke-width: 0.8"/>
      </g>
     </g>
     <g id="text_1">
      <!-- 0 -->
      <g transform="translate(70.651477 322.182437) scale(0.1 -0.1)">
       <defs>
        <path id="DejaVuSans-30" d="M 2034 4250 
Q 1547 4250 1301 3770 
Q 1056 3291 1056 2328 
Q 1056 1369 1301 889 
Q 1547 409 2034 409 
Q 2525 409 2770 889 
Q 3016 1369 3016 2328 
Q 3016 3291 2770 3770 
Q 2525 4250 2034 4250 
z
M 2034 4750 
Q 2819 4750 3233 4129 
Q 3647 3509 3647 2328 
Q 3647 1150 3233 529 
Q 2819 -91 2034 -91 
Q 1250 -91 836 529 
Q 422 1150 422 2328 
Q 422 3509 836 4129 
Q 1250 4750 2034 4750 
z
" transform="scale(0.015625)"/>
       </defs>
       <use xlink:href="#DejaVuSans-30"/>
      </g>
     </g>
    </g>
    <g id="xtick_2">
     <g id="line2d_2">
      <g>
       <use xlink:href="#m00e3fad8cd" x="138.828632" y="307.584" style="stroke: #000000; stroke-width: 0.8"/>
      </g>
     </g>
     <g id="text_2">
      <!-- 200 -->
      <g transform="translate(129.284882 322.182437) scale(0.1 -0.1)">
       <defs>
        <path id="DejaVuSans-32" d="M 1228 531 
L 3431 531 
L 3431 0 
L 469 0 
L 469 531 
Q 828 903 1448 1529 
Q 2069 2156 2228 2338 
Q 2531 2678 2651 2914 
Q 2772 3150 2772 3378 
Q 2772 3750 2511 3984 
Q 2250 4219 1831 4219 
Q 1534 4219 1204 4116 
Q 875 4013 500 3803 
L 500 4441 
Q 881 4594 1212 4672 
Q 1544 4750 1819 4750 
Q 2544 4750 2975 4387 
Q 3406 4025 3406 3419 
Q 3406 3131 3298 2873 
Q 3191 2616 2906 2266 
Q 2828 2175 2409 1742 
Q 1991 1309 1228 531 
z
" transform="scale(0.015625)"/>
       </defs>
       <use xlink:href="#DejaVuSans-32"/>
       <use xlink:href="#DejaVuSans-30" transform="translate(63.623047 0)"/>
       <use xlink:href="#DejaVuSans-30" transform="translate(127.246094 0)"/>
      </g>
     </g>
    </g>
    <g id="xtick_3">
     <g id="line2d_3">
      <g>
       <use xlink:href="#m00e3fad8cd" x="203.824537" y="307.584" style="stroke: #000000; stroke-width: 0.8"/>
      </g>
     </g>
     <g id="text_3">
      <!-- 400 -->
      <g transform="translate(194.280787 322.182437) scale(0.1 -0.1)">
       <defs>
        <path id="DejaVuSans-34" d="M 2419 4116 
L 825 1625 
L 2419 1625 
L 2419 4116 
z
M 2253 4666 
L 3047 4666 
L 3047 1625 
L 3713 1625 
L 3713 1100 
L 3047 1100 
L 3047 0 
L 2419 0 
L 2419 1100 
L 313 1100 
L 313 1709 
L 2253 4666 
z
" transform="scale(0.015625)"/>
       </defs>
       <use xlink:href="#DejaVuSans-34"/>
       <use xlink:href="#DejaVuSans-30" transform="translate(63.623047 0)"/>
       <use xlink:href="#DejaVuSans-30" transform="translate(127.246094 0)"/>
      </g>
     </g>
    </g>
    <g id="xtick_4">
     <g id="line2d_4">
      <g>
       <use xlink:href="#m00e3fad8cd" x="268.820442" y="307.584" style="stroke: #000000; stroke-width: 0.8"/>
      </g>
     </g>
     <g id="text_4">
      <!-- 600 -->
      <g transform="translate(259.276692 322.182437) scale(0.1 -0.1)">
       <defs>
        <path id="DejaVuSans-36" d="M 2113 2584 
Q 1688 2584 1439 2293 
Q 1191 2003 1191 1497 
Q 1191 994 1439 701 
Q 1688 409 2113 409 
Q 2538 409 2786 701 
Q 3034 994 3034 1497 
Q 3034 2003 2786 2293 
Q 2538 2584 2113 2584 
z
M 3366 4563 
L 3366 3988 
Q 3128 4100 2886 4159 
Q 2644 4219 2406 4219 
Q 1781 4219 1451 3797 
Q 1122 3375 1075 2522 
Q 1259 2794 1537 2939 
Q 1816 3084 2150 3084 
Q 2853 3084 3261 2657 
Q 3669 2231 3669 1497 
Q 3669 778 3244 343 
Q 2819 -91 2113 -91 
Q 1303 -91 875 529 
Q 447 1150 447 2328 
Q 447 3434 972 4092 
Q 1497 4750 2381 4750 
Q 2619 4750 2861 4703 
Q 3103 4656 3366 4563 
z
" transform="scale(0.015625)"/>
       </defs>
       <use xlink:href="#DejaVuSans-36"/>
       <use xlink:href="#DejaVuSans-30" transform="translate(63.623047 0)"/>
       <use xlink:href="#DejaVuSans-30" transform="translate(127.246094 0)"/>
      </g>
     </g>
    </g>
    <g id="xtick_5">
     <g id="line2d_5">
      <g>
       <use xlink:href="#m00e3fad8cd" x="333.816347" y="307.584" style="stroke: #000000; stroke-width: 0.8"/>
      </g>
     </g>
     <g id="text_5">
      <!-- 800 -->
      <g transform="translate(324.272597 322.182437) scale(0.1 -0.1)">
       <defs>
        <path id="DejaVuSans-38" d="M 2034 2216 
Q 1584 2216 1326 1975 
Q 1069 1734 1069 1313 
Q 1069 891 1326 650 
Q 1584 409 2034 409 
Q 2484 409 2743 651 
Q 3003 894 3003 1313 
Q 3003 1734 2745 1975 
Q 2488 2216 2034 2216 
z
M 1403 2484 
Q 997 2584 770 2862 
Q 544 3141 544 3541 
Q 544 4100 942 4425 
Q 1341 4750 2034 4750 
Q 2731 4750 3128 4425 
Q 3525 4100 3525 3541 
Q 3525 3141 3298 2862 
Q 3072 2584 2669 2484 
Q 3125 2378 3379 2068 
Q 3634 1759 3634 1313 
Q 3634 634 3220 271 
Q 2806 -91 2034 -91 
Q 1263 -91 848 271 
Q 434 634 434 1313 
Q 434 1759 690 2068 
Q 947 2378 1403 2484 
z
M 1172 3481 
Q 1172 3119 1398 2916 
Q 1625 2713 2034 2713 
Q 2441 2713 2670 2916 
Q 2900 3119 2900 3481 
Q 2900 3844 2670 4047 
Q 2441 4250 2034 4250 
Q 1625 4250 1398 4047 
Q 1172 3844 1172 3481 
z
" transform="scale(0.015625)"/>
       </defs>
       <use xlink:href="#DejaVuSans-38"/>
       <use xlink:href="#DejaVuSans-30" transform="translate(63.623047 0)"/>
       <use xlink:href="#DejaVuSans-30" transform="translate(127.246094 0)"/>
      </g>
     </g>
    </g>
    <g id="xtick_6">
     <g id="line2d_6">
      <g>
       <use xlink:href="#m00e3fad8cd" x="398.812252" y="307.584" style="stroke: #000000; stroke-width: 0.8"/>
      </g>
     </g>
     <g id="text_6">
      <!-- 1000 -->
      <g transform="translate(386.087252 322.182437) scale(0.1 -0.1)">
       <defs>
        <path id="DejaVuSans-31" d="M 794 531 
L 1825 531 
L 1825 4091 
L 703 3866 
L 703 4441 
L 1819 4666 
L 2450 4666 
L 2450 531 
L 3481 531 
L 3481 0 
L 794 0 
L 794 531 
z
" transform="scale(0.015625)"/>
       </defs>
       <use xlink:href="#DejaVuSans-31"/>
       <use xlink:href="#DejaVuSans-30" transform="translate(63.623047 0)"/>
       <use xlink:href="#DejaVuSans-30" transform="translate(127.246094 0)"/>
       <use xlink:href="#DejaVuSans-30" transform="translate(190.869141 0)"/>
      </g>
     </g>
    </g>
   </g>
   <g id="matplotlib.axis_2">
    <g id="ytick_1">
     <g id="line2d_7">
      <defs>
       <path id="m54ec531b17" d="M 0 0 
L -3.5 0 
" style="stroke: #000000; stroke-width: 0.8"/>
      </defs>
      <g>
       <use xlink:href="#m54ec531b17" x="57.6" y="291.02904" style="stroke: #000000; stroke-width: 0.8"/>
      </g>
     </g>
     <g id="text_7">
      <!-- −25000 -->
      <g transform="translate(10.407812 294.828259) scale(0.1 -0.1)">
       <defs>
        <path id="DejaVuSans-2212" d="M 678 2272 
L 4684 2272 
L 4684 1741 
L 678 1741 
L 678 2272 
z
" transform="scale(0.015625)"/>
        <path id="DejaVuSans-35" d="M 691 4666 
L 3169 4666 
L 3169 4134 
L 1269 4134 
L 1269 2991 
Q 1406 3038 1543 3061 
Q 1681 3084 1819 3084 
Q 2600 3084 3056 2656 
Q 3513 2228 3513 1497 
Q 3513 744 3044 326 
Q 2575 -91 1722 -91 
Q 1428 -91 1123 -41 
Q 819 9 494 109 
L 494 744 
Q 775 591 1075 516 
Q 1375 441 1709 441 
Q 2250 441 2565 725 
Q 2881 1009 2881 1497 
Q 2881 1984 2565 2268 
Q 2250 2553 1709 2553 
Q 1456 2553 1204 2497 
Q 953 2441 691 2322 
L 691 4666 
z
" transform="scale(0.015625)"/>
       </defs>
       <use xlink:href="#DejaVuSans-2212"/>
       <use xlink:href="#DejaVuSans-32" transform="translate(83.789062 0)"/>
       <use xlink:href="#DejaVuSans-35" transform="translate(147.412109 0)"/>
       <use xlink:href="#DejaVuSans-30" transform="translate(211.035156 0)"/>
       <use xlink:href="#DejaVuSans-30" transform="translate(274.658203 0)"/>
       <use xlink:href="#DejaVuSans-30" transform="translate(338.28125 0)"/>
      </g>
     </g>
    </g>
    <g id="ytick_2">
     <g id="line2d_8">
      <g>
       <use xlink:href="#m54ec531b17" x="57.6" y="260.073842" style="stroke: #000000; stroke-width: 0.8"/>
      </g>
     </g>
     <g id="text_8">
      <!-- 0 -->
      <g transform="translate(44.2375 263.873061) scale(0.1 -0.1)">
       <use xlink:href="#DejaVuSans-30"/>
      </g>
     </g>
    </g>
    <g id="ytick_3">
     <g id="line2d_9">
      <g>
       <use xlink:href="#m54ec531b17" x="57.6" y="229.118645" style="stroke: #000000; stroke-width: 0.8"/>
      </g>
     </g>
     <g id="text_9">
      <!-- 25000 -->
      <g transform="translate(18.7875 232.917863) scale(0.1 -0.1)">
       <use xlink:href="#DejaVuSans-32"/>
       <use xlink:href="#DejaVuSans-35" transform="translate(63.623047 0)"/>
       <use xlink:href="#DejaVuSans-30" transform="translate(127.246094 0)"/>
       <use xlink:href="#DejaVuSans-30" transform="translate(190.869141 0)"/>
       <use xlink:href="#DejaVuSans-30" transform="translate(254.492188 0)"/>
      </g>
     </g>
    </g>
    <g id="ytick_4">
     <g id="line2d_10">
      <g>
       <use xlink:href="#m54ec531b17" x="57.6" y="198.163447" style="stroke: #000000; stroke-width: 0.8"/>
      </g>
     </g>
     <g id="text_10">
      <!-- 50000 -->
      <g transform="translate(18.7875 201.962665) scale(0.1 -0.1)">
       <use xlink:href="#DejaVuSans-35"/>
       <use xlink:href="#DejaVuSans-30" transform="translate(63.623047 0)"/>
       <use xlink:href="#DejaVuSans-30" transform="translate(127.246094 0)"/>
       <use xlink:href="#DejaVuSans-30" transform="translate(190.869141 0)"/>
       <use xlink:href="#DejaVuSans-30" transform="translate(254.492188 0)"/>
      </g>
     </g>
    </g>
    <g id="ytick_5">
     <g id="line2d_11">
      <g>
       <use xlink:href="#m54ec531b17" x="57.6" y="167.208249" style="stroke: #000000; stroke-width: 0.8"/>
      </g>
     </g>
     <g id="text_11">
      <!-- 75000 -->
      <g transform="translate(18.7875 171.007468) scale(0.1 -0.1)">
       <defs>
        <path id="DejaVuSans-37" d="M 525 4666 
L 3525 4666 
L 3525 4397 
L 1831 0 
L 1172 0 
L 2766 4134 
L 525 4134 
L 525 4666 
z
" transform="scale(0.015625)"/>
       </defs>
       <use xlink:href="#DejaVuSans-37"/>
       <use xlink:href="#DejaVuSans-35" transform="translate(63.623047 0)"/>
       <use xlink:href="#DejaVuSans-30" transform="translate(127.246094 0)"/>
       <use xlink:href="#DejaVuSans-30" transform="translate(190.869141 0)"/>
       <use xlink:href="#DejaVuSans-30" transform="translate(254.492188 0)"/>
      </g>
     </g>
    </g>
    <g id="ytick_6">
     <g id="line2d_12">
      <g>
       <use xlink:href="#m54ec531b17" x="57.6" y="136.253051" style="stroke: #000000; stroke-width: 0.8"/>
      </g>
     </g>
     <g id="text_12">
      <!-- 100000 -->
      <g transform="translate(12.425 140.05227) scale(0.1 -0.1)">
       <use xlink:href="#DejaVuSans-31"/>
       <use xlink:href="#DejaVuSans-30" transform="translate(63.623047 0)"/>
       <use xlink:href="#DejaVuSans-30" transform="translate(127.246094 0)"/>
       <use xlink:href="#DejaVuSans-30" transform="translate(190.869141 0)"/>
       <use xlink:href="#DejaVuSans-30" transform="translate(254.492188 0)"/>
       <use xlink:href="#DejaVuSans-30" transform="translate(318.115234 0)"/>
      </g>
     </g>
    </g>
    <g id="ytick_7">
     <g id="line2d_13">
      <g>
       <use xlink:href="#m54ec531b17" x="57.6" y="105.297853" style="stroke: #000000; stroke-width: 0.8"/>
      </g>
     </g>
     <g id="text_13">
      <!-- 125000 -->
      <g transform="translate(12.425 109.097072) scale(0.1 -0.1)">
       <use xlink:href="#DejaVuSans-31"/>
       <use xlink:href="#DejaVuSans-32" transform="translate(63.623047 0)"/>
       <use xlink:href="#DejaVuSans-35" transform="translate(127.246094 0)"/>
       <use xlink:href="#DejaVuSans-30" transform="translate(190.869141 0)"/>
       <use xlink:href="#DejaVuSans-30" transform="translate(254.492188 0)"/>
       <use xlink:href="#DejaVuSans-30" transform="translate(318.115234 0)"/>
      </g>
     </g>
    </g>
    <g id="ytick_8">
     <g id="line2d_14">
      <g>
       <use xlink:href="#m54ec531b17" x="57.6" y="74.342655" style="stroke: #000000; stroke-width: 0.8"/>
      </g>
     </g>
     <g id="text_14">
      <!-- 150000 -->
      <g transform="translate(12.425 78.141874) scale(0.1 -0.1)">
       <use xlink:href="#DejaVuSans-31"/>
       <use xlink:href="#DejaVuSans-35" transform="translate(63.623047 0)"/>
       <use xlink:href="#DejaVuSans-30" transform="translate(127.246094 0)"/>
       <use xlink:href="#DejaVuSans-30" transform="translate(190.869141 0)"/>
       <use xlink:href="#DejaVuSans-30" transform="translate(254.492188 0)"/>
       <use xlink:href="#DejaVuSans-30" transform="translate(318.115234 0)"/>
      </g>
     </g>
    </g>
    <g id="ytick_9">
     <g id="line2d_15">
      <g>
       <use xlink:href="#m54ec531b17" x="57.6" y="43.387458" style="stroke: #000000; stroke-width: 0.8"/>
      </g>
     </g>
     <g id="text_15">
      <!-- 175000 -->
      <g transform="translate(12.425 47.186676) scale(0.1 -0.1)">
       <use xlink:href="#DejaVuSans-31"/>
       <use xlink:href="#DejaVuSans-37" transform="translate(63.623047 0)"/>
       <use xlink:href="#DejaVuSans-35" transform="translate(127.246094 0)"/>
       <use xlink:href="#DejaVuSans-30" transform="translate(190.869141 0)"/>
       <use xlink:href="#DejaVuSans-30" transform="translate(254.492188 0)"/>
       <use xlink:href="#DejaVuSans-30" transform="translate(318.115234 0)"/>
      </g>
     </g>
    </g>
   </g>
   <g id="line2d_16">
    <path d="M 73.832727 239.310389 
L 75.132645 282.003703 
L 75.782604 293.883124 
L 76.107584 295.488 
L 76.432563 294.373834 
L 76.757543 290.026755 
L 77.082523 282.980915 
L 77.732482 262.326086 
L 79.357379 201.907022 
L 79.682359 194.231805 
L 80.007338 189.553805 
L 80.332318 187.833752 
L 80.657297 189.46602 
L 80.982277 193.932457 
L 81.632236 211.337601 
L 83.907093 289.784193 
L 84.232072 293.90032 
L 84.557052 294.874248 
L 84.882031 292.898586 
L 85.207011 287.578175 
L 85.53199 280.186207 
L 86.506929 246.884239 
L 87.481867 213.041907 
L 88.131826 199.144692 
L 88.456806 195.862146 
L 88.781785 195.724415 
L 89.106765 197.928121 
L 89.756724 209.520686 
L 90.731663 237.055748 
L 91.381622 255.232809 
L 92.031581 267.606935 
L 92.35656 270.892648 
L 92.68154 272.23637 
L 93.006519 270.724251 
L 93.331499 267.426405 
L 93.981458 256.508478 
L 95.606355 224.018537 
L 95.931335 220.53579 
L 96.256314 218.805213 
L 96.581294 218.508369 
L 96.906274 219.975165 
L 97.231253 222.695584 
L 97.881212 231.551421 
L 98.856151 245.216433 
L 99.18113 248.34825 
L 99.50611 250.150274 
L 99.831089 250.835491 
L 100.156069 249.798379 
L 100.481048 246.979234 
L 101.131007 238.508429 
L 102.430925 218.504088 
L 102.755905 215.679125 
L 103.080885 214.294835 
L 103.405864 214.526418 
L 103.730844 216.714373 
L 104.055823 220.344328 
L 104.705782 232.344867 
L 106.33068 266.641214 
L 106.655659 269.486335 
L 106.980639 270.781336 
L 107.305618 269.031697 
L 107.630598 265.195269 
L 108.280557 250.700431 
L 109.255495 218.642728 
L 110.230434 189.931127 
L 110.555414 184.268845 
L 110.880393 181.21794 
L 111.205373 181.430729 
L 111.530352 184.897413 
L 111.855332 191.249809 
L 112.505291 211.699383 
L 114.455168 285.093175 
L 114.780147 290.725619 
L 115.105127 292.942682 
L 115.430106 291.74092 
L 115.755086 286.39109 
L 116.080066 278.253745 
L 116.730025 252.96812 
L 118.354922 179.935933 
L 119.004881 164.815353 
L 119.329861 162.880802 
L 119.65484 164.407406 
L 119.97982 170.058024 
L 120.629779 191.085158 
L 122.579656 276.830413 
L 122.904636 285.343469 
L 123.229615 290.147988 
L 123.554595 291.355497 
L 123.879574 288.670091 
L 124.204554 282.282543 
L 124.854513 261.228505 
L 126.80439 182.737274 
L 127.129369 175.782119 
L 127.454349 171.943542 
L 127.779328 171.648417 
L 128.104308 174.363475 
L 128.429287 180.24238 
L 129.079247 198.941587 
L 130.704144 252.153888 
L 131.029124 258.495606 
L 131.354103 262.479221 
L 131.679083 263.512794 
L 132.004062 262.072139 
L 132.329042 258.049717 
L 132.979001 244.737163 
L 134.278919 211.50731 
L 134.603898 205.284929 
L 134.928878 201.350803 
L 135.253857 198.965523 
L 135.578837 198.661861 
L 135.903817 200.484994 
L 136.228796 203.684304 
L 137.203735 220.090048 
L 137.853694 230.858243 
L 138.178673 234.445549 
L 138.503653 236.703774 
L 138.828632 237.004648 
L 139.153612 235.799116 
L 139.478591 232.754006 
L 139.803571 228.430291 
L 141.428468 199.1088 
L 141.753448 195.791082 
L 142.078428 194.024894 
L 142.403407 194.2888 
L 142.728387 197.033522 
L 143.053366 201.457102 
L 143.703325 216.017886 
L 145.003243 250.520472 
L 145.328223 256.507683 
L 145.653202 260.433808 
L 145.978182 261.354152 
L 146.303161 259.616572 
L 146.628141 254.95055 
L 147.2781 237.394227 
L 148.253038 199.196316 
L 148.902998 174.733883 
L 149.552957 158.559483 
L 149.877936 155.243057 
L 150.202916 155.236371 
L 150.527895 159.200004 
L 150.852875 166.804499 
L 151.502834 191.425479 
L 153.452711 278.552716 
L 153.77769 285.510768 
L 154.10267 288.087397 
L 154.427649 286.524933 
L 154.752629 280.447509 
L 155.077609 270.48478 
L 155.727568 240.302908 
L 157.352465 153.436717 
L 157.677445 142.308742 
L 158.002424 135.446239 
L 158.327404 133.014646 
L 158.652383 135.062292 
L 158.977363 141.874307 
L 159.302342 152.321307 
L 159.952301 183.752567 
L 161.577199 268.638993 
L 161.902179 278.420352 
L 162.227158 284.643441 
L 162.552138 285.583879 
L 162.877117 282.846998 
L 163.202097 275.772543 
L 163.852056 250.656588 
L 165.801933 156.950964 
L 166.126912 148.547041 
L 166.451892 144.445494 
L 166.776871 143.587894 
L 167.101851 146.927793 
L 167.42683 153.803594 
L 168.07679 175.944121 
L 169.701687 239.223445 
L 170.026667 246.771428 
L 170.351646 250.84919 
L 170.676626 252.431957 
L 171.001605 250.453827 
L 171.326585 246.236183 
L 171.976544 230.305207 
L 173.601441 184.029418 
L 174.2514 175.541933 
L 174.57638 175.279927 
L 174.90136 177.359298 
L 175.226339 181.07757 
L 176.201278 199.875803 
L 176.851237 212.6286 
L 177.176216 217.327378 
L 177.501196 220.251626 
L 177.826175 220.884353 
L 178.151155 219.764031 
L 178.476134 216.166364 
L 179.126093 204.217813 
L 180.426011 176.055744 
L 180.750991 171.967315 
L 181.075971 169.59538 
L 181.40095 169.943407 
L 181.72593 172.719355 
L 182.050909 178.10725 
L 182.700868 194.930599 
L 184.000786 235.030027 
L 184.650745 246.660779 
L 184.975725 247.766872 
L 185.300704 245.797043 
L 185.625684 240.473797 
L 186.275643 220.021465 
L 187.250581 176.034903 
L 187.900541 147.277391 
L 188.5505 127.95664 
L 188.875479 123.955406 
L 189.200459 124.000331 
L 189.525438 128.401224 
L 189.850418 137.456716 
L 190.500377 165.893997 
L 192.450254 267.671443 
L 192.775233 275.283466 
L 193.100213 278.550319 
L 193.425192 276.11123 
L 193.750172 268.958925 
L 194.075152 257.537566 
L 194.725111 222.34435 
L 196.350008 121.399676 
L 196.674988 108.574371 
L 196.999967 100.519004 
L 197.324947 97.317688 
L 197.649926 99.910877 
L 197.974906 107.803462 
L 198.299885 120.112466 
L 198.949844 156.039988 
L 200.249762 239.303269 
L 200.899722 266.470697 
L 201.224701 272.969168 
L 201.549681 274.556712 
L 201.87466 271.078915 
L 202.19964 262.154558 
L 202.849599 233.316902 
L 204.799476 125.07512 
L 205.124455 115.470112 
L 205.449435 110.427218 
L 205.774414 109.648212 
L 206.099394 113.373782 
L 206.749353 132.930136 
L 208.69923 220.369049 
L 209.02421 228.872291 
L 209.349189 234.366378 
L 209.674169 235.394059 
L 209.999148 233.670623 
L 210.324128 227.966418 
L 210.974087 209.809419 
L 212.274005 164.423442 
L 212.923964 149.894301 
L 213.248943 146.63547 
L 213.573923 146.296363 
L 213.898903 148.299062 
L 214.548862 159.692648 
L 216.173759 194.989126 
L 216.498739 198.382157 
L 216.823718 199.108323 
L 217.148698 197.686403 
L 217.473677 193.739165 
L 218.123636 180.260639 
L 219.423554 148.418947 
L 219.748534 143.110051 
L 220.073514 140.771298 
L 220.398493 140.97119 
L 220.723473 144.252101 
L 221.048452 150.295346 
L 221.698411 169.09834 
L 223.323309 223.135414 
L 223.648288 228.202498 
L 223.973268 229.527576 
L 224.298247 227.532459 
L 224.623227 221.147036 
L 224.948206 211.574859 
L 225.598165 182.672934 
L 227.223063 102.078466 
L 227.548043 93.251287 
L 227.873022 88.556172 
L 228.198002 89.072424 
L 228.522981 94.34428 
L 228.847961 104.14807 
L 229.49792 136.321033 
L 231.122817 236.848885 
L 231.447797 250.939712 
L 231.772776 259.832284 
L 232.097756 263.520734 
L 232.422735 261.010144 
L 232.747715 252.806215 
L 233.397674 221.921452 
L 234.372613 151.475677 
L 235.347551 85.708409 
L 235.672531 70.614953 
L 236.32249 53.568 
L 236.972449 70.614953 
L 237.622408 104.997884 
L 239.897265 252.806215 
L 240.222244 261.010144 
L 240.547224 263.520734 
L 240.872203 259.832284 
L 241.197183 250.939712 
L 241.847142 219.591339 
L 243.797019 104.14807 
L 244.121998 94.34428 
L 244.446978 89.072424 
L 244.771957 88.556172 
L 245.096937 93.251287 
L 245.421916 102.078466 
L 246.071876 130.484072 
L 247.696773 211.574859 
L 248.346732 227.532459 
L 248.671712 229.527576 
L 248.996691 228.202498 
L 249.321671 223.135414 
L 249.97163 204.571385 
L 251.271548 158.533433 
L 251.921507 144.252101 
L 252.246486 140.97119 
L 252.571466 140.771298 
L 252.896446 143.110051 
L 253.546405 155.199219 
L 255.171302 193.739165 
L 255.496282 197.686403 
L 255.821261 199.108323 
L 256.146241 198.382157 
L 256.47122 194.989126 
L 257.121179 183.178629 
L 258.421097 153.262043 
L 258.746077 148.299062 
L 259.071057 146.296363 
L 259.396036 146.63547 
L 259.721016 149.894301 
L 260.370975 164.423442 
L 261.345913 198.06899 
L 261.995872 219.983499 
L 262.645831 233.670623 
L 262.970811 235.394059 
L 263.29579 234.366378 
L 263.62077 228.872291 
L 263.945749 220.369049 
L 264.595708 194.301489 
L 265.895627 132.930136 
L 266.545586 113.373782 
L 266.870565 109.648212 
L 267.195545 110.427218 
L 267.520524 115.470112 
L 267.845504 125.07512 
L 268.495463 155.586479 
L 270.12036 249.675107 
L 270.770319 271.078915 
L 271.095299 274.556712 
L 271.420278 272.969168 
L 271.745258 266.470697 
L 272.395217 239.303269 
L 273.370156 177.423342 
L 274.345094 120.112466 
L 274.670074 107.803462 
L 274.995053 99.910877 
L 275.320033 97.317688 
L 275.645012 100.519004 
L 275.969992 108.574371 
L 276.619951 137.783549 
L 278.569828 257.537566 
L 278.894808 268.958925 
L 279.219787 276.11123 
L 279.544767 278.550319 
L 279.869746 275.283466 
L 280.194726 267.671443 
L 280.844685 239.932574 
L 282.794562 137.456716 
L 283.119541 128.401224 
L 283.444521 124.000331 
L 283.7695 123.955406 
L 284.09448 127.95664 
L 284.419459 135.989614 
L 285.069419 160.679675 
L 286.369337 220.021465 
L 287.019296 240.473797 
L 287.344275 245.797043 
L 287.669255 247.766872 
L 287.994234 246.660779 
L 288.319214 241.96042 
L 288.969173 225.906452 
L 290.59407 178.10725 
L 290.91905 172.719355 
L 291.244029 169.943407 
L 291.569009 169.59538 
L 291.893989 171.967315 
L 292.218968 176.055744 
L 292.868927 189.143928 
L 293.843866 210.770813 
L 294.493825 219.764031 
L 294.818804 220.884353 
L 295.143784 220.251626 
L 295.468763 217.327378 
L 296.118722 206.71744 
L 297.41864 181.07757 
L 297.74362 177.359298 
L 298.0686 175.279927 
L 298.393579 175.541933 
L 298.718559 179.082134 
L 299.043538 184.029418 
L 299.693497 200.002427 
L 301.318395 246.236183 
L 301.643374 250.453827 
L 301.968354 252.431957 
L 302.293333 250.84919 
L 302.618313 246.771428 
L 302.943292 239.223445 
L 303.593251 216.828247 
L 305.218149 153.803594 
L 305.543129 146.927793 
L 305.868108 143.587894 
L 306.193088 144.445494 
L 306.518067 148.547041 
L 306.843047 156.950964 
L 307.493006 183.118661 
L 309.442883 275.772543 
L 309.767862 282.846998 
L 310.092842 285.583879 
L 310.417821 284.643441 
L 310.742801 278.420352 
L 311.067781 268.638993 
L 311.71774 238.586144 
L 313.342637 152.321307 
L 313.667617 141.874307 
L 313.992596 135.062292 
L 314.317576 133.014646 
L 314.642555 135.446239 
L 314.967535 142.308742 
L 315.617494 167.978148 
L 317.892351 280.447509 
L 318.21733 286.524933 
L 318.54231 288.087397 
L 318.867289 285.510768 
L 319.192269 278.552716 
L 319.842228 254.789579 
L 321.792105 166.804499 
L 322.117084 159.200004 
L 322.442064 155.236371 
L 322.767043 155.243057 
L 323.092023 158.559483 
L 323.417002 165.298428 
L 324.066962 186.441287 
L 325.691859 247.177658 
L 326.016839 254.95055 
L 326.341818 259.616572 
L 326.666798 261.354152 
L 326.991777 260.433808 
L 327.316757 256.507683 
L 327.966716 242.603036 
L 329.591613 201.457102 
L 329.916593 197.033522 
L 330.241572 194.2888 
L 330.566552 194.024894 
L 330.891532 195.791082 
L 331.216511 199.1088 
L 331.86647 210.052901 
L 332.841409 228.430291 
L 333.491368 235.799116 
L 333.816347 237.004648 
L 334.141327 236.703774 
L 334.466306 234.445549 
L 334.791286 230.858243 
L 335.441245 220.090048 
L 336.416183 203.684304 
L 336.741163 200.484994 
L 337.066143 198.661861 
L 337.391122 198.965523 
L 337.716102 201.350803 
L 338.041081 205.284929 
L 338.69104 218.928967 
L 339.990958 252.188855 
L 340.640917 262.072139 
L 340.965897 263.512794 
L 341.290876 262.479221 
L 341.615856 258.495606 
L 341.940835 252.153888 
L 342.590794 233.210059 
L 343.890713 188.55221 
L 344.540672 174.363475 
L 344.865651 171.648417 
L 345.190631 171.943542 
L 345.51561 175.782119 
L 345.84059 182.737274 
L 346.490549 204.994371 
L 348.440426 282.282543 
L 348.765405 288.670091 
L 349.090385 291.355497 
L 349.415364 290.147988 
L 349.740344 285.343469 
L 350.065324 276.830413 
L 350.715283 251.735021 
L 352.34018 179.099294 
L 352.66516 170.058024 
L 352.990139 164.407406 
L 353.315119 162.880802 
L 353.640098 164.815353 
L 353.965078 170.859693 
L 354.290057 179.935933 
L 354.940016 206.569161 
L 356.239934 266.535656 
L 356.889894 286.39109 
L 357.214873 291.74092 
L 357.539853 292.942682 
L 357.864832 290.725619 
L 358.189812 285.093175 
L 358.839771 265.047688 
L 360.789648 191.249809 
L 361.114627 184.897413 
L 361.439607 181.430729 
L 361.764586 181.21794 
L 362.089566 184.268845 
L 362.414545 189.931127 
L 363.064505 207.998611 
L 364.689402 258.924948 
L 365.014382 265.195269 
L 365.339361 269.031697 
L 365.664341 270.781336 
L 365.98932 269.486335 
L 366.3143 266.641214 
L 366.964259 254.566796 
L 368.589156 220.344328 
L 368.914136 216.714373 
L 369.239115 214.526418 
L 369.564095 214.294835 
L 369.889075 215.679125 
L 370.214054 218.504088 
L 370.864013 227.795783 
L 371.838952 243.134561 
L 372.488911 249.798379 
L 372.81389 250.835491 
L 373.13887 250.150274 
L 373.463849 248.34825 
L 374.113808 241.341616 
L 375.413726 222.695584 
L 375.738706 219.975165 
L 376.063686 218.508369 
L 376.388665 218.805213 
L 376.713645 220.53579 
L 377.038624 224.018537 
L 377.688583 235.747213 
L 378.988501 262.635709 
L 379.63846 270.724251 
L 379.96344 272.23637 
L 380.288419 270.892648 
L 380.613399 267.606935 
L 381.263358 255.232809 
L 382.238296 227.53383 
L 382.888256 209.520686 
L 383.538215 197.928121 
L 383.863194 195.724415 
L 384.188174 195.862146 
L 384.513153 199.144692 
L 384.838133 205.060087 
L 385.488092 223.339201 
L 387.437969 287.578175 
L 387.762948 292.898586 
L 388.087928 294.874248 
L 388.412907 293.90032 
L 388.737887 289.784193 
L 389.062867 282.791019 
L 389.712826 261.95267 
L 391.012744 211.337601 
L 391.662703 193.932457 
L 391.987682 189.46602 
L 392.312662 187.833752 
L 392.637641 189.553805 
L 392.962621 194.231805 
L 393.61258 211.862456 
L 395.562457 282.980915 
L 395.887437 290.026755 
L 396.212416 294.373834 
L 396.537396 295.488 
L 396.862375 293.883124 
L 397.187355 288.940351 
L 397.837314 272.759304 
L 398.487273 250.884588 
L 398.487273 250.884588 
" clip-path="url(#p4b3c538f9b)" style="fill: none; stroke: #1f77b4; stroke-width: 1.5; stroke-linecap: square"/>
   </g>
   <g id="patch_3">
    <path d="M 57.6 307.584 
L 57.6 41.472 
" style="fill: none; stroke: #000000; stroke-width: 0.8; stroke-linejoin: miter; stroke-linecap: square"/>
   </g>
   <g id="patch_4">
    <path d="M 414.72 307.584 
L 414.72 41.472 
" style="fill: none; stroke: #000000; stroke-width: 0.8; stroke-linejoin: miter; stroke-linecap: square"/>
   </g>
   <g id="patch_5">
    <path d="M 57.6 307.584 
L 414.72 307.584 
" style="fill: none; stroke: #000000; stroke-width: 0.8; stroke-linejoin: miter; stroke-linecap: square"/>
   </g>
   <g id="patch_6">
    <path d="M 57.6 41.472 
L 414.72 41.472 
" style="fill: none; stroke: #000000; stroke-width: 0.8; stroke-linejoin: miter; stroke-linecap: square"/>
   </g>
  </g>
 </g>
 <defs>
  <clipPath id="p4b3c538f9b">
   <rect x="57.6" y="41.472" width="357.12" height="266.112"/>
  </clipPath>
 </defs>
</svg>
