<?xml version="1.0" encoding="utf-8" standalone="no"?>
<!DOCTYPE svg PUBLIC "-//W3C//DTD SVG 1.1//EN"
  "http://www.w3.org/Graphics/SVG/1.1/DTD/svg11.dtd">
<svg xmlns:xlink="http://www.w3.org/1999/xlink" width="460.8pt" height="345.6pt" viewBox="0 0 460.8 345.6" xmlns="http://www.w3.org/2000/svg" version="1.1">
 <metadata>
  <rdf:RDF xmlns:dc="http://purl.org/dc/elements/1.1/" xmlns:cc="http://creativecommons.org/ns#" xmlns:rdf="http://www.w3.org/1999/02/22-rdf-syntax-ns#">
   <cc:Work>
    <dc:type rdf:resource="http://purl.org/dc/dcmitype/StillImage"/>
    <dc:date>2025-12-02T17:24:37.336538</dc:date>
    <dc:format>image/svg+xml</dc:format>
    <dc:creator>
     <cc:Agent>
      <dc:title>Matplotlib v3.10.3, https://matplotlib.org/</dc:title>
     </cc:Agent>
    </dc:creator>
   </cc:Work>
  </rdf:RDF>
 </metadata>
 <defs>
  <style type="text/css">*{stroke-linejoin: round; stroke-linecap: butt}</style>
 </defs>
 <g id="figure_1">
  <g id="patch_1">
   <path d="M 0 345.6 
L 460.8 345.6 
L 460.8 0 
L 0 0 
z
" style="fill: #ffffff"/>
  </g>
  <g id="axes_1">
   <g id="patch_2">
    <path d="M 57.6 119.740235 
L 414.72 119.740235 
L 414.72 41.472 
L 57.6 41.472 
z
" style="fill: #ffffff"/>
   </g>
   <g id="matplotlib.axis_1">
    <g id="xtick_1">
     <g id="line2d_1">
      <defs>
       <path id="m3157d0d7d1" d="M 0 0 
L 0 3.5 
" style="stroke: #000000; stroke-width: 0.8"/>
      </defs>
      <g>
       <use xlink:href="#m3157d0d7d1" x="73.832727" y="119.740235" style="stroke: #000000; stroke-width: 0.8"/>
      </g>
     </g>
     <g id="text_1">
      <!-- 0 -->
      <g transform="translate(70.651477 134.338673) scale(0.1 -0.1)">
       <defs>
        <path id="DejaVuSans-30" d="M 2034 4250 
Q 1547 4250 1301 3770 
Q 1056 3291 1056 2328 
Q 1056 1369 1301 889 
Q 1547 409 2034 409 
Q 2525 409 2770 889 
Q 3016 1369 3016 2328 
Q 3016 3291 2770 3770 
Q 2525 4250 2034 4250 
z
M 2034 4750 
Q 2819 4750 3233 4129 
Q 3647 3509 3647 2328 
Q 3647 1150 3233 529 
Q 2819 -91 2034 -91 
Q 1250 -91 836 529 
Q 422 1150 422 2328 
Q 422 3509 836 4129 
Q 1250 4750 2034 4750 
z
" transform="scale(0.015625)"/>
       </defs>
       <use xlink:href="#DejaVuSans-30"/>
      </g>
     </g>
    </g>
    <g id="xtick_2">
     <g id="line2d_2">
      <g>
       <use xlink:href="#m3157d0d7d1" x="138.763636" y="119.740235" style="stroke: #000000; stroke-width: 0.8"/>
      </g>
     </g>
     <g id="text_2">
      <!-- 20 -->
      <g transform="translate(132.401136 134.338673) scale(0.1 -0.1)">
       <defs>
        <path id="DejaVuSans-32" d="M 1228 531 
L 3431 531 
L 3431 0 
L 469 0 
L 469 531 
Q 828 903 1448 1529 
Q 2069 2156 2228 2338 
Q 2531 2678 2651 2914 
Q 2772 3150 2772 3378 
Q 2772 3750 2511 3984 
Q 2250 4219 1831 4219 
Q 1534 4219 1204 4116 
Q 875 4013 500 3803 
L 500 4441 
Q 881 4594 1212 4672 
Q 1544 4750 1819 4750 
Q 2544 4750 2975 4387 
Q 3406 4025 3406 3419 
Q 3406 3131 3298 2873 
Q 3191 2616 2906 2266 
Q 2828 2175 2409 1742 
Q 1991 1309 1228 531 
z
" transform="scale(0.015625)"/>
       </defs>
       <use xlink:href="#DejaVuSans-32"/>
       <use xlink:href="#DejaVuSans-30" transform="translate(63.623047 0)"/>
      </g>
     </g>
    </g>
    <g id="xtick_3">
     <g id="line2d_3">
      <g>
       <use xlink:href="#m3157d0d7d1" x="203.694545" y="119.740235" style="stroke: #000000; stroke-width: 0.8"/>
      </g>
     </g>
     <g id="text_3">
      <!-- 40 -->
      <g transform="translate(197.332045 134.338673) scale(0.1 -0.1)">
       <defs>
        <path id="DejaVuSans-34" d="M 2419 4116 
L 825 1625 
L 2419 1625 
L 2419 4116 
z
M 2253 4666 
L 3047 4666 
L 3047 1625 
L 3713 1625 
L 3713 1100 
L 3047 1100 
L 3047 0 
L 2419 0 
L 2419 1100 
L 313 1100 
L 313 1709 
L 2253 4666 
z
" transform="scale(0.015625)"/>
       </defs>
       <use xlink:href="#DejaVuSans-34"/>
       <use xlink:href="#DejaVuSans-30" transform="translate(63.623047 0)"/>
      </g>
     </g>
    </g>
    <g id="xtick_4">
     <g id="line2d_4">
      <g>
       <use xlink:href="#m3157d0d7d1" x="268.625455" y="119.740235" style="stroke: #000000; stroke-width: 0.8"/>
      </g>
     </g>
     <g id="text_4">
      <!-- 60 -->
      <g transform="translate(262.262955 134.338673) scale(0.1 -0.1)">
       <defs>
        <path id="DejaVuSans-36" d="M 2113 2584 
Q 1688 2584 1439 2293 
Q 1191 2003 1191 1497 
Q 1191 994 1439 701 
Q 1688 409 2113 409 
Q 2538 409 2786 701 
Q 3034 994 3034 1497 
Q 3034 2003 2786 2293 
Q 2538 2584 2113 2584 
z
M 3366 4563 
L 3366 3988 
Q 3128 4100 2886 4159 
Q 2644 4219 2406 4219 
Q 1781 4219 1451 3797 
Q 1122 3375 1075 2522 
Q 1259 2794 1537 2939 
Q 1816 3084 2150 3084 
Q 2853 3084 3261 2657 
Q 3669 2231 3669 1497 
Q 3669 778 3244 343 
Q 2819 -91 2113 -91 
Q 1303 -91 875 529 
Q 447 1150 447 2328 
Q 447 3434 972 4092 
Q 1497 4750 2381 4750 
Q 2619 4750 2861 4703 
Q 3103 4656 3366 4563 
z
" transform="scale(0.015625)"/>
       </defs>
       <use xlink:href="#DejaVuSans-36"/>
       <use xlink:href="#DejaVuSans-30" transform="translate(63.623047 0)"/>
      </g>
     </g>
    </g>
    <g id="xtick_5">
     <g id="line2d_5">
      <g>
       <use xlink:href="#m3157d0d7d1" x="333.556364" y="119.740235" style="stroke: #000000; stroke-width: 0.8"/>
      </g>
     </g>
     <g id="text_5">
      <!-- 80 -->
      <g transform="translate(327.193864 134.338673) scale(0.1 -0.1)">
       <defs>
        <path id="DejaVuSans-38" d="M 2034 2216 
Q 1584 2216 1326 1975 
Q 1069 1734 1069 1313 
Q 1069 891 1326 650 
Q 1584 409 2034 409 
Q 2484 409 2743 651 
Q 3003 894 3003 1313 
Q 3003 1734 2745 1975 
Q 2488 2216 2034 2216 
z
M 1403 2484 
Q 997 2584 770 2862 
Q 544 3141 544 3541 
Q 544 4100 942 4425 
Q 1341 4750 2034 4750 
Q 2731 4750 3128 4425 
Q 3525 4100 3525 3541 
Q 3525 3141 3298 2862 
Q 3072 2584 2669 2484 
Q 3125 2378 3379 2068 
Q 3634 1759 3634 1313 
Q 3634 634 3220 271 
Q 2806 -91 2034 -91 
Q 1263 -91 848 271 
Q 434 634 434 1313 
Q 434 1759 690 2068 
Q 947 2378 1403 2484 
z
M 1172 3481 
Q 1172 3119 1398 2916 
Q 1625 2713 2034 2713 
Q 2441 2713 2670 2916 
Q 2900 3119 2900 3481 
Q 2900 3844 2670 4047 
Q 2441 4250 2034 4250 
Q 1625 4250 1398 4047 
Q 1172 3844 1172 3481 
z
" transform="scale(0.015625)"/>
       </defs>
       <use xlink:href="#DejaVuSans-38"/>
       <use xlink:href="#DejaVuSans-30" transform="translate(63.623047 0)"/>
      </g>
     </g>
    </g>
    <g id="xtick_6">
     <g id="line2d_6">
      <g>
       <use xlink:href="#m3157d0d7d1" x="398.487273" y="119.740235" style="stroke: #000000; stroke-width: 0.8"/>
      </g>
     </g>
     <g id="text_6">
      <!-- 100 -->
      <g transform="translate(388.943523 134.338673) scale(0.1 -0.1)">
       <defs>
        <path id="DejaVuSans-31" d="M 794 531 
L 1825 531 
L 1825 4091 
L 703 3866 
L 703 4441 
L 1819 4666 
L 2450 4666 
L 2450 531 
L 3481 531 
L 3481 0 
L 794 0 
L 794 531 
z
" transform="scale(0.015625)"/>
       </defs>
       <use xlink:href="#DejaVuSans-31"/>
       <use xlink:href="#DejaVuSans-30" transform="translate(63.623047 0)"/>
       <use xlink:href="#DejaVuSans-30" transform="translate(127.246094 0)"/>
      </g>
     </g>
    </g>
   </g>
   <g id="matplotlib.axis_2">
    <g id="ytick_1">
     <g id="line2d_7">
      <defs>
       <path id="mfb62e90e2a" d="M 0 0 
L -3.5 0 
" style="stroke: #000000; stroke-width: 0.8"/>
      </defs>
      <g>
       <use xlink:href="#mfb62e90e2a" x="57.6" y="116.095336" style="stroke: #000000; stroke-width: 0.8"/>
      </g>
     </g>
     <g id="text_7">
      <!-- 0 -->
      <g transform="translate(44.2375 119.894555) scale(0.1 -0.1)">
       <use xlink:href="#DejaVuSans-30"/>
      </g>
     </g>
    </g>
    <g id="ytick_2">
     <g id="line2d_8">
      <g>
       <use xlink:href="#mfb62e90e2a" x="57.6" y="77.168064" style="stroke: #000000; stroke-width: 0.8"/>
      </g>
     </g>
     <g id="text_8">
      <!-- 20 -->
      <g transform="translate(37.875 80.967283) scale(0.1 -0.1)">
       <use xlink:href="#DejaVuSans-32"/>
       <use xlink:href="#DejaVuSans-30" transform="translate(63.623047 0)"/>
      </g>
     </g>
    </g>
   </g>
   <g id="line2d_9">
    <path d="M 73.832727 94.44425 
L 77.079273 94.469305 
L 80.325818 104.089459 
L 83.572364 104.720781 
L 86.818909 102.94636 
L 90.065455 104.546027 
L 93.312 107.228988 
L 96.558545 104.586733 
L 99.805091 101.911489 
L 103.051636 94.830687 
L 106.298182 95.327316 
L 109.544727 88.300017 
L 112.791273 87.23859 
L 116.037818 81.110723 
L 119.284364 81.90472 
L 122.530909 82.242245 
L 125.777455 82.789273 
L 129.024 82.846648 
L 132.270545 82.964493 
L 135.517091 84.556796 
L 138.763636 84.109324 
L 142.010182 88.964875 
L 145.256727 91.142388 
L 148.503273 94.0896 
L 151.749818 94.278066 
L 154.996364 91.312443 
L 158.242909 94.069125 
L 161.489455 89.026509 
L 164.736 89.47519 
L 167.982545 88.412353 
L 171.229091 87.662686 
L 174.475636 85.699706 
L 177.722182 81.51661 
L 180.968727 77.375971 
L 184.215273 76.018311 
L 187.461818 74.436226 
L 190.708364 72.047772 
L 193.954909 74.489386 
L 197.201455 76.58171 
L 200.448 78.946958 
L 203.694545 80.448908 
L 206.941091 86.307737 
L 210.187636 85.998405 
L 213.434182 94.450957 
L 216.680727 97.900323 
L 219.927273 101.941486 
L 223.173818 108.663358 
L 226.420364 105.021332 
L 229.666909 107.761856 
L 232.913455 106.491161 
L 236.16 103.319886 
L 239.406545 96.747491 
L 242.653091 93.722156 
L 245.899636 86.077506 
L 249.146182 79.624605 
L 252.392727 70.131936 
L 255.639273 63.789832 
L 258.885818 63.292183 
L 262.132364 54.223038 
L 265.378909 55.720406 
L 268.625455 50.483912 
L 271.872 53.791123 
L 275.118545 53.136211 
L 278.365091 57.012942 
L 281.611636 62.460626 
L 284.858182 70.261718 
L 288.104727 74.618161 
L 291.351273 81.548395 
L 294.597818 91.612366 
L 297.844364 96.423112 
L 301.090909 105.401911 
L 304.337455 107.921604 
L 307.584 114.572467 
L 310.830545 114.865674 
L 314.077091 111.21954 
L 317.323636 116.182588 
L 320.570182 109.690779 
L 323.816727 108.233409 
L 327.063273 97.753394 
L 330.309818 88.936185 
L 333.556364 82.615212 
L 336.802909 73.152976 
L 340.049455 64.337931 
L 343.296 54.722646 
L 346.542545 51.702182 
L 349.789091 45.029647 
L 353.035636 46.246501 
L 356.282182 45.623096 
L 359.528727 48.66727 
L 362.775273 52.530499 
L 366.021818 56.473007 
L 369.268364 63.389094 
L 372.514909 71.555534 
L 375.761455 77.104012 
L 379.008 87.060614 
L 382.254545 94.986223 
L 385.501091 101.623558 
L 388.747636 105.782381 
L 391.994182 111.649774 
L 395.240727 111.402643 
L 398.487273 110.026298 
" clip-path="url(#p305d34c21d)" style="fill: none; stroke: #1f77b4; stroke-width: 1.5; stroke-linecap: square"/>
   </g>
   <g id="patch_3">
    <path d="M 57.6 119.740235 
L 57.6 41.472 
" style="fill: none; stroke: #000000; stroke-width: 0.8; stroke-linejoin: miter; stroke-linecap: square"/>
   </g>
   <g id="patch_4">
    <path d="M 414.72 119.740235 
L 414.72 41.472 
" style="fill: none; stroke: #000000; stroke-width: 0.8; stroke-linejoin: miter; stroke-linecap: square"/>
   </g>
   <g id="patch_5">
    <path d="M 57.6 119.740235 
L 414.72 119.740235 
" style="fill: none; stroke: #000000; stroke-width: 0.8; stroke-linejoin: miter; stroke-linecap: square"/>
   </g>
   <g id="patch_6">
    <path d="M 57.6 41.472 
L 414.72 41.472 
" style="fill: none; stroke: #000000; stroke-width: 0.8; stroke-linejoin: miter; stroke-linecap: square"/>
   </g>
   <g id="text_9">
    <!-- AR 200 Trend Exo (m param) -->
    <g transform="translate(149.65875 35.472) scale(0.12 -0.12)">
     <defs>
      <path id="DejaVuSans-41" d="M 2188 4044 
L 1331 1722 
L 3047 1722 
L 2188 4044 
z
M 1831 4666 
L 2547 4666 
L 4325 0 
L 3669 0 
L 3244 1197 
L 1141 1197 
L 716 0 
L 50 0 
L 1831 4666 
z
" transform="scale(0.015625)"/>
      <path id="DejaVuSans-52" d="M 2841 2188 
Q 3044 2119 3236 1894 
Q 3428 1669 3622 1275 
L 4263 0 
L 3584 0 
L 2988 1197 
Q 2756 1666 2539 1819 
Q 2322 1972 1947 1972 
L 1259 1972 
L 1259 0 
L 628 0 
L 628 4666 
L 2053 4666 
Q 2853 4666 3247 4331 
Q 3641 3997 3641 3322 
Q 3641 2881 3436 2590 
Q 3231 2300 2841 2188 
z
M 1259 4147 
L 1259 2491 
L 2053 2491 
Q 2509 2491 2742 2702 
Q 2975 2913 2975 3322 
Q 2975 3731 2742 3939 
Q 2509 4147 2053 4147 
L 1259 4147 
z
" transform="scale(0.015625)"/>
      <path id="DejaVuSans-20" transform="scale(0.015625)"/>
      <path id="DejaVuSans-54" d="M -19 4666 
L 3928 4666 
L 3928 4134 
L 2272 4134 
L 2272 0 
L 1638 0 
L 1638 4134 
L -19 4134 
L -19 4666 
z
" transform="scale(0.015625)"/>
      <path id="DejaVuSans-72" d="M 2631 2963 
Q 2534 3019 2420 3045 
Q 2306 3072 2169 3072 
Q 1681 3072 1420 2755 
Q 1159 2438 1159 1844 
L 1159 0 
L 581 0 
L 581 3500 
L 1159 3500 
L 1159 2956 
Q 1341 3275 1631 3429 
Q 1922 3584 2338 3584 
Q 2397 3584 2469 3576 
Q 2541 3569 2628 3553 
L 2631 2963 
z
" transform="scale(0.015625)"/>
      <path id="DejaVuSans-65" d="M 3597 1894 
L 3597 1613 
L 953 1613 
Q 991 1019 1311 708 
Q 1631 397 2203 397 
Q 2534 397 2845 478 
Q 3156 559 3463 722 
L 3463 178 
Q 3153 47 2828 -22 
Q 2503 -91 2169 -91 
Q 1331 -91 842 396 
Q 353 884 353 1716 
Q 353 2575 817 3079 
Q 1281 3584 2069 3584 
Q 2775 3584 3186 3129 
Q 3597 2675 3597 1894 
z
M 3022 2063 
Q 3016 2534 2758 2815 
Q 2500 3097 2075 3097 
Q 1594 3097 1305 2825 
Q 1016 2553 972 2059 
L 3022 2063 
z
" transform="scale(0.015625)"/>
      <path id="DejaVuSans-6e" d="M 3513 2113 
L 3513 0 
L 2938 0 
L 2938 2094 
Q 2938 2591 2744 2837 
Q 2550 3084 2163 3084 
Q 1697 3084 1428 2787 
Q 1159 2491 1159 1978 
L 1159 0 
L 581 0 
L 581 3500 
L 1159 3500 
L 1159 2956 
Q 1366 3272 1645 3428 
Q 1925 3584 2291 3584 
Q 2894 3584 3203 3211 
Q 3513 2838 3513 2113 
z
" transform="scale(0.015625)"/>
      <path id="DejaVuSans-64" d="M 2906 2969 
L 2906 4863 
L 3481 4863 
L 3481 0 
L 2906 0 
L 2906 525 
Q 2725 213 2448 61 
Q 2172 -91 1784 -91 
Q 1150 -91 751 415 
Q 353 922 353 1747 
Q 353 2572 751 3078 
Q 1150 3584 1784 3584 
Q 2172 3584 2448 3432 
Q 2725 3281 2906 2969 
z
M 947 1747 
Q 947 1113 1208 752 
Q 1469 391 1925 391 
Q 2381 391 2643 752 
Q 2906 1113 2906 1747 
Q 2906 2381 2643 2742 
Q 2381 3103 1925 3103 
Q 1469 3103 1208 2742 
Q 947 2381 947 1747 
z
" transform="scale(0.015625)"/>
      <path id="DejaVuSans-45" d="M 628 4666 
L 3578 4666 
L 3578 4134 
L 1259 4134 
L 1259 2753 
L 3481 2753 
L 3481 2222 
L 1259 2222 
L 1259 531 
L 3634 531 
L 3634 0 
L 628 0 
L 628 4666 
z
" transform="scale(0.015625)"/>
      <path id="DejaVuSans-78" d="M 3513 3500 
L 2247 1797 
L 3578 0 
L 2900 0 
L 1881 1375 
L 863 0 
L 184 0 
L 1544 1831 
L 300 3500 
L 978 3500 
L 1906 2253 
L 2834 3500 
L 3513 3500 
z
" transform="scale(0.015625)"/>
      <path id="DejaVuSans-6f" d="M 1959 3097 
Q 1497 3097 1228 2736 
Q 959 2375 959 1747 
Q 959 1119 1226 758 
Q 1494 397 1959 397 
Q 2419 397 2687 759 
Q 2956 1122 2956 1747 
Q 2956 2369 2687 2733 
Q 2419 3097 1959 3097 
z
M 1959 3584 
Q 2709 3584 3137 3096 
Q 3566 2609 3566 1747 
Q 3566 888 3137 398 
Q 2709 -91 1959 -91 
Q 1206 -91 779 398 
Q 353 888 353 1747 
Q 353 2609 779 3096 
Q 1206 3584 1959 3584 
z
" transform="scale(0.015625)"/>
      <path id="DejaVuSans-28" d="M 1984 4856 
Q 1566 4138 1362 3434 
Q 1159 2731 1159 2009 
Q 1159 1288 1364 580 
Q 1569 -128 1984 -844 
L 1484 -844 
Q 1016 -109 783 600 
Q 550 1309 550 2009 
Q 550 2706 781 3412 
Q 1013 4119 1484 4856 
L 1984 4856 
z
" transform="scale(0.015625)"/>
      <path id="DejaVuSans-6d" d="M 3328 2828 
Q 3544 3216 3844 3400 
Q 4144 3584 4550 3584 
Q 5097 3584 5394 3201 
Q 5691 2819 5691 2113 
L 5691 0 
L 5113 0 
L 5113 2094 
Q 5113 2597 4934 2840 
Q 4756 3084 4391 3084 
Q 3944 3084 3684 2787 
Q 3425 2491 3425 1978 
L 3425 0 
L 2847 0 
L 2847 2094 
Q 2847 2600 2669 2842 
Q 2491 3084 2119 3084 
Q 1678 3084 1418 2786 
Q 1159 2488 1159 1978 
L 1159 0 
L 581 0 
L 581 3500 
L 1159 3500 
L 1159 2956 
Q 1356 3278 1631 3431 
Q 1906 3584 2284 3584 
Q 2666 3584 2933 3390 
Q 3200 3197 3328 2828 
z
" transform="scale(0.015625)"/>
      <path id="DejaVuSans-70" d="M 1159 525 
L 1159 -1331 
L 581 -1331 
L 581 3500 
L 1159 3500 
L 1159 2969 
Q 1341 3281 1617 3432 
Q 1894 3584 2278 3584 
Q 2916 3584 3314 3078 
Q 3713 2572 3713 1747 
Q 3713 922 3314 415 
Q 2916 -91 2278 -91 
Q 1894 -91 1617 61 
Q 1341 213 1159 525 
z
M 3116 1747 
Q 3116 2381 2855 2742 
Q 2594 3103 2138 3103 
Q 1681 3103 1420 2742 
Q 1159 2381 1159 1747 
Q 1159 1113 1420 752 
Q 1681 391 2138 391 
Q 2594 391 2855 752 
Q 3116 1113 3116 1747 
z
" transform="scale(0.015625)"/>
      <path id="DejaVuSans-61" d="M 2194 1759 
Q 1497 1759 1228 1600 
Q 959 1441 959 1056 
Q 959 750 1161 570 
Q 1363 391 1709 391 
Q 2188 391 2477 730 
Q 2766 1069 2766 1631 
L 2766 1759 
L 2194 1759 
z
M 3341 1997 
L 3341 0 
L 2766 0 
L 2766 531 
Q 2569 213 2275 61 
Q 1981 -91 1556 -91 
Q 1019 -91 701 211 
Q 384 513 384 1019 
Q 384 1609 779 1909 
Q 1175 2209 1959 2209 
L 2766 2209 
L 2766 2266 
Q 2766 2663 2505 2880 
Q 2244 3097 1772 3097 
Q 1472 3097 1187 3025 
Q 903 2953 641 2809 
L 641 3341 
Q 956 3463 1253 3523 
Q 1550 3584 1831 3584 
Q 2591 3584 2966 3190 
Q 3341 2797 3341 1997 
z
" transform="scale(0.015625)"/>
      <path id="DejaVuSans-29" d="M 513 4856 
L 1013 4856 
Q 1481 4119 1714 3412 
Q 1947 2706 1947 2009 
Q 1947 1309 1714 600 
Q 1481 -109 1013 -844 
L 513 -844 
Q 928 -128 1133 580 
Q 1338 1288 1338 2009 
Q 1338 2731 1133 3434 
Q 928 4138 513 4856 
z
" transform="scale(0.015625)"/>
     </defs>
     <use xlink:href="#DejaVuSans-41"/>
     <use xlink:href="#DejaVuSans-52" transform="translate(68.408203 0)"/>
     <use xlink:href="#DejaVuSans-20" transform="translate(137.890625 0)"/>
     <use xlink:href="#DejaVuSans-32" transform="translate(169.677734 0)"/>
     <use xlink:href="#DejaVuSans-30" transform="translate(233.300781 0)"/>
     <use xlink:href="#DejaVuSans-30" transform="translate(296.923828 0)"/>
     <use xlink:href="#DejaVuSans-20" transform="translate(360.546875 0)"/>
     <use xlink:href="#DejaVuSans-54" transform="translate(392.333984 0)"/>
     <use xlink:href="#DejaVuSans-72" transform="translate(438.667969 0)"/>
     <use xlink:href="#DejaVuSans-65" transform="translate(477.53125 0)"/>
     <use xlink:href="#DejaVuSans-6e" transform="translate(539.054688 0)"/>
     <use xlink:href="#DejaVuSans-64" transform="translate(602.433594 0)"/>
     <use xlink:href="#DejaVuSans-20" transform="translate(665.910156 0)"/>
     <use xlink:href="#DejaVuSans-45" transform="translate(697.697266 0)"/>
     <use xlink:href="#DejaVuSans-78" transform="translate(760.880859 0)"/>
     <use xlink:href="#DejaVuSans-6f" transform="translate(816.935547 0)"/>
     <use xlink:href="#DejaVuSans-20" transform="translate(878.117188 0)"/>
     <use xlink:href="#DejaVuSans-28" transform="translate(909.904297 0)"/>
     <use xlink:href="#DejaVuSans-6d" transform="translate(948.917969 0)"/>
     <use xlink:href="#DejaVuSans-20" transform="translate(1046.330078 0)"/>
     <use xlink:href="#DejaVuSans-70" transform="translate(1078.117188 0)"/>
     <use xlink:href="#DejaVuSans-61" transform="translate(1141.59375 0)"/>
     <use xlink:href="#DejaVuSans-72" transform="translate(1202.873047 0)"/>
     <use xlink:href="#DejaVuSans-61" transform="translate(1243.986328 0)"/>
     <use xlink:href="#DejaVuSans-6d" transform="translate(1305.265625 0)"/>
     <use xlink:href="#DejaVuSans-29" transform="translate(1402.677734 0)"/>
    </g>
   </g>
  </g>
  <g id="axes_2">
   <g id="patch_7">
    <path d="M 57.6 213.662118 
L 414.72 213.662118 
L 414.72 135.393882 
L 57.6 135.393882 
z
" style="fill: #ffffff"/>
   </g>
   <g id="matplotlib.axis_3">
    <g id="xtick_7">
     <g id="line2d_10">
      <g>
       <use xlink:href="#m3157d0d7d1" x="73.832727" y="213.662118" style="stroke: #000000; stroke-width: 0.8"/>
      </g>
     </g>
     <g id="text_10">
      <!-- 0 -->
      <g transform="translate(70.651477 228.260555) scale(0.1 -0.1)">
       <use xlink:href="#DejaVuSans-30"/>
      </g>
     </g>
    </g>
    <g id="xtick_8">
     <g id="line2d_11">
      <g>
       <use xlink:href="#m3157d0d7d1" x="138.763636" y="213.662118" style="stroke: #000000; stroke-width: 0.8"/>
      </g>
     </g>
     <g id="text_11">
      <!-- 20 -->
      <g transform="translate(132.401136 228.260555) scale(0.1 -0.1)">
       <use xlink:href="#DejaVuSans-32"/>
       <use xlink:href="#DejaVuSans-30" transform="translate(63.623047 0)"/>
      </g>
     </g>
    </g>
    <g id="xtick_9">
     <g id="line2d_12">
      <g>
       <use xlink:href="#m3157d0d7d1" x="203.694545" y="213.662118" style="stroke: #000000; stroke-width: 0.8"/>
      </g>
     </g>
     <g id="text_12">
      <!-- 40 -->
      <g transform="translate(197.332045 228.260555) scale(0.1 -0.1)">
       <use xlink:href="#DejaVuSans-34"/>
       <use xlink:href="#DejaVuSans-30" transform="translate(63.623047 0)"/>
      </g>
     </g>
    </g>
    <g id="xtick_10">
     <g id="line2d_13">
      <g>
       <use xlink:href="#m3157d0d7d1" x="268.625455" y="213.662118" style="stroke: #000000; stroke-width: 0.8"/>
      </g>
     </g>
     <g id="text_13">
      <!-- 60 -->
      <g transform="translate(262.262955 228.260555) scale(0.1 -0.1)">
       <use xlink:href="#DejaVuSans-36"/>
       <use xlink:href="#DejaVuSans-30" transform="translate(63.623047 0)"/>
      </g>
     </g>
    </g>
    <g id="xtick_11">
     <g id="line2d_14">
      <g>
       <use xlink:href="#m3157d0d7d1" x="333.556364" y="213.662118" style="stroke: #000000; stroke-width: 0.8"/>
      </g>
     </g>
     <g id="text_14">
      <!-- 80 -->
      <g transform="translate(327.193864 228.260555) scale(0.1 -0.1)">
       <use xlink:href="#DejaVuSans-38"/>
       <use xlink:href="#DejaVuSans-30" transform="translate(63.623047 0)"/>
      </g>
     </g>
    </g>
    <g id="xtick_12">
     <g id="line2d_15">
      <g>
       <use xlink:href="#m3157d0d7d1" x="398.487273" y="213.662118" style="stroke: #000000; stroke-width: 0.8"/>
      </g>
     </g>
     <g id="text_15">
      <!-- 100 -->
      <g transform="translate(388.943523 228.260555) scale(0.1 -0.1)">
       <use xlink:href="#DejaVuSans-31"/>
       <use xlink:href="#DejaVuSans-30" transform="translate(63.623047 0)"/>
       <use xlink:href="#DejaVuSans-30" transform="translate(127.246094 0)"/>
      </g>
     </g>
    </g>
   </g>
   <g id="matplotlib.axis_4">
    <g id="ytick_3">
     <g id="line2d_16">
      <g>
       <use xlink:href="#mfb62e90e2a" x="57.6" y="181.446838" style="stroke: #000000; stroke-width: 0.8"/>
      </g>
     </g>
     <g id="text_16">
      <!-- 20 -->
      <g transform="translate(37.875 185.246057) scale(0.1 -0.1)">
       <use xlink:href="#DejaVuSans-32"/>
       <use xlink:href="#DejaVuSans-30" transform="translate(63.623047 0)"/>
      </g>
     </g>
    </g>
    <g id="ytick_4">
     <g id="line2d_17">
      <g>
       <use xlink:href="#mfb62e90e2a" x="57.6" y="143.041931" style="stroke: #000000; stroke-width: 0.8"/>
      </g>
     </g>
     <g id="text_17">
      <!-- 40 -->
      <g transform="translate(37.875 146.84115) scale(0.1 -0.1)">
       <use xlink:href="#DejaVuSans-34"/>
       <use xlink:href="#DejaVuSans-30" transform="translate(63.623047 0)"/>
      </g>
     </g>
    </g>
   </g>
   <g id="line2d_18">
    <path d="M 73.832727 179.691224 
L 77.079273 177.498437 
L 80.325818 183.753718 
L 83.572364 183.767022 
L 86.818909 182.746695 
L 90.065455 183.91073 
L 93.312 187.079267 
L 96.558545 184.993881 
L 99.805091 183.692515 
L 103.051636 179.060834 
L 106.298182 179.582231 
L 109.544727 172.305362 
L 112.791273 171.674615 
L 116.037818 166.325339 
L 119.284364 167.713488 
L 122.530909 168.003192 
L 125.777455 166.190505 
L 129.024 164.536895 
L 132.270545 163.178457 
L 135.517091 164.448937 
L 138.763636 165.221378 
L 142.010182 171.583908 
L 145.256727 175.79127 
L 148.503273 182.383285 
L 151.749818 187.17414 
L 154.996364 189.895925 
L 158.242909 197.176709 
L 161.489455 197.057131 
L 164.736 199.946514 
L 167.982545 202.271398 
L 171.229091 203.526279 
L 174.475636 202.291171 
L 177.722182 197.250541 
L 180.968727 189.657812 
L 184.215273 184.008781 
L 187.461818 176.53901 
L 190.708364 166.926957 
L 193.954909 161.907174 
L 197.201455 155.207854 
L 200.448 149.87441 
L 203.694545 145.006203 
L 206.941091 145.66955 
L 210.187636 140.890462 
L 213.434182 146.557138 
L 216.680727 149.29087 
L 219.927273 154.969848 
L 223.173818 165.08547 
L 226.420364 168.320979 
L 229.666909 178.950685 
L 232.913455 187.082715 
L 236.16 194.305169 
L 239.406545 197.92939 
L 242.653091 205.830586 
L 245.899636 208.416229 
L 249.146182 210.104471 
L 252.392727 208.595906 
L 255.639273 207.318915 
L 258.885818 207.995162 
L 262.132364 198.277334 
L 265.378909 196.110243 
L 268.625455 184.235199 
L 271.872 179.123427 
L 275.118545 166.852329 
L 278.365091 158.437304 
L 281.611636 151.986475 
L 284.858182 147.747796 
L 288.104727 140.841075 
L 291.351273 138.951529 
L 294.597818 141.93889 
L 297.844364 139.805977 
L 301.090909 145.381894 
L 304.337455 146.055338 
L 307.584 153.64441 
L 310.830545 157.64452 
L 314.077091 161.355181 
L 317.323636 175.650386 
L 320.570182 180.368323 
L 323.816727 190.30418 
L 327.063273 192.539438 
L 330.309818 195.661359 
L 333.556364 199.299458 
L 336.802909 199.828915 
L 340.049455 197.92558 
L 343.296 195.169469 
L 346.542545 194.580108 
L 349.789091 187.734117 
L 353.035636 185.260683 
L 356.282182 178.970055 
L 359.528727 173.873802 
L 362.775273 168.109478 
L 366.021818 162.572591 
L 369.268364 157.433422 
L 372.514909 155.666349 
L 375.761455 149.419709 
L 379.008 149.735923 
L 382.254545 150.902266 
L 385.501091 152.010544 
L 388.747636 153.40929 
L 391.994182 159.224805 
L 395.240727 161.7767 
L 398.487273 164.625717 
" clip-path="url(#p9d57e8a41d)" style="fill: none; stroke: #1f77b4; stroke-width: 1.5; stroke-linecap: square"/>
   </g>
   <g id="patch_8">
    <path d="M 57.6 213.662118 
L 57.6 135.393882 
" style="fill: none; stroke: #000000; stroke-width: 0.8; stroke-linejoin: miter; stroke-linecap: square"/>
   </g>
   <g id="patch_9">
    <path d="M 414.72 213.662118 
L 414.72 135.393882 
" style="fill: none; stroke: #000000; stroke-width: 0.8; stroke-linejoin: miter; stroke-linecap: square"/>
   </g>
   <g id="patch_10">
    <path d="M 57.6 213.662118 
L 414.72 213.662118 
" style="fill: none; stroke: #000000; stroke-width: 0.8; stroke-linejoin: miter; stroke-linecap: square"/>
   </g>
   <g id="patch_11">
    <path d="M 57.6 135.393882 
L 414.72 135.393882 
" style="fill: none; stroke: #000000; stroke-width: 0.8; stroke-linejoin: miter; stroke-linecap: square"/>
   </g>
   <g id="text_18">
    <!-- AR 200 Seasonal Exo (m param) -->
    <g transform="translate(138.9525 129.393882) scale(0.12 -0.12)">
     <defs>
      <path id="DejaVuSans-53" d="M 3425 4513 
L 3425 3897 
Q 3066 4069 2747 4153 
Q 2428 4238 2131 4238 
Q 1616 4238 1336 4038 
Q 1056 3838 1056 3469 
Q 1056 3159 1242 3001 
Q 1428 2844 1947 2747 
L 2328 2669 
Q 3034 2534 3370 2195 
Q 3706 1856 3706 1288 
Q 3706 609 3251 259 
Q 2797 -91 1919 -91 
Q 1588 -91 1214 -16 
Q 841 59 441 206 
L 441 856 
Q 825 641 1194 531 
Q 1563 422 1919 422 
Q 2459 422 2753 634 
Q 3047 847 3047 1241 
Q 3047 1584 2836 1778 
Q 2625 1972 2144 2069 
L 1759 2144 
Q 1053 2284 737 2584 
Q 422 2884 422 3419 
Q 422 4038 858 4394 
Q 1294 4750 2059 4750 
Q 2388 4750 2728 4690 
Q 3069 4631 3425 4513 
z
" transform="scale(0.015625)"/>
      <path id="DejaVuSans-73" d="M 2834 3397 
L 2834 2853 
Q 2591 2978 2328 3040 
Q 2066 3103 1784 3103 
Q 1356 3103 1142 2972 
Q 928 2841 928 2578 
Q 928 2378 1081 2264 
Q 1234 2150 1697 2047 
L 1894 2003 
Q 2506 1872 2764 1633 
Q 3022 1394 3022 966 
Q 3022 478 2636 193 
Q 2250 -91 1575 -91 
Q 1294 -91 989 -36 
Q 684 19 347 128 
L 347 722 
Q 666 556 975 473 
Q 1284 391 1588 391 
Q 1994 391 2212 530 
Q 2431 669 2431 922 
Q 2431 1156 2273 1281 
Q 2116 1406 1581 1522 
L 1381 1569 
Q 847 1681 609 1914 
Q 372 2147 372 2553 
Q 372 3047 722 3315 
Q 1072 3584 1716 3584 
Q 2034 3584 2315 3537 
Q 2597 3491 2834 3397 
z
" transform="scale(0.015625)"/>
      <path id="DejaVuSans-6c" d="M 603 4863 
L 1178 4863 
L 1178 0 
L 603 0 
L 603 4863 
z
" transform="scale(0.015625)"/>
     </defs>
     <use xlink:href="#DejaVuSans-41"/>
     <use xlink:href="#DejaVuSans-52" transform="translate(68.408203 0)"/>
     <use xlink:href="#DejaVuSans-20" transform="translate(137.890625 0)"/>
     <use xlink:href="#DejaVuSans-32" transform="translate(169.677734 0)"/>
     <use xlink:href="#DejaVuSans-30" transform="translate(233.300781 0)"/>
     <use xlink:href="#DejaVuSans-30" transform="translate(296.923828 0)"/>
     <use xlink:href="#DejaVuSans-20" transform="translate(360.546875 0)"/>
     <use xlink:href="#DejaVuSans-53" transform="translate(392.333984 0)"/>
     <use xlink:href="#DejaVuSans-65" transform="translate(455.810547 0)"/>
     <use xlink:href="#DejaVuSans-61" transform="translate(517.333984 0)"/>
     <use xlink:href="#DejaVuSans-73" transform="translate(578.613281 0)"/>
     <use xlink:href="#DejaVuSans-6f" transform="translate(630.712891 0)"/>
     <use xlink:href="#DejaVuSans-6e" transform="translate(691.894531 0)"/>
     <use xlink:href="#DejaVuSans-61" transform="translate(755.273438 0)"/>
     <use xlink:href="#DejaVuSans-6c" transform="translate(816.552734 0)"/>
     <use xlink:href="#DejaVuSans-20" transform="translate(844.335938 0)"/>
     <use xlink:href="#DejaVuSans-45" transform="translate(876.123047 0)"/>
     <use xlink:href="#DejaVuSans-78" transform="translate(939.306641 0)"/>
     <use xlink:href="#DejaVuSans-6f" transform="translate(995.361328 0)"/>
     <use xlink:href="#DejaVuSans-20" transform="translate(1056.542969 0)"/>
     <use xlink:href="#DejaVuSans-28" transform="translate(1088.330078 0)"/>
     <use xlink:href="#DejaVuSans-6d" transform="translate(1127.34375 0)"/>
     <use xlink:href="#DejaVuSans-20" transform="translate(1224.755859 0)"/>
     <use xlink:href="#DejaVuSans-70" transform="translate(1256.542969 0)"/>
     <use xlink:href="#DejaVuSans-61" transform="translate(1320.019531 0)"/>
     <use xlink:href="#DejaVuSans-72" transform="translate(1381.298828 0)"/>
     <use xlink:href="#DejaVuSans-61" transform="translate(1422.412109 0)"/>
     <use xlink:href="#DejaVuSans-6d" transform="translate(1483.691406 0)"/>
     <use xlink:href="#DejaVuSans-29" transform="translate(1581.103516 0)"/>
    </g>
   </g>
  </g>
  <g id="axes_3">
   <g id="patch_12">
    <path d="M 57.6 307.584 
L 414.72 307.584 
L 414.72 229.315765 
L 57.6 229.315765 
z
" style="fill: #ffffff"/>
   </g>
   <g id="matplotlib.axis_5">
    <g id="xtick_13">
     <g id="line2d_19">
      <g>
       <use xlink:href="#m3157d0d7d1" x="73.832727" y="307.584" style="stroke: #000000; stroke-width: 0.8"/>
      </g>
     </g>
     <g id="text_19">
      <!-- 0 -->
      <g transform="translate(70.651477 322.182437) scale(0.1 -0.1)">
       <use xlink:href="#DejaVuSans-30"/>
      </g>
     </g>
    </g>
    <g id="xtick_14">
     <g id="line2d_20">
      <g>
       <use xlink:href="#m3157d0d7d1" x="138.763636" y="307.584" style="stroke: #000000; stroke-width: 0.8"/>
      </g>
     </g>
     <g id="text_20">
      <!-- 20 -->
      <g transform="translate(132.401136 322.182437) scale(0.1 -0.1)">
       <use xlink:href="#DejaVuSans-32"/>
       <use xlink:href="#DejaVuSans-30" transform="translate(63.623047 0)"/>
      </g>
     </g>
    </g>
    <g id="xtick_15">
     <g id="line2d_21">
      <g>
       <use xlink:href="#m3157d0d7d1" x="203.694545" y="307.584" style="stroke: #000000; stroke-width: 0.8"/>
      </g>
     </g>
     <g id="text_21">
      <!-- 40 -->
      <g transform="translate(197.332045 322.182437) scale(0.1 -0.1)">
       <use xlink:href="#DejaVuSans-34"/>
       <use xlink:href="#DejaVuSans-30" transform="translate(63.623047 0)"/>
      </g>
     </g>
    </g>
    <g id="xtick_16">
     <g id="line2d_22">
      <g>
       <use xlink:href="#m3157d0d7d1" x="268.625455" y="307.584" style="stroke: #000000; stroke-width: 0.8"/>
      </g>
     </g>
     <g id="text_22">
      <!-- 60 -->
      <g transform="translate(262.262955 322.182437) scale(0.1 -0.1)">
       <use xlink:href="#DejaVuSans-36"/>
       <use xlink:href="#DejaVuSans-30" transform="translate(63.623047 0)"/>
      </g>
     </g>
    </g>
    <g id="xtick_17">
     <g id="line2d_23">
      <g>
       <use xlink:href="#m3157d0d7d1" x="333.556364" y="307.584" style="stroke: #000000; stroke-width: 0.8"/>
      </g>
     </g>
     <g id="text_23">
      <!-- 80 -->
      <g transform="translate(327.193864 322.182437) scale(0.1 -0.1)">
       <use xlink:href="#DejaVuSans-38"/>
       <use xlink:href="#DejaVuSans-30" transform="translate(63.623047 0)"/>
      </g>
     </g>
    </g>
    <g id="xtick_18">
     <g id="line2d_24">
      <g>
       <use xlink:href="#m3157d0d7d1" x="398.487273" y="307.584" style="stroke: #000000; stroke-width: 0.8"/>
      </g>
     </g>
     <g id="text_24">
      <!-- 100 -->
      <g transform="translate(388.943523 322.182437) scale(0.1 -0.1)">
       <use xlink:href="#DejaVuSans-31"/>
       <use xlink:href="#DejaVuSans-30" transform="translate(63.623047 0)"/>
       <use xlink:href="#DejaVuSans-30" transform="translate(127.246094 0)"/>
      </g>
     </g>
    </g>
   </g>
   <g id="matplotlib.axis_6">
    <g id="ytick_5">
     <g id="line2d_25">
      <g>
       <use xlink:href="#mfb62e90e2a" x="57.6" y="273.825665" style="stroke: #000000; stroke-width: 0.8"/>
      </g>
     </g>
     <g id="text_25">
      <!-- 20 -->
      <g transform="translate(37.875 277.624884) scale(0.1 -0.1)">
       <use xlink:href="#DejaVuSans-32"/>
       <use xlink:href="#DejaVuSans-30" transform="translate(63.623047 0)"/>
      </g>
     </g>
    </g>
    <g id="ytick_6">
     <g id="line2d_26">
      <g>
       <use xlink:href="#mfb62e90e2a" x="57.6" y="237.277564" style="stroke: #000000; stroke-width: 0.8"/>
      </g>
     </g>
     <g id="text_26">
      <!-- 40 -->
      <g transform="translate(37.875 241.076783) scale(0.1 -0.1)">
       <use xlink:href="#DejaVuSans-34"/>
       <use xlink:href="#DejaVuSans-30" transform="translate(63.623047 0)"/>
      </g>
     </g>
    </g>
   </g>
   <g id="line2d_27">
    <path d="M 73.832727 276.369779 
L 77.079273 281.468503 
L 80.325818 287.538939 
L 83.572364 289.430069 
L 86.818909 287.732104 
L 90.065455 291.624321 
L 93.312 281.3132 
L 96.558545 283.085031 
L 99.805091 284.15017 
L 103.051636 276.094495 
L 106.298182 276.712253 
L 109.544727 271.60121 
L 112.791273 264.505857 
L 116.037818 276.879251 
L 119.284364 264.525694 
L 122.530909 265.059902 
L 125.777455 266.238784 
L 129.024 263.900179 
L 132.270545 267.408387 
L 135.517091 273.477476 
L 138.763636 272.402853 
L 142.010182 277.914374 
L 145.256727 278.146005 
L 148.503273 275.030983 
L 151.749818 281.680379 
L 154.996364 278.706622 
L 158.242909 274.958735 
L 161.489455 276.574386 
L 164.736 275.822629 
L 167.982545 277.729314 
L 171.229091 268.32378 
L 174.475636 257.400388 
L 177.722182 254.66986 
L 180.968727 253.506084 
L 184.215273 262.569863 
L 187.461818 265.719321 
L 190.708364 259.761841 
L 193.954909 263.512937 
L 197.201455 262.261765 
L 200.448 266.382531 
L 203.694545 268.942747 
L 206.941091 276.19889 
L 210.187636 270.781053 
L 213.434182 279.72616 
L 216.680727 284.288172 
L 219.927273 288.718197 
L 223.173818 285.884509 
L 226.420364 290.238932 
L 229.666909 289.274118 
L 232.913455 295.252094 
L 236.16 289.837918 
L 239.406545 287.595269 
L 242.653091 277.06192 
L 245.899636 270.485459 
L 249.146182 270.189455 
L 252.392727 261.306112 
L 255.639273 254.129141 
L 258.885818 247.330639 
L 262.132364 243.678184 
L 265.378909 241.707493 
L 268.625455 244.081765 
L 271.872 240.395722 
L 275.118545 240.834658 
L 278.365091 244.37517 
L 281.611636 248.987166 
L 284.858182 256.758866 
L 288.104727 263.242982 
L 291.351273 275.73825 
L 294.597818 279.314017 
L 297.844364 284.861386 
L 301.090909 286.770901 
L 304.337455 297.513227 
L 307.584 299.901609 
L 310.830545 304.026353 
L 314.077091 297.606952 
L 317.323636 294.703851 
L 320.570182 293.39526 
L 323.816727 297.188219 
L 327.063273 284.685531 
L 330.309818 272.853922 
L 333.556364 267.325794 
L 336.802909 255.738452 
L 340.049455 254.964766 
L 343.296 243.08524 
L 346.542545 241.748579 
L 349.789091 232.873412 
L 353.035636 245.090175 
L 356.282182 238.150537 
L 359.528727 233.468136 
L 362.775273 240.358249 
L 366.021818 240.275086 
L 369.268364 247.46456 
L 372.514909 257.586625 
L 375.761455 267.006368 
L 379.008 272.941747 
L 382.254545 269.679203 
L 385.501091 285.63639 
L 388.747636 291.786973 
L 391.994182 285.716683 
L 395.240727 296.873937 
L 398.487273 298.688843 
" clip-path="url(#p206b7f4e77)" style="fill: none; stroke: #1f77b4; stroke-width: 1.5; stroke-linecap: square"/>
   </g>
   <g id="patch_13">
    <path d="M 57.6 307.584 
L 57.6 229.315765 
" style="fill: none; stroke: #000000; stroke-width: 0.8; stroke-linejoin: miter; stroke-linecap: square"/>
   </g>
   <g id="patch_14">
    <path d="M 414.72 307.584 
L 414.72 229.315765 
" style="fill: none; stroke: #000000; stroke-width: 0.8; stroke-linejoin: miter; stroke-linecap: square"/>
   </g>
   <g id="patch_15">
    <path d="M 57.6 307.584 
L 414.72 307.584 
" style="fill: none; stroke: #000000; stroke-width: 0.8; stroke-linejoin: miter; stroke-linecap: square"/>
   </g>
   <g id="patch_16">
    <path d="M 57.6 229.315765 
L 414.72 229.315765 
" style="fill: none; stroke: #000000; stroke-width: 0.8; stroke-linejoin: miter; stroke-linecap: square"/>
   </g>
   <g id="text_27">
    <!-- Original Time Series (continuation) -->
    <g transform="translate(131.58 223.315765) scale(0.12 -0.12)">
     <defs>
      <path id="DejaVuSans-4f" d="M 2522 4238 
Q 1834 4238 1429 3725 
Q 1025 3213 1025 2328 
Q 1025 1447 1429 934 
Q 1834 422 2522 422 
Q 3209 422 3611 934 
Q 4013 1447 4013 2328 
Q 4013 3213 3611 3725 
Q 3209 4238 2522 4238 
z
M 2522 4750 
Q 3503 4750 4090 4092 
Q 4678 3434 4678 2328 
Q 4678 1225 4090 567 
Q 3503 -91 2522 -91 
Q 1538 -91 948 565 
Q 359 1222 359 2328 
Q 359 3434 948 4092 
Q 1538 4750 2522 4750 
z
" transform="scale(0.015625)"/>
      <path id="DejaVuSans-69" d="M 603 3500 
L 1178 3500 
L 1178 0 
L 603 0 
L 603 3500 
z
M 603 4863 
L 1178 4863 
L 1178 4134 
L 603 4134 
L 603 4863 
z
" transform="scale(0.015625)"/>
      <path id="DejaVuSans-67" d="M 2906 1791 
Q 2906 2416 2648 2759 
Q 2391 3103 1925 3103 
Q 1463 3103 1205 2759 
Q 947 2416 947 1791 
Q 947 1169 1205 825 
Q 1463 481 1925 481 
Q 2391 481 2648 825 
Q 2906 1169 2906 1791 
z
M 3481 434 
Q 3481 -459 3084 -895 
Q 2688 -1331 1869 -1331 
Q 1566 -1331 1297 -1286 
Q 1028 -1241 775 -1147 
L 775 -588 
Q 1028 -725 1275 -790 
Q 1522 -856 1778 -856 
Q 2344 -856 2625 -561 
Q 2906 -266 2906 331 
L 2906 616 
Q 2728 306 2450 153 
Q 2172 0 1784 0 
Q 1141 0 747 490 
Q 353 981 353 1791 
Q 353 2603 747 3093 
Q 1141 3584 1784 3584 
Q 2172 3584 2450 3431 
Q 2728 3278 2906 2969 
L 2906 3500 
L 3481 3500 
L 3481 434 
z
" transform="scale(0.015625)"/>
      <path id="DejaVuSans-63" d="M 3122 3366 
L 3122 2828 
Q 2878 2963 2633 3030 
Q 2388 3097 2138 3097 
Q 1578 3097 1268 2742 
Q 959 2388 959 1747 
Q 959 1106 1268 751 
Q 1578 397 2138 397 
Q 2388 397 2633 464 
Q 2878 531 3122 666 
L 3122 134 
Q 2881 22 2623 -34 
Q 2366 -91 2075 -91 
Q 1284 -91 818 406 
Q 353 903 353 1747 
Q 353 2603 823 3093 
Q 1294 3584 2113 3584 
Q 2378 3584 2631 3529 
Q 2884 3475 3122 3366 
z
" transform="scale(0.015625)"/>
      <path id="DejaVuSans-74" d="M 1172 4494 
L 1172 3500 
L 2356 3500 
L 2356 3053 
L 1172 3053 
L 1172 1153 
Q 1172 725 1289 603 
Q 1406 481 1766 481 
L 2356 481 
L 2356 0 
L 1766 0 
Q 1100 0 847 248 
Q 594 497 594 1153 
L 594 3053 
L 172 3053 
L 172 3500 
L 594 3500 
L 594 4494 
L 1172 4494 
z
" transform="scale(0.015625)"/>
      <path id="DejaVuSans-75" d="M 544 1381 
L 544 3500 
L 1119 3500 
L 1119 1403 
Q 1119 906 1312 657 
Q 1506 409 1894 409 
Q 2359 409 2629 706 
Q 2900 1003 2900 1516 
L 2900 3500 
L 3475 3500 
L 3475 0 
L 2900 0 
L 2900 538 
Q 2691 219 2414 64 
Q 2138 -91 1772 -91 
Q 1169 -91 856 284 
Q 544 659 544 1381 
z
M 1991 3584 
L 1991 3584 
z
" transform="scale(0.015625)"/>
     </defs>
     <use xlink:href="#DejaVuSans-4f"/>
     <use xlink:href="#DejaVuSans-72" transform="translate(78.710938 0)"/>
     <use xlink:href="#DejaVuSans-69" transform="translate(119.824219 0)"/>
     <use xlink:href="#DejaVuSans-67" transform="translate(147.607422 0)"/>
     <use xlink:href="#DejaVuSans-69" transform="translate(211.083984 0)"/>
     <use xlink:href="#DejaVuSans-6e" transform="translate(238.867188 0)"/>
     <use xlink:href="#DejaVuSans-61" transform="translate(302.246094 0)"/>
     <use xlink:href="#DejaVuSans-6c" transform="translate(363.525391 0)"/>
     <use xlink:href="#DejaVuSans-20" transform="translate(391.308594 0)"/>
     <use xlink:href="#DejaVuSans-54" transform="translate(423.095703 0)"/>
     <use xlink:href="#DejaVuSans-69" transform="translate(481.054688 0)"/>
     <use xlink:href="#DejaVuSans-6d" transform="translate(508.837891 0)"/>
     <use xlink:href="#DejaVuSans-65" transform="translate(606.25 0)"/>
     <use xlink:href="#DejaVuSans-20" transform="translate(667.773438 0)"/>
     <use xlink:href="#DejaVuSans-53" transform="translate(699.560547 0)"/>
     <use xlink:href="#DejaVuSans-65" transform="translate(763.037109 0)"/>
     <use xlink:href="#DejaVuSans-72" transform="translate(824.560547 0)"/>
     <use xlink:href="#DejaVuSans-69" transform="translate(865.673828 0)"/>
     <use xlink:href="#DejaVuSans-65" transform="translate(893.457031 0)"/>
     <use xlink:href="#DejaVuSans-73" transform="translate(954.980469 0)"/>
     <use xlink:href="#DejaVuSans-20" transform="translate(1007.080078 0)"/>
     <use xlink:href="#DejaVuSans-28" transform="translate(1038.867188 0)"/>
     <use xlink:href="#DejaVuSans-63" transform="translate(1077.880859 0)"/>
     <use xlink:href="#DejaVuSans-6f" transform="translate(1132.861328 0)"/>
     <use xlink:href="#DejaVuSans-6e" transform="translate(1194.042969 0)"/>
     <use xlink:href="#DejaVuSans-74" transform="translate(1257.421875 0)"/>
     <use xlink:href="#DejaVuSans-69" transform="translate(1296.630859 0)"/>
     <use xlink:href="#DejaVuSans-6e" transform="translate(1324.414062 0)"/>
     <use xlink:href="#DejaVuSans-75" transform="translate(1387.792969 0)"/>
     <use xlink:href="#DejaVuSans-61" transform="translate(1451.171875 0)"/>
     <use xlink:href="#DejaVuSans-74" transform="translate(1512.451172 0)"/>
     <use xlink:href="#DejaVuSans-69" transform="translate(1551.660156 0)"/>
     <use xlink:href="#DejaVuSans-6f" transform="translate(1579.443359 0)"/>
     <use xlink:href="#DejaVuSans-6e" transform="translate(1640.625 0)"/>
     <use xlink:href="#DejaVuSans-29" transform="translate(1704.003906 0)"/>
    </g>
   </g>
  </g>
 </g>
 <defs>
  <clipPath id="p305d34c21d">
   <rect x="57.6" y="41.472" width="357.12" height="78.268235"/>
  </clipPath>
  <clipPath id="p9d57e8a41d">
   <rect x="57.6" y="135.393882" width="357.12" height="78.268235"/>
  </clipPath>
  <clipPath id="p206b7f4e77">
   <rect x="57.6" y="229.315765" width="357.12" height="78.268235"/>
  </clipPath>
 </defs>
</svg>
