<?xml version="1.0" encoding="utf-8" standalone="no"?>
<!DOCTYPE svg PUBLIC "-//W3C//DTD SVG 1.1//EN"
  "http://www.w3.org/Graphics/SVG/1.1/DTD/svg11.dtd">
<svg xmlns:xlink="http://www.w3.org/1999/xlink" width="460.8pt" height="345.6pt" viewBox="0 0 460.8 345.6" xmlns="http://www.w3.org/2000/svg" version="1.1">
 <metadata>
  <rdf:RDF xmlns:dc="http://purl.org/dc/elements/1.1/" xmlns:cc="http://creativecommons.org/ns#" xmlns:rdf="http://www.w3.org/1999/02/22-rdf-syntax-ns#">
   <cc:Work>
    <dc:type rdf:resource="http://purl.org/dc/dcmitype/StillImage"/>
    <dc:date>2025-11-04T17:46:24.671596</dc:date>
    <dc:format>image/svg+xml</dc:format>
    <dc:creator>
     <cc:Agent>
      <dc:title>Matplotlib v3.10.3, https://matplotlib.org/</dc:title>
     </cc:Agent>
    </dc:creator>
   </cc:Work>
  </rdf:RDF>
 </metadata>
 <defs>
  <style type="text/css">*{stroke-linejoin: round; stroke-linecap: butt}</style>
 </defs>
 <g id="figure_1">
  <g id="patch_1">
   <path d="M 0 345.6 
L 460.8 345.6 
L 460.8 0 
L 0 0 
z
" style="fill: #ffffff"/>
  </g>
  <g id="axes_1">
   <g id="patch_2">
    <path d="M 57.6 307.584 
L 414.72 307.584 
L 414.72 41.472 
L 57.6 41.472 
z
" style="fill: #ffffff"/>
   </g>
   <g id="matplotlib.axis_1">
    <g id="xtick_1">
     <g id="line2d_1">
      <defs>
       <path id="mbaf3025b6a" d="M 0 0 
L 0 3.5 
" style="stroke: #000000; stroke-width: 0.8"/>
      </defs>
      <g>
       <use xlink:href="#mbaf3025b6a" x="73.832727" y="307.584" style="stroke: #000000; stroke-width: 0.8"/>
      </g>
     </g>
     <g id="text_1">
      <!-- 0.0 -->
      <g transform="translate(65.881165 322.182437) scale(0.1 -0.1)">
       <defs>
        <path id="DejaVuSans-30" d="M 2034 4250 
Q 1547 4250 1301 3770 
Q 1056 3291 1056 2328 
Q 1056 1369 1301 889 
Q 1547 409 2034 409 
Q 2525 409 2770 889 
Q 3016 1369 3016 2328 
Q 3016 3291 2770 3770 
Q 2525 4250 2034 4250 
z
M 2034 4750 
Q 2819 4750 3233 4129 
Q 3647 3509 3647 2328 
Q 3647 1150 3233 529 
Q 2819 -91 2034 -91 
Q 1250 -91 836 529 
Q 422 1150 422 2328 
Q 422 3509 836 4129 
Q 1250 4750 2034 4750 
z
" transform="scale(0.015625)"/>
        <path id="DejaVuSans-2e" d="M 684 794 
L 1344 794 
L 1344 0 
L 684 0 
L 684 794 
z
" transform="scale(0.015625)"/>
       </defs>
       <use xlink:href="#DejaVuSans-30"/>
       <use xlink:href="#DejaVuSans-2e" transform="translate(63.623047 0)"/>
       <use xlink:href="#DejaVuSans-30" transform="translate(95.410156 0)"/>
      </g>
     </g>
    </g>
    <g id="xtick_2">
     <g id="line2d_2">
      <g>
       <use xlink:href="#mbaf3025b6a" x="139.704664" y="307.584" style="stroke: #000000; stroke-width: 0.8"/>
      </g>
     </g>
     <g id="text_2">
      <!-- 0.2 -->
      <g transform="translate(131.753102 322.182437) scale(0.1 -0.1)">
       <defs>
        <path id="DejaVuSans-32" d="M 1228 531 
L 3431 531 
L 3431 0 
L 469 0 
L 469 531 
Q 828 903 1448 1529 
Q 2069 2156 2228 2338 
Q 2531 2678 2651 2914 
Q 2772 3150 2772 3378 
Q 2772 3750 2511 3984 
Q 2250 4219 1831 4219 
Q 1534 4219 1204 4116 
Q 875 4013 500 3803 
L 500 4441 
Q 881 4594 1212 4672 
Q 1544 4750 1819 4750 
Q 2544 4750 2975 4387 
Q 3406 4025 3406 3419 
Q 3406 3131 3298 2873 
Q 3191 2616 2906 2266 
Q 2828 2175 2409 1742 
Q 1991 1309 1228 531 
z
" transform="scale(0.015625)"/>
       </defs>
       <use xlink:href="#DejaVuSans-30"/>
       <use xlink:href="#DejaVuSans-2e" transform="translate(63.623047 0)"/>
       <use xlink:href="#DejaVuSans-32" transform="translate(95.410156 0)"/>
      </g>
     </g>
    </g>
    <g id="xtick_3">
     <g id="line2d_3">
      <g>
       <use xlink:href="#mbaf3025b6a" x="205.576601" y="307.584" style="stroke: #000000; stroke-width: 0.8"/>
      </g>
     </g>
     <g id="text_3">
      <!-- 0.4 -->
      <g transform="translate(197.625038 322.182437) scale(0.1 -0.1)">
       <defs>
        <path id="DejaVuSans-34" d="M 2419 4116 
L 825 1625 
L 2419 1625 
L 2419 4116 
z
M 2253 4666 
L 3047 4666 
L 3047 1625 
L 3713 1625 
L 3713 1100 
L 3047 1100 
L 3047 0 
L 2419 0 
L 2419 1100 
L 313 1100 
L 313 1709 
L 2253 4666 
z
" transform="scale(0.015625)"/>
       </defs>
       <use xlink:href="#DejaVuSans-30"/>
       <use xlink:href="#DejaVuSans-2e" transform="translate(63.623047 0)"/>
       <use xlink:href="#DejaVuSans-34" transform="translate(95.410156 0)"/>
      </g>
     </g>
    </g>
    <g id="xtick_4">
     <g id="line2d_4">
      <g>
       <use xlink:href="#mbaf3025b6a" x="271.448538" y="307.584" style="stroke: #000000; stroke-width: 0.8"/>
      </g>
     </g>
     <g id="text_4">
      <!-- 0.6 -->
      <g transform="translate(263.496975 322.182437) scale(0.1 -0.1)">
       <defs>
        <path id="DejaVuSans-36" d="M 2113 2584 
Q 1688 2584 1439 2293 
Q 1191 2003 1191 1497 
Q 1191 994 1439 701 
Q 1688 409 2113 409 
Q 2538 409 2786 701 
Q 3034 994 3034 1497 
Q 3034 2003 2786 2293 
Q 2538 2584 2113 2584 
z
M 3366 4563 
L 3366 3988 
Q 3128 4100 2886 4159 
Q 2644 4219 2406 4219 
Q 1781 4219 1451 3797 
Q 1122 3375 1075 2522 
Q 1259 2794 1537 2939 
Q 1816 3084 2150 3084 
Q 2853 3084 3261 2657 
Q 3669 2231 3669 1497 
Q 3669 778 3244 343 
Q 2819 -91 2113 -91 
Q 1303 -91 875 529 
Q 447 1150 447 2328 
Q 447 3434 972 4092 
Q 1497 4750 2381 4750 
Q 2619 4750 2861 4703 
Q 3103 4656 3366 4563 
z
" transform="scale(0.015625)"/>
       </defs>
       <use xlink:href="#DejaVuSans-30"/>
       <use xlink:href="#DejaVuSans-2e" transform="translate(63.623047 0)"/>
       <use xlink:href="#DejaVuSans-36" transform="translate(95.410156 0)"/>
      </g>
     </g>
    </g>
    <g id="xtick_5">
     <g id="line2d_5">
      <g>
       <use xlink:href="#mbaf3025b6a" x="337.320474" y="307.584" style="stroke: #000000; stroke-width: 0.8"/>
      </g>
     </g>
     <g id="text_5">
      <!-- 0.8 -->
      <g transform="translate(329.368912 322.182437) scale(0.1 -0.1)">
       <defs>
        <path id="DejaVuSans-38" d="M 2034 2216 
Q 1584 2216 1326 1975 
Q 1069 1734 1069 1313 
Q 1069 891 1326 650 
Q 1584 409 2034 409 
Q 2484 409 2743 651 
Q 3003 894 3003 1313 
Q 3003 1734 2745 1975 
Q 2488 2216 2034 2216 
z
M 1403 2484 
Q 997 2584 770 2862 
Q 544 3141 544 3541 
Q 544 4100 942 4425 
Q 1341 4750 2034 4750 
Q 2731 4750 3128 4425 
Q 3525 4100 3525 3541 
Q 3525 3141 3298 2862 
Q 3072 2584 2669 2484 
Q 3125 2378 3379 2068 
Q 3634 1759 3634 1313 
Q 3634 634 3220 271 
Q 2806 -91 2034 -91 
Q 1263 -91 848 271 
Q 434 634 434 1313 
Q 434 1759 690 2068 
Q 947 2378 1403 2484 
z
M 1172 3481 
Q 1172 3119 1398 2916 
Q 1625 2713 2034 2713 
Q 2441 2713 2670 2916 
Q 2900 3119 2900 3481 
Q 2900 3844 2670 4047 
Q 2441 4250 2034 4250 
Q 1625 4250 1398 4047 
Q 1172 3844 1172 3481 
z
" transform="scale(0.015625)"/>
       </defs>
       <use xlink:href="#DejaVuSans-30"/>
       <use xlink:href="#DejaVuSans-2e" transform="translate(63.623047 0)"/>
       <use xlink:href="#DejaVuSans-38" transform="translate(95.410156 0)"/>
      </g>
     </g>
    </g>
    <g id="xtick_6">
     <g id="line2d_6">
      <g>
       <use xlink:href="#mbaf3025b6a" x="403.192411" y="307.584" style="stroke: #000000; stroke-width: 0.8"/>
      </g>
     </g>
     <g id="text_6">
      <!-- 1.0 -->
      <g transform="translate(395.240849 322.182437) scale(0.1 -0.1)">
       <defs>
        <path id="DejaVuSans-31" d="M 794 531 
L 1825 531 
L 1825 4091 
L 703 3866 
L 703 4441 
L 1819 4666 
L 2450 4666 
L 2450 531 
L 3481 531 
L 3481 0 
L 794 0 
L 794 531 
z
" transform="scale(0.015625)"/>
       </defs>
       <use xlink:href="#DejaVuSans-31"/>
       <use xlink:href="#DejaVuSans-2e" transform="translate(63.623047 0)"/>
       <use xlink:href="#DejaVuSans-30" transform="translate(95.410156 0)"/>
      </g>
     </g>
    </g>
   </g>
   <g id="matplotlib.axis_2">
    <g id="ytick_1">
     <g id="line2d_7">
      <defs>
       <path id="m4588cab07d" d="M 0 0 
L -3.5 0 
" style="stroke: #000000; stroke-width: 0.8"/>
      </defs>
      <g>
       <use xlink:href="#m4588cab07d" x="57.6" y="295.609921" style="stroke: #000000; stroke-width: 0.8"/>
      </g>
     </g>
     <g id="text_7">
      <!-- −1.00 -->
      <g transform="translate(19.954687 299.40914) scale(0.1 -0.1)">
       <defs>
        <path id="DejaVuSans-2212" d="M 678 2272 
L 4684 2272 
L 4684 1741 
L 678 1741 
L 678 2272 
z
" transform="scale(0.015625)"/>
       </defs>
       <use xlink:href="#DejaVuSans-2212"/>
       <use xlink:href="#DejaVuSans-31" transform="translate(83.789062 0)"/>
       <use xlink:href="#DejaVuSans-2e" transform="translate(147.412109 0)"/>
       <use xlink:href="#DejaVuSans-30" transform="translate(179.199219 0)"/>
       <use xlink:href="#DejaVuSans-30" transform="translate(242.822266 0)"/>
      </g>
     </g>
    </g>
    <g id="ytick_2">
     <g id="line2d_8">
      <g>
       <use xlink:href="#m4588cab07d" x="57.6" y="265.339441" style="stroke: #000000; stroke-width: 0.8"/>
      </g>
     </g>
     <g id="text_8">
      <!-- −0.75 -->
      <g transform="translate(19.954687 269.13866) scale(0.1 -0.1)">
       <defs>
        <path id="DejaVuSans-37" d="M 525 4666 
L 3525 4666 
L 3525 4397 
L 1831 0 
L 1172 0 
L 2766 4134 
L 525 4134 
L 525 4666 
z
" transform="scale(0.015625)"/>
        <path id="DejaVuSans-35" d="M 691 4666 
L 3169 4666 
L 3169 4134 
L 1269 4134 
L 1269 2991 
Q 1406 3038 1543 3061 
Q 1681 3084 1819 3084 
Q 2600 3084 3056 2656 
Q 3513 2228 3513 1497 
Q 3513 744 3044 326 
Q 2575 -91 1722 -91 
Q 1428 -91 1123 -41 
Q 819 9 494 109 
L 494 744 
Q 775 591 1075 516 
Q 1375 441 1709 441 
Q 2250 441 2565 725 
Q 2881 1009 2881 1497 
Q 2881 1984 2565 2268 
Q 2250 2553 1709 2553 
Q 1456 2553 1204 2497 
Q 953 2441 691 2322 
L 691 4666 
z
" transform="scale(0.015625)"/>
       </defs>
       <use xlink:href="#DejaVuSans-2212"/>
       <use xlink:href="#DejaVuSans-30" transform="translate(83.789062 0)"/>
       <use xlink:href="#DejaVuSans-2e" transform="translate(147.412109 0)"/>
       <use xlink:href="#DejaVuSans-37" transform="translate(179.199219 0)"/>
       <use xlink:href="#DejaVuSans-35" transform="translate(242.822266 0)"/>
      </g>
     </g>
    </g>
    <g id="ytick_3">
     <g id="line2d_9">
      <g>
       <use xlink:href="#m4588cab07d" x="57.6" y="235.068961" style="stroke: #000000; stroke-width: 0.8"/>
      </g>
     </g>
     <g id="text_9">
      <!-- −0.50 -->
      <g transform="translate(19.954687 238.868179) scale(0.1 -0.1)">
       <use xlink:href="#DejaVuSans-2212"/>
       <use xlink:href="#DejaVuSans-30" transform="translate(83.789062 0)"/>
       <use xlink:href="#DejaVuSans-2e" transform="translate(147.412109 0)"/>
       <use xlink:href="#DejaVuSans-35" transform="translate(179.199219 0)"/>
       <use xlink:href="#DejaVuSans-30" transform="translate(242.822266 0)"/>
      </g>
     </g>
    </g>
    <g id="ytick_4">
     <g id="line2d_10">
      <g>
       <use xlink:href="#m4588cab07d" x="57.6" y="204.79848" style="stroke: #000000; stroke-width: 0.8"/>
      </g>
     </g>
     <g id="text_10">
      <!-- −0.25 -->
      <g transform="translate(19.954687 208.597699) scale(0.1 -0.1)">
       <use xlink:href="#DejaVuSans-2212"/>
       <use xlink:href="#DejaVuSans-30" transform="translate(83.789062 0)"/>
       <use xlink:href="#DejaVuSans-2e" transform="translate(147.412109 0)"/>
       <use xlink:href="#DejaVuSans-32" transform="translate(179.199219 0)"/>
       <use xlink:href="#DejaVuSans-35" transform="translate(242.822266 0)"/>
      </g>
     </g>
    </g>
    <g id="ytick_5">
     <g id="line2d_11">
      <g>
       <use xlink:href="#m4588cab07d" x="57.6" y="174.528" style="stroke: #000000; stroke-width: 0.8"/>
      </g>
     </g>
     <g id="text_11">
      <!-- 0.00 -->
      <g transform="translate(28.334375 178.327219) scale(0.1 -0.1)">
       <use xlink:href="#DejaVuSans-30"/>
       <use xlink:href="#DejaVuSans-2e" transform="translate(63.623047 0)"/>
       <use xlink:href="#DejaVuSans-30" transform="translate(95.410156 0)"/>
       <use xlink:href="#DejaVuSans-30" transform="translate(159.033203 0)"/>
      </g>
     </g>
    </g>
    <g id="ytick_6">
     <g id="line2d_12">
      <g>
       <use xlink:href="#m4588cab07d" x="57.6" y="144.25752" style="stroke: #000000; stroke-width: 0.8"/>
      </g>
     </g>
     <g id="text_12">
      <!-- 0.25 -->
      <g transform="translate(28.334375 148.056738) scale(0.1 -0.1)">
       <use xlink:href="#DejaVuSans-30"/>
       <use xlink:href="#DejaVuSans-2e" transform="translate(63.623047 0)"/>
       <use xlink:href="#DejaVuSans-32" transform="translate(95.410156 0)"/>
       <use xlink:href="#DejaVuSans-35" transform="translate(159.033203 0)"/>
      </g>
     </g>
    </g>
    <g id="ytick_7">
     <g id="line2d_13">
      <g>
       <use xlink:href="#m4588cab07d" x="57.6" y="113.987039" style="stroke: #000000; stroke-width: 0.8"/>
      </g>
     </g>
     <g id="text_13">
      <!-- 0.50 -->
      <g transform="translate(28.334375 117.786258) scale(0.1 -0.1)">
       <use xlink:href="#DejaVuSans-30"/>
       <use xlink:href="#DejaVuSans-2e" transform="translate(63.623047 0)"/>
       <use xlink:href="#DejaVuSans-35" transform="translate(95.410156 0)"/>
       <use xlink:href="#DejaVuSans-30" transform="translate(159.033203 0)"/>
      </g>
     </g>
    </g>
    <g id="ytick_8">
     <g id="line2d_14">
      <g>
       <use xlink:href="#m4588cab07d" x="57.6" y="83.716559" style="stroke: #000000; stroke-width: 0.8"/>
      </g>
     </g>
     <g id="text_14">
      <!-- 0.75 -->
      <g transform="translate(28.334375 87.515778) scale(0.1 -0.1)">
       <use xlink:href="#DejaVuSans-30"/>
       <use xlink:href="#DejaVuSans-2e" transform="translate(63.623047 0)"/>
       <use xlink:href="#DejaVuSans-37" transform="translate(95.410156 0)"/>
       <use xlink:href="#DejaVuSans-35" transform="translate(159.033203 0)"/>
      </g>
     </g>
    </g>
    <g id="ytick_9">
     <g id="line2d_15">
      <g>
       <use xlink:href="#m4588cab07d" x="57.6" y="53.446079" style="stroke: #000000; stroke-width: 0.8"/>
      </g>
     </g>
     <g id="text_15">
      <!-- 1.00 -->
      <g transform="translate(28.334375 57.245297) scale(0.1 -0.1)">
       <use xlink:href="#DejaVuSans-31"/>
       <use xlink:href="#DejaVuSans-2e" transform="translate(63.623047 0)"/>
       <use xlink:href="#DejaVuSans-30" transform="translate(95.410156 0)"/>
       <use xlink:href="#DejaVuSans-30" transform="translate(159.033203 0)"/>
      </g>
     </g>
    </g>
   </g>
   <g id="LineCollection_1">
    <path d="M 73.832727 174.528 
L 73.832727 174.528 
" clip-path="url(#pa084334f6a)" style="fill: none; stroke: #1f77b4; stroke-width: 1.5"/>
    <path d="M 78.537866 174.528 
L 78.537866 142.315748 
" clip-path="url(#pa084334f6a)" style="fill: none; stroke: #1f77b4; stroke-width: 1.5"/>
    <path d="M 83.243004 174.528 
L 83.243004 112.42517 
" clip-path="url(#pa084334f6a)" style="fill: none; stroke: #1f77b4; stroke-width: 1.5"/>
    <path d="M 87.948142 174.528 
L 87.948142 87.010609 
" clip-path="url(#pa084334f6a)" style="fill: none; stroke: #1f77b4; stroke-width: 1.5"/>
    <path d="M 92.653281 174.528 
L 92.653281 67.903801 
" clip-path="url(#pa084334f6a)" style="fill: none; stroke: #1f77b4; stroke-width: 1.5"/>
    <path d="M 97.358419 174.528 
L 97.358419 56.481855 
" clip-path="url(#pa084334f6a)" style="fill: none; stroke: #1f77b4; stroke-width: 1.5"/>
    <path d="M 102.063557 174.528 
L 102.063557 53.568 
" clip-path="url(#pa084334f6a)" style="fill: none; stroke: #1f77b4; stroke-width: 1.5"/>
    <path d="M 106.768696 174.528 
L 106.768696 59.37225 
" clip-path="url(#pa084334f6a)" style="fill: none; stroke: #1f77b4; stroke-width: 1.5"/>
    <path d="M 111.473834 174.528 
L 111.473834 73.476267 
" clip-path="url(#pa084334f6a)" style="fill: none; stroke: #1f77b4; stroke-width: 1.5"/>
    <path d="M 116.178972 174.528 
L 116.178972 94.863515 
" clip-path="url(#pa084334f6a)" style="fill: none; stroke: #1f77b4; stroke-width: 1.5"/>
    <path d="M 120.884111 174.528 
L 120.884111 121.992523 
" clip-path="url(#pa084334f6a)" style="fill: none; stroke: #1f77b4; stroke-width: 1.5"/>
    <path d="M 125.589249 174.528 
L 125.589249 152.907988 
" clip-path="url(#pa084334f6a)" style="fill: none; stroke: #1f77b4; stroke-width: 1.5"/>
    <path d="M 130.294387 174.528 
L 130.294387 185.3817 
" clip-path="url(#pa084334f6a)" style="fill: none; stroke: #1f77b4; stroke-width: 1.5"/>
    <path d="M 134.999526 174.528 
L 134.999526 217.073139 
" clip-path="url(#pa084334f6a)" style="fill: none; stroke: #1f77b4; stroke-width: 1.5"/>
    <path d="M 139.704664 174.528 
L 139.704664 245.698168 
" clip-path="url(#pa084334f6a)" style="fill: none; stroke: #1f77b4; stroke-width: 1.5"/>
    <path d="M 144.409802 174.528 
L 144.409802 269.193658 
" clip-path="url(#pa084334f6a)" style="fill: none; stroke: #1f77b4; stroke-width: 1.5"/>
    <path d="M 149.114941 174.528 
L 149.114941 285.86619 
" clip-path="url(#pa084334f6a)" style="fill: none; stroke: #1f77b4; stroke-width: 1.5"/>
    <path d="M 153.820079 174.528 
L 153.820079 294.514101 
" clip-path="url(#pa084334f6a)" style="fill: none; stroke: #1f77b4; stroke-width: 1.5"/>
    <path d="M 158.525217 174.528 
L 158.525217 294.514101 
" clip-path="url(#pa084334f6a)" style="fill: none; stroke: #1f77b4; stroke-width: 1.5"/>
    <path d="M 163.230356 174.528 
L 163.230356 285.86619 
" clip-path="url(#pa084334f6a)" style="fill: none; stroke: #1f77b4; stroke-width: 1.5"/>
    <path d="M 167.935494 174.528 
L 167.935494 269.193658 
" clip-path="url(#pa084334f6a)" style="fill: none; stroke: #1f77b4; stroke-width: 1.5"/>
    <path d="M 172.640632 174.528 
L 172.640632 245.698168 
" clip-path="url(#pa084334f6a)" style="fill: none; stroke: #1f77b4; stroke-width: 1.5"/>
    <path d="M 177.345771 174.528 
L 177.345771 217.073139 
" clip-path="url(#pa084334f6a)" style="fill: none; stroke: #1f77b4; stroke-width: 1.5"/>
    <path d="M 182.050909 174.528 
L 182.050909 185.3817 
" clip-path="url(#pa084334f6a)" style="fill: none; stroke: #1f77b4; stroke-width: 1.5"/>
    <path d="M 186.756047 174.528 
L 186.756047 152.907988 
" clip-path="url(#pa084334f6a)" style="fill: none; stroke: #1f77b4; stroke-width: 1.5"/>
    <path d="M 191.461186 174.528 
L 191.461186 121.992523 
" clip-path="url(#pa084334f6a)" style="fill: none; stroke: #1f77b4; stroke-width: 1.5"/>
    <path d="M 196.166324 174.528 
L 196.166324 94.863515 
" clip-path="url(#pa084334f6a)" style="fill: none; stroke: #1f77b4; stroke-width: 1.5"/>
    <path d="M 200.871462 174.528 
L 200.871462 73.476267 
" clip-path="url(#pa084334f6a)" style="fill: none; stroke: #1f77b4; stroke-width: 1.5"/>
    <path d="M 205.576601 174.528 
L 205.576601 59.37225 
" clip-path="url(#pa084334f6a)" style="fill: none; stroke: #1f77b4; stroke-width: 1.5"/>
    <path d="M 210.281739 174.528 
L 210.281739 53.568 
" clip-path="url(#pa084334f6a)" style="fill: none; stroke: #1f77b4; stroke-width: 1.5"/>
    <path d="M 214.986877 174.528 
L 214.986877 56.481855 
" clip-path="url(#pa084334f6a)" style="fill: none; stroke: #1f77b4; stroke-width: 1.5"/>
    <path d="M 219.692016 174.528 
L 219.692016 67.903801 
" clip-path="url(#pa084334f6a)" style="fill: none; stroke: #1f77b4; stroke-width: 1.5"/>
    <path d="M 224.397154 174.528 
L 224.397154 87.010609 
" clip-path="url(#pa084334f6a)" style="fill: none; stroke: #1f77b4; stroke-width: 1.5"/>
    <path d="M 229.102292 174.528 
L 229.102292 112.42517 
" clip-path="url(#pa084334f6a)" style="fill: none; stroke: #1f77b4; stroke-width: 1.5"/>
    <path d="M 233.807431 174.528 
L 233.807431 142.315748 
" clip-path="url(#pa084334f6a)" style="fill: none; stroke: #1f77b4; stroke-width: 1.5"/>
    <path d="M 238.512569 174.528 
L 238.512569 174.528 
" clip-path="url(#pa084334f6a)" style="fill: none; stroke: #1f77b4; stroke-width: 1.5"/>
    <path d="M 243.217708 174.528 
L 243.217708 206.740252 
" clip-path="url(#pa084334f6a)" style="fill: none; stroke: #1f77b4; stroke-width: 1.5"/>
    <path d="M 247.922846 174.528 
L 247.922846 236.63083 
" clip-path="url(#pa084334f6a)" style="fill: none; stroke: #1f77b4; stroke-width: 1.5"/>
    <path d="M 252.627984 174.528 
L 252.627984 262.045391 
" clip-path="url(#pa084334f6a)" style="fill: none; stroke: #1f77b4; stroke-width: 1.5"/>
    <path d="M 257.333123 174.528 
L 257.333123 281.152199 
" clip-path="url(#pa084334f6a)" style="fill: none; stroke: #1f77b4; stroke-width: 1.5"/>
    <path d="M 262.038261 174.528 
L 262.038261 292.574145 
" clip-path="url(#pa084334f6a)" style="fill: none; stroke: #1f77b4; stroke-width: 1.5"/>
    <path d="M 266.743399 174.528 
L 266.743399 295.488 
" clip-path="url(#pa084334f6a)" style="fill: none; stroke: #1f77b4; stroke-width: 1.5"/>
    <path d="M 271.448538 174.528 
L 271.448538 289.68375 
" clip-path="url(#pa084334f6a)" style="fill: none; stroke: #1f77b4; stroke-width: 1.5"/>
    <path d="M 276.153676 174.528 
L 276.153676 275.579733 
" clip-path="url(#pa084334f6a)" style="fill: none; stroke: #1f77b4; stroke-width: 1.5"/>
    <path d="M 280.858814 174.528 
L 280.858814 254.192485 
" clip-path="url(#pa084334f6a)" style="fill: none; stroke: #1f77b4; stroke-width: 1.5"/>
    <path d="M 285.563953 174.528 
L 285.563953 227.063477 
" clip-path="url(#pa084334f6a)" style="fill: none; stroke: #1f77b4; stroke-width: 1.5"/>
    <path d="M 290.269091 174.528 
L 290.269091 196.148012 
" clip-path="url(#pa084334f6a)" style="fill: none; stroke: #1f77b4; stroke-width: 1.5"/>
    <path d="M 294.974229 174.528 
L 294.974229 163.6743 
" clip-path="url(#pa084334f6a)" style="fill: none; stroke: #1f77b4; stroke-width: 1.5"/>
    <path d="M 299.679368 174.528 
L 299.679368 131.982861 
" clip-path="url(#pa084334f6a)" style="fill: none; stroke: #1f77b4; stroke-width: 1.5"/>
    <path d="M 304.384506 174.528 
L 304.384506 103.357832 
" clip-path="url(#pa084334f6a)" style="fill: none; stroke: #1f77b4; stroke-width: 1.5"/>
    <path d="M 309.089644 174.528 
L 309.089644 79.862342 
" clip-path="url(#pa084334f6a)" style="fill: none; stroke: #1f77b4; stroke-width: 1.5"/>
    <path d="M 313.794783 174.528 
L 313.794783 63.18981 
" clip-path="url(#pa084334f6a)" style="fill: none; stroke: #1f77b4; stroke-width: 1.5"/>
    <path d="M 318.499921 174.528 
L 318.499921 54.541899 
" clip-path="url(#pa084334f6a)" style="fill: none; stroke: #1f77b4; stroke-width: 1.5"/>
    <path d="M 323.205059 174.528 
L 323.205059 54.541899 
" clip-path="url(#pa084334f6a)" style="fill: none; stroke: #1f77b4; stroke-width: 1.5"/>
    <path d="M 327.910198 174.528 
L 327.910198 63.18981 
" clip-path="url(#pa084334f6a)" style="fill: none; stroke: #1f77b4; stroke-width: 1.5"/>
    <path d="M 332.615336 174.528 
L 332.615336 79.862342 
" clip-path="url(#pa084334f6a)" style="fill: none; stroke: #1f77b4; stroke-width: 1.5"/>
    <path d="M 337.320474 174.528 
L 337.320474 103.357832 
" clip-path="url(#pa084334f6a)" style="fill: none; stroke: #1f77b4; stroke-width: 1.5"/>
    <path d="M 342.025613 174.528 
L 342.025613 131.982861 
" clip-path="url(#pa084334f6a)" style="fill: none; stroke: #1f77b4; stroke-width: 1.5"/>
    <path d="M 346.730751 174.528 
L 346.730751 163.6743 
" clip-path="url(#pa084334f6a)" style="fill: none; stroke: #1f77b4; stroke-width: 1.5"/>
    <path d="M 351.435889 174.528 
L 351.435889 196.148012 
" clip-path="url(#pa084334f6a)" style="fill: none; stroke: #1f77b4; stroke-width: 1.5"/>
    <path d="M 356.141028 174.528 
L 356.141028 227.063477 
" clip-path="url(#pa084334f6a)" style="fill: none; stroke: #1f77b4; stroke-width: 1.5"/>
    <path d="M 360.846166 174.528 
L 360.846166 254.192485 
" clip-path="url(#pa084334f6a)" style="fill: none; stroke: #1f77b4; stroke-width: 1.5"/>
    <path d="M 365.551304 174.528 
L 365.551304 275.579733 
" clip-path="url(#pa084334f6a)" style="fill: none; stroke: #1f77b4; stroke-width: 1.5"/>
    <path d="M 370.256443 174.528 
L 370.256443 289.68375 
" clip-path="url(#pa084334f6a)" style="fill: none; stroke: #1f77b4; stroke-width: 1.5"/>
    <path d="M 374.961581 174.528 
L 374.961581 295.488 
" clip-path="url(#pa084334f6a)" style="fill: none; stroke: #1f77b4; stroke-width: 1.5"/>
    <path d="M 379.666719 174.528 
L 379.666719 292.574145 
" clip-path="url(#pa084334f6a)" style="fill: none; stroke: #1f77b4; stroke-width: 1.5"/>
    <path d="M 384.371858 174.528 
L 384.371858 281.152199 
" clip-path="url(#pa084334f6a)" style="fill: none; stroke: #1f77b4; stroke-width: 1.5"/>
    <path d="M 389.076996 174.528 
L 389.076996 262.045391 
" clip-path="url(#pa084334f6a)" style="fill: none; stroke: #1f77b4; stroke-width: 1.5"/>
    <path d="M 393.782134 174.528 
L 393.782134 236.63083 
" clip-path="url(#pa084334f6a)" style="fill: none; stroke: #1f77b4; stroke-width: 1.5"/>
    <path d="M 398.487273 174.528 
L 398.487273 206.740252 
" clip-path="url(#pa084334f6a)" style="fill: none; stroke: #1f77b4; stroke-width: 1.5"/>
   </g>
   <g id="line2d_16">
    <defs>
     <path id="m44d88169ac" d="M 0 3 
C 0.795609 3 1.55874 2.683901 2.12132 2.12132 
C 2.683901 1.55874 3 0.795609 3 0 
C 3 -0.795609 2.683901 -1.55874 2.12132 -2.12132 
C 1.55874 -2.683901 0.795609 -3 0 -3 
C -0.795609 -3 -1.55874 -2.683901 -2.12132 -2.12132 
C -2.683901 -1.55874 -3 -0.795609 -3 0 
C -3 0.795609 -2.683901 1.55874 -2.12132 2.12132 
C -1.55874 2.683901 -0.795609 3 0 3 
z
" style="stroke: #1f77b4"/>
    </defs>
    <g clip-path="url(#pa084334f6a)">
     <use xlink:href="#m44d88169ac" x="73.832727" y="174.528" style="fill: #1f77b4; stroke: #1f77b4"/>
     <use xlink:href="#m44d88169ac" x="78.537866" y="142.315748" style="fill: #1f77b4; stroke: #1f77b4"/>
     <use xlink:href="#m44d88169ac" x="83.243004" y="112.42517" style="fill: #1f77b4; stroke: #1f77b4"/>
     <use xlink:href="#m44d88169ac" x="87.948142" y="87.010609" style="fill: #1f77b4; stroke: #1f77b4"/>
     <use xlink:href="#m44d88169ac" x="92.653281" y="67.903801" style="fill: #1f77b4; stroke: #1f77b4"/>
     <use xlink:href="#m44d88169ac" x="97.358419" y="56.481855" style="fill: #1f77b4; stroke: #1f77b4"/>
     <use xlink:href="#m44d88169ac" x="102.063557" y="53.568" style="fill: #1f77b4; stroke: #1f77b4"/>
     <use xlink:href="#m44d88169ac" x="106.768696" y="59.37225" style="fill: #1f77b4; stroke: #1f77b4"/>
     <use xlink:href="#m44d88169ac" x="111.473834" y="73.476267" style="fill: #1f77b4; stroke: #1f77b4"/>
     <use xlink:href="#m44d88169ac" x="116.178972" y="94.863515" style="fill: #1f77b4; stroke: #1f77b4"/>
     <use xlink:href="#m44d88169ac" x="120.884111" y="121.992523" style="fill: #1f77b4; stroke: #1f77b4"/>
     <use xlink:href="#m44d88169ac" x="125.589249" y="152.907988" style="fill: #1f77b4; stroke: #1f77b4"/>
     <use xlink:href="#m44d88169ac" x="130.294387" y="185.3817" style="fill: #1f77b4; stroke: #1f77b4"/>
     <use xlink:href="#m44d88169ac" x="134.999526" y="217.073139" style="fill: #1f77b4; stroke: #1f77b4"/>
     <use xlink:href="#m44d88169ac" x="139.704664" y="245.698168" style="fill: #1f77b4; stroke: #1f77b4"/>
     <use xlink:href="#m44d88169ac" x="144.409802" y="269.193658" style="fill: #1f77b4; stroke: #1f77b4"/>
     <use xlink:href="#m44d88169ac" x="149.114941" y="285.86619" style="fill: #1f77b4; stroke: #1f77b4"/>
     <use xlink:href="#m44d88169ac" x="153.820079" y="294.514101" style="fill: #1f77b4; stroke: #1f77b4"/>
     <use xlink:href="#m44d88169ac" x="158.525217" y="294.514101" style="fill: #1f77b4; stroke: #1f77b4"/>
     <use xlink:href="#m44d88169ac" x="163.230356" y="285.86619" style="fill: #1f77b4; stroke: #1f77b4"/>
     <use xlink:href="#m44d88169ac" x="167.935494" y="269.193658" style="fill: #1f77b4; stroke: #1f77b4"/>
     <use xlink:href="#m44d88169ac" x="172.640632" y="245.698168" style="fill: #1f77b4; stroke: #1f77b4"/>
     <use xlink:href="#m44d88169ac" x="177.345771" y="217.073139" style="fill: #1f77b4; stroke: #1f77b4"/>
     <use xlink:href="#m44d88169ac" x="182.050909" y="185.3817" style="fill: #1f77b4; stroke: #1f77b4"/>
     <use xlink:href="#m44d88169ac" x="186.756047" y="152.907988" style="fill: #1f77b4; stroke: #1f77b4"/>
     <use xlink:href="#m44d88169ac" x="191.461186" y="121.992523" style="fill: #1f77b4; stroke: #1f77b4"/>
     <use xlink:href="#m44d88169ac" x="196.166324" y="94.863515" style="fill: #1f77b4; stroke: #1f77b4"/>
     <use xlink:href="#m44d88169ac" x="200.871462" y="73.476267" style="fill: #1f77b4; stroke: #1f77b4"/>
     <use xlink:href="#m44d88169ac" x="205.576601" y="59.37225" style="fill: #1f77b4; stroke: #1f77b4"/>
     <use xlink:href="#m44d88169ac" x="210.281739" y="53.568" style="fill: #1f77b4; stroke: #1f77b4"/>
     <use xlink:href="#m44d88169ac" x="214.986877" y="56.481855" style="fill: #1f77b4; stroke: #1f77b4"/>
     <use xlink:href="#m44d88169ac" x="219.692016" y="67.903801" style="fill: #1f77b4; stroke: #1f77b4"/>
     <use xlink:href="#m44d88169ac" x="224.397154" y="87.010609" style="fill: #1f77b4; stroke: #1f77b4"/>
     <use xlink:href="#m44d88169ac" x="229.102292" y="112.42517" style="fill: #1f77b4; stroke: #1f77b4"/>
     <use xlink:href="#m44d88169ac" x="233.807431" y="142.315748" style="fill: #1f77b4; stroke: #1f77b4"/>
     <use xlink:href="#m44d88169ac" x="238.512569" y="174.528" style="fill: #1f77b4; stroke: #1f77b4"/>
     <use xlink:href="#m44d88169ac" x="243.217708" y="206.740252" style="fill: #1f77b4; stroke: #1f77b4"/>
     <use xlink:href="#m44d88169ac" x="247.922846" y="236.63083" style="fill: #1f77b4; stroke: #1f77b4"/>
     <use xlink:href="#m44d88169ac" x="252.627984" y="262.045391" style="fill: #1f77b4; stroke: #1f77b4"/>
     <use xlink:href="#m44d88169ac" x="257.333123" y="281.152199" style="fill: #1f77b4; stroke: #1f77b4"/>
     <use xlink:href="#m44d88169ac" x="262.038261" y="292.574145" style="fill: #1f77b4; stroke: #1f77b4"/>
     <use xlink:href="#m44d88169ac" x="266.743399" y="295.488" style="fill: #1f77b4; stroke: #1f77b4"/>
     <use xlink:href="#m44d88169ac" x="271.448538" y="289.68375" style="fill: #1f77b4; stroke: #1f77b4"/>
     <use xlink:href="#m44d88169ac" x="276.153676" y="275.579733" style="fill: #1f77b4; stroke: #1f77b4"/>
     <use xlink:href="#m44d88169ac" x="280.858814" y="254.192485" style="fill: #1f77b4; stroke: #1f77b4"/>
     <use xlink:href="#m44d88169ac" x="285.563953" y="227.063477" style="fill: #1f77b4; stroke: #1f77b4"/>
     <use xlink:href="#m44d88169ac" x="290.269091" y="196.148012" style="fill: #1f77b4; stroke: #1f77b4"/>
     <use xlink:href="#m44d88169ac" x="294.974229" y="163.6743" style="fill: #1f77b4; stroke: #1f77b4"/>
     <use xlink:href="#m44d88169ac" x="299.679368" y="131.982861" style="fill: #1f77b4; stroke: #1f77b4"/>
     <use xlink:href="#m44d88169ac" x="304.384506" y="103.357832" style="fill: #1f77b4; stroke: #1f77b4"/>
     <use xlink:href="#m44d88169ac" x="309.089644" y="79.862342" style="fill: #1f77b4; stroke: #1f77b4"/>
     <use xlink:href="#m44d88169ac" x="313.794783" y="63.18981" style="fill: #1f77b4; stroke: #1f77b4"/>
     <use xlink:href="#m44d88169ac" x="318.499921" y="54.541899" style="fill: #1f77b4; stroke: #1f77b4"/>
     <use xlink:href="#m44d88169ac" x="323.205059" y="54.541899" style="fill: #1f77b4; stroke: #1f77b4"/>
     <use xlink:href="#m44d88169ac" x="327.910198" y="63.18981" style="fill: #1f77b4; stroke: #1f77b4"/>
     <use xlink:href="#m44d88169ac" x="332.615336" y="79.862342" style="fill: #1f77b4; stroke: #1f77b4"/>
     <use xlink:href="#m44d88169ac" x="337.320474" y="103.357832" style="fill: #1f77b4; stroke: #1f77b4"/>
     <use xlink:href="#m44d88169ac" x="342.025613" y="131.982861" style="fill: #1f77b4; stroke: #1f77b4"/>
     <use xlink:href="#m44d88169ac" x="346.730751" y="163.6743" style="fill: #1f77b4; stroke: #1f77b4"/>
     <use xlink:href="#m44d88169ac" x="351.435889" y="196.148012" style="fill: #1f77b4; stroke: #1f77b4"/>
     <use xlink:href="#m44d88169ac" x="356.141028" y="227.063477" style="fill: #1f77b4; stroke: #1f77b4"/>
     <use xlink:href="#m44d88169ac" x="360.846166" y="254.192485" style="fill: #1f77b4; stroke: #1f77b4"/>
     <use xlink:href="#m44d88169ac" x="365.551304" y="275.579733" style="fill: #1f77b4; stroke: #1f77b4"/>
     <use xlink:href="#m44d88169ac" x="370.256443" y="289.68375" style="fill: #1f77b4; stroke: #1f77b4"/>
     <use xlink:href="#m44d88169ac" x="374.961581" y="295.488" style="fill: #1f77b4; stroke: #1f77b4"/>
     <use xlink:href="#m44d88169ac" x="379.666719" y="292.574145" style="fill: #1f77b4; stroke: #1f77b4"/>
     <use xlink:href="#m44d88169ac" x="384.371858" y="281.152199" style="fill: #1f77b4; stroke: #1f77b4"/>
     <use xlink:href="#m44d88169ac" x="389.076996" y="262.045391" style="fill: #1f77b4; stroke: #1f77b4"/>
     <use xlink:href="#m44d88169ac" x="393.782134" y="236.63083" style="fill: #1f77b4; stroke: #1f77b4"/>
     <use xlink:href="#m44d88169ac" x="398.487273" y="206.740252" style="fill: #1f77b4; stroke: #1f77b4"/>
    </g>
   </g>
   <g id="line2d_17">
    <path d="M 73.832727 174.528 
L 398.487273 174.528 
" clip-path="url(#pa084334f6a)" style="fill: none; stroke: #d62728; stroke-width: 1.5; stroke-linecap: square"/>
   </g>
   <g id="patch_3">
    <path d="M 57.6 307.584 
L 57.6 41.472 
" style="fill: none; stroke: #000000; stroke-width: 0.8; stroke-linejoin: miter; stroke-linecap: square"/>
   </g>
   <g id="patch_4">
    <path d="M 414.72 307.584 
L 414.72 41.472 
" style="fill: none; stroke: #000000; stroke-width: 0.8; stroke-linejoin: miter; stroke-linecap: square"/>
   </g>
   <g id="patch_5">
    <path d="M 57.6 307.584 
L 414.72 307.584 
" style="fill: none; stroke: #000000; stroke-width: 0.8; stroke-linejoin: miter; stroke-linecap: square"/>
   </g>
   <g id="patch_6">
    <path d="M 57.6 41.472 
L 414.72 41.472 
" style="fill: none; stroke: #000000; stroke-width: 0.8; stroke-linejoin: miter; stroke-linecap: square"/>
   </g>
   <g id="text_16">
    <!-- overlap -->
    <g transform="translate(213.62625 35.472) scale(0.12 -0.12)">
     <defs>
      <path id="DejaVuSans-6f" d="M 1959 3097 
Q 1497 3097 1228 2736 
Q 959 2375 959 1747 
Q 959 1119 1226 758 
Q 1494 397 1959 397 
Q 2419 397 2687 759 
Q 2956 1122 2956 1747 
Q 2956 2369 2687 2733 
Q 2419 3097 1959 3097 
z
M 1959 3584 
Q 2709 3584 3137 3096 
Q 3566 2609 3566 1747 
Q 3566 888 3137 398 
Q 2709 -91 1959 -91 
Q 1206 -91 779 398 
Q 353 888 353 1747 
Q 353 2609 779 3096 
Q 1206 3584 1959 3584 
z
" transform="scale(0.015625)"/>
      <path id="DejaVuSans-76" d="M 191 3500 
L 800 3500 
L 1894 563 
L 2988 3500 
L 3597 3500 
L 2284 0 
L 1503 0 
L 191 3500 
z
" transform="scale(0.015625)"/>
      <path id="DejaVuSans-65" d="M 3597 1894 
L 3597 1613 
L 953 1613 
Q 991 1019 1311 708 
Q 1631 397 2203 397 
Q 2534 397 2845 478 
Q 3156 559 3463 722 
L 3463 178 
Q 3153 47 2828 -22 
Q 2503 -91 2169 -91 
Q 1331 -91 842 396 
Q 353 884 353 1716 
Q 353 2575 817 3079 
Q 1281 3584 2069 3584 
Q 2775 3584 3186 3129 
Q 3597 2675 3597 1894 
z
M 3022 2063 
Q 3016 2534 2758 2815 
Q 2500 3097 2075 3097 
Q 1594 3097 1305 2825 
Q 1016 2553 972 2059 
L 3022 2063 
z
" transform="scale(0.015625)"/>
      <path id="DejaVuSans-72" d="M 2631 2963 
Q 2534 3019 2420 3045 
Q 2306 3072 2169 3072 
Q 1681 3072 1420 2755 
Q 1159 2438 1159 1844 
L 1159 0 
L 581 0 
L 581 3500 
L 1159 3500 
L 1159 2956 
Q 1341 3275 1631 3429 
Q 1922 3584 2338 3584 
Q 2397 3584 2469 3576 
Q 2541 3569 2628 3553 
L 2631 2963 
z
" transform="scale(0.015625)"/>
      <path id="DejaVuSans-6c" d="M 603 4863 
L 1178 4863 
L 1178 0 
L 603 0 
L 603 4863 
z
" transform="scale(0.015625)"/>
      <path id="DejaVuSans-61" d="M 2194 1759 
Q 1497 1759 1228 1600 
Q 959 1441 959 1056 
Q 959 750 1161 570 
Q 1363 391 1709 391 
Q 2188 391 2477 730 
Q 2766 1069 2766 1631 
L 2766 1759 
L 2194 1759 
z
M 3341 1997 
L 3341 0 
L 2766 0 
L 2766 531 
Q 2569 213 2275 61 
Q 1981 -91 1556 -91 
Q 1019 -91 701 211 
Q 384 513 384 1019 
Q 384 1609 779 1909 
Q 1175 2209 1959 2209 
L 2766 2209 
L 2766 2266 
Q 2766 2663 2505 2880 
Q 2244 3097 1772 3097 
Q 1472 3097 1187 3025 
Q 903 2953 641 2809 
L 641 3341 
Q 956 3463 1253 3523 
Q 1550 3584 1831 3584 
Q 2591 3584 2966 3190 
Q 3341 2797 3341 1997 
z
" transform="scale(0.015625)"/>
      <path id="DejaVuSans-70" d="M 1159 525 
L 1159 -1331 
L 581 -1331 
L 581 3500 
L 1159 3500 
L 1159 2969 
Q 1341 3281 1617 3432 
Q 1894 3584 2278 3584 
Q 2916 3584 3314 3078 
Q 3713 2572 3713 1747 
Q 3713 922 3314 415 
Q 2916 -91 2278 -91 
Q 1894 -91 1617 61 
Q 1341 213 1159 525 
z
M 3116 1747 
Q 3116 2381 2855 2742 
Q 2594 3103 2138 3103 
Q 1681 3103 1420 2742 
Q 1159 2381 1159 1747 
Q 1159 1113 1420 752 
Q 1681 391 2138 391 
Q 2594 391 2855 752 
Q 3116 1113 3116 1747 
z
" transform="scale(0.015625)"/>
     </defs>
     <use xlink:href="#DejaVuSans-6f"/>
     <use xlink:href="#DejaVuSans-76" transform="translate(61.181641 0)"/>
     <use xlink:href="#DejaVuSans-65" transform="translate(120.361328 0)"/>
     <use xlink:href="#DejaVuSans-72" transform="translate(181.884766 0)"/>
     <use xlink:href="#DejaVuSans-6c" transform="translate(222.998047 0)"/>
     <use xlink:href="#DejaVuSans-61" transform="translate(250.78125 0)"/>
     <use xlink:href="#DejaVuSans-70" transform="translate(312.060547 0)"/>
    </g>
   </g>
  </g>
 </g>
 <defs>
  <clipPath id="pa084334f6a">
   <rect x="57.6" y="41.472" width="357.12" height="266.112"/>
  </clipPath>
 </defs>
</svg>
